M48
;Layer_Color=9474304
;FILE_FORMAT=2:4
INCH,LZ
;TYPE=PLATED
T1F00S00C0.0118
T2F00S00C0.0157
T5F00S00C0.0354
T6F00S00C0.0360
T7F00S00C0.0394
T8F00S00C0.0433
T10F00S00C0.0512
T11F00S00C0.1181
T12F00S00C0.1339
;TYPE=NON_PLATED
T13F00S00C0.0315
%
T01
X03725Y0152
X05365Y01485
X0556Y0152
X05945
X054328Y0186
X05455Y0189
X054808Y019258
X05515Y01955
X05545Y01985
X05575Y02015
X05605Y02045
X0564Y0207
X0573Y02335
X05735Y02505
X05705Y0253
X0568Y02555
X0565Y025778
X0562Y026044
X055911Y026261
X05519Y02778
X0547Y0282
X05445Y0285
X054084Y028544
X05321Y0283
X051808Y02895
X05045Y029288
X050439Y029639
X05045Y03005
X05155Y03065
X055658Y029702
X05765Y03065
X04835Y0202
X048Y020444
X0476Y020672
X0472Y0209
X04845Y0184
X0509Y01735
X0466Y018028
X04625Y0178
X04565Y0168
X04287Y01678
X04195Y01647
X0402Y01605
X03845Y0161
X0387Y0168
X03763Y01642
X03725Y01775
X03761Y01873
X039461Y017739
X04115Y018
X0425Y0184
X0438Y01865
X045758Y02185
X0461Y0216
X04645Y021372
X0468Y0211
X0465Y02335
X046Y023591
X045379Y023828
X04555Y0283
X044937Y028962
X04555Y03065
X04625
X04673Y03106
X04105Y03065
X0425Y0265
X04459Y03165
X04385Y03425
X04618
X04555Y0359
X045546Y036374
X04589Y03787
X0467Y0371
X04524Y04127
X04355Y041962
X0431Y0417
X039071Y042188
X0382Y0426
X0376Y04295
X037862Y04195
X037338Y044009
X0371Y0445
X03685Y045
X03655Y0455
X0363Y046
X036014Y046509
X034771Y0468
X0334Y0461
X040523Y046418
X040248Y046694
X040799
X041074Y046418
X04135Y046694
X045659Y046509
X045641Y046009
X045659Y045509
X045641Y045009
Y044509
X0456Y044
X04104Y03784
X03855Y03635
X03865Y0359
X03721Y03251
X03662Y03165
X05138Y03425
X053252Y035902
X0559Y03721
X05587Y03809
X05704Y0381
X05645Y03685
X05565Y03165
X05875Y03167
X06033Y04338
X06061Y04364
X0542Y0426
X05415Y04126
X049206Y041256
X04921Y03981
X04966
X0509Y0454
X04566Y047518
X045661Y048009
X045611Y048509
Y049009
X04561Y04955
X04135Y047245
X040799
X041074Y04697
X040523
X040248Y047245
X040523Y047521
X041074
X035538Y0475
X035776Y047009
X0353Y048
X035009Y048509
X0344Y0484
X033379Y048471
X03555Y049
T02
X034Y013
X043
X044
X0435Y014
X053Y013
X054
X055
X056
X059
X06
X061
X0605Y014
X0575Y016
Y018
X0525
X0515
X052Y019
X053
X0525Y02
Y022
X0515
X053Y023
X0525Y026
X053Y029
X059Y027
X0575Y024
X0565
X06Y031
X053Y017
X052
X051
X05
X04845Y0164
X048074
X047Y017
Y019
X0515Y016
X0525
X046Y017
X0435Y016
X043Y019
Y023
X044
X045
X042
X041
X04
X041Y025
X042
X0415Y026
X0405
X041Y027
X042
X0425Y028
X0415
X0405
X0395
X0385
X039Y027
X04
Y029
X041
X042
X0405Y03
X0355
Y026
X038Y027
X0435Y026
X0445
X046Y027
X045Y033
X0425Y034
X0395
X0385
X04Y033
X0405Y038
Y042
X0415
X0425
Y044
X0435
X044Y045
X043
X042
X041
X04
X039
X0395Y046
X0405
X0415
X0425
X0435
X0415Y044
X0405
X038Y043
X0385Y046
X0485Y044
X0495
X0505
X0515
X05Y045
X0555Y046
X0565
X0575
X0585
X059Y045
X053Y041
Y039
X0495Y038
X0485
X05Y035
X055
X056
X05515Y0359
X0535Y032
X0525
X0575
X0475
X0485Y05
X0575
X058Y049
X057
Y047
X056
X059
X044
X043
X042
X0425Y048
X0435
X044Y049
X043
X042
X041
X04
X039
X0395Y05
X0405
X0415
X0425
X0435
X0465
X0415Y048
X0405
X0395
X0385
X039Y047
X0365Y05
T05
X03585Y0141
X03685
X03785
X03885
X03985
X04085
X04185
X04285
T06
X038713Y0187
X0415
T07
X05164Y013597
X05264
X05364
X05464
X05641
X05741
X05841
X05941
X040007Y02455
T08
X0332Y01405
X0342
Y01505
X0332
X04472Y01406
X04572
X04672
X04772
X04872
X04972
X0611Y01405
X0621
Y01505
X0611
Y01605
X0621
Y01705
Y01805
Y01905
Y02005
Y02105
Y02205
Y02305
Y02405
Y02505
X0611
Y02605
X0621
Y02705
Y02805
Y02905
X0611
Y03005
Y03105
X0621
Y03005
X0611Y02805
Y02705
Y02405
Y02305
Y02205
Y02105
Y02005
Y01905
Y01805
Y01705
X058895Y021252
Y022252
Y023252
Y024252
X0363Y02475
Y02375
Y02275
Y02175
Y02075
Y01975
Y01875
Y01775
X0342Y01805
Y01905
Y02005
Y02105
Y02205
Y02305
Y02405
Y02505
X0332
Y02605
X0342
Y02705
Y02805
Y02905
X0332
Y03005
Y03105
X0342
Y03005
X0332Y02805
Y02705
Y02405
Y02305
Y02205
Y02105
Y02005
Y01905
Y01805
Y01705
X0342
Y01605
X0332
X0363Y02575
Y02675
Y02775
X0342Y03205
Y03305
X0332
Y03405
Y03505
Y03605
X0342
Y03705
Y03805
X0332
Y03905
Y04005
X0342
Y04105
X0332
Y04205
Y04305
Y04405
X0342
Y04505
X0332
X0342Y04305
Y04205
Y03905
X0332Y03705
X0342Y03505
Y03405
X0332Y03205
X0611
Y03305
X0621
Y03405
Y03505
Y03605
X0611
Y03705
Y03805
X0621
Y03905
Y04005
Y04105
X0611
Y04005
Y03905
Y04205
Y04305
Y04405
X0621
Y04505
X0611
X0621Y04305
Y04205
Y03705
X0611Y03505
Y03405
X0621Y03205
X05025Y0485
Y0495
X04925
Y0485
X04825
X04725
Y0495
X04825
T10
X043Y02455
T11
X032Y01238
X06326
Y049538
X032
T12
X059139Y01612
Y029372
X0363
Y01612
T13
X052926Y04885
X054894
M30
