M48
;Layer_Color=9474304
;FILE_FORMAT=2:5
INCH,LZ
;TYPE=PLATED
T1F00S00C0.01181
T2F00S00C0.01575
T4F00S00C0.03150
T6F00S00C0.03937
T7F00S00C0.04500
T8F00S00C0.04724
T10F00S00C0.06299
;TYPE=NON_PLATED
T11F00S00C0.03150
T12F00S00C0.04331
%
T01
X06034Y03034
X06061Y03008
X06116
X0609Y03035
X06144
Y0309012
X0609
X06116Y0306312
X06061
X06034Y0308912
X06061Y0311824
X06116
T02
X06538Y02697
X06454Y02861
X05615Y02801
X0561506Y0275894
X05557Y0268775
X0513
X0512913Y0284113
X04708Y03121
X04678Y03017
X04582Y03053
X0449939Y0308061
X04582Y03164
X04529Y03374
X04466Y0336
X04459Y03319
X04216Y03557
X04213Y03986
X04215Y04447
X04275Y04586
X0439926Y0451661
X04826Y04235
X04796Y042
X04842Y04166
X04877Y0413525
X04919Y04102
X04921Y0429125
X04876Y04261
X04976Y04327
X05245Y04153
X0544Y04188
X05585Y04091
X05642Y04061
X05647Y03908
X0565017Y0386783
X05647Y03824
X05699Y03814
X0559867Y0390033
X05537Y03899
X05623Y03652
X05637Y03606
X05778Y03575
X05463Y03546
X0534325Y03473
X05484Y03344
X0557037Y0338163
X05606Y03211
X0611488Y0385524
X06234Y03987
X0612Y04208
X06241Y04348
X0611488Y0455024
X06243Y04676
X05541Y04588
X05479Y0457
X05518Y04519
X05574Y04429
X04754Y04035
X04915Y04865
X0611488Y0483024
X06068Y04969
X04215Y04905
X03945Y0472
T04
X0409452Y02759
X0417326
X04252
X04253Y02895
X0417426
X0409552
T06
X0317Y02995
X0354084Y02759
X0364084
X0374084
X0297Y03085
X0360917Y0337929
Y0356039
Y0381929
Y0400039
Y0426429
Y0444539
X04629Y03924
Y03824
Y03724
Y03624
X0360917Y0471929
Y0490039
T07
X04381Y03527
Y03627
Y03727
Y03827
Y03927
Y04027
Y04127
Y04227
T08
X0288083Y0356039
Y0400039
Y0444539
X0315642
Y0400039
Y0356039
Y0490039
X0288083
T10
X0275386Y02935
Y03085
X02755Y03406
Y03556
X0274886Y03845
Y03995
Y04285
Y04435
Y04735
Y04885
T11
X0445215Y02844
X04649
T12
X02838Y03697
X02839Y04597
X06546Y03591
X0501Y04984
M30
