G04*
G04 #@! TF.GenerationSoftware,Altium Limited,Altium Designer,23.6.0 (18)*
G04*
G04 Layer_Color=32896*
%FSTAX25Y25*%
%MOIN*%
G70*
G04*
G04 #@! TF.SameCoordinates,CC084146-259E-454A-B071-9D7E5FCC62AE*
G04*
G04*
G04 #@! TF.FilePolarity,Positive*
G04*
G01*
G75*
%ADD103C,0.00100*%
D103*
X02639Y00702D02*
X03892D01*
X02639Y00701D02*
X03892D01*
X02639Y007D02*
X03892D01*
X02639Y00699D02*
X03892D01*
X02639Y00698D02*
X03892D01*
X02639Y00697D02*
X03892D01*
X02639Y00696D02*
X03892D01*
X02639Y00695D02*
X03892D01*
X02639Y00694D02*
X03892D01*
X02639Y00693D02*
X03892D01*
X02639Y00692D02*
X03892D01*
X02639Y00691D02*
X03892D01*
X02639Y0069D02*
X03892D01*
X02639Y00689D02*
X03892D01*
X02639Y00688D02*
X03892D01*
X02639Y00687D02*
X03892D01*
X02639Y00686D02*
X03892D01*
X02639Y00685D02*
X03892D01*
X02639Y00684D02*
X03892D01*
X02639Y00683D02*
X03892D01*
X02639Y00682D02*
X03892D01*
X02639Y00681D02*
X03892D01*
X02639Y0068D02*
X03892D01*
X02639Y00679D02*
X03892D01*
X02639Y00678D02*
X03892D01*
X02639Y00677D02*
X03892D01*
X02639Y00676D02*
X03892D01*
X02639Y00675D02*
X03892D01*
X02639Y00674D02*
X03892D01*
X02639Y00673D02*
X03892D01*
X02639Y00672D02*
X03892D01*
X02639Y00671D02*
X03892D01*
X02639Y0067D02*
X03892D01*
X02639Y00669D02*
X03892D01*
X02639Y00668D02*
X03892D01*
X02639Y00667D02*
X03892D01*
X02639Y00666D02*
X03892D01*
X02639Y00665D02*
X03892D01*
X02639Y00664D02*
X03892D01*
X02639Y00663D02*
X03892D01*
X02639Y00662D02*
X03892D01*
X02639Y00661D02*
X03892D01*
X02639Y0066D02*
X03892D01*
X02639Y00659D02*
X03892D01*
X03645Y00658D02*
X03892D01*
X02639D02*
X0364D01*
X03647Y00657D02*
X03892D01*
X02639D02*
X03638D01*
X03649Y00656D02*
X03892D01*
X02639D02*
X03636D01*
X03651Y00655D02*
X03892D01*
X02639D02*
X03635D01*
X03652Y00654D02*
X03892D01*
X03639D02*
X03645D01*
X02639D02*
X03634D01*
X03653Y00653D02*
X03892D01*
X03638D02*
X03647D01*
X02639D02*
X03632D01*
X03657Y00652D02*
X03892D01*
X03637D02*
X03649D01*
X02639D02*
X03628D01*
X03658Y00651D02*
X03892D01*
X03634D02*
X03652D01*
X02639D02*
X03628D01*
X0366Y0065D02*
X03892D01*
X03632D02*
X03653D01*
X02639D02*
X03626D01*
X03661Y00649D02*
X03892D01*
X0363D02*
X03655D01*
X02639D02*
X03624D01*
X03662Y00648D02*
X03892D01*
X03629D02*
X03656D01*
X02639D02*
X03623D01*
X03664Y00647D02*
X03892D01*
X03627D02*
X03658D01*
X02639D02*
X03621D01*
X03666Y00646D02*
X03892D01*
X03626D02*
X0366D01*
X02639D02*
X0362D01*
X03668Y00645D02*
X03892D01*
X03624D02*
X0366D01*
X02639D02*
X03618D01*
X0367Y00644D02*
X03892D01*
X03622D02*
X03662D01*
X02639D02*
X03615D01*
X03672Y00643D02*
X03892D01*
X0362D02*
X03666D01*
X02639D02*
X03613D01*
X03674Y00642D02*
X03892D01*
X03618D02*
X03667D01*
X02639D02*
X03612D01*
X03675Y00641D02*
X03892D01*
X03616D02*
X03669D01*
X02639D02*
X03611D01*
X03677Y0064D02*
X03892D01*
X03615D02*
X0367D01*
X02639D02*
X03609D01*
X03678Y00639D02*
X03892D01*
X03613D02*
X03672D01*
X02639D02*
X03607D01*
X0368Y00638D02*
X03892D01*
X03612D02*
X03673D01*
X02639D02*
X03605D01*
X03681Y00637D02*
X03892D01*
X03611D02*
X03675D01*
X02639D02*
X03604D01*
X03685Y00636D02*
X03892D01*
X03609D02*
X03677D01*
X02639D02*
X03601D01*
X03685Y00635D02*
X03892D01*
X03605D02*
X0368D01*
X02639D02*
X036D01*
X03687Y00634D02*
X03892D01*
X03604D02*
X03681D01*
X02639D02*
X03598D01*
X03689Y00633D02*
X03892D01*
X03603D02*
X03683D01*
X02639D02*
X03596D01*
X03691Y00632D02*
X03892D01*
X03601D02*
X03685D01*
X02639D02*
X03595D01*
X03692Y00631D02*
X03892D01*
X03599D02*
X03686D01*
X02639D02*
X03594D01*
X03693Y0063D02*
X03892D01*
X03598D02*
X03687D01*
X02639D02*
X03592D01*
X03695Y00629D02*
X03892D01*
X03596D02*
X03689D01*
X02639D02*
X0359D01*
X03698Y00628D02*
X03892D01*
X03595D02*
X03691D01*
X02639D02*
X03587D01*
X037Y00627D02*
X03892D01*
X03592D02*
X03693D01*
X02639D02*
X03586D01*
X03701Y00626D02*
X03892D01*
X0359D02*
X03695D01*
X02639D02*
X03585D01*
X03702Y00625D02*
X03892D01*
X03588D02*
X03697D01*
X02639D02*
X03584D01*
X03702Y00624D02*
X03892D01*
X03587D02*
X03698D01*
X02639D02*
X03583D01*
X03703Y00623D02*
X03892D01*
X03586D02*
X037D01*
X02639D02*
X03582D01*
X03704Y00622D02*
X03892D01*
X03585D02*
X03701D01*
X02639D02*
X03581D01*
X03704Y00621D02*
X03892D01*
X03585D02*
X03701D01*
X02639D02*
X03581D01*
X03704Y0062D02*
X03892D01*
X03585D02*
X03701D01*
X02639D02*
X03581D01*
X03705Y00619D02*
X03892D01*
X03585D02*
X03701D01*
X02639D02*
X0358D01*
X03705Y00618D02*
X03892D01*
X03585D02*
X03701D01*
X02639D02*
X0358D01*
X03705Y00617D02*
X03892D01*
X03585D02*
X03701D01*
X02639D02*
X0358D01*
X03705Y00616D02*
X03892D01*
X03585D02*
X03701D01*
X02639D02*
X0358D01*
X03705Y00615D02*
X03892D01*
X03585D02*
X03701D01*
X02639D02*
X0358D01*
X03705Y00614D02*
X03892D01*
X03585D02*
X03701D01*
X02639D02*
X0358D01*
X03705Y00613D02*
X03892D01*
X03585D02*
X03701D01*
X02639D02*
X0358D01*
X03705Y00612D02*
X03892D01*
X03585D02*
X03701D01*
X02639D02*
X0358D01*
X03705Y00611D02*
X03892D01*
X03585D02*
X03701D01*
X02639D02*
X0358D01*
X03705Y0061D02*
X03892D01*
X03585D02*
X03701D01*
X03376D02*
X0358D01*
X02639D02*
X0337D01*
X03705Y00609D02*
X03892D01*
X03585D02*
X03701D01*
X03375D02*
X0358D01*
X0298D02*
X03369D01*
X02639D02*
X02974D01*
X03705Y00608D02*
X03892D01*
X03585D02*
X03701D01*
X03374D02*
X0358D01*
X02981D02*
X03368D01*
X02639D02*
X02975D01*
X03705Y00607D02*
X03892D01*
X03585D02*
X03701D01*
X03373D02*
X0358D01*
X02981D02*
X03367D01*
X02639D02*
X02976D01*
X03705Y00606D02*
X03892D01*
X03585D02*
X03701D01*
X03372D02*
X0358D01*
X02981D02*
X03367D01*
X02639D02*
X02977D01*
X03705Y00605D02*
X03892D01*
X03585D02*
X03701D01*
X0337D02*
X0358D01*
X02982D02*
X03366D01*
X02639D02*
X02978D01*
X03705Y00604D02*
X03892D01*
X03585D02*
X03701D01*
X03369D02*
X0358D01*
X02982D02*
X03365D01*
X02639D02*
X02979D01*
X03705Y00603D02*
X03892D01*
X03585D02*
X03701D01*
X02639D02*
X0358D01*
X03705Y00602D02*
X03892D01*
X03585D02*
X03701D01*
X03395D02*
X0358D01*
X03353D02*
X03389D01*
X02639D02*
X03347D01*
X03705Y00601D02*
X03892D01*
X03585D02*
X03701D01*
X03395D02*
X0358D01*
X03353D02*
X03389D01*
X02639D02*
X03347D01*
X03705Y006D02*
X03892D01*
X03585D02*
X03701D01*
X03395D02*
X0358D01*
X03372D02*
X03389D01*
X03353D02*
X03365D01*
X03295D02*
X03347D01*
X03107D02*
X03287D01*
X03069D02*
X03101D01*
X02946D02*
X03061D01*
X02788D02*
X02939D01*
X02639D02*
X0278D01*
X03705Y00599D02*
X03892D01*
X03585D02*
X03701D01*
X03498D02*
X0358D01*
X03465D02*
X0347D01*
X03428D02*
X03443D01*
X03406D02*
X03421D01*
X03396D02*
X034D01*
X03376D02*
X03389D01*
X03353D02*
X03361D01*
X03343D02*
X03347D01*
X03321D02*
X03336D01*
X03298D02*
X03316D01*
X03254D02*
X03283D01*
X0321D02*
X03235D01*
X03184D02*
X03201D01*
X03156D02*
X03178D01*
X03135D02*
X0315D01*
X03111D02*
X03128D01*
X03072D02*
X03097D01*
X0303D02*
X03058D01*
X02984D02*
X03008D01*
X0295D02*
X02977D01*
X02922D02*
X02936D01*
X029D02*
X02915D01*
X02872D02*
X02894D01*
X0285D02*
X02865D01*
X02836D02*
X02843D01*
X02814D02*
X02829D01*
X02791D02*
X02808D01*
X02751D02*
X02777D01*
X02639D02*
X02743D01*
X03705Y00598D02*
X03892D01*
X03585D02*
X03701D01*
X03498D02*
X0358D01*
X03465D02*
X0347D01*
X03428D02*
X0344D01*
X03406D02*
X03421D01*
X03396D02*
X034D01*
X03378D02*
X0339D01*
X03354D02*
X03359D01*
X03343D02*
X03348D01*
X03321D02*
X03336D01*
X033D02*
X03316D01*
X03254D02*
X03281D01*
X0321D02*
X03232D01*
X03184D02*
X032D01*
X03156D02*
X03178D01*
X03135D02*
X0315D01*
X03113D02*
X03128D01*
X03074D02*
X03095D01*
X0303D02*
X03057D01*
X02984D02*
X03006D01*
X02951D02*
X02976D01*
X02922D02*
X02934D01*
X029D02*
X02915D01*
X02872D02*
X02894D01*
X02851D02*
X02865D01*
X02836D02*
X02844D01*
X02814D02*
X02829D01*
X02793D02*
X02808D01*
X02751D02*
X02775D01*
X02639D02*
X02743D01*
X03705Y00597D02*
X03892D01*
X03585D02*
X03701D01*
X03498D02*
X0358D01*
X03465D02*
X0347D01*
X03428D02*
X03439D01*
X03406D02*
X03421D01*
X03396D02*
X034D01*
X03379D02*
X0339D01*
X03354D02*
X03358D01*
X03343D02*
X03348D01*
X03321D02*
X03335D01*
X03302D02*
X03316D01*
X03254D02*
X0328D01*
X0321D02*
X03231D01*
X03184D02*
X032D01*
X03156D02*
X03178D01*
X03135D02*
X0315D01*
X03114D02*
X03128D01*
X03075D02*
X03093D01*
X0303D02*
X03055D01*
X02985D02*
X03005D01*
X02953D02*
X02976D01*
X02922D02*
X02933D01*
X029D02*
X02915D01*
X02872D02*
X02894D01*
X02852D02*
X02865D01*
X02836D02*
X02845D01*
X02814D02*
X02829D01*
X02795D02*
X02808D01*
X02751D02*
X02774D01*
X02639D02*
X02742D01*
X03705Y00596D02*
X03892D01*
X03585D02*
X03701D01*
X03498D02*
X0358D01*
X03465D02*
X0347D01*
X03428D02*
X03438D01*
X03406D02*
X03421D01*
X03397D02*
X034D01*
X0338D02*
X03391D01*
X03355D02*
X03357D01*
X03343D02*
X03349D01*
X03321D02*
X03335D01*
X03303D02*
X03316D01*
X03254D02*
X03279D01*
X03211D02*
X0323D01*
X03184D02*
X03199D01*
X03156D02*
X03178D01*
X03135D02*
X0315D01*
X03116D02*
X03128D01*
X03076D02*
X03092D01*
X0303D02*
X03054D01*
X02985D02*
X03004D01*
X02954D02*
X02975D01*
X02922D02*
X02932D01*
X029D02*
X02915D01*
X02872D02*
X02894D01*
X02853D02*
X02865D01*
X02836D02*
X02845D01*
X02814D02*
X02829D01*
X02796D02*
X02808D01*
X02752D02*
X02772D01*
X02639D02*
X02742D01*
X03705Y00595D02*
X03892D01*
X03585D02*
X03701D01*
X03498D02*
X0358D01*
X03465D02*
X0347D01*
X03428D02*
X03438D01*
X03406D02*
X03421D01*
X03381D02*
X03392D01*
X03343D02*
X03349D01*
X03321D02*
X03334D01*
X03304D02*
X03316D01*
X03289D02*
X03293D01*
X03254D02*
X03278D01*
X03211D02*
X03229D01*
X03204D02*
X03206D01*
X03184D02*
X03199D01*
X03156D02*
X03178D01*
X03135D02*
X0315D01*
X03116D02*
X03128D01*
X03077D02*
X03091D01*
X03063D02*
X03068D01*
X0303D02*
X03053D01*
X02985D02*
X03004D01*
X02955D02*
X02975D01*
X02941D02*
X02945D01*
X02922D02*
X02931D01*
X029D02*
X02915D01*
X02872D02*
X02894D01*
X02854D02*
X02865D01*
X02836D02*
X02846D01*
X02814D02*
X02829D01*
X02797D02*
X02808D01*
X02782D02*
X02786D01*
X02752D02*
X02771D01*
X02639D02*
X02742D01*
X03705Y00594D02*
X03892D01*
X03585D02*
X03701D01*
X03487D02*
X0358D01*
X03465D02*
X03481D01*
X03445D02*
X03458D01*
X03428D02*
X03437D01*
X03406D02*
X03421D01*
X03382D02*
X03393D01*
X03364D02*
X03373D01*
X03343D02*
X0335D01*
X03321D02*
X03333D01*
X03304D02*
X03316D01*
X03286D02*
X03296D01*
X03254D02*
X03278D01*
X03237D02*
X03248D01*
X03211D02*
X03228D01*
X03204D02*
X03206D01*
X03184D02*
X03199D01*
X03156D02*
X03178D01*
X03135D02*
X0315D01*
X03117D02*
X03128D01*
X03099D02*
X03109D01*
X03078D02*
X0309D01*
X03061D02*
X0307D01*
X0303D02*
X03053D01*
X03011D02*
X03024D01*
X02986D02*
X03003D01*
X02955D02*
X02975D01*
X02938D02*
X02948D01*
X02922D02*
X0293D01*
X029D02*
X02915D01*
X02872D02*
X02894D01*
X02855D02*
X02865D01*
X02836D02*
X02847D01*
X02814D02*
X02829D01*
X02797D02*
X02808D01*
X02779D02*
X02789D01*
X02753D02*
X02771D01*
X02639D02*
X02741D01*
X03705Y00593D02*
X03892D01*
X03585D02*
X03701D01*
X03487D02*
X0358D01*
X03465D02*
X03481D01*
X03444D02*
X03458D01*
X03428D02*
X03437D01*
X03406D02*
X03421D01*
X03383D02*
X03395D01*
X03362D02*
X03375D01*
X03343D02*
X03352D01*
X03321D02*
X03333D01*
X03305D02*
X03316D01*
X03284D02*
X03298D01*
X03254D02*
X03277D01*
X03235D02*
X03248D01*
X03212D02*
X03227D01*
X03204D02*
X03206D01*
X03184D02*
X03198D01*
X03156D02*
X03178D01*
X03135D02*
X0315D01*
X03118D02*
X03128D01*
X03098D02*
X0311D01*
X03078D02*
X0309D01*
X03059D02*
X03071D01*
X0303D02*
X03052D01*
X03009D02*
X03024D01*
X02986D02*
X03003D01*
X02956D02*
X02974D01*
X02937D02*
X02949D01*
X02922D02*
X0293D01*
X029D02*
X02915D01*
X02872D02*
X02894D01*
X02856D02*
X02865D01*
X02836D02*
X02848D01*
X02814D02*
X02829D01*
X02798D02*
X02808D01*
X02777D02*
X02791D01*
X02753D02*
X0277D01*
X02639D02*
X02741D01*
X03705Y00592D02*
X03892D01*
X03585D02*
X03701D01*
X03487D02*
X0358D01*
X03465D02*
X03481D01*
X03443D02*
X03458D01*
X03428D02*
X03437D01*
X03406D02*
X03421D01*
X03383D02*
X03397D01*
X03361D02*
X03376D01*
X03343D02*
X03353D01*
X03321D02*
X03332D01*
X03306D02*
X03316D01*
X03284D02*
X03299D01*
X03254D02*
X03277D01*
X03234D02*
X03248D01*
X03212D02*
X03227D01*
X03204D02*
X03206D01*
X03184D02*
X03198D01*
X03156D02*
X03178D01*
X03135D02*
X0315D01*
X03118D02*
X03128D01*
X03097D02*
X03111D01*
X03079D02*
X03089D01*
X03059D02*
X03072D01*
X0303D02*
X03052D01*
X03009D02*
X03024D01*
X02987D02*
X03003D01*
X0298D02*
X02981D01*
X02957D02*
X02974D01*
X02936D02*
X0295D01*
X02922D02*
X02929D01*
X029D02*
X02915D01*
X02872D02*
X02894D01*
X02857D02*
X02865D01*
X02836D02*
X02849D01*
X02814D02*
X02829D01*
X02799D02*
X02808D01*
X02776D02*
X02792D01*
X02753D02*
X02769D01*
X02746D02*
X02748D01*
X02639D02*
X0274D01*
X03705Y00591D02*
X03892D01*
X03585D02*
X03701D01*
X03487D02*
X0358D01*
X03465D02*
X03481D01*
X03443D02*
X03458D01*
X03428D02*
X03436D01*
X03406D02*
X03421D01*
X03384D02*
X034D01*
X03361D02*
X03376D01*
X03343D02*
X03354D01*
X03321D02*
X03332D01*
X03306D02*
X03316D01*
X03283D02*
X033D01*
X03254D02*
X03276D01*
X03233D02*
X03248D01*
X03212D02*
X03227D01*
X03203D02*
X03207D01*
X03184D02*
X03198D01*
X03156D02*
X03178D01*
X03135D02*
X0315D01*
X03119D02*
X03128D01*
X03096D02*
X03112D01*
X03079D02*
X03089D01*
X03058D02*
X03073D01*
X0303D02*
X03051D01*
X03009D02*
X03024D01*
X02987D02*
X03003D01*
X02979D02*
X02981D01*
X02957D02*
X02973D01*
X02936D02*
X02951D01*
X02922D02*
X02929D01*
X029D02*
X02915D01*
X02872D02*
X02894D01*
X02858D02*
X02865D01*
X02836D02*
X0285D01*
X02814D02*
X02829D01*
X02799D02*
X02808D01*
X02776D02*
X02792D01*
X02754D02*
X02769D01*
X02746D02*
X02748D01*
X02639D02*
X0274D01*
X03705Y0059D02*
X03892D01*
X03585D02*
X03701D01*
X03487D02*
X0358D01*
X03465D02*
X03481D01*
X03443D02*
X03458D01*
X03428D02*
X03436D01*
X03406D02*
X03421D01*
X03384D02*
X034D01*
X0336D02*
X03377D01*
X03343D02*
X03353D01*
X03321D02*
X03331D01*
X03307D02*
X03316D01*
X03283D02*
X033D01*
X03254D02*
X03281D01*
X03233D02*
X03248D01*
X03213D02*
X03226D01*
X03203D02*
X03207D01*
X03184D02*
X03197D01*
X03156D02*
X03178D01*
X03135D02*
X0315D01*
X03119D02*
X03128D01*
X03096D02*
X03112D01*
X0308D02*
X03089D01*
X03058D02*
X03074D01*
X0303D02*
X03055D01*
X03009D02*
X03024D01*
X02987D02*
X03003D01*
X02979D02*
X02982D01*
X02958D02*
X02973D01*
X02935D02*
X02951D01*
X02922D02*
X02932D01*
X029D02*
X02915D01*
X02872D02*
X02894D01*
X02859D02*
X02865D01*
X02836D02*
X02851D01*
X02814D02*
X02829D01*
X028D02*
X02808D01*
X02775D02*
X02793D01*
X02754D02*
X02769D01*
X02746D02*
X02748D01*
X02639D02*
X0274D01*
X03705Y00589D02*
X03892D01*
X03585D02*
X03701D01*
X03487D02*
X0358D01*
X03465D02*
X03481D01*
X03443D02*
X03458D01*
X03428D02*
X03436D01*
X03406D02*
X03421D01*
X03384D02*
X034D01*
X0336D02*
X03377D01*
X03343D02*
X03353D01*
X03321D02*
X0333D01*
X03307D02*
X03316D01*
X03254D02*
X03301D01*
X03232D02*
X03248D01*
X03213D02*
X03226D01*
X03203D02*
X03207D01*
X03184D02*
X03197D01*
X03156D02*
X03178D01*
X03135D02*
X0315D01*
X03119D02*
X03128D01*
X03095D02*
X03112D01*
X0308D02*
X03088D01*
X0303D02*
X03074D01*
X03009D02*
X03024D01*
X02988D02*
X03003D01*
X02979D02*
X02982D01*
X02958D02*
X02973D01*
X02922D02*
X02952D01*
X029D02*
X02915D01*
X02872D02*
X02894D01*
X0286D02*
X02865D01*
X02836D02*
X02852D01*
X02814D02*
X02829D01*
X028D02*
X02808D01*
X02775D02*
X02793D01*
X02755D02*
X02768D01*
X02745D02*
X02749D01*
X02639D02*
X02739D01*
X03705Y00588D02*
X03892D01*
X03585D02*
X03701D01*
X03487D02*
X0358D01*
X03465D02*
X03481D01*
X03443D02*
X03458D01*
X03428D02*
X03437D01*
X03406D02*
X03421D01*
X03384D02*
X034D01*
X0336D02*
X03378D01*
X03343D02*
X03353D01*
X03336D02*
X03337D01*
X03321D02*
X0333D01*
X03307D02*
X03316D01*
X03254D02*
X03301D01*
X03232D02*
X03248D01*
X03213D02*
X03226D01*
X03202D02*
X03208D01*
X03184D02*
X03197D01*
X03156D02*
X03178D01*
X03135D02*
X0315D01*
X0312D02*
X03128D01*
X03095D02*
X03113D01*
X0308D02*
X03088D01*
X0303D02*
X03074D01*
X03009D02*
X03024D01*
X02988D02*
X03003D01*
X02978D02*
X02982D01*
X02958D02*
X02972D01*
X02922D02*
X02952D01*
X029D02*
X02915D01*
X02872D02*
X02894D01*
X02861D02*
X02865D01*
X02836D02*
X02853D01*
X02814D02*
X02829D01*
X028D02*
X02808D01*
X02774D02*
X02794D01*
X02755D02*
X02768D01*
X02745D02*
X02749D01*
X02639D02*
X02739D01*
X03705Y00587D02*
X03892D01*
X03585D02*
X03701D01*
X03487D02*
X0358D01*
X03465D02*
X03481D01*
X03443D02*
X03458D01*
X03428D02*
X03437D01*
X03406D02*
X03421D01*
X03385D02*
X034D01*
X03359D02*
X03378D01*
X03343D02*
X03352D01*
X03336D02*
X03337D01*
X03321D02*
X03329D01*
X03308D02*
X03316D01*
X03254D02*
X03301D01*
X03232D02*
X03248D01*
X03214D02*
X03225D01*
X03202D02*
X03208D01*
X03184D02*
X03196D01*
X03156D02*
X03178D01*
X03135D02*
X0315D01*
X0312D02*
X03128D01*
X03095D02*
X03113D01*
X03081D02*
X03088D01*
X0303D02*
X03074D01*
X0301D02*
X03024D01*
X02989D02*
X03004D01*
X02978D02*
X02983D01*
X02958D02*
X02972D01*
X02922D02*
X02952D01*
X029D02*
X02915D01*
X02872D02*
X02894D01*
X02862D02*
X02865D01*
X02836D02*
X02854D01*
X02814D02*
X02829D01*
X028D02*
X02808D01*
X02774D02*
X02794D01*
X02755D02*
X02768D01*
X02745D02*
X02749D01*
X02639D02*
X02738D01*
X03705Y00586D02*
X03892D01*
X03585D02*
X03701D01*
X03487D02*
X0358D01*
X03465D02*
X03481D01*
X03444D02*
X03458D01*
X03428D02*
X03437D01*
X03406D02*
X03421D01*
X03385D02*
X034D01*
X03359D02*
X03378D01*
X03343D02*
X03352D01*
X03335D02*
X03337D01*
X03321D02*
X03329D01*
X03308D02*
X03316D01*
X03254D02*
X03301D01*
X03232D02*
X03248D01*
X03214D02*
X03225D01*
X03202D02*
X03208D01*
X03184D02*
X03196D01*
X03156D02*
X03178D01*
X03135D02*
X0315D01*
X0312D02*
X03128D01*
X03095D02*
X03113D01*
X03081D02*
X03088D01*
X0303D02*
X03075D01*
X03011D02*
X03024D01*
X02989D02*
X03005D01*
X02977D02*
X02983D01*
X02959D02*
X02971D01*
X02922D02*
X02952D01*
X029D02*
X02915D01*
X02872D02*
X02894D01*
X02862D02*
X02865D01*
X02836D02*
X02854D01*
X02814D02*
X02829D01*
X02801D02*
X02808D01*
X02774D02*
X02794D01*
X02756D02*
X02768D01*
X02744D02*
X0275D01*
X02639D02*
X02738D01*
X03705Y00585D02*
X03892D01*
X03645D02*
X03701D01*
X03585D02*
X03641D01*
X03487D02*
X0358D01*
X03465D02*
X03481D01*
X03446D02*
X03458D01*
X03428D02*
X03438D01*
X03406D02*
X03421D01*
X03385D02*
X034D01*
X03359D02*
X03378D01*
X03343D02*
X03352D01*
X03334D02*
X03337D01*
X03321D02*
X03328D01*
X03308D02*
X03316D01*
X03254D02*
X03302D01*
X03232D02*
X03248D01*
X03214D02*
X03225D01*
X03201D02*
X03208D01*
X03184D02*
X03196D01*
X03156D02*
X03178D01*
X0312D02*
X03128D01*
X03094D02*
X03113D01*
X03081D02*
X03087D01*
X0303D02*
X03075D01*
X02989D02*
X03006D01*
X02977D02*
X02983D01*
X02959D02*
X02971D01*
X02922D02*
X02952D01*
X02872D02*
X02894D01*
X02863D02*
X02865D01*
X02836D02*
X02854D01*
X02801D02*
X02808D01*
X02774D02*
X02794D01*
X02756D02*
X02767D01*
X02744D02*
X0275D01*
X02639D02*
X02738D01*
X03705Y00584D02*
X03892D01*
X03646D02*
X03701D01*
X03585D02*
X03639D01*
X03487D02*
X0358D01*
X03465D02*
X03481D01*
X03428D02*
X03439D01*
X03406D02*
X03421D01*
X03385D02*
X034D01*
X03359D02*
X03378D01*
X03343D02*
X03352D01*
X03334D02*
X03337D01*
X03321D02*
X03327D01*
X03308D02*
X03316D01*
X03258D02*
X03302D01*
X03232D02*
X0324D01*
X03215D02*
X03225D01*
X03201D02*
X03209D01*
X03184D02*
X03195D01*
X03156D02*
X03178D01*
X0312D02*
X03128D01*
X03094D02*
X03113D01*
X03081D02*
X03087D01*
X0303D02*
X03075D01*
X0299D02*
X03008D01*
X02977D02*
X02984D01*
X02959D02*
X02971D01*
X02922D02*
X02952D01*
X02872D02*
X02894D01*
X02864D02*
X02865D01*
X02836D02*
X02853D01*
X02801D02*
X02808D01*
X02774D02*
X02794D01*
X02757D02*
X02767D01*
X02743D02*
X02751D01*
X02639D02*
X02737D01*
X03705Y00583D02*
X03892D01*
X03647D02*
X03701D01*
X03585D02*
X03637D01*
X03487D02*
X0358D01*
X03465D02*
X03481D01*
X03428D02*
X0344D01*
X03406D02*
X03421D01*
X03385D02*
X034D01*
X03359D02*
X03378D01*
X03343D02*
X03352D01*
X03333D02*
X03337D01*
X03321D02*
X03327D01*
X03308D02*
X03316D01*
X0329D02*
X03302D01*
X03258D02*
X03276D01*
X03231D02*
X0324D01*
X03215D02*
X03225D01*
X03201D02*
X03209D01*
X03184D02*
X03195D01*
X03156D02*
X03178D01*
X0312D02*
X03128D01*
X03094D02*
X03113D01*
X03081D02*
X03087D01*
X0303D02*
X03075D01*
X0299D02*
X03007D01*
X02976D02*
X02984D01*
X02959D02*
X0297D01*
X02922D02*
X02952D01*
X02872D02*
X02894D01*
X02836D02*
X02852D01*
X02801D02*
X02808D01*
X02774D02*
X02794D01*
X02757D02*
X02767D01*
X02743D02*
X02751D01*
X02639D02*
X02737D01*
X03705Y00582D02*
X03892D01*
X03649D02*
X03701D01*
X03585D02*
X03636D01*
X03487D02*
X0358D01*
X03465D02*
X03481D01*
X03428D02*
X03441D01*
X03406D02*
X03421D01*
X03385D02*
X034D01*
X03359D02*
X03378D01*
X03343D02*
X03352D01*
X03333D02*
X03337D01*
X03321D02*
X03326D01*
X03308D02*
X03316D01*
X0329D02*
X03302D01*
X03258D02*
X03276D01*
X03231D02*
X0324D01*
X03215D02*
X03225D01*
X03201D02*
X03209D01*
X03184D02*
X03195D01*
X03156D02*
X03178D01*
X0312D02*
X03128D01*
X03094D02*
X03113D01*
X03081D02*
X03087D01*
X0303D02*
X03075D01*
X02991D02*
X03005D01*
X02976D02*
X02985D01*
X02959D02*
X0297D01*
X02922D02*
X02952D01*
X02872D02*
X02894D01*
X02836D02*
X02852D01*
X02801D02*
X02808D01*
X02774D02*
X02794D01*
X02757D02*
X02767D01*
X02743D02*
X02751D01*
X02639D02*
X02736D01*
X03705Y00581D02*
X03892D01*
X03651D02*
X03701D01*
X03585D02*
X03635D01*
X03487D02*
X0358D01*
X03465D02*
X03481D01*
X03428D02*
X03444D01*
X03406D02*
X03421D01*
X03385D02*
X034D01*
X03359D02*
X03378D01*
X03343D02*
X03352D01*
X03332D02*
X03337D01*
X03321D02*
X03325D01*
X03308D02*
X03316D01*
X0329D02*
X03302D01*
X03258D02*
X03276D01*
X03231D02*
X0324D01*
X03216D02*
X03225D01*
X032D02*
X0321D01*
X03184D02*
X03194D01*
X03156D02*
X03178D01*
X0312D02*
X03128D01*
X03094D02*
X03113D01*
X03081D02*
X03087D01*
X0303D02*
X03075D01*
X02991D02*
X03004D01*
X02976D02*
X02985D01*
X02959D02*
X02969D01*
X02922D02*
X02952D01*
X02872D02*
X02894D01*
X02858D02*
X0286D01*
X02836D02*
X02851D01*
X02801D02*
X02808D01*
X02774D02*
X02794D01*
X02758D02*
X02767D01*
X02742D02*
X02752D01*
X02639D02*
X02736D01*
X03705Y0058D02*
X03892D01*
X03653D02*
X03701D01*
X03585D02*
X03633D01*
X03487D02*
X0358D01*
X03465D02*
X03481D01*
X03428D02*
X03446D01*
X03406D02*
X03421D01*
X03385D02*
X034D01*
X03359D02*
X03378D01*
X03343D02*
X03352D01*
X03331D02*
X03337D01*
X03321D02*
X03325D01*
X03308D02*
X03316D01*
X0329D02*
X03302D01*
X03254D02*
X03276D01*
X03232D02*
X03248D01*
X03216D02*
X03225D01*
X032D02*
X0321D01*
X03184D02*
X03194D01*
X03156D02*
X03178D01*
X03135D02*
X0315D01*
X0312D02*
X03128D01*
X03094D02*
X03113D01*
X03081D02*
X03087D01*
X0303D02*
X03075D01*
X03011D02*
X03024D01*
X02991D02*
X03003D01*
X02975D02*
X02985D01*
X02959D02*
X02969D01*
X02922D02*
X02952D01*
X029D02*
X02915D01*
X02872D02*
X02894D01*
X02857D02*
X02861D01*
X02836D02*
X02851D01*
X02814D02*
X02829D01*
X02801D02*
X02808D01*
X02774D02*
X02794D01*
X02758D02*
X02767D01*
X02742D02*
X02752D01*
X02639D02*
X02736D01*
X03705Y00579D02*
X03892D01*
X03655D02*
X03701D01*
X03585D02*
X0363D01*
X03487D02*
X0358D01*
X03465D02*
X03481D01*
X03451D02*
X03458D01*
X03428D02*
X03445D01*
X03406D02*
X03421D01*
X03385D02*
X034D01*
X03359D02*
X03378D01*
X03343D02*
X03352D01*
X03331D02*
X03337D01*
X03321D02*
X03324D01*
X03308D02*
X03316D01*
X0329D02*
X03301D01*
X03254D02*
X03276D01*
X03232D02*
X03248D01*
X03217D02*
X03225D01*
X032D02*
X0321D01*
X03184D02*
X03193D01*
X03156D02*
X03178D01*
X03135D02*
X0315D01*
X0312D02*
X03128D01*
X03095D02*
X03113D01*
X03081D02*
X03088D01*
X0303D02*
X03074D01*
X03009D02*
X03024D01*
X02992D02*
X03002D01*
X02975D02*
X02986D01*
X02959D02*
X02969D01*
X02922D02*
X02952D01*
X029D02*
X02915D01*
X02872D02*
X02894D01*
X02857D02*
X02862D01*
X02836D02*
X0285D01*
X02814D02*
X02829D01*
X02801D02*
X02808D01*
X02774D02*
X02794D01*
X02758D02*
X02767D01*
X02742D02*
X02752D01*
X02639D02*
X02735D01*
X03705Y00578D02*
X03892D01*
X03657D02*
X03701D01*
X03585D02*
X03628D01*
X03487D02*
X0358D01*
X03465D02*
X03481D01*
X0345D02*
X03458D01*
X03428D02*
X03443D01*
X03406D02*
X03421D01*
X03385D02*
X034D01*
X03359D02*
X03378D01*
X03343D02*
X03352D01*
X0333D02*
X03337D01*
X03321D02*
X03324D01*
X03308D02*
X03316D01*
X03282D02*
X03301D01*
X03254D02*
X03276D01*
X03232D02*
X03248D01*
X03217D02*
X03225D01*
X03184D02*
X03193D01*
X03156D02*
X03178D01*
X03135D02*
X0315D01*
X0312D02*
X03128D01*
X03095D02*
X03113D01*
X03081D02*
X03088D01*
X0303D02*
X03074D01*
X03008D02*
X03024D01*
X02992D02*
X03002D01*
X02959D02*
X02968D01*
X02922D02*
X02952D01*
X029D02*
X02915D01*
X02872D02*
X02894D01*
X02856D02*
X02863D01*
X02836D02*
X02849D01*
X02814D02*
X02829D01*
X028D02*
X02808D01*
X02774D02*
X02794D01*
X02759D02*
X02768D01*
X02639D02*
X02735D01*
X03705Y00577D02*
X03892D01*
X03658D02*
X03701D01*
X03585D02*
X03628D01*
X03487D02*
X0358D01*
X03465D02*
X03481D01*
X03449D02*
X03458D01*
X03428D02*
X03442D01*
X03406D02*
X03421D01*
X03385D02*
X034D01*
X0336D02*
X03378D01*
X03343D02*
X03353D01*
X03329D02*
X03337D01*
X03321D02*
X03323D01*
X03307D02*
X03316D01*
X03282D02*
X03301D01*
X03254D02*
X03276D01*
X03232D02*
X03248D01*
X03217D02*
X03226D01*
X03184D02*
X03193D01*
X03156D02*
X03178D01*
X03135D02*
X0315D01*
X0312D02*
X03128D01*
X03095D02*
X03113D01*
X03081D02*
X03088D01*
X0303D02*
X03074D01*
X03008D02*
X03024D01*
X02992D02*
X03001D01*
X02958D02*
X02968D01*
X02922D02*
X02952D01*
X029D02*
X02915D01*
X02872D02*
X02894D01*
X02856D02*
X02864D01*
X02836D02*
X02849D01*
X02814D02*
X02829D01*
X028D02*
X02808D01*
X02774D02*
X02794D01*
X02759D02*
X02768D01*
X02639D02*
X02734D01*
X03705Y00576D02*
X03892D01*
X0366D02*
X03701D01*
X03585D02*
X03626D01*
X03487D02*
X0358D01*
X03465D02*
X03481D01*
X03449D02*
X03458D01*
X03428D02*
X03441D01*
X03406D02*
X03421D01*
X03384D02*
X034D01*
X0336D02*
X03377D01*
X03343D02*
X03353D01*
X03329D02*
X03337D01*
X03307D02*
X03316D01*
X03282D02*
X03301D01*
X03254D02*
X03276D01*
X03232D02*
X03248D01*
X03218D02*
X03226D01*
X03184D02*
X03192D01*
X03156D02*
X03178D01*
X03135D02*
X0315D01*
X0312D02*
X03128D01*
X03095D02*
X03113D01*
X0308D02*
X03088D01*
X03057D02*
X03074D01*
X0303D02*
X03054D01*
X03007D02*
X03024D01*
X02993D02*
X03001D01*
X02958D02*
X02967D01*
X02935D02*
X02952D01*
X02922D02*
X02932D01*
X029D02*
X02915D01*
X02872D02*
X02894D01*
X02855D02*
X02865D01*
X02836D02*
X02848D01*
X02814D02*
X02829D01*
X028D02*
X02808D01*
X02775D02*
X02793D01*
X0276D02*
X02768D01*
X02639D02*
X02734D01*
X03705Y00575D02*
X03892D01*
X03661D02*
X03701D01*
X03585D02*
X03624D01*
X03487D02*
X0358D01*
X03465D02*
X03481D01*
X03448D02*
X03458D01*
X03428D02*
X0344D01*
X03407D02*
X03421D01*
X03384D02*
X034D01*
X0336D02*
X03377D01*
X03343D02*
X03353D01*
X03328D02*
X03337D01*
X03307D02*
X03316D01*
X03282D02*
X033D01*
X03254D02*
X03276D01*
X03232D02*
X03248D01*
X03218D02*
X03226D01*
X03184D02*
X03192D01*
X03156D02*
X03178D01*
X03135D02*
X0315D01*
X03119D02*
X03128D01*
X03095D02*
X03112D01*
X0308D02*
X03088D01*
X03058D02*
X03074D01*
X0303D02*
X03051D01*
X03007D02*
X03024D01*
X02993D02*
X03001D01*
X02958D02*
X02967D01*
X02936D02*
X02951D01*
X02922D02*
X02929D01*
X029D02*
X02915D01*
X02872D02*
X02894D01*
X02854D02*
X02865D01*
X02836D02*
X02847D01*
X02814D02*
X02829D01*
X028D02*
X02808D01*
X02775D02*
X02793D01*
X0276D02*
X02768D01*
X02639D02*
X02734D01*
X03705Y00574D02*
X03892D01*
X03663D02*
X03701D01*
X03585D02*
X03622D01*
X03487D02*
X0358D01*
X03465D02*
X03481D01*
X03447D02*
X03458D01*
X03428D02*
X0344D01*
X03407D02*
X03421D01*
X03384D02*
X034D01*
X03361D02*
X03376D01*
X03343D02*
X03354D01*
X03328D02*
X03337D01*
X03306D02*
X03316D01*
X03282D02*
X033D01*
X03254D02*
X03276D01*
X03233D02*
X03248D01*
X03218D02*
X03226D01*
X03184D02*
X03192D01*
X03156D02*
X03178D01*
X03135D02*
X0315D01*
X03119D02*
X03128D01*
X03096D02*
X03112D01*
X0308D02*
X03089D01*
X03058D02*
X03073D01*
X0303D02*
X03052D01*
X03007D02*
X03024D01*
X02994D02*
X03001D01*
X02957D02*
X02967D01*
X02936D02*
X02951D01*
X02922D02*
X02929D01*
X029D02*
X02915D01*
X02872D02*
X02894D01*
X02854D02*
X02865D01*
X02836D02*
X02847D01*
X02814D02*
X02829D01*
X02799D02*
X02808D01*
X02776D02*
X02792D01*
X0276D02*
X02769D01*
X02639D02*
X02733D01*
X03705Y00573D02*
X03892D01*
X03664D02*
X03701D01*
X03585D02*
X03621D01*
X03487D02*
X0358D01*
X03465D02*
X03481D01*
X03447D02*
X03458D01*
X03427D02*
X03439D01*
X03407D02*
X03421D01*
X03383D02*
X034D01*
X03361D02*
X03376D01*
X03343D02*
X03354D01*
X03327D02*
X03337D01*
X03306D02*
X03316D01*
X03282D02*
X03299D01*
X03254D02*
X03276D01*
X03233D02*
X03248D01*
X03219D02*
X03227D01*
X03198D02*
X03212D01*
X03184D02*
X03191D01*
X03156D02*
X03178D01*
X03135D02*
X0315D01*
X03118D02*
X03128D01*
X03097D02*
X03111D01*
X03079D02*
X03089D01*
X03059D02*
X03073D01*
X0303D02*
X03052D01*
X03008D02*
X03024D01*
X02994D02*
X03001D01*
X02973D02*
X02988D01*
X02957D02*
X02966D01*
X02937D02*
X0295D01*
X02922D02*
X0293D01*
X029D02*
X02915D01*
X02872D02*
X02894D01*
X02853D02*
X02865D01*
X02836D02*
X02846D01*
X02814D02*
X02829D01*
X02799D02*
X02808D01*
X02776D02*
X02792D01*
X02761D02*
X02769D01*
X02739D02*
X02755D01*
X02639D02*
X02733D01*
X03705Y00572D02*
X03892D01*
X03666D02*
X03701D01*
X03585D02*
X0362D01*
X03487D02*
X0358D01*
X03465D02*
X03481D01*
X03446D02*
X03458D01*
X03427D02*
X03438D01*
X03408D02*
X0342D01*
X03383D02*
X03401D01*
X03362D02*
X03375D01*
X03343D02*
X03355D01*
X03326D02*
X03337D01*
X03305D02*
X03316D01*
X03283D02*
X03298D01*
X03254D02*
X03276D01*
X03234D02*
X03248D01*
X03219D02*
X03227D01*
X03198D02*
X03212D01*
X03184D02*
X03191D01*
X03156D02*
X03178D01*
X03135D02*
X0315D01*
X03118D02*
X03128D01*
X03097D02*
X0311D01*
X03079D02*
X0309D01*
X0306D02*
X03072D01*
X0303D02*
X03052D01*
X03008D02*
X03024D01*
X02994D02*
X03001D01*
X02972D02*
X02988D01*
X02956D02*
X02966D01*
X02937D02*
X0295D01*
X02922D02*
X0293D01*
X029D02*
X02915D01*
X02872D02*
X02894D01*
X02853D02*
X02865D01*
X02836D02*
X02845D01*
X02814D02*
X02829D01*
X02798D02*
X02808D01*
X02777D02*
X02791D01*
X02761D02*
X0277D01*
X02739D02*
X02755D01*
X02639D02*
X02732D01*
X03705Y00571D02*
X03892D01*
X03669D02*
X03701D01*
X03585D02*
X03616D01*
X03487D02*
X0358D01*
X03465D02*
X03481D01*
X03445D02*
X03458D01*
X03426D02*
X03438D01*
X03409D02*
X03419D01*
X03382D02*
X03401D01*
X03363D02*
X03374D01*
X03343D02*
X03355D01*
X03326D02*
X03337D01*
X03305D02*
X03316D01*
X03285D02*
X03297D01*
X03254D02*
X03276D01*
X03235D02*
X03248D01*
X03219D02*
X03228D01*
X03197D02*
X03213D01*
X03184D02*
X03191D01*
X03156D02*
X03178D01*
X03135D02*
X0315D01*
X03117D02*
X03128D01*
X03099D02*
X03109D01*
X03078D02*
X0309D01*
X03061D02*
X03071D01*
X0303D02*
X03053D01*
X03009D02*
X03024D01*
X02995D02*
X03002D01*
X02972D02*
X02989D01*
X02956D02*
X02965D01*
X02938D02*
X02949D01*
X02922D02*
X02931D01*
X029D02*
X02915D01*
X02872D02*
X02894D01*
X02852D02*
X02865D01*
X02836D02*
X02845D01*
X02814D02*
X02829D01*
X02798D02*
X02808D01*
X02779D02*
X0279D01*
X02762D02*
X0277D01*
X02739D02*
X02755D01*
X02639D02*
X02732D01*
X03705Y0057D02*
X03892D01*
X0367D02*
X03701D01*
X03585D02*
X03615D01*
X03487D02*
X0358D01*
X03465D02*
X03481D01*
X03445D02*
X03458D01*
X03426D02*
X03437D01*
X03412D02*
X03416D01*
X03381D02*
X03402D01*
X03367D02*
X03371D01*
X03343D02*
X03356D01*
X03325D02*
X03337D01*
X03304D02*
X03316D01*
X03288D02*
X03294D01*
X03254D02*
X03276D01*
X0322D02*
X03229D01*
X03197D02*
X03213D01*
X03184D02*
X0319D01*
X03156D02*
X03178D01*
X03135D02*
X0315D01*
X03117D02*
X03128D01*
X03102D02*
X03106D01*
X03077D02*
X03091D01*
X03063D02*
X03069D01*
X0303D02*
X03054D01*
X02995D02*
X03002D01*
X02971D02*
X02989D01*
X02955D02*
X02965D01*
X0294D02*
X02946D01*
X02922D02*
X02931D01*
X029D02*
X02915D01*
X02872D02*
X02894D01*
X02852D02*
X02865D01*
X02836D02*
X02844D01*
X02814D02*
X02829D01*
X02797D02*
X02808D01*
X02781D02*
X02787D01*
X02762D02*
X02771D01*
X02738D02*
X02756D01*
X02639D02*
X02732D01*
X03705Y00569D02*
X03892D01*
X03672D02*
X03701D01*
X03585D02*
X03613D01*
X03487D02*
X0358D01*
X03465D02*
X03481D01*
X03444D02*
X03458D01*
X03425D02*
X03436D01*
X0338D02*
X03403D01*
X03343D02*
X03357D01*
X03324D02*
X03337D01*
X03303D02*
X03316D01*
X03254D02*
X03277D01*
X0322D02*
X03229D01*
X03197D02*
X03213D01*
X03184D02*
X0319D01*
X03156D02*
X03178D01*
X03135D02*
X0315D01*
X03116D02*
X03128D01*
X03076D02*
X03092D01*
X0303D02*
X03054D01*
X02996D02*
X03003D01*
X02971D02*
X02989D01*
X02954D02*
X02964D01*
X02922D02*
X02932D01*
X029D02*
X02915D01*
X02872D02*
X02894D01*
X02851D02*
X02865D01*
X02836D02*
X02843D01*
X02814D02*
X02829D01*
X02796D02*
X02808D01*
X02762D02*
X02772D01*
X02738D02*
X02756D01*
X02639D02*
X02731D01*
X03705Y00568D02*
X03892D01*
X03674D02*
X03701D01*
X03585D02*
X03612D01*
X03487D02*
X0358D01*
X03465D02*
X03481D01*
X03443D02*
X03458D01*
X03424D02*
X03436D01*
X03379D02*
X03404D01*
X03343D02*
X03358D01*
X03324D02*
X03337D01*
X03302D02*
X03316D01*
X03254D02*
X03278D01*
X0322D02*
X03231D01*
X03196D02*
X03214D01*
X03184D02*
X0319D01*
X03156D02*
X03178D01*
X03135D02*
X0315D01*
X03115D02*
X03128D01*
X03075D02*
X03093D01*
X0303D02*
X03055D01*
X02996D02*
X03004D01*
X02971D02*
X0299D01*
X02953D02*
X02964D01*
X02922D02*
X02933D01*
X029D02*
X02915D01*
X02872D02*
X02894D01*
X0285D02*
X02865D01*
X02836D02*
X02843D01*
X02814D02*
X02829D01*
X02795D02*
X02808D01*
X02763D02*
X02773D01*
X02737D02*
X02756D01*
X02639D02*
X02731D01*
X03705Y00567D02*
X03892D01*
X03676D02*
X03701D01*
X03585D02*
X0361D01*
X03487D02*
X0358D01*
X03465D02*
X03481D01*
X03443D02*
X03458D01*
X03423D02*
X03435D01*
X03378D02*
X03405D01*
X03343D02*
X03359D01*
X03323D02*
X03337D01*
X033D02*
X03316D01*
X03254D02*
X0328D01*
X03221D02*
X03232D01*
X03196D02*
X03214D01*
X03184D02*
X03189D01*
X03156D02*
X03178D01*
X03135D02*
X0315D01*
X03113D02*
X03128D01*
X03074D02*
X03094D01*
X0303D02*
X03057D01*
X02996D02*
X03005D01*
X0297D02*
X0299D01*
X02952D02*
X02964D01*
X02922D02*
X02934D01*
X029D02*
X02915D01*
X02872D02*
X02894D01*
X0285D02*
X02865D01*
X02836D02*
X02842D01*
X02814D02*
X02829D01*
X02793D02*
X02808D01*
X02763D02*
X02775D01*
X02737D02*
X02757D01*
X02639D02*
X0273D01*
X03705Y00566D02*
X03892D01*
X03677D02*
X03701D01*
X03585D02*
X03609D01*
X03487D02*
X0358D01*
X03465D02*
X03481D01*
X03442D02*
X03458D01*
X03421D02*
X03435D01*
X03376D02*
X03407D01*
X03343D02*
X03361D01*
X03323D02*
X03337D01*
X03298D02*
X03316D01*
X03254D02*
X03282D01*
X03221D02*
X03234D01*
X03196D02*
X03214D01*
X03184D02*
X03189D01*
X03156D02*
X03178D01*
X03135D02*
X0315D01*
X03111D02*
X03128D01*
X03072D02*
X03096D01*
X0303D02*
X03058D01*
X02997D02*
X03007D01*
X0297D02*
X0299D01*
X0295D02*
X02963D01*
X02922D02*
X02936D01*
X029D02*
X02915D01*
X02872D02*
X02894D01*
X02849D02*
X02865D01*
X02836D02*
X02841D01*
X02814D02*
X02829D01*
X02792D02*
X02808D01*
X02764D02*
X02776D01*
X02737D02*
X02757D01*
X02639D02*
X0273D01*
X03705Y00565D02*
X03892D01*
X03678D02*
X03701D01*
X03585D02*
X03607D01*
X03487D02*
X0358D01*
X03465D02*
X03481D01*
X03441D02*
X03458D01*
X03418D02*
X03434D01*
X03373D02*
X0341D01*
X03343D02*
X03364D01*
X03322D02*
X03337D01*
X03296D02*
X03316D01*
X03254D02*
X03286D01*
X03221D02*
X03241D01*
X03195D02*
X03215D01*
X03184D02*
X03189D01*
X03156D02*
X03178D01*
X03135D02*
X0315D01*
X03108D02*
X03128D01*
X0307D02*
X03099D01*
X0303D02*
X03061D01*
X02997D02*
X03015D01*
X0297D02*
X02991D01*
X02947D02*
X02963D01*
X02922D02*
X02939D01*
X029D02*
X02915D01*
X02872D02*
X02894D01*
X02849D02*
X02865D01*
X02836D02*
X02841D01*
X02814D02*
X02829D01*
X02789D02*
X02808D01*
X02764D02*
X02779D01*
X02736D02*
X02757D01*
X02639D02*
X0273D01*
X03705Y00564D02*
X03892D01*
X0368D02*
X03701D01*
X03585D02*
X03605D01*
X02639D02*
X0358D01*
X03705Y00563D02*
X03892D01*
X03683D02*
X03701D01*
X03585D02*
X03603D01*
X02639D02*
X0358D01*
X03705Y00562D02*
X03892D01*
X03685D02*
X03701D01*
X03585D02*
X03601D01*
X02639D02*
X0358D01*
X03705Y00561D02*
X03892D01*
X03686D02*
X03701D01*
X03585D02*
X03599D01*
X02639D02*
X0358D01*
X03705Y0056D02*
X03892D01*
X03687D02*
X03701D01*
X03585D02*
X03598D01*
X03208D02*
X0358D01*
X03106D02*
X03203D01*
X02639D02*
X03101D01*
X03706Y00559D02*
X03892D01*
X03689D02*
X03701D01*
X03654D02*
X03682D01*
X03629D02*
X0364D01*
X036D02*
X03616D01*
X03585D02*
X03596D01*
X03208D02*
X03579D01*
X03107D02*
X03202D01*
X02639D02*
X03101D01*
X03708Y00558D02*
X03892D01*
X03691D02*
X03701D01*
X03651D02*
X03682D01*
X03629D02*
X0364D01*
X036D02*
X03617D01*
X03584D02*
X03595D01*
X03209D02*
X03578D01*
X03107D02*
X03202D01*
X02639D02*
X031D01*
X0371Y00557D02*
X03892D01*
X03693D02*
X03703D01*
X0365D02*
X03682D01*
X03629D02*
X0364D01*
X036D02*
X03618D01*
X03582D02*
X03593D01*
X03209D02*
X03576D01*
X03107D02*
X03202D01*
X02639D02*
X031D01*
X03711Y00556D02*
X03892D01*
X03693D02*
X03705D01*
X03649D02*
X03682D01*
X03629D02*
X0364D01*
X036D02*
X03619D01*
X0358D02*
X03592D01*
X03208D02*
X03574D01*
X03107D02*
X03202D01*
X02639D02*
X03101D01*
X03714Y00555D02*
X03892D01*
X03696D02*
X03708D01*
X03647D02*
X03682D01*
X03629D02*
X0364D01*
X03602D02*
X0362D01*
X03578D02*
X03589D01*
X03207D02*
X03571D01*
X03106D02*
X03203D01*
X02639D02*
X03102D01*
X03716Y00554D02*
X03892D01*
X03696D02*
X03709D01*
X03646D02*
X03682D01*
X03629D02*
X0364D01*
X03602D02*
X0362D01*
X03576D02*
X03589D01*
X02639D02*
X0357D01*
X03717Y00553D02*
X03892D01*
X03696D02*
X03711D01*
X03646D02*
X03682D01*
X03629D02*
X0364D01*
X03603D02*
X03621D01*
X03574D02*
X03589D01*
X02639D02*
X03569D01*
X03718Y00552D02*
X03892D01*
X03696D02*
X03712D01*
X03646D02*
X03682D01*
X03629D02*
X0364D01*
X03604D02*
X03622D01*
X03572D02*
X03589D01*
X02639D02*
X03567D01*
X0372Y00551D02*
X03892D01*
X03696D02*
X03714D01*
X03646D02*
X03682D01*
X03629D02*
X0364D01*
X03604D02*
X03623D01*
X03572D02*
X03589D01*
X02639D02*
X03565D01*
X03722Y0055D02*
X03892D01*
X03696D02*
X03716D01*
X03645D02*
X03682D01*
X03629D02*
X0364D01*
X03605D02*
X03624D01*
X0357D02*
X03589D01*
X02639D02*
X03563D01*
X03723Y00549D02*
X03892D01*
X03696D02*
X03717D01*
X03645D02*
X03682D01*
X03629D02*
X0364D01*
X03606D02*
X03625D01*
X03568D02*
X03589D01*
X02639D02*
X03563D01*
X03725Y00548D02*
X03892D01*
X03696D02*
X03718D01*
X03669D02*
X03682D01*
X03645D02*
X0366D01*
X03629D02*
X0364D01*
X03607D02*
X03626D01*
X03567D02*
X03589D01*
X02639D02*
X03561D01*
X03728Y00547D02*
X03892D01*
X03696D02*
X03721D01*
X03669D02*
X03682D01*
X03645D02*
X03658D01*
X03629D02*
X0364D01*
X03609D02*
X03627D01*
X03564D02*
X03589D01*
X02639D02*
X03557D01*
X03729Y00546D02*
X03892D01*
X03696D02*
X03723D01*
X03669D02*
X03682D01*
X03645D02*
X03658D01*
X03629D02*
X0364D01*
X0361D02*
X03628D01*
X03563D02*
X03589D01*
X02639D02*
X03556D01*
X03731Y00545D02*
X03892D01*
X03696D02*
X03725D01*
X03669D02*
X03682D01*
X03645D02*
X03658D01*
X03629D02*
X0364D01*
X03611D02*
X03628D01*
X03561D02*
X03589D01*
X02639D02*
X03555D01*
X03733Y00544D02*
X03892D01*
X03696D02*
X03725D01*
X03669D02*
X03682D01*
X03645D02*
X03658D01*
X03612D02*
X0364D01*
X0356D02*
X03589D01*
X02639D02*
X03553D01*
X03734Y00543D02*
X03892D01*
X03696D02*
X03727D01*
X03669D02*
X03682D01*
X03646D02*
X0366D01*
X03612D02*
X0364D01*
X03558D02*
X03589D01*
X02725D02*
X03552D01*
X02639D02*
X02714D01*
X03735Y00542D02*
X03892D01*
X03696D02*
X03729D01*
X03669D02*
X03682D01*
X03646D02*
X0366D01*
X03613D02*
X0364D01*
X03556D02*
X03589D01*
X02726D02*
X0355D01*
X02639D02*
X02712D01*
X03737Y00541D02*
X03892D01*
X03696D02*
X0373D01*
X03646D02*
X03682D01*
X03614D02*
X0364D01*
X03555D02*
X03589D01*
X02726D02*
X03548D01*
X02639D02*
X02711D01*
X03739Y0054D02*
X03892D01*
X03696D02*
X03732D01*
X03647D02*
X03682D01*
X03614D02*
X0364D01*
X03554D02*
X03589D01*
X02726D02*
X03547D01*
X02639D02*
X0271D01*
X03742Y00539D02*
X03892D01*
X03696D02*
X03734D01*
X03648D02*
X03682D01*
X03612D02*
X0364D01*
X0355D02*
X03589D01*
X02726D02*
X03544D01*
X02639D02*
X0271D01*
X03743Y00538D02*
X03892D01*
X03696D02*
X03736D01*
X03647D02*
X03682D01*
X03612D02*
X0364D01*
X03549D02*
X03589D01*
X03154D02*
X03542D01*
X02903D02*
X0314D01*
X02726D02*
X02889D01*
X02719D02*
X02724D01*
X02639D02*
X02709D01*
X03745Y00537D02*
X03892D01*
X03696D02*
X03738D01*
X03646D02*
X03682D01*
X03612D02*
X0364D01*
X03547D02*
X03589D01*
X03155D02*
X0354D01*
X02904D02*
X03139D01*
X02718D02*
X02888D01*
X02639D02*
X02709D01*
X03746Y00536D02*
X03892D01*
X03696D02*
X0374D01*
X03645D02*
X03682D01*
X03611D02*
X0364D01*
X03546D02*
X03589D01*
X03156D02*
X03539D01*
X02905D02*
X03139D01*
X02717D02*
X02888D01*
X02639D02*
X02709D01*
X03748Y00535D02*
X03892D01*
X03696D02*
X03742D01*
X03645D02*
X03682D01*
X03611D02*
X0364D01*
X03544D02*
X03589D01*
X03156D02*
X03538D01*
X02905D02*
X03138D01*
X02717D02*
X02887D01*
X02639D02*
X02709D01*
X0375Y00534D02*
X03892D01*
X03696D02*
X03742D01*
X03645D02*
X03682D01*
X0361D02*
X0364D01*
X03543D02*
X03589D01*
X03157D02*
X03536D01*
X03147D02*
X03148D01*
X02906D02*
X03137D01*
X02896D02*
X02897D01*
X02717D02*
X02886D01*
X02639D02*
X02709D01*
X03751Y00533D02*
X03892D01*
X03696D02*
X03744D01*
X03645D02*
X03682D01*
X0361D02*
X0364D01*
X03541D02*
X03589D01*
X03158D02*
X03534D01*
X03146D02*
X03149D01*
X02907D02*
X03136D01*
X02895D02*
X02898D01*
X02718D02*
X02885D01*
X02639D02*
X0271D01*
X03752Y00532D02*
X03892D01*
X03696D02*
X03746D01*
X03644D02*
X03682D01*
X03609D02*
X0364D01*
X03539D02*
X03589D01*
X03159D02*
X03533D01*
X03145D02*
X0315D01*
X02908D02*
X03135D01*
X02894D02*
X02899D01*
X02719D02*
X02884D01*
X02639D02*
X0271D01*
X03756Y00531D02*
X03892D01*
X03696D02*
X03749D01*
X03669D02*
X03682D01*
X03644D02*
X03656D01*
X03624D02*
X0364D01*
X03608D02*
X03623D01*
X03537D02*
X03589D01*
X0316D02*
X0353D01*
X03143D02*
X03151D01*
X02909D02*
X03134D01*
X02892D02*
X029D01*
X02722D02*
X02883D01*
X02639D02*
X02711D01*
X03757Y0053D02*
X03892D01*
X03696D02*
X0375D01*
X03669D02*
X03682D01*
X03644D02*
X03656D01*
X03625D02*
X0364D01*
X03607D02*
X03623D01*
X03535D02*
X03589D01*
X03161D02*
X03529D01*
X03142D02*
X03152D01*
X0291D02*
X03133D01*
X02891D02*
X02901D01*
X02722D02*
X02882D01*
X02639D02*
X02712D01*
X03758Y00529D02*
X03892D01*
X03696D02*
X03752D01*
X03669D02*
X03682D01*
X03644D02*
X03656D01*
X03626D02*
X0364D01*
X03606D02*
X03622D01*
X03533D02*
X03589D01*
X03162D02*
X03528D01*
X0314D02*
X03154D01*
X02911D02*
X03132D01*
X02889D02*
X02903D01*
X02722D02*
X02881D01*
X02639D02*
X02715D01*
X03758Y00528D02*
X03892D01*
X03696D02*
X03753D01*
X03669D02*
X03682D01*
X03644D02*
X03656D01*
X03627D02*
X0364D01*
X03606D02*
X03622D01*
X03532D02*
X03589D01*
X03163D02*
X03527D01*
X03139D02*
X03155D01*
X02912D02*
X03131D01*
X02888D02*
X02904D01*
X02722D02*
X0288D01*
X02639D02*
X02715D01*
X03758Y00527D02*
X03892D01*
X03696D02*
X03755D01*
X03669D02*
X03682D01*
X03644D02*
X03657D01*
X03628D02*
X0364D01*
X03605D02*
X03621D01*
X03531D02*
X03589D01*
X02722D02*
X03527D01*
X02639D02*
X02716D01*
X03759Y00526D02*
X03892D01*
X03696D02*
X03756D01*
X03669D02*
X03682D01*
X03644D02*
X03658D01*
X03629D02*
X0364D01*
X03604D02*
X03621D01*
X0353D02*
X03589D01*
X02639D02*
X03526D01*
X03759Y00525D02*
X03892D01*
X03696D02*
X03756D01*
X03669D02*
X03682D01*
X03644D02*
X0366D01*
X03629D02*
X0364D01*
X03604D02*
X0362D01*
X0353D02*
X03589D01*
X02689D02*
X03526D01*
X02639D02*
X02678D01*
X03759Y00524D02*
X03892D01*
X03696D02*
X03756D01*
X03644D02*
X03682D01*
X03629D02*
X0364D01*
X03604D02*
X0362D01*
X0353D02*
X03589D01*
X02689D02*
X03526D01*
X02639D02*
X02678D01*
X0376Y00523D02*
X03892D01*
X03696D02*
X03756D01*
X03645D02*
X03682D01*
X03629D02*
X0364D01*
X03603D02*
X0362D01*
X0353D02*
X03589D01*
X02689D02*
X03525D01*
X02639D02*
X02678D01*
X0376Y00522D02*
X03892D01*
X03696D02*
X03756D01*
X03645D02*
X03682D01*
X03629D02*
X0364D01*
X03602D02*
X03619D01*
X0353D02*
X03589D01*
X03366D02*
X03525D01*
X02689D02*
X03354D01*
X02639D02*
X02679D01*
X0376Y00521D02*
X03892D01*
X03696D02*
X03756D01*
X03645D02*
X03682D01*
X03629D02*
X0364D01*
X03602D02*
X03618D01*
X0353D02*
X03589D01*
X03499D02*
X03525D01*
X03465D02*
X03488D01*
X03442D02*
X03451D01*
X03408D02*
X03431D01*
X0337D02*
X03398D01*
X03307D02*
X0335D01*
X03244D02*
X03295D01*
X03187D02*
X03215D01*
X03163D02*
X03177D01*
X0312D02*
X03132D01*
X03086D02*
X0311D01*
X02993D02*
X03077D01*
X02936D02*
X02964D01*
X02912D02*
X02926D01*
X02869D02*
X02881D01*
X02835D02*
X02859D01*
X02795D02*
X02826D01*
X02741D02*
X02751D01*
X02707D02*
X0273D01*
X0269D02*
X02696D01*
X02639D02*
X02679D01*
X0376Y0052D02*
X03892D01*
X03696D02*
X03756D01*
X03645D02*
X03682D01*
X03629D02*
X0364D01*
X03601D02*
X03618D01*
X0353D02*
X03589D01*
X03499D02*
X03525D01*
X03466D02*
X03488D01*
X03442D02*
X03452D01*
X03408D02*
X03431D01*
X03373D02*
X03398D01*
X03307D02*
X03348D01*
X03244D02*
X03295D01*
X03187D02*
X03211D01*
X03163D02*
X03177D01*
X0312D02*
X03132D01*
X03086D02*
X03109D01*
X02993D02*
X03077D01*
X02936D02*
X0296D01*
X02912D02*
X02926D01*
X02869D02*
X02881D01*
X02835D02*
X02858D01*
X02795D02*
X02826D01*
X02741D02*
X02751D01*
X02707D02*
X0273D01*
X0269D02*
X02696D01*
X02639D02*
X02679D01*
X0376Y00519D02*
X03892D01*
X03696D02*
X03756D01*
X03645D02*
X03682D01*
X03629D02*
X0364D01*
X036D02*
X03617D01*
X0353D02*
X03589D01*
X03499D02*
X03525D01*
X03467D02*
X03488D01*
X03442D02*
X03453D01*
X03408D02*
X03431D01*
X03375D02*
X03398D01*
X03308D02*
X03346D01*
X03244D02*
X03294D01*
X03187D02*
X03209D01*
X03163D02*
X03177D01*
X0312D02*
X03132D01*
X03086D02*
X03109D01*
X02993D02*
X03077D01*
X02936D02*
X02958D01*
X02912D02*
X02926D01*
X02869D02*
X02881D01*
X02835D02*
X02858D01*
X02795D02*
X02826D01*
X02741D02*
X02751D01*
X02707D02*
X0273D01*
X0269D02*
X02696D01*
X02639D02*
X0268D01*
X0376Y00518D02*
X03892D01*
X03696D02*
X03756D01*
X03646D02*
X03682D01*
X03629D02*
X0364D01*
X036D02*
X03617D01*
X0353D02*
X03589D01*
X03499D02*
X03525D01*
X03468D02*
X03488D01*
X03442D02*
X03454D01*
X03408D02*
X03431D01*
X03376D02*
X03398D01*
X03308D02*
X03344D01*
X03244D02*
X03294D01*
X03187D02*
X03208D01*
X03163D02*
X03177D01*
X0312D02*
X03132D01*
X03086D02*
X03108D01*
X02993D02*
X03077D01*
X02936D02*
X02957D01*
X02912D02*
X02926D01*
X02869D02*
X02881D01*
X02835D02*
X02857D01*
X02795D02*
X02826D01*
X02741D02*
X02751D01*
X02707D02*
X0273D01*
X02691D02*
X02696D01*
X02639D02*
X0268D01*
X0376Y00517D02*
X03892D01*
X03696D02*
X03756D01*
X03647D02*
X03682D01*
X03629D02*
X0364D01*
X036D02*
X03616D01*
X0353D02*
X03589D01*
X03499D02*
X03525D01*
X03469D02*
X03488D01*
X03442D02*
X03455D01*
X03408D02*
X03431D01*
X03378D02*
X03398D01*
X03309D02*
X03343D01*
X03244D02*
X03294D01*
X03187D02*
X03206D01*
X03163D02*
X03177D01*
X0312D02*
X03132D01*
X03086D02*
X03107D01*
X02993D02*
X03077D01*
X02936D02*
X02955D01*
X02912D02*
X02926D01*
X02869D02*
X02881D01*
X02835D02*
X02856D01*
X02795D02*
X02826D01*
X02741D02*
X02751D01*
X02707D02*
X0273D01*
X02691D02*
X02696D01*
X02639D02*
X02681D01*
X0376Y00516D02*
X03892D01*
X03696D02*
X03756D01*
X03648D02*
X03682D01*
X03629D02*
X0364D01*
X036D02*
X03616D01*
X0353D02*
X03589D01*
X03499D02*
X03525D01*
X0347D02*
X03488D01*
X03442D02*
X03456D01*
X03408D02*
X03431D01*
X03379D02*
X03398D01*
X03309D02*
X03342D01*
X03244D02*
X03293D01*
X03187D02*
X03205D01*
X03163D02*
X03177D01*
X0312D02*
X03132D01*
X03086D02*
X03107D01*
X02993D02*
X03077D01*
X02936D02*
X02954D01*
X02912D02*
X02926D01*
X02869D02*
X02881D01*
X02835D02*
X02856D01*
X02795D02*
X02826D01*
X02741D02*
X02751D01*
X02707D02*
X0273D01*
X02692D02*
X02696D01*
X02639D02*
X02681D01*
X0376Y00515D02*
X03892D01*
X03696D02*
X03756D01*
X03652D02*
X03682D01*
X03629D02*
X0364D01*
X036D02*
X03614D01*
X0353D02*
X03589D01*
X03499D02*
X03525D01*
X0347D02*
X03488D01*
X03442D02*
X03457D01*
X03408D02*
X03431D01*
X0338D02*
X03398D01*
X03309D02*
X03341D01*
X03244D02*
X03293D01*
X03187D02*
X03204D01*
X03163D02*
X03177D01*
X0312D02*
X03132D01*
X03086D02*
X03106D01*
X02993D02*
X03077D01*
X02936D02*
X02953D01*
X02912D02*
X02926D01*
X02869D02*
X02881D01*
X02835D02*
X02855D01*
X02795D02*
X02826D01*
X02741D02*
X02751D01*
X02707D02*
X0273D01*
X02693D02*
X02696D01*
X02639D02*
X02682D01*
X0376Y00514D02*
X03892D01*
X03696D02*
X03756D01*
X0353D02*
X03589D01*
X03499D02*
X03525D01*
X03471D02*
X03488D01*
X03442D02*
X03458D01*
X03408D02*
X03431D01*
X03381D02*
X03398D01*
X0331D02*
X0334D01*
X03244D02*
X03292D01*
X03187D02*
X03203D01*
X03163D02*
X03177D01*
X0312D02*
X03132D01*
X03086D02*
X03106D01*
X02993D02*
X03077D01*
X02936D02*
X02952D01*
X02912D02*
X02926D01*
X02869D02*
X02881D01*
X02835D02*
X02855D01*
X02795D02*
X02826D01*
X02741D02*
X02751D01*
X02707D02*
X0273D01*
X02639D02*
X02683D01*
X0376Y00513D02*
X03892D01*
X03696D02*
X03756D01*
X0353D02*
X03589D01*
X03499D02*
X03525D01*
X03472D02*
X03488D01*
X03442D02*
X03459D01*
X03408D02*
X03431D01*
X03381D02*
X03398D01*
X03354D02*
X03366D01*
X0331D02*
X03339D01*
X03244D02*
X03292D01*
X03223D02*
X03233D01*
X03187D02*
X03203D01*
X03163D02*
X03177D01*
X0312D02*
X03132D01*
X03086D02*
X03105D01*
X02993D02*
X03077D01*
X02972D02*
X02982D01*
X02936D02*
X02952D01*
X02912D02*
X02926D01*
X02869D02*
X02881D01*
X02835D02*
X02854D01*
X02778D02*
X02826D01*
X02741D02*
X02767D01*
X02707D02*
X0273D01*
X02639D02*
X02684D01*
X0376Y00512D02*
X03892D01*
X03696D02*
X03756D01*
X0353D02*
X03589D01*
X03499D02*
X03525D01*
X03473D02*
X03488D01*
X03442D02*
X0346D01*
X03408D02*
X03431D01*
X03382D02*
X03398D01*
X03352D02*
X03368D01*
X0331D02*
X03338D01*
X03244D02*
X03292D01*
X03216D02*
X03233D01*
X03187D02*
X03202D01*
X03163D02*
X03177D01*
X0312D02*
X03152D01*
X03086D02*
X03104D01*
X02993D02*
X03077D01*
X02965D02*
X02982D01*
X02936D02*
X02951D01*
X02912D02*
X02926D01*
X02869D02*
X02901D01*
X02835D02*
X02853D01*
X02778D02*
X02826D01*
X02741D02*
X02767D01*
X02707D02*
X0273D01*
X02639D02*
X02685D01*
X0376Y00511D02*
X03892D01*
X03696D02*
X03756D01*
X03625D02*
X0363D01*
X0353D02*
X03589D01*
X03499D02*
X03525D01*
X03474D02*
X03488D01*
X03442D02*
X03461D01*
X03408D02*
X03431D01*
X03383D02*
X03398D01*
X0335D02*
X0337D01*
X03311D02*
X03338D01*
X03244D02*
X03291D01*
X03214D02*
X03233D01*
X03187D02*
X03201D01*
X03163D02*
X03177D01*
X0312D02*
X03152D01*
X03086D02*
X03104D01*
X02993D02*
X03077D01*
X02963D02*
X02982D01*
X02936D02*
X0295D01*
X02912D02*
X02926D01*
X02869D02*
X02901D01*
X02835D02*
X02853D01*
X02778D02*
X02826D01*
X02741D02*
X02767D01*
X02707D02*
X0273D01*
X02639D02*
X02686D01*
X0376Y0051D02*
X03892D01*
X03696D02*
X03756D01*
X03658D02*
X03685D01*
X03645D02*
X03652D01*
X03636D02*
X03643D01*
X03621D02*
X03633D01*
X03612D02*
X0362D01*
X03601D02*
X0361D01*
X0353D02*
X03589D01*
X03499D02*
X03525D01*
X03475D02*
X03488D01*
X03442D02*
X03462D01*
X03408D02*
X03431D01*
X03383D02*
X03398D01*
X03349D02*
X03371D01*
X03311D02*
X03337D01*
X03244D02*
X03291D01*
X03213D02*
X03233D01*
X03187D02*
X03201D01*
X03163D02*
X03177D01*
X0312D02*
X03152D01*
X03086D02*
X03103D01*
X02993D02*
X03077D01*
X02962D02*
X02982D01*
X02936D02*
X0295D01*
X02912D02*
X02926D01*
X02869D02*
X02901D01*
X02835D02*
X02852D01*
X02778D02*
X02826D01*
X02741D02*
X02767D01*
X02707D02*
X0273D01*
X02639D02*
X02688D01*
X0376Y00509D02*
X03892D01*
X03696D02*
X03756D01*
X03655D02*
X03685D01*
X03645D02*
X03652D01*
X03636D02*
X03643D01*
X03612D02*
X03634D01*
X03601D02*
X03611D01*
X0353D02*
X03589D01*
X03499D02*
X03525D01*
X03476D02*
X03488D01*
X03442D02*
X03463D01*
X03408D02*
X03431D01*
X03384D02*
X03398D01*
X03348D02*
X03372D01*
X03312D02*
X03337D01*
X03301D02*
X03302D01*
X03244D02*
X0329D01*
X03212D02*
X03233D01*
X03187D02*
X032D01*
X03163D02*
X03177D01*
X0312D02*
X03152D01*
X03086D02*
X03102D01*
X02993D02*
X03077D01*
X02961D02*
X02982D01*
X02936D02*
X02949D01*
X02912D02*
X02926D01*
X02869D02*
X02901D01*
X02835D02*
X02851D01*
X02778D02*
X02826D01*
X02741D02*
X02767D01*
X02707D02*
X0273D01*
X02639D02*
X02691D01*
X0376Y00508D02*
X03892D01*
X03696D02*
X03756D01*
X03654D02*
X03685D01*
X03646D02*
X03651D01*
X03636D02*
X03643D01*
X03601D02*
X03635D01*
X0353D02*
X03589D01*
X03499D02*
X03525D01*
X03477D02*
X03488D01*
X03442D02*
X03464D01*
X03408D02*
X03431D01*
X03384D02*
X03398D01*
X03348D02*
X03373D01*
X03312D02*
X03336D01*
X033D02*
X03302D01*
X03244D02*
X0329D01*
X03211D02*
X03233D01*
X03187D02*
X032D01*
X03163D02*
X03177D01*
X0312D02*
X03152D01*
X03086D02*
X03102D01*
X02993D02*
X03077D01*
X0296D02*
X02982D01*
X02936D02*
X02949D01*
X02912D02*
X02926D01*
X02869D02*
X02901D01*
X02835D02*
X02851D01*
X02778D02*
X02826D01*
X02741D02*
X02767D01*
X02707D02*
X0273D01*
X02639D02*
X02696D01*
X0376Y00507D02*
X03892D01*
X03696D02*
X03756D01*
X03654D02*
X03685D01*
X03646D02*
X03651D01*
X03601D02*
X03643D01*
X0353D02*
X03589D01*
X03499D02*
X03525D01*
X03478D02*
X03488D01*
X03442D02*
X03465D01*
X03408D02*
X03431D01*
X03385D02*
X03398D01*
X03347D02*
X03373D01*
X03312D02*
X03336D01*
X033D02*
X03303D01*
X03244D02*
X0329D01*
X0321D02*
X03233D01*
X03187D02*
X03199D01*
X03163D02*
X03177D01*
X0312D02*
X03152D01*
X03086D02*
X03101D01*
X02993D02*
X03077D01*
X02959D02*
X02982D01*
X02936D02*
X02948D01*
X02912D02*
X02926D01*
X02869D02*
X02901D01*
X02835D02*
X0285D01*
X02778D02*
X02826D01*
X02741D02*
X02767D01*
X02707D02*
X0273D01*
X02639D02*
X02696D01*
X0376Y00506D02*
X03892D01*
X03696D02*
X03756D01*
X03654D02*
X03685D01*
X03646D02*
X03651D01*
X03601D02*
X03643D01*
X0353D02*
X03589D01*
X03499D02*
X03525D01*
X03479D02*
X03488D01*
X03442D02*
X03466D01*
X03408D02*
X03431D01*
X03385D02*
X03398D01*
X03346D02*
X03374D01*
X03313D02*
X03335D01*
X033D02*
X03303D01*
X03244D02*
X03289D01*
X0321D02*
X03233D01*
X03187D02*
X03199D01*
X03163D02*
X03177D01*
X0312D02*
X03152D01*
X03086D02*
X03101D01*
X02993D02*
X03077D01*
X02959D02*
X02982D01*
X02936D02*
X02948D01*
X02912D02*
X02926D01*
X02869D02*
X02901D01*
X02835D02*
X0285D01*
X02778D02*
X02826D01*
X02741D02*
X02767D01*
X02707D02*
X0273D01*
X02639D02*
X02696D01*
X0376Y00505D02*
X03892D01*
X03696D02*
X03756D01*
X03654D02*
X03685D01*
X03646D02*
X03651D01*
X03601D02*
X03643D01*
X0353D02*
X03589D01*
X03499D02*
X03525D01*
X0348D02*
X03488D01*
X03442D02*
X03467D01*
X03408D02*
X03431D01*
X03385D02*
X03398D01*
X03346D02*
X03374D01*
X03313D02*
X03335D01*
X03299D02*
X03303D01*
X03244D02*
X03289D01*
X0321D02*
X03233D01*
X03187D02*
X03199D01*
X03163D02*
X03177D01*
X0312D02*
X03152D01*
X03086D02*
X031D01*
X02993D02*
X03077D01*
X02959D02*
X02982D01*
X02936D02*
X02948D01*
X02912D02*
X02926D01*
X02869D02*
X02901D01*
X02835D02*
X02849D01*
X02778D02*
X02826D01*
X02741D02*
X02767D01*
X02707D02*
X0273D01*
X02639D02*
X02696D01*
X0376Y00504D02*
X03892D01*
X03696D02*
X03756D01*
X03673D02*
X0368D01*
X03664D02*
X03669D01*
X03654D02*
X03663D01*
X03601D02*
X03651D01*
X0353D02*
X03589D01*
X03499D02*
X03525D01*
X03481D02*
X03488D01*
X03442D02*
X03468D01*
X03408D02*
X03431D01*
X03386D02*
X03398D01*
X03346D02*
X03375D01*
X03314D02*
X03335D01*
X03299D02*
X03304D01*
X03244D02*
X03288D01*
X03209D02*
X03233D01*
X03187D02*
X03199D01*
X03163D02*
X03177D01*
X0312D02*
X03152D01*
X03086D02*
X03099D01*
X02993D02*
X03077D01*
X02958D02*
X02982D01*
X02936D02*
X02948D01*
X02912D02*
X02926D01*
X02869D02*
X02901D01*
X02835D02*
X02848D01*
X02778D02*
X02826D01*
X02741D02*
X02767D01*
X02707D02*
X0273D01*
X02639D02*
X02696D01*
X0376Y00503D02*
X03892D01*
X03696D02*
X03756D01*
X03673D02*
X0368D01*
X03654D02*
X03669D01*
X03629D02*
X03651D01*
X03601D02*
X03627D01*
X0353D02*
X03589D01*
X03499D02*
X03525D01*
X03482D02*
X03488D01*
X03442D02*
X03469D01*
X03408D02*
X03431D01*
X03386D02*
X03398D01*
X03345D02*
X03375D01*
X03314D02*
X03334D01*
X03298D02*
X03304D01*
X03244D02*
X03288D01*
X03209D02*
X03233D01*
X03187D02*
X03198D01*
X03163D02*
X03177D01*
X0312D02*
X03152D01*
X03086D02*
X03099D01*
X02993D02*
X03077D01*
X02958D02*
X02982D01*
X02936D02*
X02947D01*
X02912D02*
X02926D01*
X02869D02*
X02901D01*
X02835D02*
X02848D01*
X02778D02*
X02826D01*
X02741D02*
X02767D01*
X02707D02*
X0273D01*
X02639D02*
X02696D01*
X0376Y00502D02*
X03892D01*
X03696D02*
X03756D01*
X03673D02*
X0368D01*
X03654D02*
X03669D01*
X03629D02*
X03651D01*
X03601D02*
X03627D01*
X0353D02*
X03589D01*
X03499D02*
X03525D01*
X03482D02*
X03488D01*
X03442D02*
X0347D01*
X03408D02*
X03431D01*
X03386D02*
X03398D01*
X03345D02*
X03375D01*
X03314D02*
X03334D01*
X03298D02*
X03304D01*
X03244D02*
X03288D01*
X03209D02*
X03233D01*
X03187D02*
X03198D01*
X03163D02*
X03177D01*
X0312D02*
X03152D01*
X03109D02*
X03111D01*
X03086D02*
X03098D01*
X02993D02*
X03077D01*
X02958D02*
X02982D01*
X02936D02*
X02947D01*
X02912D02*
X02926D01*
X02869D02*
X02901D01*
X02858D02*
X0286D01*
X02835D02*
X02847D01*
X02778D02*
X02826D01*
X02741D02*
X02767D01*
X02707D02*
X0273D01*
X02639D02*
X02696D01*
X0376Y00501D02*
X03892D01*
X03696D02*
X03756D01*
X03673D02*
X0368D01*
X03654D02*
X03669D01*
X03629D02*
X03651D01*
X03601D02*
X0362D01*
X0353D02*
X03589D01*
X03499D02*
X03525D01*
X03483D02*
X03488D01*
X03442D02*
X03471D01*
X03408D02*
X03431D01*
X03386D02*
X03398D01*
X03345D02*
X03376D01*
X03315D02*
X03334D01*
X03298D02*
X03305D01*
X03244D02*
X03287D01*
X03209D02*
X03233D01*
X03187D02*
X03198D01*
X03163D02*
X03177D01*
X0312D02*
X03152D01*
X03109D02*
X03111D01*
X03086D02*
X03098D01*
X02993D02*
X03077D01*
X02958D02*
X02982D01*
X02936D02*
X02947D01*
X02912D02*
X02926D01*
X02869D02*
X02901D01*
X02858D02*
X0286D01*
X02835D02*
X02847D01*
X02778D02*
X02826D01*
X02741D02*
X02767D01*
X02707D02*
X0273D01*
X02639D02*
X02696D01*
X0376Y005D02*
X03892D01*
X03696D02*
X03756D01*
X03673D02*
X0368D01*
X03654D02*
X03669D01*
X03629D02*
X03651D01*
X03601D02*
X03626D01*
X0353D02*
X03589D01*
X03499D02*
X03525D01*
X03484D02*
X03488D01*
X03442D02*
X03471D01*
X03408D02*
X03431D01*
X03387D02*
X03398D01*
X03345D02*
X03376D01*
X03315D02*
X03334D01*
X03297D02*
X03305D01*
X03244D02*
X03287D01*
X03208D02*
X03233D01*
X03187D02*
X03198D01*
X03163D02*
X03177D01*
X0312D02*
X03152D01*
X03108D02*
X03111D01*
X03086D02*
X03097D01*
X02993D02*
X03077D01*
X02957D02*
X02982D01*
X02936D02*
X02947D01*
X02912D02*
X02926D01*
X02869D02*
X02901D01*
X02857D02*
X0286D01*
X02835D02*
X02846D01*
X02778D02*
X02826D01*
X02741D02*
X02767D01*
X02707D02*
X0273D01*
X02639D02*
X02696D01*
X0376Y00499D02*
X03892D01*
X03696D02*
X03756D01*
X03673D02*
X0368D01*
X03655D02*
X03669D01*
X03629D02*
X03651D01*
X03601D02*
X03627D01*
X0353D02*
X03589D01*
X03499D02*
X03525D01*
X03485D02*
X03488D01*
X03442D02*
X03471D01*
X03387D02*
X03398D01*
X03344D02*
X03376D01*
X03316D02*
X03334D01*
X03297D02*
X03305D01*
X03244D02*
X03286D01*
X03208D02*
X03233D01*
X03187D02*
X03198D01*
X03163D02*
X03177D01*
X0312D02*
X03133D01*
X03107D02*
X03111D01*
X03086D02*
X03096D01*
X02993D02*
X03077D01*
X02957D02*
X02982D01*
X02936D02*
X02947D01*
X02912D02*
X02926D01*
X02869D02*
X02882D01*
X02856D02*
X0286D01*
X02835D02*
X02845D01*
X02778D02*
X02826D01*
X02741D02*
X02767D01*
X02707D02*
X0273D01*
X02639D02*
X02696D01*
X0376Y00498D02*
X03892D01*
X03696D02*
X03756D01*
X03673D02*
X0368D01*
X03653D02*
X03669D01*
X03646D02*
X03651D01*
X03601D02*
X03643D01*
X0353D02*
X03589D01*
X03499D02*
X03525D01*
X03486D02*
X03488D01*
X03442D02*
X0347D01*
X03387D02*
X03398D01*
X03344D02*
X03376D01*
X03316D02*
X03333D01*
X03297D02*
X03306D01*
X03244D02*
X03286D01*
X03208D02*
X03233D01*
X03187D02*
X03198D01*
X03163D02*
X03177D01*
X0312D02*
X03133D01*
X03107D02*
X03111D01*
X03086D02*
X03096D01*
X02993D02*
X03077D01*
X02957D02*
X02982D01*
X02936D02*
X02947D01*
X02912D02*
X02926D01*
X02869D02*
X02882D01*
X02856D02*
X0286D01*
X02835D02*
X02845D01*
X02778D02*
X02826D01*
X02741D02*
X02767D01*
X02707D02*
X0273D01*
X02639D02*
X02696D01*
X0376Y00497D02*
X03892D01*
X03696D02*
X03756D01*
X03673D02*
X0368D01*
X03664D02*
X03669D01*
X03652D02*
X03658D01*
X03646D02*
X03651D01*
X03601D02*
X03643D01*
X0353D02*
X03589D01*
X03499D02*
X03525D01*
X03487D02*
X03488D01*
X03442D02*
X03469D01*
X03387D02*
X03398D01*
X03344D02*
X03376D01*
X03316D02*
X03333D01*
X03296D02*
X03306D01*
X0325D02*
X03286D01*
X03208D02*
X03221D01*
X03187D02*
X03197D01*
X03163D02*
X03177D01*
X0312D02*
X03133D01*
X03106D02*
X03111D01*
X03086D02*
X03095D01*
X02999D02*
X03077D01*
X02957D02*
X0297D01*
X02936D02*
X02946D01*
X02912D02*
X02926D01*
X02869D02*
X02882D01*
X02855D02*
X0286D01*
X02835D02*
X02844D01*
X02778D02*
X02826D01*
X02741D02*
X02767D01*
X02707D02*
X0273D01*
X02639D02*
X02696D01*
X0376Y00496D02*
X03892D01*
X03696D02*
X03756D01*
X03673D02*
X0368D01*
X03664D02*
X03669D01*
X03652D02*
X03658D01*
X03646D02*
X03651D01*
X03601D02*
X03643D01*
X0353D02*
X03589D01*
X03499D02*
X03525D01*
X03442D02*
X03469D01*
X03387D02*
X03398D01*
X03344D02*
X03376D01*
X03317D02*
X03333D01*
X03296D02*
X03307D01*
X0325D02*
X03285D01*
X03208D02*
X03221D01*
X03187D02*
X03197D01*
X03163D02*
X03177D01*
X0312D02*
X03133D01*
X03106D02*
X03111D01*
X03086D02*
X03095D01*
X02999D02*
X03077D01*
X02957D02*
X0297D01*
X02936D02*
X02946D01*
X02912D02*
X02926D01*
X02869D02*
X02882D01*
X02855D02*
X0286D01*
X02835D02*
X02844D01*
X02778D02*
X02826D01*
X02741D02*
X02767D01*
X02707D02*
X0273D01*
X02639D02*
X02696D01*
X0376Y00495D02*
X03892D01*
X03696D02*
X03756D01*
X03673D02*
X0368D01*
X03664D02*
X03669D01*
X03653D02*
X03657D01*
X03646D02*
X03651D01*
X03601D02*
X03643D01*
X0353D02*
X03589D01*
X03499D02*
X03525D01*
X03442D02*
X03468D01*
X03387D02*
X03398D01*
X03344D02*
X03376D01*
X03317D02*
X03333D01*
X03295D02*
X03307D01*
X0325D02*
X03285D01*
X03208D02*
X03221D01*
X03187D02*
X03197D01*
X03163D02*
X03177D01*
X0312D02*
X03133D01*
X03105D02*
X03111D01*
X03086D02*
X03094D01*
X02999D02*
X03077D01*
X02957D02*
X0297D01*
X02936D02*
X02946D01*
X02912D02*
X02926D01*
X02869D02*
X02882D01*
X02854D02*
X0286D01*
X02835D02*
X02843D01*
X02778D02*
X02826D01*
X02741D02*
X02767D01*
X02707D02*
X0273D01*
X02639D02*
X02696D01*
X0376Y00494D02*
X03892D01*
X03695D02*
X03756D01*
X03673D02*
X0368D01*
X03664D02*
X03669D01*
X03653D02*
X03657D01*
X03646D02*
X03651D01*
X03601D02*
X03643D01*
X0353D02*
X0359D01*
X03499D02*
X03525D01*
X03442D02*
X03467D01*
X03387D02*
X03398D01*
X03344D02*
X03376D01*
X03318D02*
X03333D01*
X03295D02*
X03307D01*
X0325D02*
X03284D01*
X03208D02*
X03221D01*
X03187D02*
X03197D01*
X03163D02*
X03177D01*
X0312D02*
X03133D01*
X03104D02*
X03111D01*
X03086D02*
X03093D01*
X02999D02*
X03077D01*
X02957D02*
X0297D01*
X02936D02*
X02946D01*
X02912D02*
X02926D01*
X02869D02*
X02882D01*
X02853D02*
X0286D01*
X02835D02*
X02842D01*
X02778D02*
X02826D01*
X02741D02*
X02767D01*
X02707D02*
X0273D01*
X02639D02*
X02696D01*
X0376Y00493D02*
X03892D01*
X03693D02*
X03756D01*
X03673D02*
X0368D01*
X03663D02*
X03669D01*
X03645D02*
X03658D01*
X03636D02*
X03643D01*
X03601D02*
X03635D01*
X0353D02*
X03592D01*
X03499D02*
X03525D01*
X03442D02*
X03467D01*
X03387D02*
X03398D01*
X03344D02*
X03376D01*
X03318D02*
X03333D01*
X03295D02*
X03308D01*
X0325D02*
X03284D01*
X03208D02*
X03221D01*
X03187D02*
X03197D01*
X03163D02*
X03177D01*
X0312D02*
X03133D01*
X03104D02*
X03111D01*
X03086D02*
X03093D01*
X02999D02*
X03077D01*
X02957D02*
X0297D01*
X02936D02*
X02946D01*
X02912D02*
X02926D01*
X02869D02*
X02882D01*
X02853D02*
X0286D01*
X02835D02*
X02842D01*
X02778D02*
X02826D01*
X02741D02*
X02767D01*
X02707D02*
X0273D01*
X02639D02*
X02696D01*
X0376Y00492D02*
X03892D01*
X03692D02*
X03756D01*
X03673D02*
X0368D01*
X03663D02*
X03669D01*
X03645D02*
X03658D01*
X03636D02*
X03643D01*
X03601D02*
X03634D01*
X0353D02*
X03594D01*
X03499D02*
X03525D01*
X03478D02*
X0348D01*
X03442D02*
X03466D01*
X03387D02*
X03398D01*
X03344D02*
X03376D01*
X03318D02*
X03333D01*
X03294D02*
X03308D01*
X0325D02*
X03284D01*
X03208D02*
X03221D01*
X03187D02*
X03197D01*
X03163D02*
X03177D01*
X0312D02*
X03133D01*
X03103D02*
X03111D01*
X03086D02*
X03092D01*
X02999D02*
X03077D01*
X02957D02*
X0297D01*
X02936D02*
X02946D01*
X02912D02*
X02926D01*
X02869D02*
X02882D01*
X02852D02*
X0286D01*
X02835D02*
X02841D01*
X02778D02*
X02826D01*
X02741D02*
X02767D01*
X02707D02*
X0273D01*
X02639D02*
X02696D01*
X0376Y00491D02*
X03892D01*
X03691D02*
X03756D01*
X0353D02*
X03595D01*
X03499D02*
X03525D01*
X03477D02*
X03481D01*
X03442D02*
X03466D01*
X03387D02*
X03398D01*
X03344D02*
X03376D01*
X03319D02*
X03333D01*
X03294D02*
X03308D01*
X0325D02*
X03283D01*
X03208D02*
X03221D01*
X03187D02*
X03197D01*
X03163D02*
X03177D01*
X0312D02*
X03133D01*
X03102D02*
X03111D01*
X03086D02*
X03091D01*
X02999D02*
X03077D01*
X02957D02*
X0297D01*
X02936D02*
X02946D01*
X02912D02*
X02926D01*
X02869D02*
X02882D01*
X02851D02*
X0286D01*
X02835D02*
X0284D01*
X02778D02*
X02826D01*
X02741D02*
X02767D01*
X02707D02*
X0273D01*
X02639D02*
X02696D01*
X0376Y0049D02*
X03892D01*
X03687D02*
X03756D01*
X0353D02*
X03598D01*
X03499D02*
X03525D01*
X03477D02*
X03482D01*
X03442D02*
X03465D01*
X03408D02*
X03431D01*
X03387D02*
X03398D01*
X03344D02*
X03376D01*
X03319D02*
X03333D01*
X03294D02*
X03309D01*
X03244D02*
X03283D01*
X03208D02*
X03233D01*
X03187D02*
X03197D01*
X03163D02*
X03177D01*
X0312D02*
X03152D01*
X03102D02*
X03111D01*
X03086D02*
X03091D01*
X03043D02*
X03077D01*
X02993D02*
X03022D01*
X02957D02*
X02982D01*
X02936D02*
X02946D01*
X02912D02*
X02926D01*
X02869D02*
X02901D01*
X02851D02*
X0286D01*
X02835D02*
X0284D01*
X02778D02*
X02826D01*
X02741D02*
X02767D01*
X02707D02*
X0273D01*
X02639D02*
X02696D01*
X0376Y00489D02*
X03892D01*
X03686D02*
X03756D01*
X0353D02*
X03599D01*
X03499D02*
X03525D01*
X03476D02*
X03483D01*
X03442D02*
X03464D01*
X03408D02*
X03431D01*
X03387D02*
X03398D01*
X03344D02*
X03376D01*
X03319D02*
X03334D01*
X03293D02*
X03309D01*
X03244D02*
X03282D01*
X03208D02*
X03233D01*
X03187D02*
X03198D01*
X03163D02*
X03177D01*
X0312D02*
X03152D01*
X03101D02*
X03111D01*
X03086D02*
X0309D01*
X03043D02*
X03077D01*
X02993D02*
X03022D01*
X02957D02*
X02982D01*
X02936D02*
X02947D01*
X02912D02*
X02926D01*
X02869D02*
X02901D01*
X0285D02*
X0286D01*
X02835D02*
X02839D01*
X02778D02*
X02826D01*
X02741D02*
X02767D01*
X02707D02*
X0273D01*
X02639D02*
X02696D01*
X0376Y00488D02*
X03892D01*
X03685D02*
X03756D01*
X0353D02*
X03601D01*
X03499D02*
X03525D01*
X03475D02*
X03484D01*
X03442D02*
X03464D01*
X03408D02*
X03431D01*
X03387D02*
X03398D01*
X03345D02*
X03376D01*
X0332D02*
X03334D01*
X03293D02*
X03309D01*
X03244D02*
X03282D01*
X03208D02*
X03233D01*
X03187D02*
X03198D01*
X03163D02*
X03177D01*
X0312D02*
X03152D01*
X03101D02*
X03111D01*
X03086D02*
X0309D01*
X03043D02*
X03077D01*
X02993D02*
X03022D01*
X02957D02*
X02982D01*
X02936D02*
X02947D01*
X02912D02*
X02926D01*
X02869D02*
X02901D01*
X0285D02*
X0286D01*
X02835D02*
X02839D01*
X02778D02*
X02826D01*
X02741D02*
X02767D01*
X02707D02*
X0273D01*
X02639D02*
X02696D01*
X0376Y00487D02*
X03892D01*
X03683D02*
X03756D01*
X0353D02*
X03603D01*
X03499D02*
X03525D01*
X03475D02*
X03484D01*
X03442D02*
X03463D01*
X03408D02*
X03431D01*
X03387D02*
X03398D01*
X03345D02*
X03376D01*
X0332D02*
X03334D01*
X03244D02*
X03282D01*
X03208D02*
X03233D01*
X03187D02*
X03198D01*
X03163D02*
X03177D01*
X0312D02*
X03152D01*
X031D02*
X03111D01*
X03086D02*
X03089D01*
X03043D02*
X03077D01*
X02993D02*
X03022D01*
X02957D02*
X02982D01*
X02936D02*
X02947D01*
X02912D02*
X02926D01*
X02869D02*
X02901D01*
X02849D02*
X0286D01*
X02835D02*
X02838D01*
X02778D02*
X02826D01*
X02741D02*
X02767D01*
X02707D02*
X0273D01*
X02639D02*
X02696D01*
X0376Y00486D02*
X03892D01*
X03681D02*
X03756D01*
X0353D02*
X03604D01*
X03499D02*
X03525D01*
X03474D02*
X03485D01*
X03442D02*
X03462D01*
X03408D02*
X03431D01*
X03386D02*
X03398D01*
X03345D02*
X03375D01*
X03321D02*
X03334D01*
X03244D02*
X03281D01*
X03209D02*
X03233D01*
X03187D02*
X03198D01*
X03163D02*
X03177D01*
X0312D02*
X03152D01*
X03099D02*
X03111D01*
X03086D02*
X03088D01*
X03043D02*
X03077D01*
X02993D02*
X03022D01*
X02958D02*
X02982D01*
X02936D02*
X02947D01*
X02912D02*
X02926D01*
X02869D02*
X02901D01*
X02848D02*
X0286D01*
X02835D02*
X02837D01*
X02778D02*
X02826D01*
X02741D02*
X02767D01*
X02707D02*
X0273D01*
X02639D02*
X02696D01*
X0376Y00485D02*
X03892D01*
X0368D02*
X03756D01*
X0353D02*
X03605D01*
X03499D02*
X03525D01*
X03474D02*
X03486D01*
X03442D02*
X03462D01*
X03408D02*
X03431D01*
X03386D02*
X03398D01*
X03345D02*
X03375D01*
X03321D02*
X03334D01*
X03244D02*
X03281D01*
X03209D02*
X03233D01*
X03187D02*
X03198D01*
X03163D02*
X03177D01*
X0312D02*
X03152D01*
X03099D02*
X03111D01*
X03086D02*
X03088D01*
X03043D02*
X03077D01*
X02993D02*
X03022D01*
X02958D02*
X02982D01*
X02936D02*
X02947D01*
X02912D02*
X02926D01*
X02869D02*
X02901D01*
X02848D02*
X0286D01*
X02835D02*
X02837D01*
X02778D02*
X02826D01*
X02741D02*
X02767D01*
X02707D02*
X0273D01*
X02639D02*
X02696D01*
X0376Y00484D02*
X03892D01*
X03678D02*
X03756D01*
X0353D02*
X03607D01*
X03499D02*
X03525D01*
X03473D02*
X03487D01*
X03442D02*
X03461D01*
X03408D02*
X03431D01*
X03386D02*
X03398D01*
X03346D02*
X03375D01*
X03321D02*
X03335D01*
X03244D02*
X0328D01*
X03209D02*
X03233D01*
X03187D02*
X03198D01*
X03163D02*
X03177D01*
X0312D02*
X03152D01*
X03098D02*
X03111D01*
X03086D02*
X03087D01*
X03043D02*
X03077D01*
X02993D02*
X03022D01*
X02958D02*
X02982D01*
X02936D02*
X02947D01*
X02912D02*
X02926D01*
X02869D02*
X02901D01*
X02847D02*
X0286D01*
X02835D02*
X02836D01*
X02778D02*
X02826D01*
X02741D02*
X02767D01*
X02707D02*
X0273D01*
X02639D02*
X02696D01*
X0376Y00483D02*
X03892D01*
X03677D02*
X03756D01*
X0353D02*
X03609D01*
X03499D02*
X03525D01*
X03473D02*
X03488D01*
X03442D02*
X0346D01*
X03408D02*
X03431D01*
X03386D02*
X03398D01*
X03346D02*
X03374D01*
X03322D02*
X03335D01*
X03244D02*
X0328D01*
X03209D02*
X03233D01*
X03187D02*
X03199D01*
X03163D02*
X03177D01*
X0312D02*
X03152D01*
X03098D02*
X03111D01*
X03043D02*
X03077D01*
X02993D02*
X03022D01*
X02958D02*
X02982D01*
X02936D02*
X02948D01*
X02912D02*
X02926D01*
X02869D02*
X02901D01*
X02847D02*
X0286D01*
X02778D02*
X02826D01*
X02741D02*
X02767D01*
X02707D02*
X0273D01*
X02639D02*
X02696D01*
X0376Y00482D02*
X03892D01*
X03674D02*
X03756D01*
X0353D02*
X03612D01*
X03499D02*
X03525D01*
X03472D02*
X03488D01*
X03442D02*
X0346D01*
X03408D02*
X03431D01*
X03385D02*
X03398D01*
X03346D02*
X03374D01*
X03322D02*
X03335D01*
X03244D02*
X0328D01*
X0321D02*
X03233D01*
X03187D02*
X03199D01*
X03163D02*
X03177D01*
X0312D02*
X03152D01*
X03097D02*
X03111D01*
X03043D02*
X03077D01*
X02993D02*
X03022D01*
X02959D02*
X02982D01*
X02936D02*
X02948D01*
X02912D02*
X02926D01*
X02869D02*
X02901D01*
X02846D02*
X0286D01*
X02778D02*
X02826D01*
X02741D02*
X02767D01*
X02707D02*
X0273D01*
X02639D02*
X02696D01*
X0376Y00481D02*
X03892D01*
X03672D02*
X03756D01*
X0353D02*
X03613D01*
X03499D02*
X03525D01*
X03471D02*
X03488D01*
X03442D02*
X03459D01*
X03408D02*
X03431D01*
X03385D02*
X03398D01*
X03347D02*
X03373D01*
X03323D02*
X03335D01*
X03244D02*
X03279D01*
X0321D02*
X03233D01*
X03187D02*
X03199D01*
X03163D02*
X03177D01*
X0312D02*
X03152D01*
X03096D02*
X03111D01*
X02993D02*
X03077D01*
X02959D02*
X02982D01*
X02936D02*
X02948D01*
X02912D02*
X02926D01*
X02869D02*
X02901D01*
X02845D02*
X0286D01*
X02778D02*
X02826D01*
X02741D02*
X02767D01*
X02707D02*
X02729D01*
X02639D02*
X02696D01*
X0376Y0048D02*
X03892D01*
X0367D02*
X03756D01*
X0353D02*
X03615D01*
X03499D02*
X03525D01*
X03471D02*
X03488D01*
X03442D02*
X03458D01*
X03408D02*
X03431D01*
X03384D02*
X03398D01*
X03348D02*
X03373D01*
X03323D02*
X03336D01*
X03244D02*
X03279D01*
X0321D02*
X03233D01*
X03187D02*
X032D01*
X03163D02*
X03177D01*
X0312D02*
X03152D01*
X03096D02*
X03111D01*
X02993D02*
X03077D01*
X02959D02*
X02982D01*
X02936D02*
X02949D01*
X02912D02*
X02926D01*
X02869D02*
X02901D01*
X02845D02*
X0286D01*
X02778D02*
X02826D01*
X0274D02*
X02767D01*
X02708D02*
X02729D01*
X02639D02*
X02696D01*
X0376Y00479D02*
X03892D01*
X03669D02*
X03756D01*
X0353D02*
X03616D01*
X03499D02*
X03525D01*
X0347D02*
X03488D01*
X03442D02*
X03458D01*
X03408D02*
X03431D01*
X03384D02*
X03398D01*
X03348D02*
X03372D01*
X03323D02*
X03336D01*
X03244D02*
X03278D01*
X03211D02*
X03233D01*
X03187D02*
X032D01*
X03163D02*
X03177D01*
X0312D02*
X03152D01*
X03095D02*
X03111D01*
X02993D02*
X03077D01*
X0296D02*
X02982D01*
X02936D02*
X02949D01*
X02912D02*
X02926D01*
X02869D02*
X02901D01*
X02844D02*
X0286D01*
X02778D02*
X02826D01*
X0274D02*
X02767D01*
X02708D02*
X02729D01*
X02639D02*
X02697D01*
X0376Y00478D02*
X03892D01*
X03668D02*
X03756D01*
X0353D02*
X03618D01*
X03499D02*
X03525D01*
X0347D02*
X03488D01*
X03442D02*
X03457D01*
X03408D02*
X03431D01*
X03384D02*
X03398D01*
X03349D02*
X03371D01*
X03324D02*
X03337D01*
X03289D02*
X03313D01*
X03244D02*
X03278D01*
X03212D02*
X03233D01*
X03187D02*
X03201D01*
X03163D02*
X03177D01*
X0312D02*
X03152D01*
X03094D02*
X03111D01*
X02993D02*
X03077D01*
X02961D02*
X02982D01*
X02936D02*
X0295D01*
X02912D02*
X02926D01*
X02869D02*
X02901D01*
X02843D02*
X0286D01*
X02778D02*
X02826D01*
X0274D02*
X02767D01*
X02709D02*
X02728D01*
X02639D02*
X02697D01*
X0376Y00477D02*
X03892D01*
X03666D02*
X03756D01*
X0353D02*
X0362D01*
X03499D02*
X03525D01*
X03469D02*
X03488D01*
X03442D02*
X03456D01*
X03408D02*
X03431D01*
X03383D02*
X03398D01*
X0335D02*
X0337D01*
X03324D02*
X03337D01*
X03289D02*
X03314D01*
X03244D02*
X03278D01*
X03213D02*
X03233D01*
X03187D02*
X03201D01*
X03163D02*
X03177D01*
X0312D02*
X03152D01*
X03094D02*
X03111D01*
X02993D02*
X03077D01*
X02962D02*
X02982D01*
X02936D02*
X0295D01*
X02912D02*
X02926D01*
X02869D02*
X02901D01*
X02843D02*
X0286D01*
X02778D02*
X02826D01*
X02739D02*
X02767D01*
X0271D02*
X02727D01*
X02639D02*
X02697D01*
X0376Y00476D02*
X03892D01*
X03664D02*
X03756D01*
X0353D02*
X03621D01*
X03499D02*
X03525D01*
X03468D02*
X03488D01*
X03442D02*
X03456D01*
X03408D02*
X03431D01*
X03382D02*
X03398D01*
X03352D02*
X03368D01*
X03325D02*
X03338D01*
X03288D02*
X03314D01*
X03244D02*
X03277D01*
X03215D02*
X03233D01*
X03187D02*
X03202D01*
X03163D02*
X03177D01*
X0312D02*
X03152D01*
X03093D02*
X03111D01*
X02993D02*
X03077D01*
X02964D02*
X02982D01*
X02936D02*
X02951D01*
X02912D02*
X02926D01*
X02869D02*
X02901D01*
X02842D02*
X0286D01*
X02778D02*
X02826D01*
X02739D02*
X02767D01*
X02711D02*
X02726D01*
X02639D02*
X02698D01*
X0376Y00475D02*
X03892D01*
X03663D02*
X03756D01*
X0353D02*
X03622D01*
X03499D02*
X03525D01*
X03468D02*
X03488D01*
X03442D02*
X03455D01*
X03408D02*
X03431D01*
X03382D02*
X03398D01*
X03354D02*
X03366D01*
X03325D02*
X03339D01*
X03288D02*
X03314D01*
X03244D02*
X03277D01*
X03218D02*
X03233D01*
X03187D02*
X03202D01*
X03163D02*
X03177D01*
X0312D02*
X03152D01*
X03093D02*
X03111D01*
X02993D02*
X03077D01*
X02967D02*
X02982D01*
X02936D02*
X02951D01*
X02912D02*
X02926D01*
X02869D02*
X02901D01*
X02842D02*
X0286D01*
X02778D02*
X02826D01*
X02738D02*
X02767D01*
X02713D02*
X02724D01*
X02639D02*
X02698D01*
X0376Y00474D02*
X03892D01*
X0366D02*
X03756D01*
X0353D02*
X03626D01*
X03499D02*
X03525D01*
X03467D02*
X03488D01*
X03442D02*
X03454D01*
X03408D02*
X03431D01*
X03381D02*
X03398D01*
X03358D02*
X03363D01*
X03325D02*
X0334D01*
X03287D02*
X03315D01*
X03244D02*
X03276D01*
X03187D02*
X03203D01*
X03163D02*
X03177D01*
X0312D02*
X03132D01*
X03092D02*
X03111D01*
X02993D02*
X03077D01*
X02936D02*
X02952D01*
X02912D02*
X02926D01*
X02869D02*
X02881D01*
X02841D02*
X0286D01*
X02778D02*
X02826D01*
X02738D02*
X02767D01*
X02639D02*
X02699D01*
X0376Y00473D02*
X03892D01*
X03658D02*
X03756D01*
X0353D02*
X03628D01*
X03499D02*
X03525D01*
X03467D02*
X03488D01*
X03442D02*
X03454D01*
X03408D02*
X03431D01*
X0338D02*
X03398D01*
X03326D02*
X0334D01*
X03287D02*
X03315D01*
X03244D02*
X03276D01*
X03187D02*
X03204D01*
X03163D02*
X03177D01*
X0312D02*
X03132D01*
X03091D02*
X03111D01*
X02993D02*
X03077D01*
X02936D02*
X02953D01*
X02912D02*
X02926D01*
X02869D02*
X02881D01*
X0284D02*
X0286D01*
X02778D02*
X02826D01*
X02737D02*
X02767D01*
X02639D02*
X027D01*
X0376Y00472D02*
X03892D01*
X03657D02*
X03756D01*
X0353D02*
X03628D01*
X03499D02*
X03525D01*
X03466D02*
X03488D01*
X03442D02*
X03453D01*
X03408D02*
X03431D01*
X03379D02*
X03398D01*
X03326D02*
X03341D01*
X03287D02*
X03315D01*
X03244D02*
X03276D01*
X03187D02*
X03205D01*
X03163D02*
X03177D01*
X0312D02*
X03132D01*
X03091D02*
X03111D01*
X02993D02*
X03077D01*
X02936D02*
X02954D01*
X02912D02*
X02926D01*
X02869D02*
X02881D01*
X0284D02*
X0286D01*
X02778D02*
X02826D01*
X02736D02*
X02767D01*
X02639D02*
X02701D01*
X0376Y00471D02*
X03892D01*
X03655D02*
X03756D01*
X0353D02*
X0363D01*
X03499D02*
X03525D01*
X03465D02*
X03488D01*
X03442D02*
X03453D01*
X03408D02*
X03431D01*
X03378D02*
X03398D01*
X03326D02*
X03342D01*
X03286D02*
X03316D01*
X03244D02*
X03275D01*
X03187D02*
X03206D01*
X03163D02*
X03177D01*
X0312D02*
X03132D01*
X0309D02*
X03111D01*
X02993D02*
X03077D01*
X02936D02*
X02955D01*
X02912D02*
X02926D01*
X02869D02*
X02881D01*
X02839D02*
X0286D01*
X02778D02*
X02826D01*
X02735D02*
X02767D01*
X02639D02*
X02702D01*
X0376Y0047D02*
X03892D01*
X03653D02*
X03756D01*
X0353D02*
X03632D01*
X03499D02*
X03525D01*
X03465D02*
X03488D01*
X03442D02*
X03452D01*
X03408D02*
X03431D01*
X03377D02*
X03398D01*
X03327D02*
X03344D01*
X03286D02*
X03316D01*
X03244D02*
X03275D01*
X03187D02*
X03207D01*
X03163D02*
X03177D01*
X0312D02*
X03132D01*
X0309D02*
X03111D01*
X02993D02*
X03077D01*
X02936D02*
X02956D01*
X02912D02*
X02926D01*
X02869D02*
X02881D01*
X02839D02*
X0286D01*
X02778D02*
X02826D01*
X02734D02*
X02767D01*
X02639D02*
X02703D01*
X0376Y00469D02*
X03892D01*
X03652D02*
X03756D01*
X0353D02*
X03634D01*
X03499D02*
X03525D01*
X03464D02*
X03488D01*
X03442D02*
X03451D01*
X03408D02*
X03431D01*
X03375D02*
X03398D01*
X03327D02*
X03345D01*
X03286D02*
X03316D01*
X03244D02*
X03274D01*
X03187D02*
X03209D01*
X03163D02*
X03177D01*
X0312D02*
X03132D01*
X03089D02*
X03111D01*
X02993D02*
X03077D01*
X02936D02*
X02958D01*
X02912D02*
X02926D01*
X02869D02*
X02881D01*
X02838D02*
X0286D01*
X02778D02*
X02826D01*
X02733D02*
X02767D01*
X02639D02*
X02704D01*
X0376Y00468D02*
X03892D01*
X03651D02*
X03756D01*
X0353D02*
X03635D01*
X03499D02*
X03525D01*
X03464D02*
X03488D01*
X03442D02*
X03451D01*
X03408D02*
X03431D01*
X03373D02*
X03398D01*
X03328D02*
X03347D01*
X03285D02*
X03317D01*
X03244D02*
X03274D01*
X03187D02*
X03211D01*
X03163D02*
X03177D01*
X0312D02*
X03132D01*
X03088D02*
X03111D01*
X02993D02*
X03077D01*
X02936D02*
X0296D01*
X02912D02*
X02926D01*
X02869D02*
X02881D01*
X02837D02*
X0286D01*
X02778D02*
X02826D01*
X02731D02*
X02767D01*
X02639D02*
X02706D01*
X0376Y00467D02*
X03892D01*
X03649D02*
X03756D01*
X0353D02*
X03636D01*
X03499D02*
X03525D01*
X03463D02*
X03488D01*
X03442D02*
X0345D01*
X03408D02*
X03431D01*
X03371D02*
X03398D01*
X03328D02*
X03349D01*
X03285D02*
X03317D01*
X03244D02*
X03274D01*
X03187D02*
X03214D01*
X03163D02*
X03177D01*
X0312D02*
X03132D01*
X03088D02*
X03111D01*
X02993D02*
X03077D01*
X02936D02*
X02963D01*
X02912D02*
X02926D01*
X02869D02*
X02881D01*
X02837D02*
X0286D01*
X02778D02*
X02826D01*
X02729D02*
X02767D01*
X02639D02*
X02708D01*
X0376Y00466D02*
X03892D01*
X03646D02*
X03756D01*
X0353D02*
X03639D01*
X03499D02*
X03525D01*
X03463D02*
X03488D01*
X03442D02*
X03449D01*
X03408D02*
X03431D01*
X03368D02*
X03398D01*
X03328D02*
X03352D01*
X03284D02*
X03318D01*
X03244D02*
X03273D01*
X03187D02*
X03222D01*
X03163D02*
X03177D01*
X0312D02*
X03132D01*
X03087D02*
X03111D01*
X02993D02*
X03077D01*
X02936D02*
X02971D01*
X02912D02*
X02926D01*
X02869D02*
X02881D01*
X02836D02*
X0286D01*
X02778D02*
X02826D01*
X02726D02*
X02767D01*
X02639D02*
X02711D01*
X0376Y00465D02*
X03892D01*
X03645D02*
X03756D01*
X0353D02*
X03641D01*
X02639D02*
X03525D01*
X0376Y00464D02*
X03892D01*
X0353D02*
X03756D01*
X02639D02*
X03525D01*
X0376Y00463D02*
X03892D01*
X0353D02*
X03756D01*
X02639D02*
X03525D01*
X0376Y00462D02*
X03892D01*
X0353D02*
X03756D01*
X02639D02*
X03525D01*
X03759Y00461D02*
X03892D01*
X0353D02*
X03756D01*
X02639D02*
X03526D01*
X03759Y0046D02*
X03892D01*
X0353D02*
X03756D01*
X02639D02*
X03526D01*
X03759Y00459D02*
X03892D01*
X03531D02*
X03755D01*
X03151D02*
X03526D01*
X029D02*
X03144D01*
X02639D02*
X02893D01*
X03758Y00458D02*
X03892D01*
X03531D02*
X03754D01*
X03152D02*
X03527D01*
X02901D02*
X03142D01*
X02639D02*
X02891D01*
X03758Y00457D02*
X03892D01*
X03645D02*
X03752D01*
X03533D02*
X03641D01*
X03153D02*
X03528D01*
X02902D02*
X03142D01*
X02639D02*
X02891D01*
X03757Y00456D02*
X03892D01*
X03646D02*
X0375D01*
X03535D02*
X03639D01*
X03153D02*
X03529D01*
X02902D02*
X03141D01*
X02639D02*
X0289D01*
X03755Y00455D02*
X03892D01*
X03647D02*
X03749D01*
X03537D02*
X03638D01*
X03153D02*
X03531D01*
X02902D02*
X03141D01*
X02639D02*
X0289D01*
X03753Y00454D02*
X03892D01*
X03649D02*
X03748D01*
X03538D02*
X03636D01*
X03153D02*
X03532D01*
X02902D02*
X03141D01*
X02639D02*
X0289D01*
X03752Y00453D02*
X03892D01*
X03651D02*
X03746D01*
X03539D02*
X03635D01*
X03153D02*
X03533D01*
X02902D02*
X03141D01*
X02639D02*
X0289D01*
X0375Y00452D02*
X03892D01*
X03653D02*
X03744D01*
X03639D02*
X03645D01*
X03541D02*
X03634D01*
X03152D02*
X03535D01*
X02901D02*
X03142D01*
X02639D02*
X02891D01*
X03749Y00451D02*
X03892D01*
X03655D02*
X03742D01*
X03637D02*
X03647D01*
X03544D02*
X0363D01*
X03152D02*
X03537D01*
X02901D02*
X03143D01*
X02639D02*
X02892D01*
X03746Y0045D02*
X03892D01*
X03657D02*
X0374D01*
X03635D02*
X0365D01*
X03546D02*
X03628D01*
X0315D02*
X03539D01*
X02899D02*
X03144D01*
X02639D02*
X02893D01*
X03744Y00449D02*
X03892D01*
X03658D02*
X03738D01*
X03633D02*
X03652D01*
X03547D02*
X03628D01*
X02639D02*
X03541D01*
X03742Y00448D02*
X03892D01*
X0366D02*
X03737D01*
X03632D02*
X03653D01*
X03548D02*
X03626D01*
X02639D02*
X03543D01*
X03742Y00447D02*
X03892D01*
X03661D02*
X03735D01*
X0363D02*
X03655D01*
X0355D02*
X03624D01*
X02639D02*
X03544D01*
X0374Y00446D02*
X03892D01*
X03663D02*
X03734D01*
X03629D02*
X03656D01*
X03552D02*
X03622D01*
X02639D02*
X03546D01*
X03738Y00445D02*
X03892D01*
X03664D02*
X03732D01*
X03627D02*
X03658D01*
X03554D02*
X03621D01*
X02639D02*
X03547D01*
X03736Y00444D02*
X03892D01*
X03666D02*
X03731D01*
X03626D02*
X0366D01*
X03555D02*
X0362D01*
X02639D02*
X03549D01*
X03735Y00443D02*
X03892D01*
X03669D02*
X03727D01*
X03624D02*
X03661D01*
X03558D02*
X03616D01*
X02639D02*
X0355D01*
X03732Y00442D02*
X03892D01*
X0367D02*
X03726D01*
X0362D02*
X03664D01*
X03559D02*
X03615D01*
X02639D02*
X03554D01*
X0373Y00441D02*
X03892D01*
X03672D02*
X03725D01*
X0362D02*
X03666D01*
X03561D02*
X03613D01*
X02639D02*
X03555D01*
X03729Y0044D02*
X03892D01*
X03674D02*
X03723D01*
X03618D02*
X03667D01*
X03563D02*
X03612D01*
X02639D02*
X03556D01*
X03727Y00439D02*
X03892D01*
X03675D02*
X03721D01*
X03616D02*
X03669D01*
X03564D02*
X0361D01*
X02639D02*
X03558D01*
X03726Y00438D02*
X03892D01*
X03677D02*
X03719D01*
X03614D02*
X0367D01*
X03565D02*
X03609D01*
X02639D02*
X0356D01*
X03725Y00437D02*
X03892D01*
X03678D02*
X03718D01*
X03613D02*
X03672D01*
X03567D02*
X03607D01*
X02639D02*
X03561D01*
X03723Y00436D02*
X03892D01*
X0368D02*
X03717D01*
X03612D02*
X03673D01*
X03569D02*
X03605D01*
X02639D02*
X03563D01*
X03721Y00435D02*
X03892D01*
X03683D02*
X03714D01*
X0361D02*
X03675D01*
X03572D02*
X03603D01*
X02639D02*
X03564D01*
X03718Y00434D02*
X03892D01*
X03685D02*
X03712D01*
X03607D02*
X03678D01*
X03573D02*
X03601D01*
X02639D02*
X03567D01*
X03717Y00433D02*
X03892D01*
X03686D02*
X0371D01*
X03605D02*
X0368D01*
X03575D02*
X03599D01*
X02639D02*
X03569D01*
X03715Y00432D02*
X03892D01*
X03687D02*
X03709D01*
X03604D02*
X03682D01*
X03577D02*
X03598D01*
X02639D02*
X03571D01*
X03713Y00431D02*
X03892D01*
X03689D02*
X03708D01*
X03603D02*
X03683D01*
X03578D02*
X03596D01*
X02639D02*
X03572D01*
X03712Y0043D02*
X03892D01*
X03691D02*
X03706D01*
X03601D02*
X03685D01*
X0358D02*
X03595D01*
X02639D02*
X03573D01*
X0371Y00429D02*
X03892D01*
X03693D02*
X03704D01*
X03599D02*
X03686D01*
X03581D02*
X03593D01*
X02639D02*
X03575D01*
X03709Y00428D02*
X03892D01*
X03693D02*
X03703D01*
X03597D02*
X03688D01*
X03582D02*
X03592D01*
X02639D02*
X03577D01*
X03707Y00427D02*
X03892D01*
X03596D02*
X03689D01*
X02639D02*
X03579D01*
X03704Y00426D02*
X03892D01*
X03593D02*
X03693D01*
X02639D02*
X03581D01*
X03702Y00425D02*
X03892D01*
X03591D02*
X03693D01*
X02639D02*
X03583D01*
X03701Y00424D02*
X03892D01*
X0359D02*
X03695D01*
X02639D02*
X03585D01*
X02639Y00423D02*
X03892D01*
X02639Y00422D02*
X03892D01*
X02639Y00421D02*
X03892D01*
X02639Y0042D02*
X03892D01*
X02639Y00419D02*
X03892D01*
X02639Y00418D02*
X03892D01*
X02639Y00417D02*
X03892D01*
X02639Y00416D02*
X03892D01*
X02639Y00415D02*
X03892D01*
X02639Y00414D02*
X03892D01*
X02639Y00413D02*
X03892D01*
X02639Y00412D02*
X03892D01*
X02639Y00411D02*
X03892D01*
X02639Y0041D02*
X03892D01*
X02639Y00409D02*
X03892D01*
X02639Y00408D02*
X03892D01*
X02639Y00407D02*
X03892D01*
X02639Y00406D02*
X03892D01*
X02639Y00405D02*
X03892D01*
X02639Y00404D02*
X03892D01*
X02639Y00403D02*
X03892D01*
X02639Y00402D02*
X03892D01*
X02639Y00401D02*
X03892D01*
X02639Y004D02*
X03892D01*
X02639Y00399D02*
X03892D01*
X02639Y00398D02*
X03892D01*
X02639Y00397D02*
X03892D01*
X02639Y00396D02*
X03892D01*
X02639Y00395D02*
X03892D01*
X02639Y00394D02*
X03892D01*
X02639Y00393D02*
X03892D01*
X02639Y00392D02*
X03892D01*
X02639Y00391D02*
X03892D01*
X02639Y0039D02*
X03892D01*
X02639Y00389D02*
X03892D01*
X02639Y00388D02*
X03892D01*
X02639Y00387D02*
X03892D01*
X02639Y00386D02*
X03892D01*
X02639Y00385D02*
X03892D01*
X02639Y00384D02*
X03892D01*
X02639Y00383D02*
X03892D01*
X02639Y00382D02*
X03892D01*
X02639Y00381D02*
X03892D01*
X02639Y0038D02*
X03892D01*
X02639Y00379D02*
X03892D01*
X02639Y00378D02*
X03892D01*
X02639Y00377D02*
X03892D01*
X02639Y00376D02*
X03892D01*
X02639Y00375D02*
X03892D01*
X02639Y00374D02*
X03892D01*
X02639Y00373D02*
X03892D01*
X02639Y00372D02*
X03892D01*
X02639Y00371D02*
X03892D01*
X02639Y0037D02*
X03892D01*
X02639Y00369D02*
X03892D01*
X02639Y00368D02*
X03892D01*
X02639Y00367D02*
X03892D01*
X02639Y00366D02*
X03892D01*
X02639Y00365D02*
X03892D01*
X02639Y00364D02*
X03892D01*
X02639Y00363D02*
X03892D01*
X02639Y00362D02*
X03892D01*
X02639Y00361D02*
X03892D01*
X02639Y0036D02*
X03892D01*
X02639Y00359D02*
X03892D01*
X02639Y00358D02*
X03892D01*
X02639Y00357D02*
X03892D01*
X02639Y00356D02*
X03892D01*
X02639Y00355D02*
X03892D01*
X02639Y00354D02*
X03892D01*
X02639Y00353D02*
X03892D01*
X02639Y00352D02*
X03892D01*
X02639Y00351D02*
X03892D01*
X02639Y0035D02*
X03892D01*
M02*
