G04*
G04 #@! TF.GenerationSoftware,Altium Limited,Altium Designer,23.6.0 (18)*
G04*
G04 Layer_Color=255*
%FSTAX25Y25*%
%MOIN*%
G70*
G04*
G04 #@! TF.SameCoordinates,CC084146-259E-454A-B071-9D7E5FCC62AE*
G04*
G04*
G04 #@! TF.FilePolarity,Positive*
G04*
G01*
G75*
%ADD20C,0.05906*%
%ADD74C,0.04331*%
%ADD76C,0.06500*%
%ADD77R,0.06500X0.06500*%
%ADD78C,0.05118*%
%ADD79R,0.05118X0.05118*%
%ADD91C,0.07087*%
%ADD92C,0.02362*%
%ADD93C,0.03150*%
%ADD94O,0.04528X0.07087*%
%ADD95O,0.05709X0.07874*%
%ADD96R,0.10000X0.16000*%
%ADD97R,0.16000X0.10000*%
%ADD98O,0.07874X0.08661*%
%ADD99C,0.08661*%
G04:AMPARAMS|DCode=100|XSize=86.61mil|YSize=86.61mil|CornerRadius=21.65mil|HoleSize=0mil|Usage=FLASHONLY|Rotation=270.000|XOffset=0mil|YOffset=0mil|HoleType=Round|Shape=RoundedRectangle|*
%AMROUNDEDRECTD100*
21,1,0.08661,0.04331,0,0,270.0*
21,1,0.04331,0.08661,0,0,270.0*
1,1,0.04331,-0.02165,-0.02165*
1,1,0.04331,-0.02165,0.02165*
1,1,0.04331,0.02165,0.02165*
1,1,0.04331,0.02165,-0.02165*
%
%ADD100ROUNDEDRECTD100*%
%ADD101R,0.05906X0.05906*%
%ADD102O,0.07874X0.05906*%
D20*
X01979Y01065D02*
D03*
Y01165D02*
D03*
Y01265D02*
D03*
D74*
X00188Y01038D02*
D03*
X00189Y01938D02*
D03*
X03896Y00932D02*
D03*
X0236Y02325D02*
D03*
D76*
X01731Y01568D02*
D03*
Y01468D02*
D03*
Y01368D02*
D03*
Y01268D02*
D03*
Y01168D02*
D03*
Y01068D02*
D03*
Y00968D02*
D03*
D77*
Y00868D02*
D03*
D78*
X01602Y001D02*
D03*
X0152326D02*
D03*
X01603Y00236D02*
D03*
X0152426D02*
D03*
D79*
X0144452Y001D02*
D03*
X0144552Y00236D02*
D03*
D91*
X0032Y00426D02*
D03*
X0052Y00336D02*
D03*
X0095917Y0224139D02*
D03*
Y0206029D02*
D03*
Y0178639D02*
D03*
Y0160529D02*
D03*
Y0134139D02*
D03*
Y0116029D02*
D03*
Y0090139D02*
D03*
Y0072029D02*
D03*
D92*
X03494Y0043112D02*
D03*
X03466Y0040412D02*
D03*
X03494Y00376D02*
D03*
X03411Y00349D02*
D03*
X03466D02*
D03*
X0344Y00376D02*
D03*
X03384Y00375D02*
D03*
Y0043012D02*
D03*
X03411Y0040412D02*
D03*
X0344Y0043112D02*
D03*
X03466Y0045924D02*
D03*
X03411D02*
D03*
D93*
X01999Y00185D02*
D03*
X0180215D02*
D03*
D94*
X0205313Y0007673D02*
D03*
X0174802D02*
D03*
D95*
X0204723Y0022634D02*
D03*
X0175392D02*
D03*
D96*
X0171Y02051D02*
D03*
D97*
X0191Y02201D02*
D03*
Y01951D02*
D03*
D98*
X0050642Y0224139D02*
D03*
X0023083D02*
D03*
X0050642Y0178639D02*
D03*
X0023083D02*
D03*
X0050642Y0134139D02*
D03*
X0023083D02*
D03*
X0050642Y0090139D02*
D03*
X0023083D02*
D03*
D99*
X0010386Y00276D02*
D03*
X0009886Y02076D02*
D03*
Y01626D02*
D03*
Y01186D02*
D03*
X00105Y00747D02*
D03*
D100*
X0010386Y00426D02*
D03*
X0009886Y02226D02*
D03*
Y01776D02*
D03*
Y01336D02*
D03*
X00105Y00897D02*
D03*
D101*
X01979Y00965D02*
D03*
D102*
X0089084Y001D02*
D03*
X0099084D02*
D03*
X0109084D02*
D03*
M02*
