G04*
G04 #@! TF.GenerationSoftware,Altium Limited,Altium Designer,23.6.0 (18)*
G04*
G04 Layer_Color=8421504*
%FSTAX25Y25*%
%MOIN*%
G70*
G04*
G04 #@! TF.SameCoordinates,CC084146-259E-454A-B071-9D7E5FCC62AE*
G04*
G04*
G04 #@! TF.FilePolarity,Positive*
G04*
G01*
G75*
%ADD20C,0.05906*%
%ADD21R,0.02165X0.03543*%
%ADD22R,0.03543X0.02165*%
%ADD23R,0.06299X0.05512*%
%ADD24R,0.04331X0.04724*%
%ADD25R,0.06299X0.11811*%
%ADD26R,0.06102X0.08268*%
%ADD27R,0.11811X0.03937*%
%ADD28R,0.05906X0.03543*%
%ADD29R,0.03543X0.05906*%
%ADD30R,0.03543X0.03543*%
%ADD31R,0.07480X0.14961*%
G04:AMPARAMS|DCode=32|XSize=47.64mil|YSize=23.23mil|CornerRadius=2.9mil|HoleSize=0mil|Usage=FLASHONLY|Rotation=270.000|XOffset=0mil|YOffset=0mil|HoleType=Round|Shape=RoundedRectangle|*
%AMROUNDEDRECTD32*
21,1,0.04764,0.01742,0,0,270.0*
21,1,0.04183,0.02323,0,0,270.0*
1,1,0.00581,-0.00871,-0.02092*
1,1,0.00581,-0.00871,0.02092*
1,1,0.00581,0.00871,0.02092*
1,1,0.00581,0.00871,-0.02092*
%
%ADD32ROUNDEDRECTD32*%
%ADD33R,0.08661X0.06299*%
%ADD34R,0.08465X0.12795*%
%ADD35R,0.08465X0.03543*%
%ADD36R,0.01772X0.05118*%
G04:AMPARAMS|DCode=37|XSize=58.66mil|YSize=11.02mil|CornerRadius=2.76mil|HoleSize=0mil|Usage=FLASHONLY|Rotation=270.000|XOffset=0mil|YOffset=0mil|HoleType=Round|Shape=RoundedRectangle|*
%AMROUNDEDRECTD37*
21,1,0.05866,0.00551,0,0,270.0*
21,1,0.05315,0.01102,0,0,270.0*
1,1,0.00551,-0.00276,-0.02657*
1,1,0.00551,-0.00276,0.02657*
1,1,0.00551,0.00276,0.02657*
1,1,0.00551,0.00276,-0.02657*
%
%ADD37ROUNDEDRECTD37*%
G04:AMPARAMS|DCode=38|XSize=58.66mil|YSize=11.02mil|CornerRadius=2.76mil|HoleSize=0mil|Usage=FLASHONLY|Rotation=180.000|XOffset=0mil|YOffset=0mil|HoleType=Round|Shape=RoundedRectangle|*
%AMROUNDEDRECTD38*
21,1,0.05866,0.00551,0,0,180.0*
21,1,0.05315,0.01102,0,0,180.0*
1,1,0.00551,-0.02657,0.00276*
1,1,0.00551,0.02657,0.00276*
1,1,0.00551,0.02657,-0.00276*
1,1,0.00551,-0.02657,-0.00276*
%
%ADD38ROUNDEDRECTD38*%
%ADD39R,0.06693X0.03937*%
%ADD40R,0.06000X0.14000*%
%ADD41R,0.08268X0.06102*%
%ADD42O,0.05906X0.02362*%
%ADD43R,0.06299X0.10236*%
%ADD44R,0.04724X0.03347*%
%ADD45R,0.07874X0.03543*%
%ADD46O,0.03543X0.06102*%
D20*
X0104Y00503D02*
D03*
X00941D02*
D03*
X01142Y00501D02*
D03*
X02165Y01796D02*
D03*
D21*
X0271346Y01938D02*
D03*
X0277054D02*
D03*
X0242646Y01862D02*
D03*
X0248354D02*
D03*
X0265554Y01938D02*
D03*
X0259846D02*
D03*
X0242646Y01936D02*
D03*
X0248354D02*
D03*
X0265646Y01862D02*
D03*
X0271354D02*
D03*
X0277146D02*
D03*
X0282854D02*
D03*
X0309854Y01529D02*
D03*
X0304146D02*
D03*
X0242646Y02011D02*
D03*
X0248354D02*
D03*
X0261646Y02261D02*
D03*
X0267354D02*
D03*
X0222154Y01687D02*
D03*
X0216446D02*
D03*
X0332254Y01436D02*
D03*
X0326546D02*
D03*
X0264446Y01421D02*
D03*
X0270154D02*
D03*
X0264446Y01495D02*
D03*
X0270154D02*
D03*
X0253209Y00774D02*
D03*
X02475D02*
D03*
X0259646Y00775D02*
D03*
X0265354D02*
D03*
X0239954Y00773D02*
D03*
X0234246D02*
D03*
X0250546Y00232D02*
D03*
X0256254D02*
D03*
X0256154Y00307D02*
D03*
X0250446D02*
D03*
X0324554Y00917D02*
D03*
X0318846D02*
D03*
X0282354Y0079241D02*
D03*
X0276646D02*
D03*
X0259754Y01862D02*
D03*
X0254046D02*
D03*
X0248354Y02076D02*
D03*
X0242646D02*
D03*
D22*
X01385Y0143454D02*
D03*
Y0137746D02*
D03*
X0151D02*
D03*
Y0143454D02*
D03*
X01385Y0092246D02*
D03*
Y0097954D02*
D03*
X01505Y0099654D02*
D03*
Y0093946D02*
D03*
X03886Y0009346D02*
D03*
Y0015054D02*
D03*
X03811Y0009446D02*
D03*
Y0015154D02*
D03*
X02868Y0176954D02*
D03*
Y0171246D02*
D03*
X02797D02*
D03*
Y0176954D02*
D03*
X01509Y0182246D02*
D03*
Y0187954D02*
D03*
X01385Y0186954D02*
D03*
Y0181246D02*
D03*
X01375Y0231954D02*
D03*
Y0226246D02*
D03*
X0149D02*
D03*
Y0231954D02*
D03*
X02358Y0186854D02*
D03*
Y0181146D02*
D03*
X02281Y0186854D02*
D03*
Y0181146D02*
D03*
X01879Y0061646D02*
D03*
Y0067354D02*
D03*
X03364Y0108354D02*
D03*
Y0102646D02*
D03*
X02992Y0129746D02*
D03*
Y0135454D02*
D03*
X02896Y0129746D02*
D03*
Y0135454D02*
D03*
X02825D02*
D03*
Y0129746D02*
D03*
X02243Y0132146D02*
D03*
Y0137854D02*
D03*
X0217Y0132146D02*
D03*
Y0137854D02*
D03*
X02214Y0091891D02*
D03*
Y00976D02*
D03*
X02141Y0091891D02*
D03*
Y00976D02*
D03*
X02212Y0067954D02*
D03*
Y0062246D02*
D03*
X02909Y0014054D02*
D03*
Y0008346D02*
D03*
X02835Y0008146D02*
D03*
Y0013854D02*
D03*
X0247913Y00138D02*
D03*
Y0008091D02*
D03*
X0240713Y0008046D02*
D03*
Y0013754D02*
D03*
X0273961Y0040946D02*
D03*
Y0046654D02*
D03*
X0280961Y0040946D02*
D03*
Y0046654D02*
D03*
X0288722Y0082554D02*
D03*
Y0076846D02*
D03*
X02931Y0089046D02*
D03*
Y0094754D02*
D03*
X02861D02*
D03*
Y0089046D02*
D03*
X0304202Y0096546D02*
D03*
Y0102254D02*
D03*
X0351488Y0107769D02*
D03*
Y0113478D02*
D03*
Y0119769D02*
D03*
Y0125478D02*
D03*
X0351988Y0143269D02*
D03*
Y0148978D02*
D03*
X0352Y0160754D02*
D03*
Y0155046D02*
D03*
X0351488Y0178269D02*
D03*
Y0183978D02*
D03*
Y0194978D02*
D03*
Y0189269D02*
D03*
Y0211769D02*
D03*
Y0217478D02*
D03*
Y0229478D02*
D03*
Y0223769D02*
D03*
X0274422Y0062746D02*
D03*
Y0068454D02*
D03*
X024Y0218954D02*
D03*
Y0213246D02*
D03*
X02325Y0218954D02*
D03*
Y0213246D02*
D03*
X02475Y0218954D02*
D03*
Y0213246D02*
D03*
D23*
X021108Y0061672D02*
D03*
X019612D02*
D03*
Y0070728D02*
D03*
X021108D02*
D03*
X0313873Y0111591D02*
D03*
X0328833D02*
D03*
Y0102535D02*
D03*
X0313873D02*
D03*
D24*
X0295134Y01529D02*
D03*
X0286866D02*
D03*
X0204934Y01649D02*
D03*
X0196666D02*
D03*
X0340334Y00917D02*
D03*
X0332066D02*
D03*
D25*
X03285Y0166439D02*
D03*
Y0183761D02*
D03*
X0304Y0184261D02*
D03*
Y0166939D02*
D03*
D26*
X01771Y0038039D02*
D03*
Y0055361D02*
D03*
X0289Y0218261D02*
D03*
Y0200939D02*
D03*
X0109Y0223761D02*
D03*
Y0206439D02*
D03*
X01095Y0178261D02*
D03*
Y0160939D02*
D03*
Y0133761D02*
D03*
Y0116439D02*
D03*
X011Y0089761D02*
D03*
Y0072439D02*
D03*
D27*
X038611Y012584D02*
D03*
Y0108124D02*
D03*
X0362488Y012584D02*
D03*
Y0108124D02*
D03*
X038661Y016084D02*
D03*
Y0143124D02*
D03*
X0362988Y016084D02*
D03*
Y0143124D02*
D03*
X0362488Y0177407D02*
D03*
Y0195124D02*
D03*
X038611Y0177407D02*
D03*
Y0195124D02*
D03*
X0362488Y0211907D02*
D03*
Y0229624D02*
D03*
X038611Y0211907D02*
D03*
Y0229624D02*
D03*
D28*
X03734Y0009995D02*
D03*
Y0014995D02*
D03*
Y0019995D02*
D03*
Y0024994D02*
D03*
Y0029994D02*
D03*
Y0034995D02*
D03*
Y0039994D02*
D03*
Y0044995D02*
D03*
Y0049995D02*
D03*
Y0054994D02*
D03*
Y0059995D02*
D03*
Y0064995D02*
D03*
Y0069994D02*
D03*
Y0074994D02*
D03*
X0302534Y0009995D02*
D03*
Y0014995D02*
D03*
Y0019995D02*
D03*
Y0024994D02*
D03*
Y0029994D02*
D03*
Y0034995D02*
D03*
Y0039994D02*
D03*
Y0044995D02*
D03*
Y0049995D02*
D03*
Y0054994D02*
D03*
Y0059995D02*
D03*
Y0064995D02*
D03*
Y0069994D02*
D03*
Y0074994D02*
D03*
D29*
X0315487Y00809D02*
D03*
X0330487D02*
D03*
X0335487D02*
D03*
X0340487D02*
D03*
X0320487D02*
D03*
X0345487D02*
D03*
X0350487D02*
D03*
X0355487D02*
D03*
X0360487D02*
D03*
X0325487D02*
D03*
D30*
X0349384Y0040388D02*
D03*
Y0034876D02*
D03*
X0343872D02*
D03*
X0338361D02*
D03*
Y0040388D02*
D03*
X0343872D02*
D03*
X0349384Y00459D02*
D03*
X0343872D02*
D03*
X0338361D02*
D03*
D31*
X0300705Y02156D02*
D03*
X03385D02*
D03*
D32*
X019694Y0034359D02*
D03*
X01932D02*
D03*
X018946D02*
D03*
Y0044241D02*
D03*
X01932D02*
D03*
X019694D02*
D03*
D33*
X0156826Y00821D02*
D03*
X0121926D02*
D03*
X0156826Y00721D02*
D03*
X0121926D02*
D03*
X012155Y02066D02*
D03*
X0121426Y01607D02*
D03*
X01215Y01163D02*
D03*
X015645Y02066D02*
D03*
X012155Y02166D02*
D03*
X0156326Y01607D02*
D03*
X0121426Y01707D02*
D03*
X01564Y01163D02*
D03*
X01215Y01263D02*
D03*
X015645Y02166D02*
D03*
X0156326Y01707D02*
D03*
X01564Y01263D02*
D03*
D34*
X0246365Y0167871D02*
D03*
D35*
X0269435Y0176887D02*
D03*
Y0167871D02*
D03*
Y0158856D02*
D03*
D36*
X0192616Y0022634D02*
D03*
X0190058D02*
D03*
X0187498D02*
D03*
X0195176D02*
D03*
X0184939D02*
D03*
D37*
X0261858Y0131923D02*
D03*
X025989D02*
D03*
X0257921D02*
D03*
X0255953D02*
D03*
X0267764Y0087277D02*
D03*
X0265795D02*
D03*
X0263827D02*
D03*
X0261858D02*
D03*
X025989D02*
D03*
X0257921D02*
D03*
X0255953D02*
D03*
X0253984D02*
D03*
X0252016D02*
D03*
X0250047D02*
D03*
X0248079D02*
D03*
X024611D02*
D03*
X0244142D02*
D03*
X0242173D02*
D03*
X0240205D02*
D03*
X0238236D02*
D03*
Y0131923D02*
D03*
X0240205D02*
D03*
X0242173D02*
D03*
X0244142D02*
D03*
X024611D02*
D03*
X0248079D02*
D03*
X0250047D02*
D03*
X0252016D02*
D03*
X0253984D02*
D03*
X0263827D02*
D03*
X0265795D02*
D03*
X0267764D02*
D03*
D38*
X0230677Y0094836D02*
D03*
Y0096805D02*
D03*
Y0098773D02*
D03*
Y0100742D02*
D03*
Y010271D02*
D03*
Y0104679D02*
D03*
Y0106647D02*
D03*
Y0108616D02*
D03*
Y0110584D02*
D03*
Y0112553D02*
D03*
Y0114521D02*
D03*
Y011649D02*
D03*
Y0118458D02*
D03*
Y0120427D02*
D03*
Y0122395D02*
D03*
Y0124364D02*
D03*
X0275323D02*
D03*
Y0122395D02*
D03*
Y0120427D02*
D03*
Y0118458D02*
D03*
Y011649D02*
D03*
Y0114521D02*
D03*
Y0112553D02*
D03*
Y0110584D02*
D03*
Y0108616D02*
D03*
Y0106647D02*
D03*
Y0104679D02*
D03*
Y010271D02*
D03*
Y0100742D02*
D03*
Y0098773D02*
D03*
Y0096805D02*
D03*
Y0094836D02*
D03*
D39*
X0307298Y013558D02*
D03*
X0332102D02*
D03*
Y012062D02*
D03*
X0307298D02*
D03*
D40*
X0191159Y01796D02*
D03*
X02077D02*
D03*
D41*
X0234161Y01971D02*
D03*
X0216839D02*
D03*
D42*
X0276827Y02031D02*
D03*
Y02081D02*
D03*
Y02131D02*
D03*
Y02181D02*
D03*
X0255173Y02031D02*
D03*
Y02081D02*
D03*
Y02131D02*
D03*
Y02181D02*
D03*
D43*
X0219Y0227687D02*
D03*
Y0213513D02*
D03*
D44*
X0243121Y002326D02*
D03*
X02431Y00307D02*
D03*
X0233279Y0027D02*
D03*
X0120079Y02291D02*
D03*
X01299Y02328D02*
D03*
X0129921Y022536D02*
D03*
X0120579Y01841D02*
D03*
X01304Y01878D02*
D03*
X0130421Y018036D02*
D03*
X0120579Y01406D02*
D03*
X01304Y01443D02*
D03*
X0130421Y013686D02*
D03*
X0121079Y00956D02*
D03*
X01309Y00993D02*
D03*
X0130921Y009186D02*
D03*
X0275021Y00271D02*
D03*
X02652Y00234D02*
D03*
X0265179Y003084D02*
D03*
D45*
X0256645Y000785D02*
D03*
X0274755D02*
D03*
X0256645Y001415D02*
D03*
X0274755D02*
D03*
X0231868D02*
D03*
X0213758D02*
D03*
X0231868Y000785D02*
D03*
X0213758D02*
D03*
D46*
X02305Y0041116D02*
D03*
X02355D02*
D03*
X02405D02*
D03*
X02455D02*
D03*
X02505D02*
D03*
X02555D02*
D03*
X02605D02*
D03*
X02655D02*
D03*
X02305Y0068084D02*
D03*
X02355D02*
D03*
X02405D02*
D03*
X02455D02*
D03*
X02505D02*
D03*
X02555D02*
D03*
X02605D02*
D03*
X02655D02*
D03*
M02*
