G04*
G04 #@! TF.GenerationSoftware,Altium Limited,Altium Designer,23.6.0 (18)*
G04*
G04 Layer_Color=8388736*
%FSTAX25Y25*%
%MOIN*%
G70*
G04*
G04 #@! TF.SameCoordinates,CC084146-259E-454A-B071-9D7E5FCC62AE*
G04*
G04*
G04 #@! TF.FilePolarity,Negative*
G04*
G01*
G75*
%ADD33R,0.08661X0.06299*%
%ADD47C,0.06706*%
%ADD48R,0.02965X0.04343*%
%ADD49R,0.04343X0.02965*%
%ADD50R,0.07099X0.06312*%
%ADD51R,0.05131X0.05524*%
%ADD52R,0.07099X0.12611*%
%ADD53R,0.06902X0.09068*%
%ADD54R,0.12611X0.04737*%
%ADD55R,0.06706X0.04343*%
%ADD56R,0.04343X0.06706*%
%ADD57R,0.04343X0.04343*%
%ADD58R,0.08280X0.15761*%
G04:AMPARAMS|DCode=59|XSize=55.64mil|YSize=31.23mil|CornerRadius=6.9mil|HoleSize=0mil|Usage=FLASHONLY|Rotation=270.000|XOffset=0mil|YOffset=0mil|HoleType=Round|Shape=RoundedRectangle|*
%AMROUNDEDRECTD59*
21,1,0.05564,0.01742,0,0,270.0*
21,1,0.04183,0.03123,0,0,270.0*
1,1,0.01381,-0.00871,-0.02092*
1,1,0.01381,-0.00871,0.02092*
1,1,0.01381,0.00871,0.02092*
1,1,0.01381,0.00871,-0.02092*
%
%ADD59ROUNDEDRECTD59*%
%ADD60R,0.09265X0.13595*%
%ADD61R,0.09265X0.04343*%
%ADD62R,0.02572X0.05918*%
G04:AMPARAMS|DCode=63|XSize=66.66mil|YSize=19.02mil|CornerRadius=6.76mil|HoleSize=0mil|Usage=FLASHONLY|Rotation=270.000|XOffset=0mil|YOffset=0mil|HoleType=Round|Shape=RoundedRectangle|*
%AMROUNDEDRECTD63*
21,1,0.06666,0.00551,0,0,270.0*
21,1,0.05315,0.01902,0,0,270.0*
1,1,0.01351,-0.00276,-0.02657*
1,1,0.01351,-0.00276,0.02657*
1,1,0.01351,0.00276,0.02657*
1,1,0.01351,0.00276,-0.02657*
%
%ADD63ROUNDEDRECTD63*%
G04:AMPARAMS|DCode=64|XSize=66.66mil|YSize=19.02mil|CornerRadius=6.76mil|HoleSize=0mil|Usage=FLASHONLY|Rotation=180.000|XOffset=0mil|YOffset=0mil|HoleType=Round|Shape=RoundedRectangle|*
%AMROUNDEDRECTD64*
21,1,0.06666,0.00551,0,0,180.0*
21,1,0.05315,0.01902,0,0,180.0*
1,1,0.01351,-0.02657,0.00276*
1,1,0.01351,0.02657,0.00276*
1,1,0.01351,0.02657,-0.00276*
1,1,0.01351,-0.02657,-0.00276*
%
%ADD64ROUNDEDRECTD64*%
%ADD65R,0.07493X0.04737*%
%ADD66R,0.06800X0.14800*%
%ADD67R,0.09068X0.06902*%
%ADD68O,0.06706X0.03162*%
%ADD69R,0.07099X0.11036*%
%ADD70R,0.05524X0.04147*%
%ADD71R,0.08674X0.04343*%
%ADD72O,0.04343X0.06902*%
%ADD73C,0.07887*%
%ADD74C,0.04331*%
%ADD75C,0.03162*%
%ADD76C,0.06500*%
%ADD77R,0.06500X0.06500*%
%ADD78C,0.05118*%
%ADD79R,0.05118X0.05118*%
%ADD80C,0.03950*%
%ADD81O,0.05328X0.07887*%
%ADD82O,0.06509X0.08674*%
%ADD83R,0.10800X0.16800*%
%ADD84R,0.16800X0.10800*%
%ADD85O,0.08674X0.09461*%
%ADD86C,0.09461*%
G04:AMPARAMS|DCode=87|XSize=94.61mil|YSize=94.61mil|CornerRadius=25.65mil|HoleSize=0mil|Usage=FLASHONLY|Rotation=270.000|XOffset=0mil|YOffset=0mil|HoleType=Round|Shape=RoundedRectangle|*
%AMROUNDEDRECTD87*
21,1,0.09461,0.04331,0,0,270.0*
21,1,0.04331,0.09461,0,0,270.0*
1,1,0.05131,-0.02165,-0.02165*
1,1,0.05131,-0.02165,0.02165*
1,1,0.05131,0.02165,0.02165*
1,1,0.05131,0.02165,-0.02165*
%
%ADD87ROUNDEDRECTD87*%
%ADD88R,0.06706X0.06706*%
%ADD89O,0.08674X0.06706*%
D33*
X0156826Y00821D02*
D03*
X0121926D02*
D03*
X0156826Y00721D02*
D03*
X0121926D02*
D03*
X012155Y02066D02*
D03*
X0121426Y01607D02*
D03*
X01215Y01163D02*
D03*
X015645Y02066D02*
D03*
X012155Y02166D02*
D03*
X0156326Y01607D02*
D03*
X0121426Y01707D02*
D03*
X01564Y01163D02*
D03*
X01215Y01263D02*
D03*
X015645Y02166D02*
D03*
X0156326Y01707D02*
D03*
X01564Y01263D02*
D03*
D47*
X0104Y00503D02*
D03*
X00941D02*
D03*
X01142Y00501D02*
D03*
X02165Y01796D02*
D03*
X01979Y01065D02*
D03*
Y01165D02*
D03*
Y01265D02*
D03*
D48*
X0271346Y01938D02*
D03*
X0277054D02*
D03*
X0242646Y01862D02*
D03*
X0248354D02*
D03*
X0265554Y01938D02*
D03*
X0259846D02*
D03*
X0242646Y01936D02*
D03*
X0248354D02*
D03*
X0265646Y01862D02*
D03*
X0271354D02*
D03*
X0277146D02*
D03*
X0282854D02*
D03*
X0309854Y01529D02*
D03*
X0304146D02*
D03*
X0242646Y02011D02*
D03*
X0248354D02*
D03*
X0261646Y02261D02*
D03*
X0267354D02*
D03*
X0222154Y01687D02*
D03*
X0216446D02*
D03*
X0332254Y01436D02*
D03*
X0326546D02*
D03*
X0264446Y01421D02*
D03*
X0270154D02*
D03*
X0264446Y01495D02*
D03*
X0270154D02*
D03*
X0253209Y00774D02*
D03*
X02475D02*
D03*
X0259646Y00775D02*
D03*
X0265354D02*
D03*
X0239954Y00773D02*
D03*
X0234246D02*
D03*
X0250546Y00232D02*
D03*
X0256254D02*
D03*
X0256154Y00307D02*
D03*
X0250446D02*
D03*
X0324554Y00917D02*
D03*
X0318846D02*
D03*
X0282354Y0079241D02*
D03*
X0276646D02*
D03*
X0259754Y01862D02*
D03*
X0254046D02*
D03*
X0248354Y02076D02*
D03*
X0242646D02*
D03*
D49*
X01385Y0143454D02*
D03*
Y0137746D02*
D03*
X0151D02*
D03*
Y0143454D02*
D03*
X01385Y0092246D02*
D03*
Y0097954D02*
D03*
X01505Y0099654D02*
D03*
Y0093946D02*
D03*
X03886Y0009346D02*
D03*
Y0015054D02*
D03*
X03811Y0009446D02*
D03*
Y0015154D02*
D03*
X02868Y0176954D02*
D03*
Y0171246D02*
D03*
X02797D02*
D03*
Y0176954D02*
D03*
X01509Y0182246D02*
D03*
Y0187954D02*
D03*
X01385Y0186954D02*
D03*
Y0181246D02*
D03*
X01375Y0231954D02*
D03*
Y0226246D02*
D03*
X0149D02*
D03*
Y0231954D02*
D03*
X02358Y0186854D02*
D03*
Y0181146D02*
D03*
X02281Y0186854D02*
D03*
Y0181146D02*
D03*
X01879Y0061646D02*
D03*
Y0067354D02*
D03*
X03364Y0108354D02*
D03*
Y0102646D02*
D03*
X02992Y0129746D02*
D03*
Y0135454D02*
D03*
X02896Y0129746D02*
D03*
Y0135454D02*
D03*
X02825D02*
D03*
Y0129746D02*
D03*
X02243Y0132146D02*
D03*
Y0137854D02*
D03*
X0217Y0132146D02*
D03*
Y0137854D02*
D03*
X02214Y0091891D02*
D03*
Y00976D02*
D03*
X02141Y0091891D02*
D03*
Y00976D02*
D03*
X02212Y0067954D02*
D03*
Y0062246D02*
D03*
X02909Y0014054D02*
D03*
Y0008346D02*
D03*
X02835Y0008146D02*
D03*
Y0013854D02*
D03*
X0247913Y00138D02*
D03*
Y0008091D02*
D03*
X0240713Y0008046D02*
D03*
Y0013754D02*
D03*
X0273961Y0040946D02*
D03*
Y0046654D02*
D03*
X0280961Y0040946D02*
D03*
Y0046654D02*
D03*
X0288722Y0082554D02*
D03*
Y0076846D02*
D03*
X02931Y0089046D02*
D03*
Y0094754D02*
D03*
X02861D02*
D03*
Y0089046D02*
D03*
X0304202Y0096546D02*
D03*
Y0102254D02*
D03*
X0351488Y0107769D02*
D03*
Y0113478D02*
D03*
Y0119769D02*
D03*
Y0125478D02*
D03*
X0351988Y0143269D02*
D03*
Y0148978D02*
D03*
X0352Y0160754D02*
D03*
Y0155046D02*
D03*
X0351488Y0178269D02*
D03*
Y0183978D02*
D03*
Y0194978D02*
D03*
Y0189269D02*
D03*
Y0211769D02*
D03*
Y0217478D02*
D03*
Y0229478D02*
D03*
Y0223769D02*
D03*
X0274422Y0062746D02*
D03*
Y0068454D02*
D03*
X024Y0218954D02*
D03*
Y0213246D02*
D03*
X02325Y0218954D02*
D03*
Y0213246D02*
D03*
X02475Y0218954D02*
D03*
Y0213246D02*
D03*
D50*
X021108Y0061672D02*
D03*
X019612D02*
D03*
Y0070728D02*
D03*
X021108D02*
D03*
X0313873Y0111591D02*
D03*
X0328833D02*
D03*
Y0102535D02*
D03*
X0313873D02*
D03*
D51*
X0295134Y01529D02*
D03*
X0286866D02*
D03*
X0204934Y01649D02*
D03*
X0196666D02*
D03*
X0340334Y00917D02*
D03*
X0332066D02*
D03*
D52*
X03285Y0166439D02*
D03*
Y0183761D02*
D03*
X0304Y0184261D02*
D03*
Y0166939D02*
D03*
D53*
X01771Y0038039D02*
D03*
Y0055361D02*
D03*
X0289Y0218261D02*
D03*
Y0200939D02*
D03*
X0109Y0223761D02*
D03*
Y0206439D02*
D03*
X01095Y0178261D02*
D03*
Y0160939D02*
D03*
Y0133761D02*
D03*
Y0116439D02*
D03*
X011Y0089761D02*
D03*
Y0072439D02*
D03*
D54*
X038611Y012584D02*
D03*
Y0108124D02*
D03*
X0362488Y012584D02*
D03*
Y0108124D02*
D03*
X038661Y016084D02*
D03*
Y0143124D02*
D03*
X0362988Y016084D02*
D03*
Y0143124D02*
D03*
X0362488Y0177407D02*
D03*
Y0195124D02*
D03*
X038611Y0177407D02*
D03*
Y0195124D02*
D03*
X0362488Y0211907D02*
D03*
Y0229624D02*
D03*
X038611Y0211907D02*
D03*
Y0229624D02*
D03*
D55*
X03734Y0009995D02*
D03*
Y0014995D02*
D03*
Y0019995D02*
D03*
Y0024994D02*
D03*
Y0029994D02*
D03*
Y0034995D02*
D03*
Y0039994D02*
D03*
Y0044995D02*
D03*
Y0049995D02*
D03*
Y0054994D02*
D03*
Y0059995D02*
D03*
Y0064995D02*
D03*
Y0069994D02*
D03*
Y0074994D02*
D03*
X0302534Y0009995D02*
D03*
Y0014995D02*
D03*
Y0019995D02*
D03*
Y0024994D02*
D03*
Y0029994D02*
D03*
Y0034995D02*
D03*
Y0039994D02*
D03*
Y0044995D02*
D03*
Y0049995D02*
D03*
Y0054994D02*
D03*
Y0059995D02*
D03*
Y0064995D02*
D03*
Y0069994D02*
D03*
Y0074994D02*
D03*
D56*
X0315487Y00809D02*
D03*
X0330487D02*
D03*
X0335487D02*
D03*
X0340487D02*
D03*
X0320487D02*
D03*
X0345487D02*
D03*
X0350487D02*
D03*
X0355487D02*
D03*
X0360487D02*
D03*
X0325487D02*
D03*
D57*
X0349384Y0040388D02*
D03*
Y0034876D02*
D03*
X0343872D02*
D03*
X0338361D02*
D03*
Y0040388D02*
D03*
X0343872D02*
D03*
X0349384Y00459D02*
D03*
X0343872D02*
D03*
X0338361D02*
D03*
D58*
X0300705Y02156D02*
D03*
X03385D02*
D03*
D59*
X019694Y0034359D02*
D03*
X01932D02*
D03*
X018946D02*
D03*
Y0044241D02*
D03*
X01932D02*
D03*
X019694D02*
D03*
D60*
X0246365Y0167871D02*
D03*
D61*
X0269435Y0176887D02*
D03*
Y0167871D02*
D03*
Y0158856D02*
D03*
D62*
X0192616Y0022634D02*
D03*
X0190058D02*
D03*
X0187498D02*
D03*
X0195176D02*
D03*
X0184939D02*
D03*
D63*
X0261858Y0131923D02*
D03*
X025989D02*
D03*
X0257921D02*
D03*
X0255953D02*
D03*
X0267764Y0087277D02*
D03*
X0265795D02*
D03*
X0263827D02*
D03*
X0261858D02*
D03*
X025989D02*
D03*
X0257921D02*
D03*
X0255953D02*
D03*
X0253984D02*
D03*
X0252016D02*
D03*
X0250047D02*
D03*
X0248079D02*
D03*
X024611D02*
D03*
X0244142D02*
D03*
X0242173D02*
D03*
X0240205D02*
D03*
X0238236D02*
D03*
Y0131923D02*
D03*
X0240205D02*
D03*
X0242173D02*
D03*
X0244142D02*
D03*
X024611D02*
D03*
X0248079D02*
D03*
X0250047D02*
D03*
X0252016D02*
D03*
X0253984D02*
D03*
X0263827D02*
D03*
X0265795D02*
D03*
X0267764D02*
D03*
D64*
X0230677Y0094836D02*
D03*
Y0096805D02*
D03*
Y0098773D02*
D03*
Y0100742D02*
D03*
Y010271D02*
D03*
Y0104679D02*
D03*
Y0106647D02*
D03*
Y0108616D02*
D03*
Y0110584D02*
D03*
Y0112553D02*
D03*
Y0114521D02*
D03*
Y011649D02*
D03*
Y0118458D02*
D03*
Y0120427D02*
D03*
Y0122395D02*
D03*
Y0124364D02*
D03*
X0275323D02*
D03*
Y0122395D02*
D03*
Y0120427D02*
D03*
Y0118458D02*
D03*
Y011649D02*
D03*
Y0114521D02*
D03*
Y0112553D02*
D03*
Y0110584D02*
D03*
Y0108616D02*
D03*
Y0106647D02*
D03*
Y0104679D02*
D03*
Y010271D02*
D03*
Y0100742D02*
D03*
Y0098773D02*
D03*
Y0096805D02*
D03*
Y0094836D02*
D03*
D65*
X0307298Y013558D02*
D03*
X0332102D02*
D03*
Y012062D02*
D03*
X0307298D02*
D03*
D66*
X0191159Y01796D02*
D03*
X02077D02*
D03*
D67*
X0234161Y01971D02*
D03*
X0216839D02*
D03*
D68*
X0276827Y02031D02*
D03*
Y02081D02*
D03*
Y02131D02*
D03*
Y02181D02*
D03*
X0255173Y02031D02*
D03*
Y02081D02*
D03*
Y02131D02*
D03*
Y02181D02*
D03*
D69*
X0219Y0227687D02*
D03*
Y0213513D02*
D03*
D70*
X0243121Y002326D02*
D03*
X02431Y00307D02*
D03*
X0233279Y0027D02*
D03*
X0120079Y02291D02*
D03*
X01299Y02328D02*
D03*
X0129921Y022536D02*
D03*
X0120579Y01841D02*
D03*
X01304Y01878D02*
D03*
X0130421Y018036D02*
D03*
X0120579Y01406D02*
D03*
X01304Y01443D02*
D03*
X0130421Y013686D02*
D03*
X0121079Y00956D02*
D03*
X01309Y00993D02*
D03*
X0130921Y009186D02*
D03*
X0275021Y00271D02*
D03*
X02652Y00234D02*
D03*
X0265179Y003084D02*
D03*
D71*
X0256645Y000785D02*
D03*
X0274755D02*
D03*
X0256645Y001415D02*
D03*
X0274755D02*
D03*
X0231868D02*
D03*
X0213758D02*
D03*
X0231868Y000785D02*
D03*
X0213758D02*
D03*
D72*
X02305Y0041116D02*
D03*
X02355D02*
D03*
X02405D02*
D03*
X02455D02*
D03*
X02505D02*
D03*
X02555D02*
D03*
X02605D02*
D03*
X02655D02*
D03*
X02305Y0068084D02*
D03*
X02355D02*
D03*
X02405D02*
D03*
X02455D02*
D03*
X02505D02*
D03*
X02555D02*
D03*
X02605D02*
D03*
X02655D02*
D03*
D73*
X0032Y00426D02*
D03*
X0052Y00336D02*
D03*
X0095917Y0224139D02*
D03*
Y0206029D02*
D03*
Y0178639D02*
D03*
Y0160529D02*
D03*
Y0134139D02*
D03*
Y0116029D02*
D03*
Y0090139D02*
D03*
Y0072029D02*
D03*
D74*
X00188Y01038D02*
D03*
X00189Y01938D02*
D03*
X03896Y00932D02*
D03*
X0236Y02325D02*
D03*
D75*
X03494Y0043112D02*
D03*
X03466Y0040412D02*
D03*
X03494Y00376D02*
D03*
X03411Y00349D02*
D03*
X03466D02*
D03*
X0344Y00376D02*
D03*
X03384Y00375D02*
D03*
Y0043012D02*
D03*
X03411Y0040412D02*
D03*
X0344Y0043112D02*
D03*
X03466Y0045924D02*
D03*
X03411D02*
D03*
D76*
X01731Y01568D02*
D03*
Y01468D02*
D03*
Y01368D02*
D03*
Y01268D02*
D03*
Y01168D02*
D03*
Y01068D02*
D03*
Y00968D02*
D03*
D77*
Y00868D02*
D03*
D78*
X01602Y001D02*
D03*
X0152326D02*
D03*
X01603Y00236D02*
D03*
X0152426D02*
D03*
D79*
X0144452Y001D02*
D03*
X0144552Y00236D02*
D03*
D80*
X01999Y00185D02*
D03*
X0180215D02*
D03*
X02889Y0184D02*
D03*
X03418Y0231D02*
D03*
X01879Y00715D02*
D03*
X02891Y01929D02*
D03*
X03888Y00038D02*
D03*
X03584Y01328D02*
D03*
X03591Y01689D02*
D03*
X03593Y02017D02*
D03*
X02847Y01251D02*
D03*
X0296505Y0009995D02*
D03*
X02226Y01602D02*
D03*
X02813Y00887D02*
D03*
X02701Y00775D02*
D03*
X01816Y00701D02*
D03*
X01809Y0066D02*
D03*
X01932Y00505D02*
D03*
X0279Y01529D02*
D03*
X02924Y0177D02*
D03*
X0347Y01549D02*
D03*
X0290186Y0071514D02*
D03*
X02271Y0163225D02*
D03*
X0174926Y0185761D02*
D03*
X02058Y00462D02*
D03*
X02326Y01668D02*
D03*
X01565Y01788D02*
D03*
X01566Y00898D02*
D03*
X01563Y01327D02*
D03*
X01625Y01927D02*
D03*
X02829Y01911D02*
D03*
X0248Y0002875D02*
D03*
X02907D02*
D03*
X0346488Y0217124D02*
D03*
Y0119624D02*
D03*
X02992Y01402D02*
D03*
X02935Y01432D02*
D03*
X02987Y00947D02*
D03*
X02824Y00685D02*
D03*
X02104Y01376D02*
D03*
X02595Y01494D02*
D03*
X02269Y01443D02*
D03*
X02227Y0147625D02*
D03*
X02192Y01507D02*
D03*
X0247913Y0018213D02*
D03*
X03804Y00202D02*
D03*
X02965Y00142D02*
D03*
X02146Y01541D02*
D03*
X02176Y01576D02*
D03*
X03128Y00916D02*
D03*
X02973Y00993D02*
D03*
X02997Y01165D02*
D03*
X0300017Y0120883D02*
D03*
X03049Y01155D02*
D03*
X0294867Y0124133D02*
D03*
X02997Y01249D02*
D03*
X0346488Y0189124D02*
D03*
X01295Y02061D02*
D03*
X01565Y02246D02*
D03*
X02265Y02206D02*
D03*
D81*
X0205313Y0007673D02*
D03*
X0174802D02*
D03*
D82*
X0204723Y0022634D02*
D03*
X0175392D02*
D03*
D83*
X0171Y02051D02*
D03*
D84*
X0191Y02201D02*
D03*
Y01951D02*
D03*
D85*
X0050642Y0224139D02*
D03*
X0023083D02*
D03*
X0050642Y0178639D02*
D03*
X0023083D02*
D03*
X0050642Y0134139D02*
D03*
X0023083D02*
D03*
X0050642Y0090139D02*
D03*
X0023083D02*
D03*
D86*
X0010386Y00276D02*
D03*
X0009886Y02076D02*
D03*
Y01626D02*
D03*
Y01186D02*
D03*
X00105Y00747D02*
D03*
D87*
X0010386Y00426D02*
D03*
X0009886Y02226D02*
D03*
Y01776D02*
D03*
Y01336D02*
D03*
X00105Y00897D02*
D03*
D88*
X01979Y00965D02*
D03*
D89*
X0089084Y001D02*
D03*
X0099084D02*
D03*
X0109084D02*
D03*
M02*
