G04*
G04 #@! TF.GenerationSoftware,Altium Limited,Altium Designer,23.6.0 (18)*
G04*
G04 Layer_Color=16711935*
%FSTAX44Y44*%
%MOMM*%
G71*
G04*
G04 #@! TF.SameCoordinates,58D214BC-FFB1-4932-BAB2-E328C0CCEA72*
G04*
G04*
G04 #@! TF.FilePolarity,Negative*
G04*
G01*
G75*
%ADD52C,1.7032*%
%ADD73C,0.8032*%
%ADD74R,1.6510X1.6510*%
%ADD75C,1.6510*%
%ADD76C,2.0032*%
%ADD77C,1.1000*%
%ADD78C,1.3000*%
%ADD79R,1.3000X1.3000*%
%ADD80C,1.0032*%
%ADD81O,1.3532X2.0032*%
%ADD82O,1.6532X2.2032*%
%ADD83R,2.7432X4.2672*%
%ADD84R,4.2672X2.7432*%
%ADD85O,2.2032X2.4032*%
%ADD86C,2.4032*%
G04:AMPARAMS|DCode=87|XSize=2.4032mm|YSize=2.4032mm|CornerRadius=0.6516mm|HoleSize=0mm|Usage=FLASHONLY|Rotation=270.000|XOffset=0mm|YOffset=0mm|HoleType=Round|Shape=RoundedRectangle|*
%AMROUNDEDRECTD87*
21,1,2.4032,1.1000,0,0,270.0*
21,1,1.1000,2.4032,0,0,270.0*
1,1,1.3032,-0.5500,-0.5500*
1,1,1.3032,-0.5500,0.5500*
1,1,1.3032,0.5500,0.5500*
1,1,1.3032,0.5500,-0.5500*
%
%ADD87ROUNDEDRECTD87*%
%ADD88R,1.7032X1.7032*%
%ADD89O,2.2032X1.7032*%
D52*
X00499872Y0027051D02*
D03*
Y0029591D02*
D03*
Y0032131D02*
D03*
D73*
X008636Y00116646D02*
D03*
X0087757D02*
D03*
X00870966Y00109504D02*
D03*
X008636Y00102646D02*
D03*
X00856742Y0010925D02*
D03*
Y0009525D02*
D03*
X00870966Y00095504D02*
D03*
X0087757Y00088646D02*
D03*
X008636D02*
D03*
X00884682Y00095504D02*
D03*
X0087757Y00102646D02*
D03*
X00884682Y00109504D02*
D03*
D74*
X0043688Y00220472D02*
D03*
D75*
Y00245872D02*
D03*
Y00271272D02*
D03*
Y00296672D02*
D03*
Y00322072D02*
D03*
Y00347472D02*
D03*
Y00372872D02*
D03*
Y00398272D02*
D03*
D76*
X00078486Y00108203D02*
D03*
X00129286Y00085343D02*
D03*
X00240836Y00569314D02*
D03*
Y00523314D02*
D03*
Y00453744D02*
D03*
Y00407744D02*
D03*
Y00340714D02*
D03*
Y00294714D02*
D03*
Y00228954D02*
D03*
Y00182954D02*
D03*
D77*
X00044958Y00263652D02*
D03*
X00045212Y00492252D02*
D03*
X0098679Y00236728D02*
D03*
X00596646Y0059055D02*
D03*
D78*
X00404114Y000254D02*
D03*
X00384114D02*
D03*
X00404368Y00059944D02*
D03*
X00384368D02*
D03*
D79*
X00364114Y000254D02*
D03*
X00364368Y00059944D02*
D03*
D80*
X00504952Y0004699D02*
D03*
X00454952D02*
D03*
X00738981Y00183547D02*
D03*
X00512318Y00090932D02*
D03*
X00487934Y00100076D02*
D03*
X00466952Y00107088D02*
D03*
D81*
X00518702Y0001949D02*
D03*
X00441202D02*
D03*
D82*
X00517202Y0005749D02*
D03*
X00442702D02*
D03*
D83*
X00431546Y00520954D02*
D03*
D84*
X00482346Y00559054D02*
D03*
Y00495554D02*
D03*
D85*
X00125836Y00569314D02*
D03*
X00055836D02*
D03*
X00125836Y00453744D02*
D03*
X00055836D02*
D03*
X00125836Y00340714D02*
D03*
X00055836D02*
D03*
X00125836Y00228954D02*
D03*
X00055836D02*
D03*
D86*
X00023586Y00070103D02*
D03*
X00022316Y00527303D02*
D03*
Y00413003D02*
D03*
Y00301243D02*
D03*
X00023876Y00189738D02*
D03*
D87*
X00023586Y00108203D02*
D03*
X00022316Y00565403D02*
D03*
Y00451103D02*
D03*
Y00339343D02*
D03*
X00023876Y00227838D02*
D03*
D88*
X00499872Y0024511D02*
D03*
D89*
X0022348Y000254D02*
D03*
X0024888D02*
D03*
X0027428D02*
D03*
M02*
