G04*
G04 #@! TF.GenerationSoftware,Altium Limited,Altium Designer,21.0.8 (223)*
G04*
G04 Layer_Physical_Order=2*
G04 Layer_Color=16711680*
%FSTAX24Y24*%
%MOIN*%
G70*
G04*
G04 #@! TF.SameCoordinates,41972824-9B57-438F-98A6-91DE107BC887*
G04*
G04*
G04 #@! TF.FilePolarity,Positive*
G04*
G01*
G75*
%ADD13C,0.0100*%
%ADD14C,0.0080*%
%ADD15C,0.0200*%
%ADD93C,0.0300*%
%ADD95C,0.0591*%
%ADD96R,0.0650X0.0650*%
%ADD97C,0.0650*%
%ADD98R,0.1000X0.1600*%
%ADD99R,0.1600X0.1000*%
%ADD100C,0.0236*%
%ADD101O,0.0866X0.0669*%
%ADD102O,0.0787X0.0591*%
%ADD103O,0.0669X0.0866*%
%ADD104O,0.0591X0.0787*%
%ADD105R,0.0650X0.0650*%
%ADD106R,0.0591X0.0591*%
%ADD107C,0.0315*%
%ADD108O,0.0453X0.0709*%
%ADD109O,0.0571X0.0787*%
%ADD110C,0.0700*%
%ADD111C,0.0600*%
%ADD112C,0.1380*%
%ADD113C,0.0800*%
%ADD114R,0.0800X0.0800*%
G36*
X064253Y011362D02*
X031012D01*
Y050508D01*
X064253D01*
X064253Y011362D01*
D02*
G37*
%LPC*%
G36*
X055486Y050383D02*
Y049983D01*
X055765D01*
Y050061D01*
X055754Y050146D01*
X055721Y050225D01*
X055668Y050294D01*
X0556Y050346D01*
X055521Y050379D01*
X055486Y050383D01*
D02*
G37*
G36*
X052434Y050383D02*
Y049983D01*
X052714D01*
Y050061D01*
X052702Y050146D01*
X05267Y050225D01*
X052617Y050294D01*
X052549Y050346D01*
X05247Y050379D01*
X052434Y050383D01*
D02*
G37*
G36*
X052334Y050383D02*
X052299Y050379D01*
X05222Y050346D01*
X052152Y050294D01*
X052099Y050225D01*
X052066Y050146D01*
X052055Y050061D01*
Y049983D01*
X052334D01*
Y050383D01*
D02*
G37*
G36*
X055386Y050383D02*
X05535Y050379D01*
X055271Y050346D01*
X055203Y050294D01*
X05515Y050225D01*
X055118Y050146D01*
X055106Y050061D01*
Y049983D01*
X055386D01*
Y050383D01*
D02*
G37*
G36*
X05053Y050212D02*
X04984D01*
X049793Y050203D01*
X049753Y050177D01*
X049429Y049852D01*
X049402Y049868D01*
X049302Y049895D01*
X049198D01*
X049098Y049868D01*
X049008Y049816D01*
X048934Y049742D01*
X048882Y049652D01*
X048855Y049552D01*
Y049448D01*
X048882Y049348D01*
X048934Y049258D01*
X049008Y049184D01*
X049028Y049172D01*
X049015Y049122D01*
X048485D01*
X048472Y049172D01*
X048492Y049184D01*
X048566Y049258D01*
X048618Y049348D01*
X048645Y049448D01*
Y049552D01*
X048618Y049652D01*
X048566Y049742D01*
X048492Y049816D01*
X048402Y049868D01*
X048302Y049895D01*
X048198D01*
X048098Y049868D01*
X048008Y049816D01*
X047934Y049742D01*
X047882Y049652D01*
X047855Y049552D01*
Y049448D01*
X047882Y049348D01*
X047934Y049258D01*
X048008Y049184D01*
X048028Y049172D01*
X048014Y049122D01*
X047801D01*
X047602Y049321D01*
X047618Y049348D01*
X047645Y049448D01*
Y049552D01*
X047618Y049652D01*
X047566Y049742D01*
X047492Y049816D01*
X047402Y049868D01*
X047302Y049895D01*
X047198D01*
X047098Y049868D01*
X047008Y049816D01*
X046934Y049742D01*
X046882Y049652D01*
X046855Y049552D01*
Y049448D01*
X046882Y049348D01*
X046934Y049258D01*
X047008Y049184D01*
X047098Y049132D01*
X047198Y049105D01*
X047302D01*
X047402Y049132D01*
X047429Y049148D01*
X047663Y048913D01*
X047703Y048887D01*
X04775Y048878D01*
X048014D01*
X048028Y048828D01*
X048008Y048816D01*
X047934Y048742D01*
X047882Y048652D01*
X047855Y048552D01*
Y048448D01*
X047882Y048348D01*
X047934Y048258D01*
X048008Y048184D01*
X048098Y048132D01*
X048198Y048105D01*
X048302D01*
X048402Y048132D01*
X048492Y048184D01*
X048566Y048258D01*
X048618Y048348D01*
X048645Y048448D01*
Y048552D01*
X048618Y048652D01*
X048566Y048742D01*
X048492Y048816D01*
X048472Y048828D01*
X048485Y048878D01*
X049015D01*
X049028Y048828D01*
X049008Y048816D01*
X048934Y048742D01*
X048882Y048652D01*
X048855Y048552D01*
Y048448D01*
X048882Y048348D01*
X048934Y048258D01*
X049008Y048184D01*
X049098Y048132D01*
X049198Y048105D01*
X049302D01*
X049402Y048132D01*
X049429Y048148D01*
X049538Y048039D01*
X049519Y047992D01*
X047302D01*
X047239Y048055D01*
X047259Y048105D01*
X047302D01*
X047402Y048132D01*
X047492Y048184D01*
X047566Y048258D01*
X047618Y048348D01*
X047645Y048448D01*
Y048552D01*
X047618Y048652D01*
X047566Y048742D01*
X047492Y048816D01*
X047402Y048868D01*
X047302Y048895D01*
X047198D01*
X047098Y048868D01*
X047008Y048816D01*
X046934Y048742D01*
X046882Y048652D01*
X046855Y048552D01*
Y048509D01*
X046805Y048489D01*
X045793Y049501D01*
X045798Y049513D01*
Y049587D01*
X045769Y049657D01*
X045717Y049709D01*
X045647Y049738D01*
X045573D01*
X045503Y049709D01*
X045451Y049657D01*
X045422Y049587D01*
Y049513D01*
X045451Y049443D01*
X045503Y049391D01*
X045573Y049362D01*
X045586D01*
X045731Y049217D01*
X045702Y049175D01*
X045648Y049197D01*
X045574D01*
X045504Y049169D01*
X045451Y049116D01*
X045423Y049046D01*
Y048972D01*
X045451Y048903D01*
X045504Y04885D01*
X045574Y048821D01*
X045606D01*
X045695Y048732D01*
X045667Y04869D01*
X045648Y048697D01*
X045574D01*
X045504Y048669D01*
X045451Y048616D01*
X045423Y048546D01*
Y048472D01*
X045451Y048403D01*
X045504Y04835D01*
X045574Y048321D01*
X045648D01*
X045661Y048326D01*
X045762Y048225D01*
X045734Y048183D01*
X045698Y048197D01*
X045624D01*
X045554Y048169D01*
X045501Y048116D01*
X045473Y048046D01*
Y047972D01*
X045501Y047902D01*
X045554Y04785D01*
X045624Y047821D01*
X045656D01*
X04573Y047747D01*
X045702Y047704D01*
X045697Y047706D01*
X045623D01*
X045553Y047678D01*
X045501Y047625D01*
X045472Y047556D01*
Y047481D01*
X045501Y047412D01*
X045553Y047359D01*
X045623Y04733D01*
X045697D01*
X045711Y047336D01*
X045943Y047103D01*
X045983Y047077D01*
X045983Y047077D01*
X046Y047023D01*
X045674Y046697D01*
X045622D01*
X045553Y046669D01*
X0455Y046616D01*
X045471Y046546D01*
Y046472D01*
X0455Y046403D01*
X045553Y04635D01*
X045622Y046321D01*
X045696D01*
X045718Y04633D01*
X045746Y046287D01*
X045656Y046197D01*
X045604D01*
X045534Y046169D01*
X045481Y046116D01*
X045453Y046046D01*
Y045972D01*
X045481Y045903D01*
X045534Y04585D01*
X045604Y045821D01*
X045678D01*
X045747Y04585D01*
X0458Y045903D01*
X045829Y045972D01*
Y046024D01*
X046533Y046728D01*
X046639D01*
X046658Y046681D01*
X045674Y045697D01*
X045622D01*
X045553Y045669D01*
X0455Y045616D01*
X045471Y045546D01*
Y045472D01*
X0455Y045402D01*
X045553Y04535D01*
X045622Y045321D01*
X045696D01*
X045718Y04533D01*
X045746Y045287D01*
X045656Y045197D01*
X045604D01*
X045534Y045169D01*
X045481Y045116D01*
X045453Y045046D01*
Y044972D01*
X045481Y044903D01*
X045534Y04485D01*
X045604Y044821D01*
X045678D01*
X045731Y044843D01*
X045759Y0448D01*
X045656Y044697D01*
X045604D01*
X045534Y044669D01*
X045481Y044616D01*
X045453Y044546D01*
Y044472D01*
X045481Y044402D01*
X045534Y04435D01*
X045604Y044321D01*
X045677D01*
X04568Y044318D01*
X045705Y044278D01*
X045615Y044188D01*
X045563D01*
X045493Y044159D01*
X045441Y044107D01*
X045412Y044037D01*
Y043963D01*
X045441Y043893D01*
X045493Y043841D01*
X045563Y043812D01*
X045637D01*
X045707Y043841D01*
X045759Y043893D01*
X045788Y043963D01*
Y044015D01*
X047821Y046048D01*
X051018D01*
X054191Y042874D01*
X054171Y042824D01*
X051073D01*
Y045327D01*
X051088Y045363D01*
Y045437D01*
X051059Y045507D01*
X051007Y045559D01*
X050937Y045588D01*
X050863D01*
X050793Y045559D01*
X050741Y045507D01*
X050712Y045437D01*
Y045363D01*
X050727Y045327D01*
Y042824D01*
X0382D01*
X038114Y042807D01*
X038041Y042759D01*
X037993Y042686D01*
X037976Y0426D01*
Y042161D01*
X037926Y042127D01*
X037899Y042138D01*
X037824D01*
X037772Y042117D01*
X037722Y042142D01*
Y042806D01*
X037759Y042843D01*
X037788Y042913D01*
Y042987D01*
X037759Y043057D01*
X037707Y043109D01*
X037637Y043138D01*
X037563D01*
X03751Y043117D01*
X03746Y043142D01*
Y043865D01*
X037498Y043903D01*
X037526Y043972D01*
Y044046D01*
X037498Y044116D01*
X037445Y044169D01*
X037376Y044197D01*
X037301D01*
X037272Y044185D01*
X037222Y044219D01*
Y044356D01*
X037259Y044393D01*
X037288Y044463D01*
Y044537D01*
X037259Y044607D01*
X037207Y044659D01*
X037137Y044688D01*
X037063D01*
X037022Y044671D01*
X036972Y044704D01*
Y044856D01*
X037009Y044893D01*
X037038Y044963D01*
Y045037D01*
X037009Y045107D01*
X036957Y045159D01*
X036887Y045188D01*
X036813D01*
X036743Y045159D01*
X036722Y045138D01*
X036672Y045159D01*
Y045356D01*
X036709Y045393D01*
X036738Y045463D01*
Y045537D01*
X036709Y045607D01*
X036657Y045659D01*
X036587Y045688D01*
X036513D01*
X036472Y045671D01*
X036422Y045704D01*
Y045856D01*
X036459Y045893D01*
X036488Y045963D01*
Y046037D01*
X036459Y046107D01*
X036407Y046159D01*
X036337Y046188D01*
X036263D01*
X036193Y046159D01*
X036187Y046153D01*
X036137Y046173D01*
Y046365D01*
X036174Y046403D01*
X036202Y046472D01*
Y046546D01*
X036174Y046616D01*
X036121Y046669D01*
X036052Y046697D01*
X035977D01*
X035949Y046685D01*
X035899Y046719D01*
Y046865D01*
X035936Y046902D01*
X035964Y046972D01*
Y047046D01*
X035936Y047116D01*
X035883Y047169D01*
X035814Y047197D01*
X035739D01*
X03571Y047185D01*
X03566Y047219D01*
Y047356D01*
X035698Y047393D01*
X035726Y047463D01*
Y047537D01*
X035698Y047607D01*
X035645Y047659D01*
X035576Y047688D01*
X035501D01*
X035472Y047676D01*
X035422Y04771D01*
Y047856D01*
X035459Y047893D01*
X035488Y047963D01*
Y048037D01*
X035459Y048107D01*
X035407Y048159D01*
X035337Y048188D01*
X035263D01*
X035193Y048159D01*
X035181Y048147D01*
X035131Y048168D01*
Y048365D01*
X035169Y048403D01*
X035197Y048472D01*
Y048546D01*
X035169Y048616D01*
X035116Y048669D01*
X035046Y048697D01*
X034972D01*
X034919Y048675D01*
X034891Y048718D01*
X035051Y048878D01*
X035406D01*
X035443Y048841D01*
X035513Y048812D01*
X035587D01*
X035657Y048841D01*
X035709Y048893D01*
X035738Y048963D01*
Y049037D01*
X035709Y049107D01*
X035657Y049159D01*
X035587Y049188D01*
X035513D01*
X035443Y049159D01*
X035406Y049122D01*
X035D01*
X034953Y049113D01*
X034913Y049087D01*
X034415Y048588D01*
X034363D01*
X034293Y048559D01*
X034241Y048507D01*
X034212Y048437D01*
Y048363D01*
X034241Y048293D01*
X034293Y048241D01*
X034363Y048212D01*
X034437D01*
X034507Y048241D01*
X034559Y048293D01*
X034588Y048363D01*
Y048415D01*
X0348Y048627D01*
X034843Y048599D01*
X034821Y048546D01*
Y048472D01*
X03485Y048403D01*
X034887Y048365D01*
Y047033D01*
X034845Y047005D01*
X034821Y047015D01*
Y0468D01*
Y046585D01*
X034845Y046595D01*
X034887Y046567D01*
Y04291D01*
X034379Y042402D01*
X034352Y042418D01*
X034252Y042445D01*
X034148D01*
X034048Y042418D01*
X033958Y042366D01*
X033884Y042292D01*
X033844Y042223D01*
X033556D01*
X033516Y042292D01*
X033442Y042366D01*
X033352Y042418D01*
X033252Y042445D01*
X033148D01*
X033048Y042418D01*
X032958Y042366D01*
X032884Y042292D01*
X032832Y042202D01*
X032805Y042102D01*
Y041998D01*
X032832Y041898D01*
X032884Y041808D01*
X032958Y041734D01*
X033048Y041682D01*
X033148Y041655D01*
X033252D01*
X033352Y041682D01*
X033442Y041734D01*
X033516Y041808D01*
X033556Y041877D01*
X033844D01*
X033884Y041808D01*
X033958Y041734D01*
X034048Y041682D01*
X034148Y041655D01*
X034252D01*
X034352Y041682D01*
X034442Y041734D01*
X034516Y041808D01*
X034568Y041898D01*
X034595Y041998D01*
Y042102D01*
X034568Y042202D01*
X034552Y042229D01*
X035096Y042773D01*
X035122Y042812D01*
X035128Y04284D01*
X035178Y042835D01*
Y042201D01*
X034379Y041402D01*
X034352Y041418D01*
X034252Y041445D01*
X034148D01*
X034048Y041418D01*
X033958Y041366D01*
X033884Y041292D01*
X033844Y041223D01*
X033556D01*
X033516Y041292D01*
X033442Y041366D01*
X033352Y041418D01*
X033252Y041445D01*
X033148D01*
X033048Y041418D01*
X032958Y041366D01*
X032884Y041292D01*
X032832Y041202D01*
X032805Y041102D01*
Y040998D01*
X032832Y040898D01*
X032884Y040808D01*
X032958Y040734D01*
X033048Y040682D01*
X033148Y040655D01*
X033252D01*
X033352Y040682D01*
X033442Y040734D01*
X033516Y040808D01*
X033556Y040877D01*
X033844D01*
X033884Y040808D01*
X033958Y040734D01*
X034048Y040682D01*
X034148Y040655D01*
X034252D01*
X034352Y040682D01*
X034442Y040734D01*
X034516Y040808D01*
X034568Y040898D01*
X034595Y040998D01*
Y041102D01*
X034568Y041202D01*
X034552Y041229D01*
X035366Y042043D01*
X035416Y042022D01*
Y041439D01*
X034379Y040402D01*
X034352Y040418D01*
X034252Y040445D01*
X034148D01*
X034048Y040418D01*
X033958Y040366D01*
X033884Y040292D01*
X033844Y040223D01*
X033556D01*
X033516Y040292D01*
X033442Y040366D01*
X033352Y040418D01*
X033252Y040445D01*
X033148D01*
X033048Y040418D01*
X032958Y040366D01*
X032884Y040292D01*
X032832Y040202D01*
X032805Y040102D01*
Y039998D01*
X032832Y039898D01*
X032884Y039808D01*
X032958Y039734D01*
X033048Y039682D01*
X033148Y039655D01*
X033252D01*
X033352Y039682D01*
X033442Y039734D01*
X033516Y039808D01*
X033556Y039877D01*
X033844D01*
X033884Y039808D01*
X033958Y039734D01*
X034048Y039682D01*
X034148Y039655D01*
X034252D01*
X034352Y039682D01*
X034442Y039734D01*
X034516Y039808D01*
X034568Y039898D01*
X034595Y039998D01*
Y040102D01*
X034568Y040202D01*
X034552Y040229D01*
X035604Y041281D01*
X035654Y04126D01*
Y040677D01*
X034379Y039402D01*
X034352Y039418D01*
X034252Y039445D01*
X034148D01*
X034048Y039418D01*
X033958Y039366D01*
X033884Y039292D01*
X033844Y039223D01*
X033556D01*
X033516Y039292D01*
X033442Y039366D01*
X033352Y039418D01*
X033252Y039445D01*
X033148D01*
X033048Y039418D01*
X032958Y039366D01*
X032884Y039292D01*
X032832Y039202D01*
X032805Y039102D01*
Y038998D01*
X032832Y038898D01*
X032884Y038808D01*
X032958Y038734D01*
X033048Y038682D01*
X033148Y038655D01*
X033252D01*
X033352Y038682D01*
X033442Y038734D01*
X033516Y038808D01*
X033556Y038877D01*
X033844D01*
X033884Y038808D01*
X033958Y038734D01*
X034048Y038682D01*
X034148Y038655D01*
X034252D01*
X034352Y038682D01*
X034442Y038734D01*
X034516Y038808D01*
X034568Y038898D01*
X034595Y038998D01*
Y039102D01*
X034568Y039202D01*
X034552Y039229D01*
X035842Y040519D01*
X035892Y040498D01*
Y039915D01*
X034379Y038402D01*
X034352Y038418D01*
X034252Y038445D01*
X034148D01*
X034048Y038418D01*
X033958Y038366D01*
X033884Y038292D01*
X033844Y038223D01*
X033556D01*
X033516Y038292D01*
X033442Y038366D01*
X033352Y038418D01*
X033252Y038445D01*
X033148D01*
X033048Y038418D01*
X032958Y038366D01*
X032884Y038292D01*
X032832Y038202D01*
X032805Y038102D01*
Y037998D01*
X032832Y037898D01*
X032884Y037808D01*
X032958Y037734D01*
X033048Y037682D01*
X033148Y037655D01*
X033252D01*
X033352Y037682D01*
X033442Y037734D01*
X033516Y037808D01*
X033556Y037877D01*
X033844D01*
X033884Y037808D01*
X033958Y037734D01*
X034048Y037682D01*
X034148Y037655D01*
X034252D01*
X034352Y037682D01*
X034442Y037734D01*
X034516Y037808D01*
X034568Y037898D01*
X034595Y037998D01*
Y038102D01*
X034568Y038202D01*
X034552Y038229D01*
X036101Y039778D01*
X036127Y039818D01*
X036128Y039819D01*
X036178Y039814D01*
Y039201D01*
X034379Y037402D01*
X034352Y037418D01*
X034252Y037445D01*
X034148D01*
X034048Y037418D01*
X033958Y037366D01*
X033884Y037292D01*
X033844Y037223D01*
X033556D01*
X033516Y037292D01*
X033442Y037366D01*
X033352Y037418D01*
X033252Y037445D01*
X033148D01*
X033048Y037418D01*
X032958Y037366D01*
X032884Y037292D01*
X032832Y037202D01*
X032805Y037102D01*
Y036998D01*
X032832Y036898D01*
X032884Y036808D01*
X032958Y036734D01*
X033048Y036682D01*
X033148Y036655D01*
X033252D01*
X033352Y036682D01*
X033442Y036734D01*
X033516Y036808D01*
X033556Y036877D01*
X033844D01*
X033884Y036808D01*
X033958Y036734D01*
X034048Y036682D01*
X034148Y036655D01*
X034252D01*
X034352Y036682D01*
X034442Y036734D01*
X034516Y036808D01*
X034568Y036898D01*
X034595Y036998D01*
Y037102D01*
X034568Y037202D01*
X034552Y037229D01*
X036378Y039055D01*
X036412Y039046D01*
X036428Y039035D01*
Y038451D01*
X034379Y036402D01*
X034352Y036418D01*
X034252Y036445D01*
X034148D01*
X034048Y036418D01*
X033958Y036366D01*
X033884Y036292D01*
X033844Y036223D01*
X033556D01*
X033516Y036292D01*
X033442Y036366D01*
X033352Y036418D01*
X033252Y036445D01*
X033148D01*
X033048Y036418D01*
X032958Y036366D01*
X032884Y036292D01*
X032832Y036202D01*
X032805Y036102D01*
Y035998D01*
X032832Y035898D01*
X032884Y035808D01*
X032958Y035734D01*
X033048Y035682D01*
X033148Y035655D01*
X033252D01*
X033352Y035682D01*
X033442Y035734D01*
X033516Y035808D01*
X033556Y035877D01*
X033844D01*
X033884Y035808D01*
X033958Y035734D01*
X034048Y035682D01*
X034148Y035655D01*
X034252D01*
X034352Y035682D01*
X034442Y035734D01*
X034516Y035808D01*
X034568Y035898D01*
X034595Y035998D01*
Y036102D01*
X034568Y036202D01*
X034552Y036229D01*
X036637Y038313D01*
X036663Y038353D01*
X036672Y0384D01*
Y044787D01*
X036722Y044813D01*
X036728Y04481D01*
Y037751D01*
X034379Y035402D01*
X034352Y035418D01*
X034252Y035445D01*
X034148D01*
X034048Y035418D01*
X033958Y035366D01*
X033884Y035292D01*
X033844Y035223D01*
X033556D01*
X033516Y035292D01*
X033442Y035366D01*
X033352Y035418D01*
X033252Y035445D01*
X033148D01*
X033048Y035418D01*
X032958Y035366D01*
X032884Y035292D01*
X032832Y035202D01*
X032805Y035102D01*
Y034998D01*
X032832Y034898D01*
X032884Y034808D01*
X032958Y034734D01*
X033048Y034682D01*
X033148Y034655D01*
X033252D01*
X033352Y034682D01*
X033442Y034734D01*
X033516Y034808D01*
X033556Y034877D01*
X033844D01*
X033884Y034808D01*
X033958Y034734D01*
X034048Y034682D01*
X034148Y034655D01*
X034252D01*
X034352Y034682D01*
X034442Y034734D01*
X034516Y034808D01*
X034568Y034898D01*
X034595Y034998D01*
Y035102D01*
X034568Y035202D01*
X034552Y035229D01*
X036928Y037605D01*
X036962Y037596D01*
X036978Y037585D01*
Y037001D01*
X034379Y034402D01*
X034352Y034418D01*
X034252Y034445D01*
X034148D01*
X034048Y034418D01*
X033958Y034366D01*
X033884Y034292D01*
X033844Y034223D01*
X033556D01*
X033516Y034292D01*
X033442Y034366D01*
X033352Y034418D01*
X033252Y034445D01*
X033148D01*
X033048Y034418D01*
X032958Y034366D01*
X032884Y034292D01*
X032832Y034202D01*
X032805Y034102D01*
Y033998D01*
X032832Y033898D01*
X032884Y033808D01*
X032958Y033734D01*
X033048Y033682D01*
X033148Y033655D01*
X033252D01*
X033352Y033682D01*
X033442Y033734D01*
X033516Y033808D01*
X033556Y033877D01*
X033844D01*
X033884Y033808D01*
X033958Y033734D01*
X034048Y033682D01*
X034148Y033655D01*
X034252D01*
X034352Y033682D01*
X034442Y033734D01*
X034516Y033808D01*
X034568Y033898D01*
X034595Y033998D01*
Y034102D01*
X034568Y034202D01*
X034552Y034229D01*
X037166Y036843D01*
X037216Y036822D01*
Y036239D01*
X034379Y033402D01*
X034352Y033418D01*
X034252Y033445D01*
X034148D01*
X034048Y033418D01*
X033958Y033366D01*
X033884Y033292D01*
X033844Y033223D01*
X033556D01*
X033516Y033292D01*
X033442Y033366D01*
X033352Y033418D01*
X033252Y033445D01*
X033148D01*
X033048Y033418D01*
X032958Y033366D01*
X032884Y033292D01*
X032832Y033202D01*
X032805Y033102D01*
Y032998D01*
X032832Y032898D01*
X032884Y032808D01*
X032958Y032734D01*
X033048Y032682D01*
X033148Y032655D01*
X033252D01*
X033352Y032682D01*
X033442Y032734D01*
X033516Y032808D01*
X033556Y032877D01*
X033844D01*
X033884Y032808D01*
X033958Y032734D01*
X034048Y032682D01*
X034148Y032655D01*
X034252D01*
X034352Y032682D01*
X034442Y032734D01*
X034516Y032808D01*
X034568Y032898D01*
X034595Y032998D01*
Y033102D01*
X034568Y033202D01*
X034552Y033229D01*
X037425Y036102D01*
X037428Y036106D01*
X037478Y036091D01*
Y035501D01*
X034379Y032402D01*
X034352Y032418D01*
X034252Y032445D01*
X034148D01*
X034048Y032418D01*
X033958Y032366D01*
X033884Y032292D01*
X033844Y032223D01*
X033556D01*
X033516Y032292D01*
X033442Y032366D01*
X033352Y032418D01*
X033252Y032445D01*
X033148D01*
X033048Y032418D01*
X032958Y032366D01*
X032884Y032292D01*
X032832Y032202D01*
X032805Y032102D01*
Y031998D01*
X032832Y031898D01*
X032884Y031808D01*
X032958Y031734D01*
X033048Y031682D01*
X033148Y031655D01*
X033252D01*
X033352Y031682D01*
X033442Y031734D01*
X033516Y031808D01*
X033556Y031877D01*
X033844D01*
X033884Y031808D01*
X033958Y031734D01*
X034048Y031682D01*
X034148Y031655D01*
X034252D01*
X034352Y031682D01*
X034442Y031734D01*
X034516Y031808D01*
X034568Y031898D01*
X034595Y031998D01*
Y032102D01*
X034568Y032202D01*
X034552Y032229D01*
X037687Y035363D01*
X03769Y035368D01*
X03774Y035353D01*
Y034763D01*
X034379Y031402D01*
X034352Y031418D01*
X034252Y031445D01*
X034148D01*
X034048Y031418D01*
X033958Y031366D01*
X033884Y031292D01*
X033844Y031223D01*
X033556D01*
X033516Y031292D01*
X033442Y031366D01*
X033352Y031418D01*
X033252Y031445D01*
X033148D01*
X033048Y031418D01*
X032958Y031366D01*
X032884Y031292D01*
X032832Y031202D01*
X032805Y031102D01*
Y030998D01*
X032832Y030898D01*
X032884Y030808D01*
X032958Y030734D01*
X033048Y030682D01*
X033148Y030655D01*
X033252D01*
X033352Y030682D01*
X033442Y030734D01*
X033516Y030808D01*
X033556Y030877D01*
X033844D01*
X033884Y030808D01*
X033958Y030734D01*
X034048Y030682D01*
X034148Y030655D01*
X034252D01*
X034352Y030682D01*
X034442Y030734D01*
X034516Y030808D01*
X034568Y030898D01*
X034595Y030998D01*
Y031102D01*
X034568Y031202D01*
X034552Y031229D01*
X037948Y034625D01*
X037975Y034665D01*
X037984Y034712D01*
Y038937D01*
X038034Y038952D01*
X038041Y038941D01*
X040041Y036941D01*
X040114Y036893D01*
X0402Y036876D01*
X0467D01*
X046786Y036893D01*
X046859Y036941D01*
X046907Y037014D01*
X046924Y0371D01*
X046907Y037186D01*
X046859Y037259D01*
X046786Y037307D01*
X0467Y037324D01*
X040293D01*
X038424Y039193D01*
Y042376D01*
X03888D01*
X0389Y042326D01*
X038886Y042312D01*
X038856Y042238D01*
X039287D01*
X039256Y042312D01*
X039242Y042326D01*
X039263Y042376D01*
X0542D01*
X054286Y042393D01*
X054359Y042441D01*
X054407Y042514D01*
X054419Y042576D01*
X054473Y042593D01*
X054935Y04213D01*
X054916Y042084D01*
X043694D01*
X043657Y042121D01*
X043587Y04215D01*
X043513D01*
X043443Y042121D01*
X043391Y042068D01*
X043362Y041999D01*
Y041924D01*
X043383Y041872D01*
X043358Y041822D01*
X043244D01*
X043207Y041859D01*
X043137Y041888D01*
X043063D01*
X042993Y041859D01*
X042941Y041807D01*
X042912Y041737D01*
Y041663D01*
X042941Y041593D01*
X042993Y041541D01*
X043063Y041512D01*
X043137D01*
X043207Y041541D01*
X043244Y041578D01*
X054999D01*
X057853Y038724D01*
Y037332D01*
X056044D01*
X056007Y037369D01*
X055937Y037398D01*
X055863D01*
X055793Y037369D01*
X055741Y037317D01*
X055712Y037247D01*
Y037173D01*
X055741Y037103D01*
X055793Y037051D01*
X055863Y037022D01*
X055937D01*
X056007Y037051D01*
X056044Y037088D01*
X05632D01*
X056335Y037038D01*
X056291Y037009D01*
X056243Y036936D01*
X056226Y03685D01*
Y034693D01*
X054307Y032774D01*
X03725D01*
X037164Y032757D01*
X037091Y032709D01*
X037051Y032669D01*
X037003Y032596D01*
X036986Y03251D01*
X037003Y032424D01*
X037051Y032351D01*
X037124Y032303D01*
X03721Y032286D01*
X037296Y032303D01*
X03733Y032326D01*
X0544D01*
X054486Y032343D01*
X054559Y032391D01*
X056609Y034441D01*
X056657Y034514D01*
X056674Y0346D01*
Y03685D01*
X056657Y036936D01*
X056609Y037009D01*
X056565Y037038D01*
X05658Y037088D01*
X057853D01*
Y034175D01*
X057862Y034128D01*
X057888Y034088D01*
X060748Y031229D01*
X060732Y031202D01*
X060705Y031102D01*
Y030998D01*
X060732Y030898D01*
X060784Y030808D01*
X060858Y030734D01*
X060948Y030682D01*
X061048Y030655D01*
X061152D01*
X061252Y030682D01*
X061342Y030734D01*
X061416Y030808D01*
X061456Y030877D01*
X061744D01*
X061784Y030808D01*
X061858Y030734D01*
X061948Y030682D01*
X062048Y030655D01*
X062152D01*
X062252Y030682D01*
X062342Y030734D01*
X062416Y030808D01*
X062468Y030898D01*
X062495Y030998D01*
Y031102D01*
X062468Y031202D01*
X062416Y031292D01*
X062342Y031366D01*
X062252Y031418D01*
X062152Y031445D01*
X062048D01*
X061948Y031418D01*
X061858Y031366D01*
X061784Y031292D01*
X061744Y031223D01*
X061456D01*
X061416Y031292D01*
X061342Y031366D01*
X061252Y031418D01*
X061152Y031445D01*
X061048D01*
X060948Y031418D01*
X060921Y031402D01*
X058097Y034226D01*
Y034809D01*
X058147Y03483D01*
X060748Y032229D01*
X060732Y032202D01*
X060705Y032102D01*
Y031998D01*
X060732Y031898D01*
X060784Y031808D01*
X060858Y031734D01*
X060948Y031682D01*
X061048Y031655D01*
X061152D01*
X061252Y031682D01*
X061342Y031734D01*
X061416Y031808D01*
X061456Y031877D01*
X061744D01*
X061784Y031808D01*
X061858Y031734D01*
X061948Y031682D01*
X062048Y031655D01*
X062152D01*
X062252Y031682D01*
X062342Y031734D01*
X062416Y031808D01*
X062468Y031898D01*
X062495Y031998D01*
Y032102D01*
X062468Y032202D01*
X062416Y032292D01*
X062342Y032366D01*
X062252Y032418D01*
X062152Y032445D01*
X062048D01*
X061948Y032418D01*
X061858Y032366D01*
X061784Y032292D01*
X061744Y032223D01*
X061456D01*
X061416Y032292D01*
X061342Y032366D01*
X061252Y032418D01*
X061152Y032445D01*
X061048D01*
X060948Y032418D01*
X060921Y032402D01*
X058322Y035001D01*
Y035585D01*
X058338Y035596D01*
X058372Y035605D01*
X060748Y033229D01*
X060732Y033202D01*
X060705Y033102D01*
Y032998D01*
X060732Y032898D01*
X060784Y032808D01*
X060858Y032734D01*
X060948Y032682D01*
X061048Y032655D01*
X061152D01*
X061252Y032682D01*
X061342Y032734D01*
X061416Y032808D01*
X061456Y032877D01*
X061744D01*
X061784Y032808D01*
X061858Y032734D01*
X061948Y032682D01*
X062048Y032655D01*
X062152D01*
X062252Y032682D01*
X062342Y032734D01*
X062416Y032808D01*
X062468Y032898D01*
X062495Y032998D01*
Y033102D01*
X062468Y033202D01*
X062416Y033292D01*
X062342Y033366D01*
X062252Y033418D01*
X062152Y033445D01*
X062048D01*
X061948Y033418D01*
X061858Y033366D01*
X061784Y033292D01*
X061744Y033223D01*
X061456D01*
X061416Y033292D01*
X061342Y033366D01*
X061252Y033418D01*
X061152Y033445D01*
X061048D01*
X060948Y033418D01*
X060921Y033402D01*
X058572Y035751D01*
Y036339D01*
X058619Y036358D01*
X060748Y034229D01*
X060732Y034202D01*
X060705Y034102D01*
Y033998D01*
X060732Y033898D01*
X060784Y033808D01*
X060858Y033734D01*
X060948Y033682D01*
X061048Y033655D01*
X061152D01*
X061252Y033682D01*
X061342Y033734D01*
X061416Y033808D01*
X061456Y033877D01*
X061744D01*
X061784Y033808D01*
X061858Y033734D01*
X061948Y033682D01*
X062048Y033655D01*
X062152D01*
X062252Y033682D01*
X062342Y033734D01*
X062416Y033808D01*
X062468Y033898D01*
X062495Y033998D01*
Y034102D01*
X062468Y034202D01*
X062416Y034292D01*
X062342Y034366D01*
X062252Y034418D01*
X062152Y034445D01*
X062048D01*
X061948Y034418D01*
X061858Y034366D01*
X061784Y034292D01*
X061744Y034223D01*
X061456D01*
X061416Y034292D01*
X061342Y034366D01*
X061252Y034418D01*
X061152Y034445D01*
X061048D01*
X060948Y034418D01*
X060921Y034402D01*
X058772Y036551D01*
Y037135D01*
X058788Y037146D01*
X058822Y037155D01*
X060748Y035229D01*
X060732Y035202D01*
X060705Y035102D01*
Y034998D01*
X060732Y034898D01*
X060784Y034808D01*
X060858Y034734D01*
X060948Y034682D01*
X061048Y034655D01*
X061152D01*
X061252Y034682D01*
X061342Y034734D01*
X061416Y034808D01*
X061456Y034877D01*
X061744D01*
X061784Y034808D01*
X061858Y034734D01*
X061948Y034682D01*
X062048Y034655D01*
X062152D01*
X062252Y034682D01*
X062342Y034734D01*
X062416Y034808D01*
X062468Y034898D01*
X062495Y034998D01*
Y035102D01*
X062468Y035202D01*
X062416Y035292D01*
X062342Y035366D01*
X062252Y035418D01*
X062152Y035445D01*
X062048D01*
X061948Y035418D01*
X061858Y035366D01*
X061784Y035292D01*
X061744Y035223D01*
X061456D01*
X061416Y035292D01*
X061342Y035366D01*
X061252Y035418D01*
X061152Y035445D01*
X061048D01*
X060948Y035418D01*
X060921Y035402D01*
X059022Y037301D01*
Y037889D01*
X059069Y037908D01*
X060748Y036229D01*
X060732Y036202D01*
X060705Y036102D01*
Y035998D01*
X060732Y035898D01*
X060784Y035808D01*
X060858Y035734D01*
X060948Y035682D01*
X061048Y035655D01*
X061152D01*
X061252Y035682D01*
X061342Y035734D01*
X061416Y035808D01*
X061456Y035877D01*
X061744D01*
X061784Y035808D01*
X061858Y035734D01*
X061948Y035682D01*
X062048Y035655D01*
X062152D01*
X062252Y035682D01*
X062342Y035734D01*
X062416Y035808D01*
X062468Y035898D01*
X062495Y035998D01*
Y036102D01*
X062468Y036202D01*
X062416Y036292D01*
X062342Y036366D01*
X062252Y036418D01*
X062152Y036445D01*
X062048D01*
X061948Y036418D01*
X061858Y036366D01*
X061784Y036292D01*
X061744Y036223D01*
X061456D01*
X061416Y036292D01*
X061342Y036366D01*
X061252Y036418D01*
X061152Y036445D01*
X061048D01*
X060948Y036418D01*
X060921Y036402D01*
X059222Y038101D01*
Y038269D01*
X059269Y038288D01*
X060557Y037D01*
X060597Y036973D01*
X060644Y036964D01*
X060714D01*
X060732Y036898D01*
X060784Y036808D01*
X060858Y036734D01*
X060948Y036682D01*
X061048Y036655D01*
X061152D01*
X061252Y036682D01*
X061342Y036734D01*
X061416Y036808D01*
X061456Y036877D01*
X061744D01*
X061784Y036808D01*
X061858Y036734D01*
X061948Y036682D01*
X062048Y036655D01*
X062152D01*
X062252Y036682D01*
X062342Y036734D01*
X062416Y036808D01*
X062468Y036898D01*
X062495Y036998D01*
Y037102D01*
X062468Y037202D01*
X062416Y037292D01*
X062342Y037366D01*
X062252Y037418D01*
X062152Y037445D01*
X062048D01*
X061948Y037418D01*
X061858Y037366D01*
X061784Y037292D01*
X061744Y037223D01*
X061456D01*
X061416Y037292D01*
X061342Y037366D01*
X061252Y037418D01*
X061152Y037445D01*
X061048D01*
X060948Y037418D01*
X060858Y037366D01*
X060784Y037292D01*
X060741Y037217D01*
X06069Y037213D01*
X059422Y038481D01*
Y038819D01*
X059469Y038838D01*
X060343Y037963D01*
X060383Y037937D01*
X06043Y037928D01*
X060724D01*
X060732Y037898D01*
X060784Y037808D01*
X060858Y037734D01*
X060948Y037682D01*
X061048Y037655D01*
X061152D01*
X061252Y037682D01*
X061342Y037734D01*
X061416Y037808D01*
X061456Y037877D01*
X061744D01*
X061784Y037808D01*
X061858Y037734D01*
X061948Y037682D01*
X062048Y037655D01*
X062152D01*
X062252Y037682D01*
X062342Y037734D01*
X062416Y037808D01*
X062468Y037898D01*
X062495Y037998D01*
Y038102D01*
X062468Y038202D01*
X062416Y038292D01*
X062342Y038366D01*
X062252Y038418D01*
X062152Y038445D01*
X062048D01*
X061948Y038418D01*
X061858Y038366D01*
X061784Y038292D01*
X061744Y038223D01*
X061456D01*
X061416Y038292D01*
X061342Y038366D01*
X061252Y038418D01*
X061152Y038445D01*
X061048D01*
X060948Y038418D01*
X060858Y038366D01*
X060784Y038292D01*
X060732Y038202D01*
X060724Y038172D01*
X060481D01*
X059772Y038881D01*
X059791Y038928D01*
X060724D01*
X060732Y038898D01*
X060784Y038808D01*
X060858Y038734D01*
X060948Y038682D01*
X061048Y038655D01*
X061152D01*
X061252Y038682D01*
X061342Y038734D01*
X061416Y038808D01*
X061456Y038877D01*
X061744D01*
X061784Y038808D01*
X061858Y038734D01*
X061948Y038682D01*
X062048Y038655D01*
X062152D01*
X062252Y038682D01*
X062342Y038734D01*
X062416Y038808D01*
X062468Y038898D01*
X062495Y038998D01*
Y039102D01*
X062468Y039202D01*
X062416Y039292D01*
X062342Y039366D01*
X062252Y039418D01*
X062152Y039445D01*
X062048D01*
X061948Y039418D01*
X061858Y039366D01*
X061784Y039292D01*
X061744Y039223D01*
X061456D01*
X061416Y039292D01*
X061342Y039366D01*
X061252Y039418D01*
X061152Y039445D01*
X061048D01*
X060948Y039418D01*
X060858Y039366D01*
X060784Y039292D01*
X060732Y039202D01*
X060724Y039172D01*
X05973D01*
X059021Y039881D01*
X05904Y039928D01*
X060724D01*
X060732Y039898D01*
X060784Y039808D01*
X060858Y039734D01*
X060948Y039682D01*
X061048Y039655D01*
X061152D01*
X061252Y039682D01*
X061342Y039734D01*
X061416Y039808D01*
X061456Y039877D01*
X061744D01*
X061784Y039808D01*
X061858Y039734D01*
X061948Y039682D01*
X062048Y039655D01*
X062152D01*
X062252Y039682D01*
X062342Y039734D01*
X062416Y039808D01*
X062468Y039898D01*
X062495Y039998D01*
Y040102D01*
X062468Y040202D01*
X062416Y040292D01*
X062342Y040366D01*
X062252Y040418D01*
X062152Y040445D01*
X062048D01*
X061948Y040418D01*
X061858Y040366D01*
X061784Y040292D01*
X061744Y040223D01*
X061456D01*
X061416Y040292D01*
X061342Y040366D01*
X061252Y040418D01*
X061152Y040445D01*
X061048D01*
X060948Y040418D01*
X060858Y040366D01*
X060784Y040292D01*
X060732Y040202D01*
X060724Y040172D01*
X05897D01*
X058261Y040881D01*
X05828Y040928D01*
X060724D01*
X060732Y040898D01*
X060784Y040808D01*
X060858Y040734D01*
X060948Y040682D01*
X061048Y040655D01*
X061152D01*
X061252Y040682D01*
X061342Y040734D01*
X061416Y040808D01*
X061456Y040877D01*
X061744D01*
X061784Y040808D01*
X061858Y040734D01*
X061948Y040682D01*
X062048Y040655D01*
X062152D01*
X062252Y040682D01*
X062342Y040734D01*
X062416Y040808D01*
X062468Y040898D01*
X062495Y040998D01*
Y041102D01*
X062468Y041202D01*
X062416Y041292D01*
X062342Y041366D01*
X062252Y041418D01*
X062152Y041445D01*
X062048D01*
X061948Y041418D01*
X061858Y041366D01*
X061784Y041292D01*
X061744Y041223D01*
X061456D01*
X061416Y041292D01*
X061342Y041366D01*
X061252Y041418D01*
X061152Y041445D01*
X061048D01*
X060948Y041418D01*
X060858Y041366D01*
X060784Y041292D01*
X060732Y041202D01*
X060724Y041172D01*
X058211D01*
X057502Y041881D01*
X057521Y041928D01*
X060724D01*
X060732Y041898D01*
X060784Y041808D01*
X060858Y041734D01*
X060948Y041682D01*
X061048Y041655D01*
X061152D01*
X061252Y041682D01*
X061342Y041734D01*
X061416Y041808D01*
X061456Y041877D01*
X061744D01*
X061784Y041808D01*
X061858Y041734D01*
X061948Y041682D01*
X062048Y041655D01*
X062152D01*
X062252Y041682D01*
X062342Y041734D01*
X062416Y041808D01*
X062468Y041898D01*
X062495Y041998D01*
Y042102D01*
X062468Y042202D01*
X062416Y042292D01*
X062342Y042366D01*
X062252Y042418D01*
X062152Y042445D01*
X062048D01*
X061948Y042418D01*
X061858Y042366D01*
X061784Y042292D01*
X061744Y042223D01*
X061456D01*
X061416Y042292D01*
X061342Y042366D01*
X061252Y042418D01*
X061152Y042445D01*
X061048D01*
X060948Y042418D01*
X060858Y042366D01*
X060784Y042292D01*
X060732Y042202D01*
X060724Y042172D01*
X057451D01*
X056742Y042881D01*
X056761Y042928D01*
X060724D01*
X060732Y042898D01*
X060784Y042808D01*
X060858Y042734D01*
X060948Y042682D01*
X061048Y042655D01*
X061152D01*
X061252Y042682D01*
X061342Y042734D01*
X061416Y042808D01*
X061456Y042877D01*
X061744D01*
X061784Y042808D01*
X061858Y042734D01*
X061948Y042682D01*
X062048Y042655D01*
X062152D01*
X062252Y042682D01*
X062342Y042734D01*
X062416Y042808D01*
X062468Y042898D01*
X062495Y042998D01*
Y043102D01*
X062468Y043202D01*
X062416Y043292D01*
X062342Y043366D01*
X062252Y043418D01*
X062152Y043445D01*
X062048D01*
X061948Y043418D01*
X061858Y043366D01*
X061784Y043292D01*
X061744Y043223D01*
X061456D01*
X061416Y043292D01*
X061342Y043366D01*
X061252Y043418D01*
X061152Y043445D01*
X061048D01*
X060948Y043418D01*
X060858Y043366D01*
X060784Y043292D01*
X060732Y043202D01*
X060724Y043172D01*
X060451D01*
X060439Y043213D01*
X060438Y043222D01*
X060489Y043273D01*
X060518Y043343D01*
Y043417D01*
X060517Y043421D01*
X060555Y043459D01*
X060573Y043452D01*
X060647D01*
X060717Y043481D01*
X060769Y043533D01*
X060798Y043603D01*
Y043677D01*
X060796Y043683D01*
X060838Y043711D01*
X060839Y04371D01*
X060936Y043654D01*
X061044Y043625D01*
X06105D01*
Y044D01*
X060675D01*
Y043994D01*
X060704Y043886D01*
X060725Y04385D01*
X06069Y04381D01*
X060647Y043828D01*
X060573D01*
X060503Y043799D01*
X060466Y043762D01*
X056609D01*
X052478Y047894D01*
X052496Y047947D01*
X052544Y047953D01*
X052638Y047992D01*
X052718Y048054D01*
X05278Y048134D01*
X052819Y048228D01*
X052832Y048328D01*
Y048387D01*
X052443D01*
X052053D01*
X052005Y048367D01*
X051112Y049259D01*
Y04963D01*
X051103Y049677D01*
X051077Y049717D01*
X050617Y050177D01*
X050577Y050203D01*
X05053Y050212D01*
D02*
G37*
G36*
X055765Y049883D02*
X055486D01*
Y049482D01*
X055521Y049487D01*
X0556Y04952D01*
X055668Y049572D01*
X055721Y04964D01*
X055754Y04972D01*
X055765Y049805D01*
Y049883D01*
D02*
G37*
G36*
X052334D02*
X052055D01*
Y049805D01*
X052066Y04972D01*
X052099Y04964D01*
X052152Y049572D01*
X05222Y04952D01*
X052299Y049487D01*
X052334Y049482D01*
Y049883D01*
D02*
G37*
G36*
X052714D02*
X052434D01*
Y049482D01*
X05247Y049487D01*
X052549Y04952D01*
X052617Y049572D01*
X05267Y04964D01*
X052702Y04972D01*
X052714Y049805D01*
Y049883D01*
D02*
G37*
G36*
X055386D02*
X055106D01*
Y049805D01*
X055118Y04972D01*
X05515Y04964D01*
X055203Y049572D01*
X055271Y04952D01*
X05535Y049487D01*
X055386Y049482D01*
Y049883D01*
D02*
G37*
G36*
X06095Y0496D02*
X0601D01*
Y04905D01*
X06095D01*
Y0496D01*
D02*
G37*
G36*
X06D02*
X05915D01*
Y04905D01*
X06D01*
Y0496D01*
D02*
G37*
G36*
X052971Y049078D02*
X052881D01*
X052797Y049043D01*
X052733Y048979D01*
X052699Y048898D01*
X052695Y04889D01*
X052653Y04887D01*
X052638Y048882D01*
X052544Y048921D01*
X052493Y048927D01*
Y048487D01*
X052832D01*
Y048545D01*
X052826Y048591D01*
X052872Y048626D01*
X052881Y048623D01*
X052971D01*
X053055Y048657D01*
X053119Y048721D01*
X053153Y048805D01*
Y048895D01*
X053119Y048979D01*
X053055Y049043D01*
X052971Y049078D01*
D02*
G37*
G36*
X063335Y050299D02*
X063185D01*
X063038Y050269D01*
X0629Y050212D01*
X062776Y050129D01*
X06267Y050023D01*
X062586Y049899D01*
X062529Y04976D01*
X0625Y049613D01*
Y049464D01*
X062529Y049317D01*
X062586Y049179D01*
X06267Y049054D01*
X062776Y048948D01*
X0629Y048865D01*
X063038Y048808D01*
X063185Y048779D01*
X063335D01*
X063482Y048808D01*
X06362Y048865D01*
X063744Y048948D01*
X06385Y049054D01*
X063934Y049179D01*
X063991Y049317D01*
X06402Y049464D01*
Y049613D01*
X063991Y04976D01*
X063934Y049899D01*
X06385Y050023D01*
X063744Y050129D01*
X06362Y050212D01*
X063482Y050269D01*
X063335Y050299D01*
D02*
G37*
G36*
X032075D02*
X031925D01*
X031778Y050269D01*
X03164Y050212D01*
X031516Y050129D01*
X03141Y050023D01*
X031326Y049899D01*
X031269Y04976D01*
X03124Y049613D01*
Y049464D01*
X031269Y049317D01*
X031326Y049179D01*
X03141Y049054D01*
X031516Y048948D01*
X03164Y048865D01*
X031778Y048808D01*
X031925Y048779D01*
X032075D01*
X032222Y048808D01*
X03236Y048865D01*
X032484Y048948D01*
X03259Y049054D01*
X032673Y049179D01*
X032731Y049317D01*
X03276Y049464D01*
Y049613D01*
X032731Y04976D01*
X032673Y049899D01*
X03259Y050023D01*
X032484Y050129D01*
X03236Y050212D01*
X032222Y050269D01*
X032075Y050299D01*
D02*
G37*
G36*
X055427Y048927D02*
Y048487D01*
X055765D01*
Y048545D01*
X055752Y048646D01*
X055713Y048739D01*
X055651Y04882D01*
X055571Y048882D01*
X055477Y048921D01*
X055427Y048927D01*
D02*
G37*
G36*
X052393D02*
X052343Y048921D01*
X052249Y048882D01*
X052169Y04882D01*
X052107Y048739D01*
X052068Y048646D01*
X052055Y048545D01*
Y048487D01*
X052393D01*
Y048927D01*
D02*
G37*
G36*
X054939Y049078D02*
X054849D01*
X054765Y049043D01*
X054701Y048979D01*
X054667Y048895D01*
Y048805D01*
X054701Y048721D01*
X054765Y048657D01*
X054849Y048623D01*
X054939D01*
X054948Y048626D01*
X054994Y048591D01*
X054988Y048545D01*
Y048487D01*
X055327D01*
Y048927D01*
X055276Y048921D01*
X055182Y048882D01*
X055167Y04887D01*
X055125Y04889D01*
X055121Y048898D01*
X055087Y048979D01*
X055023Y049043D01*
X054939Y049078D01*
D02*
G37*
G36*
X06095Y04895D02*
X0601D01*
Y0484D01*
X06095D01*
Y04895D01*
D02*
G37*
G36*
X06D02*
X05915D01*
Y0484D01*
X06D01*
Y04895D01*
D02*
G37*
G36*
X055765Y048387D02*
X055427D01*
Y047946D01*
X055477Y047953D01*
X055571Y047992D01*
X055651Y048054D01*
X055713Y048134D01*
X055752Y048228D01*
X055765Y048328D01*
Y048387D01*
D02*
G37*
G36*
X055327D02*
X054988D01*
Y048328D01*
X055001Y048228D01*
X05504Y048134D01*
X055102Y048054D01*
X055182Y047992D01*
X055276Y047953D01*
X055327Y047946D01*
Y048387D01*
D02*
G37*
G36*
X041112Y047709D02*
X041037D01*
X040968Y04768D01*
X040915Y047627D01*
X040886Y047558D01*
Y047483D01*
X040895Y047463D01*
X040856Y047425D01*
X040836Y047433D01*
X040761D01*
X040741Y047425D01*
X040703Y047463D01*
X040711Y047483D01*
Y047558D01*
X040683Y047627D01*
X04063Y04768D01*
X040561Y047709D01*
X040486D01*
X040417Y04768D01*
X040364Y047627D01*
X040335Y047558D01*
Y047483D01*
X040343Y047463D01*
X040305Y047425D01*
X040285Y047433D01*
X04021D01*
X040141Y047405D01*
X040088Y047352D01*
X04006Y047283D01*
Y047208D01*
X040088Y047139D01*
X040141Y047086D01*
X04021Y047057D01*
X040285D01*
X040305Y047066D01*
X040343Y047027D01*
X040335Y047007D01*
Y046932D01*
X040343Y046912D01*
X040305Y046874D01*
X040285Y046882D01*
X04021D01*
X040141Y046854D01*
X040088Y046801D01*
X04006Y046732D01*
Y046657D01*
X040088Y046588D01*
X040141Y046535D01*
X04021Y046506D01*
X040285D01*
X040305Y046514D01*
X040343Y046476D01*
X040335Y046456D01*
Y046381D01*
X040364Y046312D01*
X040417Y046259D01*
X040486Y04623D01*
X040561D01*
X04063Y046259D01*
X040683Y046312D01*
X040711Y046381D01*
Y046456D01*
X040703Y046476D01*
X040741Y046514D01*
X040761Y046506D01*
X040836D01*
X040856Y046514D01*
X040895Y046476D01*
X040886Y046456D01*
Y046381D01*
X040915Y046312D01*
X040968Y046259D01*
X041037Y04623D01*
X041112D01*
X041181Y046259D01*
X041234Y046312D01*
X041263Y046381D01*
Y046456D01*
X041254Y046476D01*
X041292Y046514D01*
X041313Y046506D01*
X041387D01*
X041457Y046535D01*
X041509Y046588D01*
X041538Y046657D01*
Y046732D01*
X041509Y046801D01*
X041457Y046854D01*
X041387Y046882D01*
X041313D01*
X041292Y046874D01*
X041254Y046912D01*
X041263Y046932D01*
Y047007D01*
X041254Y047027D01*
X041292Y047066D01*
X041313Y047057D01*
X041387D01*
X041457Y047086D01*
X041509Y047139D01*
X041538Y047208D01*
Y047283D01*
X041509Y047352D01*
X041457Y047405D01*
X041387Y047433D01*
X041313D01*
X041292Y047425D01*
X041254Y047463D01*
X041263Y047483D01*
Y047558D01*
X041234Y047627D01*
X041181Y04768D01*
X041112Y047709D01*
D02*
G37*
G36*
X034721Y047015D02*
X034647Y046985D01*
X034586Y046924D01*
X034556Y04685D01*
X034721D01*
Y047015D01*
D02*
G37*
G36*
X05862Y04837D02*
X05748D01*
Y04663D01*
X05862D01*
Y04837D01*
D02*
G37*
G36*
X034721Y04675D02*
X034556D01*
X034586Y046676D01*
X034647Y046615D01*
X034721Y046585D01*
Y04675D01*
D02*
G37*
G36*
X06092Y04707D02*
X05918D01*
Y04593D01*
X06092D01*
Y04707D01*
D02*
G37*
G36*
X062495Y045445D02*
X061705D01*
Y045223D01*
X061456D01*
X061416Y045292D01*
X061342Y045366D01*
X061252Y045418D01*
X061152Y045445D01*
X061048D01*
X060948Y045418D01*
X060858Y045366D01*
X060784Y045292D01*
X060732Y045202D01*
X060705Y045102D01*
Y044998D01*
X060732Y044898D01*
X060784Y044808D01*
X060858Y044734D01*
X060948Y044682D01*
X061048Y044655D01*
X061152D01*
X061252Y044682D01*
X061342Y044734D01*
X061416Y044808D01*
X061456Y044877D01*
X061705D01*
Y044655D01*
X062495D01*
Y045445D01*
D02*
G37*
G36*
X033379Y048696D02*
X033293Y048679D01*
X03322Y04863D01*
X033171Y048557D01*
X033154Y048471D01*
X033171Y048386D01*
X033176Y048379D01*
Y0461D01*
Y045445D01*
X033148D01*
X033048Y045418D01*
X032958Y045366D01*
X032884Y045292D01*
X032832Y045202D01*
X032805Y045102D01*
Y044998D01*
X032832Y044898D01*
X032884Y044808D01*
X032958Y044734D01*
X033048Y044682D01*
X033148Y044655D01*
X033252D01*
X033352Y044682D01*
X033442Y044734D01*
X033516Y044808D01*
X033556Y044877D01*
X033805D01*
Y044655D01*
X034595D01*
Y045445D01*
X033805D01*
Y045223D01*
X033639D01*
X03361Y045273D01*
X033624Y045345D01*
Y0461D01*
Y04845D01*
X033607Y048536D01*
X033559Y048609D01*
X033537Y04863D01*
X033464Y048679D01*
X033379Y048696D01*
D02*
G37*
G36*
X062156Y044475D02*
X06215D01*
Y0441D01*
X062525D01*
Y044106D01*
X062496Y044214D01*
X06244Y044311D01*
X062361Y04439D01*
X062264Y044446D01*
X062156Y044475D01*
D02*
G37*
G36*
X061156D02*
X06115D01*
Y0441D01*
X061525D01*
Y044106D01*
X061496Y044214D01*
X06144Y044311D01*
X061361Y04439D01*
X061264Y044446D01*
X061156Y044475D01*
D02*
G37*
G36*
X034256D02*
X03425D01*
Y0441D01*
X034625D01*
Y044106D01*
X034596Y044214D01*
X03454Y044311D01*
X034461Y04439D01*
X034364Y044446D01*
X034256Y044475D01*
D02*
G37*
G36*
X033256D02*
X03325D01*
Y0441D01*
X033625D01*
Y044106D01*
X033596Y044214D01*
X03354Y044311D01*
X033461Y04439D01*
X033364Y044446D01*
X033256Y044475D01*
D02*
G37*
G36*
X06205D02*
X062044D01*
X061936Y044446D01*
X061839Y04439D01*
X06176Y044311D01*
X061704Y044214D01*
X061675Y044106D01*
Y0441D01*
X06205D01*
Y044475D01*
D02*
G37*
G36*
X06105D02*
X061044D01*
X060936Y044446D01*
X060839Y04439D01*
X06076Y044311D01*
X060704Y044214D01*
X060675Y044106D01*
Y0441D01*
X06105D01*
Y044475D01*
D02*
G37*
G36*
X03315D02*
X033144D01*
X033036Y044446D01*
X032939Y04439D01*
X03286Y044311D01*
X032804Y044214D01*
X032775Y044106D01*
Y0441D01*
X03315D01*
Y044475D01*
D02*
G37*
G36*
X03415D02*
X034144D01*
X034036Y044446D01*
X033939Y04439D01*
X03386Y044311D01*
X033804Y044214D01*
X033775Y044106D01*
Y0441D01*
X03415D01*
Y044475D01*
D02*
G37*
G36*
X062525Y044D02*
X06215D01*
Y043625D01*
X062156D01*
X062264Y043654D01*
X062361Y04371D01*
X06244Y043789D01*
X062496Y043886D01*
X062525Y043994D01*
Y044D01*
D02*
G37*
G36*
X06205D02*
X061675D01*
Y043994D01*
X061704Y043886D01*
X06176Y043789D01*
X061839Y04371D01*
X061936Y043654D01*
X062044Y043625D01*
X06205D01*
Y044D01*
D02*
G37*
G36*
X061525D02*
X06115D01*
Y043625D01*
X061156D01*
X061264Y043654D01*
X061361Y04371D01*
X06144Y043789D01*
X061496Y043886D01*
X061525Y043994D01*
Y044D01*
D02*
G37*
G36*
X034625D02*
X03425D01*
Y043625D01*
X034256D01*
X034364Y043654D01*
X034461Y04371D01*
X03454Y043789D01*
X034596Y043886D01*
X034625Y043994D01*
Y044D01*
D02*
G37*
G36*
X03415D02*
X033775D01*
Y043994D01*
X033804Y043886D01*
X03386Y043789D01*
X033939Y04371D01*
X034036Y043654D01*
X034144Y043625D01*
X03415D01*
Y044D01*
D02*
G37*
G36*
X033625D02*
X03325D01*
Y043625D01*
X033256D01*
X033364Y043654D01*
X033461Y04371D01*
X03354Y043789D01*
X033596Y043886D01*
X033625Y043994D01*
Y044D01*
D02*
G37*
G36*
X03315D02*
X032775D01*
Y043994D01*
X032804Y043886D01*
X03286Y043789D01*
X032939Y04371D01*
X033036Y043654D01*
X033144Y043625D01*
X03315D01*
Y044D01*
D02*
G37*
G36*
X034256Y043475D02*
X03425D01*
Y0431D01*
X034625D01*
Y043106D01*
X034596Y043214D01*
X03454Y043311D01*
X034461Y04339D01*
X034364Y043446D01*
X034256Y043475D01*
D02*
G37*
G36*
X033256D02*
X03325D01*
Y0431D01*
X033625D01*
Y043106D01*
X033596Y043214D01*
X03354Y043311D01*
X033461Y04339D01*
X033364Y043446D01*
X033256Y043475D01*
D02*
G37*
G36*
X03315D02*
X033144D01*
X033036Y043446D01*
X032939Y04339D01*
X03286Y043311D01*
X032804Y043214D01*
X032775Y043106D01*
Y0431D01*
X03315D01*
Y043475D01*
D02*
G37*
G36*
X03415D02*
X034144D01*
X034036Y043446D01*
X033939Y04339D01*
X03386Y043311D01*
X033804Y043214D01*
X033775Y043106D01*
Y0431D01*
X03415D01*
Y043475D01*
D02*
G37*
G36*
X034625Y043D02*
X03425D01*
Y042625D01*
X034256D01*
X034364Y042654D01*
X034461Y04271D01*
X03454Y042789D01*
X034596Y042886D01*
X034625Y042994D01*
Y043D01*
D02*
G37*
G36*
X03415D02*
X033775D01*
Y042994D01*
X033804Y042886D01*
X03386Y042789D01*
X033939Y04271D01*
X034036Y042654D01*
X034144Y042625D01*
X03415D01*
Y043D01*
D02*
G37*
G36*
X033625D02*
X03325D01*
Y042625D01*
X033256D01*
X033364Y042654D01*
X033461Y04271D01*
X03354Y042789D01*
X033596Y042886D01*
X033625Y042994D01*
Y043D01*
D02*
G37*
G36*
X03315D02*
X032775D01*
Y042994D01*
X032804Y042886D01*
X03286Y042789D01*
X032939Y04271D01*
X033036Y042654D01*
X033144Y042625D01*
X03315D01*
Y043D01*
D02*
G37*
G36*
X039287Y042138D02*
X039121D01*
Y041973D01*
X039195Y042003D01*
X039256Y042065D01*
X039287Y042138D01*
D02*
G37*
G36*
X039021D02*
X038856D01*
X038886Y042065D01*
X038948Y042003D01*
X039021Y041973D01*
Y042138D01*
D02*
G37*
G36*
X04529Y041485D02*
Y04132D01*
X045455D01*
X045425Y041394D01*
X045364Y041455D01*
X04529Y041485D01*
D02*
G37*
G36*
X04519D02*
X045116Y041455D01*
X045055Y041394D01*
X045025Y04132D01*
X04519D01*
Y041485D01*
D02*
G37*
G36*
X0542Y041476D02*
Y04131D01*
X054366D01*
X054335Y041384D01*
X054274Y041445D01*
X0542Y041476D01*
D02*
G37*
G36*
X0541D02*
X054027Y041445D01*
X053965Y041384D01*
X053935Y04131D01*
X0541D01*
Y041476D01*
D02*
G37*
G36*
X049256Y041472D02*
Y041306D01*
X049422D01*
X049391Y04138D01*
X04933Y041441D01*
X049256Y041472D01*
D02*
G37*
G36*
X049156D02*
X049083Y041441D01*
X049021Y04138D01*
X048991Y041306D01*
X049156D01*
Y041472D01*
D02*
G37*
G36*
X045455Y04122D02*
X04529D01*
Y041055D01*
X045364Y041085D01*
X045425Y041146D01*
X045455Y04122D01*
D02*
G37*
G36*
X04519D02*
X045025D01*
X045055Y041146D01*
X045116Y041085D01*
X04519Y041055D01*
Y04122D01*
D02*
G37*
G36*
X054366Y04121D02*
X0542D01*
Y041045D01*
X054274Y041075D01*
X054335Y041137D01*
X054366Y04121D01*
D02*
G37*
G36*
X0541D02*
X053935D01*
X053965Y041137D01*
X054027Y041075D01*
X0541Y041045D01*
Y04121D01*
D02*
G37*
G36*
X049422Y041206D02*
X049256D01*
Y041041D01*
X04933Y041071D01*
X049391Y041133D01*
X049422Y041206D01*
D02*
G37*
G36*
X049156D02*
X048991D01*
X049021Y041133D01*
X049083Y041071D01*
X049156Y041041D01*
Y041206D01*
D02*
G37*
G36*
X04961Y040025D02*
X049536Y039995D01*
X049475Y039934D01*
X049462Y039902D01*
X049408D01*
X049395Y039934D01*
X049334Y039995D01*
X04926Y040025D01*
Y03981D01*
Y039595D01*
X049334Y039625D01*
X049395Y039686D01*
X049408Y039718D01*
X049462D01*
X049475Y039686D01*
X049536Y039625D01*
X04961Y039595D01*
Y03981D01*
Y040025D01*
D02*
G37*
G36*
X04971D02*
Y03986D01*
X049875D01*
X049845Y039934D01*
X049784Y039995D01*
X04971Y040025D01*
D02*
G37*
G36*
X04916D02*
X049086Y039995D01*
X049025Y039934D01*
X048995Y03986D01*
X04916D01*
Y040025D01*
D02*
G37*
G36*
X049875Y03976D02*
X04971D01*
Y039595D01*
X049784Y039625D01*
X049845Y039686D01*
X049875Y03976D01*
D02*
G37*
G36*
X04916D02*
X048995D01*
X049025Y039686D01*
X049086Y039625D01*
X04916Y039595D01*
Y03976D01*
D02*
G37*
G36*
X05709Y038315D02*
Y03815D01*
X057255D01*
X057225Y038224D01*
X057164Y038285D01*
X05709Y038315D01*
D02*
G37*
G36*
X05699D02*
X056916Y038285D01*
X056855Y038224D01*
X056825Y03815D01*
X05699D01*
Y038315D01*
D02*
G37*
G36*
X05592Y038305D02*
Y03814D01*
X056085D01*
X056055Y038214D01*
X055994Y038275D01*
X05592Y038305D01*
D02*
G37*
G36*
X05582D02*
X055746Y038275D01*
X055685Y038214D01*
X055655Y03814D01*
X05582D01*
Y038305D01*
D02*
G37*
G36*
X045927Y038058D02*
X045853D01*
X045783Y038029D01*
X045767Y038013D01*
X041113D01*
X041077Y038028D01*
X041003D01*
X040933Y037999D01*
X040881Y037947D01*
X040852Y037877D01*
Y037803D01*
X040881Y037733D01*
X040933Y037681D01*
X041003Y037652D01*
X041077D01*
X041113Y037667D01*
X04585D01*
X045917Y03768D01*
X04592Y037682D01*
X045927D01*
X045997Y037711D01*
X046049Y037763D01*
X046078Y037833D01*
Y037907D01*
X046049Y037977D01*
X045997Y038029D01*
X045927Y038058D01*
D02*
G37*
G36*
X057255Y03805D02*
X05709D01*
Y037885D01*
X057164Y037915D01*
X057225Y037976D01*
X057255Y03805D01*
D02*
G37*
G36*
X05699D02*
X056825D01*
X056855Y037976D01*
X056916Y037915D01*
X05699Y037885D01*
Y03805D01*
D02*
G37*
G36*
X056085Y03804D02*
X05592D01*
Y037875D01*
X055994Y037905D01*
X056055Y037966D01*
X056085Y03804D01*
D02*
G37*
G36*
X05582D02*
X055655D01*
X055685Y037966D01*
X055746Y037905D01*
X05582Y037875D01*
Y03804D01*
D02*
G37*
G36*
X05272Y03859D02*
X05118D01*
Y03684D01*
X05272D01*
Y03859D01*
D02*
G37*
G36*
X045583Y036562D02*
X045508D01*
X045439Y036534D01*
X045429Y036523D01*
X038623D01*
X038587Y036538D01*
X038513D01*
X038443Y036509D01*
X038391Y036457D01*
X038362Y036387D01*
Y036313D01*
X038391Y036243D01*
X038443Y036191D01*
X038513Y036162D01*
X038587D01*
X038623Y036177D01*
X045512D01*
X045559Y036186D01*
X045583D01*
X045652Y036215D01*
X045705Y036268D01*
X045734Y036337D01*
Y036411D01*
X045705Y036481D01*
X045652Y036534D01*
X045583Y036562D01*
D02*
G37*
G36*
X055195Y036127D02*
X055105D01*
X055097Y036124D01*
X03865D01*
X038564Y036107D01*
X038491Y036059D01*
X038443Y035986D01*
X038426Y0359D01*
X038443Y035814D01*
X038491Y035741D01*
X038564Y035693D01*
X03865Y035676D01*
X055097D01*
X055105Y035673D01*
X055195D01*
X055279Y035707D01*
X055343Y035771D01*
X055377Y035855D01*
Y035945D01*
X055343Y036029D01*
X055279Y036093D01*
X055195Y036127D01*
D02*
G37*
G36*
X05143Y034465D02*
Y0343D01*
X051595D01*
X051565Y034374D01*
X051504Y034435D01*
X05143Y034465D01*
D02*
G37*
G36*
X05133D02*
X051256Y034435D01*
X051195Y034374D01*
X051165Y0343D01*
X05133D01*
Y034465D01*
D02*
G37*
G36*
X04623D02*
Y0343D01*
X046395D01*
X046365Y034374D01*
X046304Y034435D01*
X04623Y034465D01*
D02*
G37*
G36*
X04613D02*
X046056Y034435D01*
X045995Y034374D01*
X045965Y0343D01*
X04613D01*
Y034465D01*
D02*
G37*
G36*
X0439D02*
Y0343D01*
X044065D01*
X044035Y034374D01*
X043974Y034435D01*
X0439Y034465D01*
D02*
G37*
G36*
X0438D02*
X043726Y034435D01*
X043665Y034374D01*
X043635Y0343D01*
X0438D01*
Y034465D01*
D02*
G37*
G36*
X051595Y0342D02*
X05143D01*
Y034035D01*
X051504Y034065D01*
X051565Y034126D01*
X051595Y0342D01*
D02*
G37*
G36*
X05133D02*
X051165D01*
X051195Y034126D01*
X051256Y034065D01*
X05133Y034035D01*
Y0342D01*
D02*
G37*
G36*
X046395D02*
X04623D01*
Y034035D01*
X046304Y034065D01*
X046365Y034126D01*
X046395Y0342D01*
D02*
G37*
G36*
X04613D02*
X045965D01*
X045995Y034126D01*
X046056Y034065D01*
X04613Y034035D01*
Y0342D01*
D02*
G37*
G36*
X044065D02*
X0439D01*
Y034035D01*
X043974Y034065D01*
X044035Y034126D01*
X044065Y0342D01*
D02*
G37*
G36*
X0438D02*
X043635D01*
X043665Y034126D01*
X043726Y034065D01*
X0438Y034035D01*
Y0342D01*
D02*
G37*
G36*
X0588Y031885D02*
Y03172D01*
X058965D01*
X058935Y031794D01*
X058874Y031855D01*
X0588Y031885D01*
D02*
G37*
G36*
X0587D02*
X058626Y031855D01*
X058565Y031794D01*
X058535Y03172D01*
X0587D01*
Y031885D01*
D02*
G37*
G36*
X0557Y031865D02*
Y0317D01*
X055865D01*
X055835Y031774D01*
X055774Y031835D01*
X0557Y031865D01*
D02*
G37*
G36*
X0556D02*
X055526Y031835D01*
X055465Y031774D01*
X055435Y0317D01*
X0556D01*
Y031865D01*
D02*
G37*
G36*
X04464D02*
Y0317D01*
X044805D01*
X044775Y031774D01*
X044714Y031835D01*
X04464Y031865D01*
D02*
G37*
G36*
X04454D02*
X044466Y031835D01*
X044405Y031774D01*
X044375Y0317D01*
X04454D01*
Y031865D01*
D02*
G37*
G36*
X03667D02*
Y0317D01*
X036835D01*
X036805Y031774D01*
X036744Y031835D01*
X03667Y031865D01*
D02*
G37*
G36*
X03657D02*
X036496Y031835D01*
X036435Y031774D01*
X036405Y0317D01*
X03657D01*
Y031865D01*
D02*
G37*
G36*
X058965Y03162D02*
X0588D01*
Y031455D01*
X058874Y031485D01*
X058935Y031546D01*
X058965Y03162D01*
D02*
G37*
G36*
X0587D02*
X058535D01*
X058565Y031546D01*
X058626Y031485D01*
X0587Y031455D01*
Y03162D01*
D02*
G37*
G36*
X055865Y0316D02*
X0557D01*
Y031435D01*
X055774Y031465D01*
X055835Y031526D01*
X055865Y0316D01*
D02*
G37*
G36*
X0556D02*
X055435D01*
X055465Y031526D01*
X055526Y031465D01*
X0556Y031435D01*
Y0316D01*
D02*
G37*
G36*
X044805D02*
X04464D01*
Y031435D01*
X044714Y031465D01*
X044775Y031526D01*
X044805Y0316D01*
D02*
G37*
G36*
X04454D02*
X044375D01*
X044405Y031526D01*
X044466Y031465D01*
X04454Y031435D01*
Y0316D01*
D02*
G37*
G36*
X036835D02*
X03667D01*
Y031435D01*
X036744Y031465D01*
X036805Y031526D01*
X036835Y0316D01*
D02*
G37*
G36*
X03657D02*
X036405D01*
X036435Y031526D01*
X036496Y031465D01*
X03657Y031435D01*
Y0316D01*
D02*
G37*
G36*
X04678Y031275D02*
Y03111D01*
X046945D01*
X046915Y031184D01*
X046854Y031245D01*
X04678Y031275D01*
D02*
G37*
G36*
X04668D02*
X046606Y031245D01*
X046545Y031184D01*
X046515Y03111D01*
X04668D01*
Y031275D01*
D02*
G37*
G36*
X046945Y03101D02*
X046515D01*
X046545Y030936D01*
X046557Y030924D01*
X046537Y030874D01*
X04105D01*
X040964Y030857D01*
X040891Y030809D01*
X040843Y030736D01*
X040826Y03065D01*
X040843Y030564D01*
X040891Y030491D01*
X040964Y030443D01*
X04105Y030426D01*
X05765D01*
X057736Y030443D01*
X057809Y030491D01*
X057857Y030564D01*
X057874Y03065D01*
X057857Y030736D01*
X057809Y030809D01*
X057736Y030857D01*
X05765Y030874D01*
X046923D01*
X046903Y030924D01*
X046915Y030936D01*
X046945Y03101D01*
D02*
G37*
G36*
X062152Y030445D02*
X062048D01*
X061948Y030418D01*
X061858Y030366D01*
X061784Y030292D01*
X061744Y030223D01*
X061456D01*
X061416Y030292D01*
X061342Y030366D01*
X061252Y030418D01*
X061152Y030445D01*
X061048D01*
X060948Y030418D01*
X060858Y030366D01*
X060784Y030292D01*
X060732Y030202D01*
X060705Y030102D01*
Y029998D01*
X060732Y029898D01*
X060753Y029862D01*
X059554Y028662D01*
X059485D01*
X059475Y028711D01*
X059489Y028717D01*
X05961Y028798D01*
X059713Y028901D01*
X059794Y029022D01*
X059849Y029156D01*
X059878Y029299D01*
Y029445D01*
X059849Y029588D01*
X059794Y029722D01*
X059713Y029843D01*
X05961Y029946D01*
X059489Y030027D01*
X059354Y030083D01*
X059211Y030111D01*
X059066D01*
X058923Y030083D01*
X058788Y030027D01*
X058667Y029946D01*
X058564Y029843D01*
X058483Y029722D01*
X058428Y029588D01*
X058399Y029445D01*
Y029299D01*
X058428Y029156D01*
X058483Y029022D01*
X058564Y028901D01*
X058667Y028798D01*
X058788Y028717D01*
X058802Y028711D01*
X058792Y028662D01*
X054575D01*
X054557Y028659D01*
X054557Y028659D01*
X054487Y028688D01*
X054413D01*
X054343Y028659D01*
X054325Y028641D01*
X054276Y02865D01*
X054269Y028667D01*
X054207Y028729D01*
X054134Y028759D01*
Y028544D01*
Y028328D01*
X054207Y028359D01*
X054238Y02839D01*
X054291Y028393D01*
X054343Y028341D01*
X054413Y028312D01*
X054487D01*
X054489Y028312D01*
X054527Y028274D01*
X054512Y028237D01*
Y028163D01*
X054541Y028093D01*
X054593Y028041D01*
X054663Y028012D01*
X054737D01*
X054807Y028041D01*
X054854Y028088D01*
X06025D01*
X06025Y028088D01*
X060293Y028096D01*
X060329Y028121D01*
X060912Y028703D01*
X060948Y028682D01*
X061048Y028655D01*
X061152D01*
X061252Y028682D01*
X061342Y028734D01*
X061416Y028808D01*
X061456Y028877D01*
X061744D01*
X061784Y028808D01*
X061858Y028734D01*
X061948Y028682D01*
X062048Y028655D01*
X062152D01*
X062252Y028682D01*
X062342Y028734D01*
X062416Y028808D01*
X062468Y028898D01*
X062495Y028998D01*
Y029102D01*
X062468Y029202D01*
X062416Y029292D01*
X062342Y029366D01*
X062252Y029418D01*
X062152Y029445D01*
X062048D01*
X061948Y029418D01*
X061858Y029366D01*
X061784Y029292D01*
X061744Y029223D01*
X061456D01*
X061416Y029292D01*
X061342Y029366D01*
X061252Y029418D01*
X061152Y029445D01*
X061048D01*
X060948Y029418D01*
X060858Y029366D01*
X060784Y029292D01*
X060732Y029202D01*
X060705Y029102D01*
Y028998D01*
X060732Y028898D01*
X060753Y028862D01*
X060204Y028312D01*
X054854D01*
X054807Y028359D01*
X054737Y028388D01*
X054738Y028438D01*
X0596D01*
X0596Y028438D01*
X059643Y028446D01*
X059679Y028471D01*
X060912Y029703D01*
X060948Y029682D01*
X061048Y029655D01*
X061152D01*
X061252Y029682D01*
X061342Y029734D01*
X061416Y029808D01*
X061456Y029877D01*
X061744D01*
X061784Y029808D01*
X061858Y029734D01*
X061948Y029682D01*
X062048Y029655D01*
X062152D01*
X062252Y029682D01*
X062342Y029734D01*
X062416Y029808D01*
X062468Y029898D01*
X062495Y029998D01*
Y030102D01*
X062468Y030202D01*
X062416Y030292D01*
X062342Y030366D01*
X062252Y030418D01*
X062152Y030445D01*
D02*
G37*
G36*
X034252D02*
X034148D01*
X034048Y030418D01*
X033958Y030366D01*
X033884Y030292D01*
X033844Y030223D01*
X033556D01*
X033516Y030292D01*
X033442Y030366D01*
X033352Y030418D01*
X033252Y030445D01*
X033148D01*
X033048Y030418D01*
X032958Y030366D01*
X032884Y030292D01*
X032832Y030202D01*
X032805Y030102D01*
Y029998D01*
X032832Y029898D01*
X032884Y029808D01*
X032958Y029734D01*
X033048Y029682D01*
X033148Y029655D01*
X033252D01*
X033352Y029682D01*
X033442Y029734D01*
X033516Y029808D01*
X033556Y029877D01*
X033844D01*
X033884Y029808D01*
X033958Y029734D01*
X034048Y029682D01*
X034148Y029655D01*
X034252D01*
X034352Y029682D01*
X034388Y029703D01*
X03549Y028601D01*
X035471Y028555D01*
X034954D01*
X034577Y028932D01*
X034595Y028998D01*
Y029102D01*
X034568Y029202D01*
X034516Y029292D01*
X034442Y029366D01*
X034352Y029418D01*
X034252Y029445D01*
X034148D01*
X034048Y029418D01*
X033958Y029366D01*
X033884Y029292D01*
X033844Y029223D01*
X033556D01*
X033516Y029292D01*
X033442Y029366D01*
X033352Y029418D01*
X033252Y029445D01*
X033148D01*
X033048Y029418D01*
X032958Y029366D01*
X032884Y029292D01*
X032832Y029202D01*
X032805Y029102D01*
Y028998D01*
X032832Y028898D01*
X032884Y028808D01*
X032958Y028734D01*
X033048Y028682D01*
X033148Y028655D01*
X033252D01*
X033352Y028682D01*
X033442Y028734D01*
X033516Y028808D01*
X033556Y028877D01*
X033844D01*
X033884Y028808D01*
X033958Y028734D01*
X034048Y028682D01*
X034148Y028655D01*
X034252D01*
X034352Y028682D01*
X034442Y028734D01*
X03445Y028742D01*
X034828Y028363D01*
X034828Y028363D01*
X034864Y028339D01*
X034907Y028331D01*
X034907Y028331D01*
X036867D01*
X036886Y028284D01*
X03666Y028059D01*
X036602Y028103D01*
X036504Y028144D01*
X036398Y028158D01*
X036202D01*
X036096Y028144D01*
X035998Y028103D01*
X035913Y028039D01*
X035848Y027954D01*
X035807Y027856D01*
X035806Y027842D01*
X034594D01*
X034564Y027891D01*
X034568Y027898D01*
X034595Y027998D01*
Y028102D01*
X034568Y028202D01*
X034516Y028292D01*
X034442Y028366D01*
X034352Y028418D01*
X034252Y028445D01*
X034148D01*
X034048Y028418D01*
X033958Y028366D01*
X033884Y028292D01*
X033844Y028223D01*
X033556D01*
X033516Y028292D01*
X033442Y028366D01*
X033352Y028418D01*
X033252Y028445D01*
X033148D01*
X033048Y028418D01*
X032958Y028366D01*
X032884Y028292D01*
X032832Y028202D01*
X032805Y028102D01*
Y027998D01*
X032832Y027898D01*
X032884Y027808D01*
X032958Y027734D01*
X033048Y027682D01*
X033148Y027655D01*
X033252D01*
X033352Y027682D01*
X033442Y027734D01*
X033516Y027808D01*
X033556Y027877D01*
X033844D01*
X033884Y027808D01*
X033958Y027734D01*
X034048Y027682D01*
X034148Y027655D01*
X034252D01*
X034352Y027682D01*
X034388Y027703D01*
X034441Y027651D01*
X034441Y027651D01*
X034477Y027626D01*
X03452Y027618D01*
X035818D01*
X035848Y027546D01*
X035913Y027461D01*
X035998Y027397D01*
X036096Y027356D01*
X036202Y027342D01*
X036398D01*
X036504Y027356D01*
X036602Y027397D01*
X036687Y027461D01*
X036752Y027546D01*
X036793Y027644D01*
X036807Y02775D01*
X036793Y027856D01*
X036787Y027869D01*
X037086Y028167D01*
X043679D01*
X043679Y028167D01*
X043722Y028176D01*
X043759Y0282D01*
X044735Y029176D01*
X044832D01*
X044842Y029126D01*
X044831Y029121D01*
X044778Y029068D01*
X044749Y028999D01*
Y028934D01*
X042503Y026688D01*
X042463D01*
X042393Y026659D01*
X042341Y026607D01*
X042312Y026537D01*
Y026463D01*
X042341Y026393D01*
X042393Y026341D01*
X042463Y026312D01*
X042537D01*
X042607Y026341D01*
X042659Y026393D01*
X042688Y026463D01*
Y026527D01*
X044934Y028774D01*
X044975D01*
X045044Y028802D01*
X045075Y028834D01*
X051659D01*
X051702Y028791D01*
X051771Y028762D01*
X051846D01*
X051915Y028791D01*
X051968Y028844D01*
X051997Y028913D01*
Y028988D01*
X051968Y029057D01*
X051915Y02911D01*
X051846Y029138D01*
X051771D01*
X051702Y02911D01*
X051671Y029078D01*
X050566D01*
X050556Y029128D01*
X050557Y029129D01*
X050609Y029182D01*
X050638Y029251D01*
Y029326D01*
X050609Y029395D01*
X050568Y029436D01*
X050558Y029455D01*
X050564Y029498D01*
X050598Y029532D01*
X050627Y029601D01*
Y029676D01*
X050598Y029745D01*
X050545Y029798D01*
X050503Y029816D01*
X050505Y029869D01*
X050557Y029891D01*
X050609Y029943D01*
X050638Y030013D01*
Y030087D01*
X050609Y030157D01*
X050557Y030209D01*
X050487Y030238D01*
X050413D01*
X050343Y030209D01*
X050291Y030157D01*
X050272Y030112D01*
X0444D01*
X0444Y030112D01*
X044357Y030104D01*
X044321Y030079D01*
X042946Y028705D01*
X036722D01*
X036707Y028755D01*
X036771Y028798D01*
X036874Y028901D01*
X036955Y029022D01*
X037011Y029156D01*
X037039Y029299D01*
Y029445D01*
X037011Y029588D01*
X036955Y029722D01*
X036874Y029843D01*
X036771Y029946D01*
X03665Y030027D01*
X036516Y030083D01*
X036373Y030111D01*
X036227D01*
X036084Y030083D01*
X03595Y030027D01*
X035829Y029946D01*
X035726Y029843D01*
X035645Y029722D01*
X035589Y029588D01*
X035561Y029445D01*
Y029299D01*
X035589Y029156D01*
X035645Y029022D01*
X035726Y028901D01*
X035829Y028798D01*
X035893Y028755D01*
X035878Y028705D01*
X035704D01*
X034547Y029862D01*
X034568Y029898D01*
X034595Y029998D01*
Y030102D01*
X034568Y030202D01*
X034516Y030292D01*
X034442Y030366D01*
X034352Y030418D01*
X034252Y030445D01*
D02*
G37*
G36*
X055708Y029918D02*
Y029753D01*
X055873D01*
X055842Y029826D01*
X055781Y029887D01*
X055708Y029918D01*
D02*
G37*
G36*
X055608D02*
X055534Y029887D01*
X055473Y029826D01*
X055442Y029753D01*
X055608D01*
Y029918D01*
D02*
G37*
G36*
X055873Y029653D02*
X055708D01*
Y029487D01*
X055781Y029518D01*
X055842Y029579D01*
X055873Y029653D01*
D02*
G37*
G36*
X055608D02*
X055442D01*
X055473Y029579D01*
X055534Y029518D01*
X055608Y029487D01*
Y029653D01*
D02*
G37*
G36*
X054034Y028759D02*
X05396Y028729D01*
X053899Y028667D01*
X053868Y028594D01*
X054034D01*
Y028759D01*
D02*
G37*
G36*
Y028494D02*
X053868D01*
X053899Y02842D01*
X05396Y028359D01*
X054034Y028328D01*
Y028494D01*
D02*
G37*
G36*
X062152Y028445D02*
X062048D01*
X061948Y028418D01*
X061858Y028366D01*
X061784Y028292D01*
X061744Y028223D01*
X061456D01*
X061416Y028292D01*
X061342Y028366D01*
X061252Y028418D01*
X061152Y028445D01*
X061048D01*
X060948Y028418D01*
X060858Y028366D01*
X060784Y028292D01*
X060732Y028202D01*
X060705Y028102D01*
Y027998D01*
X060732Y027898D01*
X060753Y027862D01*
X059275Y026384D01*
X056054D01*
X056017Y02642D01*
X055948Y026449D01*
X055874D01*
X055804Y02642D01*
X055751Y026367D01*
X055723Y026298D01*
Y026224D01*
X055751Y026154D01*
X055804Y026101D01*
X055874Y026073D01*
X055948D01*
X055962Y026078D01*
X056012Y026045D01*
Y026006D01*
X056041Y025937D01*
X056093Y025884D01*
X056163Y025856D01*
X056237D01*
X056282Y025874D01*
X05632Y025836D01*
X056312Y025816D01*
Y025741D01*
X056341Y025672D01*
X056393Y025619D01*
X056463Y02559D01*
X056537D01*
X056566Y025602D01*
X056572Y0256D01*
X056612Y025567D01*
Y025513D01*
X056641Y025443D01*
X056693Y025391D01*
X056763Y025362D01*
X056818D01*
X056846Y025346D01*
X056862Y025318D01*
Y025263D01*
X056891Y025193D01*
X056943Y025141D01*
X057013Y025112D01*
X057087D01*
X057124Y025127D01*
X057162Y025089D01*
X057162Y025087D01*
Y025013D01*
X057191Y024943D01*
X057243Y024891D01*
X057313Y024862D01*
X057387D01*
X057457Y024891D01*
X057504Y024938D01*
X059054D01*
X060753Y023238D01*
X060732Y023202D01*
X060705Y023102D01*
Y022998D01*
X060732Y022898D01*
X060784Y022808D01*
X060858Y022734D01*
X060948Y022682D01*
X061048Y022655D01*
X061152D01*
X061252Y022682D01*
X061342Y022734D01*
X061416Y022808D01*
X061456Y022877D01*
X061744D01*
X061784Y022808D01*
X061858Y022734D01*
X061948Y022682D01*
X062048Y022655D01*
X062152D01*
X062252Y022682D01*
X062342Y022734D01*
X062416Y022808D01*
X062468Y022898D01*
X062495Y022998D01*
Y023102D01*
X062468Y023202D01*
X062416Y023292D01*
X062342Y023366D01*
X062252Y023418D01*
X062152Y023445D01*
X062048D01*
X061948Y023418D01*
X061858Y023366D01*
X061784Y023292D01*
X061744Y023223D01*
X061456D01*
X061416Y023292D01*
X061342Y023366D01*
X061252Y023418D01*
X061152Y023445D01*
X061048D01*
X060948Y023418D01*
X060912Y023397D01*
X059179Y025129D01*
X059167Y025138D01*
X059182Y025188D01*
X059804D01*
X060753Y024238D01*
X060732Y024202D01*
X060705Y024102D01*
Y023998D01*
X060732Y023898D01*
X060784Y023808D01*
X060858Y023734D01*
X060948Y023682D01*
X061048Y023655D01*
X061152D01*
X061252Y023682D01*
X061342Y023734D01*
X061416Y023808D01*
X061456Y023877D01*
X061744D01*
X061784Y023808D01*
X061858Y023734D01*
X061948Y023682D01*
X062048Y023655D01*
X062152D01*
X062252Y023682D01*
X062342Y023734D01*
X062416Y023808D01*
X062468Y023898D01*
X062495Y023998D01*
Y024102D01*
X062468Y024202D01*
X062416Y024292D01*
X062342Y024366D01*
X062252Y024418D01*
X062152Y024445D01*
X062048D01*
X061948Y024418D01*
X061858Y024366D01*
X061784Y024292D01*
X061744Y024223D01*
X061456D01*
X061416Y024292D01*
X061342Y024366D01*
X061252Y024418D01*
X061152Y024445D01*
X061048D01*
X060948Y024418D01*
X060912Y024397D01*
X059929Y025379D01*
X059917Y025388D01*
X059932Y025438D01*
X060554D01*
X060753Y025238D01*
X060732Y025202D01*
X060705Y025102D01*
Y024998D01*
X060732Y024898D01*
X060784Y024808D01*
X060858Y024734D01*
X060948Y024682D01*
X061048Y024655D01*
X061152D01*
X061252Y024682D01*
X061342Y024734D01*
X061416Y024808D01*
X061456Y024877D01*
X061744D01*
X061784Y024808D01*
X061858Y024734D01*
X061948Y024682D01*
X062048Y024655D01*
X062152D01*
X062252Y024682D01*
X062342Y024734D01*
X062416Y024808D01*
X062468Y024898D01*
X062495Y024998D01*
Y025102D01*
X062468Y025202D01*
X062416Y025292D01*
X062342Y025366D01*
X062252Y025418D01*
X062152Y025445D01*
X062048D01*
X061948Y025418D01*
X061858Y025366D01*
X061784Y025292D01*
X061744Y025223D01*
X061456D01*
X061416Y025292D01*
X061342Y025366D01*
X061252Y025418D01*
X061152Y025445D01*
X061048D01*
X060948Y025418D01*
X060912Y025397D01*
X060691Y025617D01*
X0607Y025661D01*
X060707Y025671D01*
X060726Y025674D01*
X060762Y025699D01*
X060828Y025764D01*
X060858Y025734D01*
X060948Y025682D01*
X061048Y025655D01*
X061152D01*
X061252Y025682D01*
X061342Y025734D01*
X061416Y025808D01*
X061456Y025877D01*
X061744D01*
X061784Y025808D01*
X061858Y025734D01*
X061948Y025682D01*
X062048Y025655D01*
X062152D01*
X062252Y025682D01*
X062342Y025734D01*
X062416Y025808D01*
X062468Y025898D01*
X062495Y025998D01*
Y026102D01*
X062468Y026202D01*
X062416Y026292D01*
X062342Y026366D01*
X062252Y026418D01*
X062152Y026445D01*
X062048D01*
X061948Y026418D01*
X061858Y026366D01*
X061784Y026292D01*
X061744Y026223D01*
X061456D01*
X061416Y026292D01*
X061342Y026366D01*
X061252Y026418D01*
X061152Y026445D01*
X061048D01*
X060948Y026418D01*
X060858Y026366D01*
X060784Y026292D01*
X060732Y026202D01*
X060705Y026102D01*
Y025998D01*
X060713Y025967D01*
X060637Y02589D01*
X060142D01*
X060137Y02594D01*
X060173Y025964D01*
X060912Y026703D01*
X060948Y026682D01*
X061048Y026655D01*
X061152D01*
X061252Y026682D01*
X061342Y026734D01*
X061416Y026808D01*
X061456Y026877D01*
X061744D01*
X061784Y026808D01*
X061858Y026734D01*
X061948Y026682D01*
X062048Y026655D01*
X062152D01*
X062252Y026682D01*
X062342Y026734D01*
X062416Y026808D01*
X062468Y026898D01*
X062495Y026998D01*
Y027102D01*
X062468Y027202D01*
X062416Y027292D01*
X062342Y027366D01*
X062252Y027418D01*
X062152Y027445D01*
X062048D01*
X061948Y027418D01*
X061858Y027366D01*
X061784Y027292D01*
X061744Y027223D01*
X061456D01*
X061416Y027292D01*
X061342Y027366D01*
X061252Y027418D01*
X061152Y027445D01*
X061048D01*
X060948Y027418D01*
X060858Y027366D01*
X060784Y027292D01*
X060732Y027202D01*
X060705Y027102D01*
Y026998D01*
X060732Y026898D01*
X060753Y026862D01*
X060047Y026156D01*
X059433D01*
X059415Y026206D01*
X060912Y027703D01*
X060948Y027682D01*
X061048Y027655D01*
X061152D01*
X061252Y027682D01*
X061342Y027734D01*
X061416Y027808D01*
X061456Y027877D01*
X061744D01*
X061784Y027808D01*
X061858Y027734D01*
X061948Y027682D01*
X062048Y027655D01*
X062152D01*
X062252Y027682D01*
X062342Y027734D01*
X062416Y027808D01*
X062468Y027898D01*
X062495Y027998D01*
Y028102D01*
X062468Y028202D01*
X062416Y028292D01*
X062342Y028366D01*
X062252Y028418D01*
X062152Y028445D01*
D02*
G37*
G36*
X05524Y027995D02*
Y02783D01*
X055405D01*
X055375Y027904D01*
X055314Y027965D01*
X05524Y027995D01*
D02*
G37*
G36*
X05514D02*
X055066Y027965D01*
X055005Y027904D01*
X054975Y02783D01*
X05514D01*
Y027995D01*
D02*
G37*
G36*
X055405Y02773D02*
X05524D01*
Y027565D01*
X055314Y027595D01*
X055375Y027656D01*
X055405Y02773D01*
D02*
G37*
G36*
X05514D02*
X054975D01*
X055005Y027656D01*
X055066Y027595D01*
X05514Y027565D01*
Y02773D01*
D02*
G37*
G36*
X034252Y027445D02*
X034148D01*
X034048Y027418D01*
X033958Y027366D01*
X033884Y027292D01*
X033844Y027223D01*
X033556D01*
X033516Y027292D01*
X033442Y027366D01*
X033352Y027418D01*
X033252Y027445D01*
X033148D01*
X033048Y027418D01*
X032958Y027366D01*
X032884Y027292D01*
X032832Y027202D01*
X032805Y027102D01*
Y026998D01*
X032832Y026898D01*
X032884Y026808D01*
X032958Y026734D01*
X033048Y026682D01*
X033148Y026655D01*
X033252D01*
X033352Y026682D01*
X033442Y026734D01*
X033516Y026808D01*
X033556Y026877D01*
X033844D01*
X033884Y026808D01*
X033958Y026734D01*
X034048Y026682D01*
X034148Y026655D01*
X034252D01*
X034352Y026682D01*
X034388Y026703D01*
X034441Y026651D01*
X034441Y026651D01*
X034477Y026626D01*
X03452Y026618D01*
X035818D01*
X035848Y026546D01*
X035913Y026461D01*
X035998Y026397D01*
X036096Y026356D01*
X036202Y026342D01*
X036398D01*
X036504Y026356D01*
X036602Y026397D01*
X036687Y026461D01*
X036752Y026546D01*
X036782Y026618D01*
X0372D01*
X040048Y02377D01*
X040031Y023723D01*
X039991Y023718D01*
X037919Y025789D01*
X037883Y025814D01*
X03784Y025822D01*
X03784Y025822D01*
X036797D01*
X036793Y025856D01*
X036752Y025954D01*
X036687Y026039D01*
X036602Y026103D01*
X036504Y026144D01*
X036398Y026158D01*
X036202D01*
X036096Y026144D01*
X035998Y026103D01*
X035913Y026039D01*
X035848Y025954D01*
X035807Y025856D01*
X035803Y025822D01*
X034586D01*
X034547Y025862D01*
X034568Y025898D01*
X034595Y025998D01*
Y026102D01*
X034568Y026202D01*
X034516Y026292D01*
X034442Y026366D01*
X034352Y026418D01*
X034252Y026445D01*
X034148D01*
X034048Y026418D01*
X033958Y026366D01*
X033884Y026292D01*
X033844Y026223D01*
X033556D01*
X033516Y026292D01*
X033442Y026366D01*
X033352Y026418D01*
X033252Y026445D01*
X033148D01*
X033048Y026418D01*
X032958Y026366D01*
X032884Y026292D01*
X032832Y026202D01*
X032805Y026102D01*
Y025998D01*
X032832Y025898D01*
X032884Y025808D01*
X032958Y025734D01*
X033048Y025682D01*
X033148Y025655D01*
X033252D01*
X033352Y025682D01*
X033442Y025734D01*
X033516Y025808D01*
X033556Y025877D01*
X033844D01*
X033884Y025808D01*
X033958Y025734D01*
X034048Y025682D01*
X034148Y025655D01*
X034252D01*
X034352Y025682D01*
X034388Y025703D01*
X034461Y025631D01*
X034461Y025631D01*
X034497Y025606D01*
X03454Y025598D01*
X03454Y025598D01*
X035827D01*
X035848Y025546D01*
X035913Y025461D01*
X035998Y025397D01*
X036096Y025356D01*
X036088Y025307D01*
X034502D01*
X034442Y025366D01*
X034352Y025418D01*
X034252Y025445D01*
X034148D01*
X034048Y025418D01*
X033958Y025366D01*
X033884Y025292D01*
X033844Y025223D01*
X033556D01*
X033516Y025292D01*
X033442Y025366D01*
X033352Y025418D01*
X033252Y025445D01*
X033148D01*
X033048Y025418D01*
X032958Y025366D01*
X032884Y025292D01*
X032832Y025202D01*
X032805Y025102D01*
Y024998D01*
X032832Y024898D01*
X032884Y024808D01*
X032958Y024734D01*
X033048Y024682D01*
X033148Y024655D01*
X033252D01*
X033352Y024682D01*
X033442Y024734D01*
X033516Y024808D01*
X033556Y024877D01*
X033844D01*
X033884Y024808D01*
X033958Y024734D01*
X034048Y024682D01*
X034148Y024655D01*
X034252D01*
X034352Y024682D01*
X034442Y024734D01*
X034516Y024808D01*
X034568Y024898D01*
X034595Y024998D01*
Y025082D01*
X035897D01*
X035908Y025032D01*
X035848Y024954D01*
X035807Y024856D01*
X035793Y02475D01*
X035807Y024644D01*
X035848Y024546D01*
X035913Y024461D01*
X035977Y024412D01*
X03596Y024362D01*
X034532D01*
X034532Y024362D01*
X034489Y024354D01*
X034468Y02434D01*
X034442Y024366D01*
X034352Y024418D01*
X034252Y024445D01*
X034148D01*
X034048Y024418D01*
X033958Y024366D01*
X033884Y024292D01*
X033844Y024223D01*
X033556D01*
X033516Y024292D01*
X033442Y024366D01*
X033352Y024418D01*
X033252Y024445D01*
X033148D01*
X033048Y024418D01*
X032958Y024366D01*
X032884Y024292D01*
X032832Y024202D01*
X032805Y024102D01*
Y023998D01*
X032832Y023898D01*
X032884Y023808D01*
X032958Y023734D01*
X033048Y023682D01*
X033148Y023655D01*
X033252D01*
X033352Y023682D01*
X033442Y023734D01*
X033516Y023808D01*
X033556Y023877D01*
X033844D01*
X033884Y023808D01*
X033958Y023734D01*
X034048Y023682D01*
X034148Y023655D01*
X034252D01*
X034352Y023682D01*
X034442Y023734D01*
X034516Y023808D01*
X034568Y023898D01*
X034595Y023998D01*
Y024102D01*
X034622Y024138D01*
X03596D01*
X035977Y024088D01*
X035913Y024039D01*
X035848Y023954D01*
X035807Y023856D01*
X035793Y02375D01*
X035807Y023644D01*
X035848Y023546D01*
X035913Y023461D01*
X035977Y023412D01*
X03596Y023362D01*
X034554D01*
X034554Y023362D01*
X034511Y023354D01*
X034477Y023331D01*
X034442Y023366D01*
X034352Y023418D01*
X034252Y023445D01*
X034148D01*
X034048Y023418D01*
X033958Y023366D01*
X033884Y023292D01*
X033844Y023223D01*
X033556D01*
X033516Y023292D01*
X033442Y023366D01*
X033352Y023418D01*
X033252Y023445D01*
X033148D01*
X033048Y023418D01*
X032958Y023366D01*
X032884Y023292D01*
X032832Y023202D01*
X032805Y023102D01*
Y022998D01*
X032832Y022898D01*
X032884Y022808D01*
X032958Y022734D01*
X033048Y022682D01*
X033148Y022655D01*
X033252D01*
X033352Y022682D01*
X033442Y022734D01*
X033516Y022808D01*
X033556Y022877D01*
X033844D01*
X033884Y022808D01*
X033958Y022734D01*
X034048Y022682D01*
X034148Y022655D01*
X034252D01*
X034352Y022682D01*
X034442Y022734D01*
X034516Y022808D01*
X034568Y022898D01*
X034595Y022998D01*
Y023102D01*
X034637Y023138D01*
X03596D01*
X035977Y023088D01*
X035913Y023039D01*
X035848Y022954D01*
X035807Y022856D01*
X035793Y02275D01*
X035807Y022644D01*
X035848Y022546D01*
X035913Y022461D01*
X035977Y022412D01*
X03596Y022362D01*
X034554D01*
X034554Y022362D01*
X034511Y022354D01*
X034477Y022331D01*
X034442Y022366D01*
X034352Y022418D01*
X034252Y022445D01*
X034148D01*
X034048Y022418D01*
X033958Y022366D01*
X033884Y022292D01*
X033844Y022223D01*
X033556D01*
X033516Y022292D01*
X033442Y022366D01*
X033352Y022418D01*
X033252Y022445D01*
X033148D01*
X033048Y022418D01*
X032958Y022366D01*
X032884Y022292D01*
X032832Y022202D01*
X032805Y022102D01*
Y021998D01*
X032832Y021898D01*
X032884Y021808D01*
X032958Y021734D01*
X033048Y021682D01*
X033148Y021655D01*
X033252D01*
X033352Y021682D01*
X033442Y021734D01*
X033516Y021808D01*
X033556Y021877D01*
X033844D01*
X033884Y021808D01*
X033958Y021734D01*
X034048Y021682D01*
X034148Y021655D01*
X034252D01*
X034352Y021682D01*
X034442Y021734D01*
X034516Y021808D01*
X034568Y021898D01*
X034595Y021998D01*
Y022102D01*
X034637Y022138D01*
X03596D01*
X035977Y022088D01*
X035913Y022039D01*
X035848Y021954D01*
X035807Y021856D01*
X035793Y02175D01*
X035807Y021644D01*
X035848Y021546D01*
X035913Y021461D01*
X035998Y021397D01*
X036096Y021356D01*
X036088Y021307D01*
X034502D01*
X034442Y021366D01*
X034352Y021418D01*
X034252Y021445D01*
X034148D01*
X034048Y021418D01*
X033958Y021366D01*
X033884Y021292D01*
X033844Y021223D01*
X033556D01*
X033516Y021292D01*
X033442Y021366D01*
X033352Y021418D01*
X033252Y021445D01*
X033148D01*
X033048Y021418D01*
X032958Y021366D01*
X032884Y021292D01*
X032832Y021202D01*
X032805Y021102D01*
Y020998D01*
X032832Y020898D01*
X032884Y020808D01*
X032958Y020734D01*
X033048Y020682D01*
X033148Y020655D01*
X033252D01*
X033352Y020682D01*
X033442Y020734D01*
X033516Y020808D01*
X033556Y020877D01*
X033844D01*
X033884Y020808D01*
X033958Y020734D01*
X034048Y020682D01*
X034148Y020655D01*
X034252D01*
X034352Y020682D01*
X034442Y020734D01*
X034516Y020808D01*
X034568Y020898D01*
X034595Y020998D01*
Y021082D01*
X035897D01*
X035908Y021032D01*
X035848Y020954D01*
X035807Y020856D01*
X035793Y02075D01*
X035807Y020644D01*
X035848Y020546D01*
X035913Y020461D01*
X035977Y020412D01*
X03596Y020362D01*
X034532D01*
X034532Y020362D01*
X034489Y020354D01*
X034468Y02034D01*
X034442Y020366D01*
X034352Y020418D01*
X034252Y020445D01*
X034148D01*
X034048Y020418D01*
X033958Y020366D01*
X033884Y020292D01*
X033844Y020223D01*
X033556D01*
X033516Y020292D01*
X033442Y020366D01*
X033352Y020418D01*
X033252Y020445D01*
X033148D01*
X033048Y020418D01*
X032958Y020366D01*
X032884Y020292D01*
X032832Y020202D01*
X032805Y020102D01*
Y019998D01*
X032832Y019898D01*
X032884Y019808D01*
X032958Y019734D01*
X033048Y019682D01*
X033148Y019655D01*
X033252D01*
X033352Y019682D01*
X033442Y019734D01*
X033516Y019808D01*
X033556Y019877D01*
X033844D01*
X033884Y019808D01*
X033958Y019734D01*
X034048Y019682D01*
X034148Y019655D01*
X034252D01*
X034352Y019682D01*
X034442Y019734D01*
X034516Y019808D01*
X034568Y019898D01*
X034595Y019998D01*
Y020102D01*
X034622Y020138D01*
X035911D01*
X035928Y020088D01*
X035892Y02006D01*
X035822Y019969D01*
X035778Y019863D01*
X03577Y0198D01*
X0363D01*
X03683D01*
X036822Y019863D01*
X036778Y019969D01*
X036708Y02006D01*
X036672Y020088D01*
X036689Y020138D01*
X0398D01*
X0398Y020138D01*
X039843Y020146D01*
X039879Y020171D01*
X040446Y020738D01*
X040859D01*
X040879Y020688D01*
X039554Y019362D01*
X036689D01*
X036672Y019412D01*
X036708Y01944D01*
X036778Y019531D01*
X036822Y019637D01*
X03683Y0197D01*
X0363D01*
X03577D01*
X035778Y019637D01*
X035822Y019531D01*
X035892Y01944D01*
X035928Y019412D01*
X035911Y019362D01*
X034532D01*
X034532Y019362D01*
X034489Y019354D01*
X034468Y01934D01*
X034442Y019366D01*
X034352Y019418D01*
X034252Y019445D01*
X034148D01*
X034048Y019418D01*
X033958Y019366D01*
X033884Y019292D01*
X033844Y019223D01*
X033556D01*
X033516Y019292D01*
X033442Y019366D01*
X033352Y019418D01*
X033252Y019445D01*
X033148D01*
X033048Y019418D01*
X032958Y019366D01*
X032884Y019292D01*
X032832Y019202D01*
X032805Y019102D01*
Y018998D01*
X032832Y018898D01*
X032884Y018808D01*
X032958Y018734D01*
X033048Y018682D01*
X033148Y018655D01*
X033252D01*
X033352Y018682D01*
X033442Y018734D01*
X033516Y018808D01*
X033556Y018877D01*
X033844D01*
X033884Y018808D01*
X033958Y018734D01*
X034048Y018682D01*
X034148Y018655D01*
X034252D01*
X034352Y018682D01*
X034442Y018734D01*
X034516Y018808D01*
X034568Y018898D01*
X034595Y018998D01*
Y019102D01*
X034622Y019138D01*
X035911D01*
X035928Y019088D01*
X035892Y01906D01*
X035822Y018969D01*
X035778Y018863D01*
X03577Y0188D01*
X0363D01*
X03683D01*
X036822Y018863D01*
X036778Y018969D01*
X036708Y01906D01*
X036672Y019088D01*
X036689Y019138D01*
X038243D01*
Y018302D01*
X036584D01*
X036574Y018352D01*
X036618Y01837D01*
X036708Y01844D01*
X036778Y018531D01*
X036822Y018637D01*
X03683Y0187D01*
X0363D01*
X03577D01*
X035778Y018637D01*
X035822Y018531D01*
X035892Y01844D01*
X035982Y01837D01*
X036026Y018352D01*
X036016Y018302D01*
X034506D01*
X034442Y018366D01*
X034352Y018418D01*
X034252Y018445D01*
X034148D01*
X034048Y018418D01*
X033958Y018366D01*
X033884Y018292D01*
X033844Y018223D01*
X033556D01*
X033516Y018292D01*
X033442Y018366D01*
X033352Y018418D01*
X033252Y018445D01*
X033148D01*
X033048Y018418D01*
X032958Y018366D01*
X032884Y018292D01*
X032832Y018202D01*
X032805Y018102D01*
Y017998D01*
X032832Y017898D01*
X032884Y017808D01*
X032958Y017734D01*
X033048Y017682D01*
X033148Y017655D01*
X033252D01*
X033352Y017682D01*
X033442Y017734D01*
X033516Y017808D01*
X033556Y017877D01*
X033844D01*
X033884Y017808D01*
X033958Y017734D01*
X034048Y017682D01*
X034148Y017655D01*
X034252D01*
X034352Y017682D01*
X034442Y017734D01*
X034516Y017808D01*
X034568Y017898D01*
X034595Y017998D01*
Y018078D01*
X035889D01*
X035905Y018028D01*
X035848Y017954D01*
X035807Y017856D01*
X035793Y01775D01*
X035807Y017644D01*
X035848Y017546D01*
X035913Y017461D01*
X035998Y017397D01*
X036096Y017356D01*
X036202Y017342D01*
X036398D01*
X036504Y017356D01*
X036602Y017397D01*
X036687Y017461D01*
X036736Y017526D01*
X03725D01*
X037336Y017543D01*
X037409Y017591D01*
X037457Y017664D01*
X037474Y01775D01*
X037457Y017836D01*
X037409Y017909D01*
X037336Y017957D01*
X03725Y017974D01*
X036736D01*
X036695Y018028D01*
X036711Y018078D01*
X039249D01*
X039269Y018028D01*
X038404Y017162D01*
X034579D01*
X034568Y017202D01*
X034516Y017292D01*
X034442Y017366D01*
X034352Y017418D01*
X034252Y017445D01*
X034148D01*
X034048Y017418D01*
X033958Y017366D01*
X033884Y017292D01*
X033844Y017223D01*
X033556D01*
X033516Y017292D01*
X033442Y017366D01*
X033352Y017418D01*
X033252Y017445D01*
X033148D01*
X033048Y017418D01*
X032958Y017366D01*
X032884Y017292D01*
X032832Y017202D01*
X032805Y017102D01*
Y016998D01*
X032832Y016898D01*
X032884Y016808D01*
X032958Y016734D01*
X033048Y016682D01*
X033148Y016655D01*
X033252D01*
X033352Y016682D01*
X033442Y016734D01*
X033516Y016808D01*
X033556Y016877D01*
X033844D01*
X033884Y016808D01*
X033958Y016734D01*
X034048Y016682D01*
X034148Y016655D01*
X034252D01*
X034352Y016682D01*
X034442Y016734D01*
X034516Y016808D01*
X034568Y016898D01*
X034579Y016938D01*
X03845D01*
X03845Y016938D01*
X038493Y016946D01*
X038529Y016971D01*
X039231Y017672D01*
X03929Y017661D01*
X039302Y017632D01*
X039355Y017579D01*
X039424Y017551D01*
X039499D01*
X039568Y017579D01*
X039615Y017627D01*
X046146D01*
X046146Y017627D01*
X046167Y017631D01*
X046213Y017612D01*
X046287D01*
X046357Y017641D01*
X046409Y017693D01*
X046438Y017763D01*
Y017837D01*
X046427Y017864D01*
X046469Y017893D01*
X046493Y017869D01*
X046563Y01784D01*
X046637D01*
X046707Y017869D01*
X046759Y017922D01*
X046788Y017991D01*
Y018066D01*
X046759Y018135D01*
X046707Y018188D01*
X046637Y018216D01*
X046563D01*
X046493Y018188D01*
X046446Y01814D01*
X041276D01*
X041257Y018159D01*
X041187Y018188D01*
X041113D01*
X041043Y018159D01*
X040991Y018107D01*
X040962Y018037D01*
Y017963D01*
X040987Y017901D01*
X040968Y017851D01*
X039615D01*
X039568Y017898D01*
X039539Y01791D01*
X039528Y017969D01*
X041646Y020088D01*
X048196D01*
X048243Y020041D01*
X048313Y020012D01*
X048387D01*
X048457Y020041D01*
X048509Y020093D01*
X048538Y020163D01*
Y020237D01*
X048509Y020307D01*
X048457Y020359D01*
X048387Y020388D01*
X048313D01*
X048243Y020359D01*
X048226Y020342D01*
X048217Y020345D01*
X048188Y020405D01*
X048188Y020406D01*
Y020481D01*
X048159Y02055D01*
X048107Y020603D01*
X048037Y020632D01*
X047963D01*
X047893Y020603D01*
X047855Y020565D01*
X047804Y020568D01*
X047778Y020609D01*
X047788Y020634D01*
Y020709D01*
X047759Y020778D01*
X047707Y020831D01*
X047637Y02086D01*
X047563D01*
X047493Y020831D01*
X047441Y020778D01*
X047439Y020774D01*
X047394Y020774D01*
X047369Y020816D01*
X047388Y020863D01*
Y020937D01*
X047359Y021007D01*
X047307Y021059D01*
X047237Y021088D01*
X047163D01*
X047093Y021059D01*
X047041Y021007D01*
X047034Y020992D01*
X047011Y020991D01*
X046978Y021039D01*
X046988Y021063D01*
Y021137D01*
X046959Y021207D01*
X046907Y021259D01*
X046837Y021288D01*
X046763D01*
X046693Y021259D01*
X046671Y021237D01*
X04665Y021241D01*
X046623Y021297D01*
X046638Y021334D01*
Y021409D01*
X046609Y021478D01*
X046557Y021531D01*
X046487Y02156D01*
X046413D01*
X046343Y021531D01*
X046319Y021507D01*
X046277Y021536D01*
X046288Y021563D01*
Y021637D01*
X046259Y021707D01*
X046207Y021759D01*
X046137Y021788D01*
X046063D01*
X045993Y021759D01*
X045967Y021734D01*
X045925Y021762D01*
X045925Y021762D01*
X045946Y021813D01*
Y021888D01*
X045918Y021957D01*
X045865Y02201D01*
X045795Y022038D01*
X045721D01*
X045652Y02201D01*
X045604Y021962D01*
X040746D01*
X038379Y024329D01*
X038343Y024354D01*
X0383Y024362D01*
X0383Y024362D01*
X03664D01*
X036623Y024412D01*
X036687Y024461D01*
X036752Y024546D01*
X036793Y024644D01*
X036807Y02475D01*
X036793Y024856D01*
X036752Y024954D01*
X036692Y025032D01*
X036703Y025082D01*
X038009D01*
X039821Y023271D01*
X039821Y023271D01*
X039857Y023246D01*
X0399Y023238D01*
X046346D01*
X046393Y023191D01*
X046463Y023162D01*
X046537D01*
X046607Y023191D01*
X046659Y023243D01*
X046688Y023313D01*
Y023387D01*
X046659Y023457D01*
X046607Y023509D01*
X046537Y023538D01*
X046463D01*
X046393Y023509D01*
X046346Y023462D01*
X046203D01*
X046171Y023512D01*
X046188Y023553D01*
Y023628D01*
X046159Y023697D01*
X046107Y02375D01*
X046037Y023779D01*
X045963D01*
X045893Y02375D01*
X045855Y023712D01*
X045589D01*
X045556Y023762D01*
X045567Y023791D01*
Y023866D01*
X045539Y023935D01*
X045486Y023988D01*
X045417Y024016D01*
X045342D01*
X045273Y023988D01*
X045226Y02394D01*
X040195D01*
X040005Y02413D01*
X040026Y02418D01*
X040055D01*
X040149Y024205D01*
X040234Y024254D01*
X040303Y024323D01*
X040351Y024407D01*
X040377Y024501D01*
Y024599D01*
X040351Y024693D01*
X040303Y024777D01*
X040234Y024846D01*
X040149Y024895D01*
X040055Y02492D01*
X039958D01*
X039864Y024895D01*
X039779Y024846D01*
X039711Y024777D01*
X039662Y024693D01*
X039637Y024599D01*
Y024569D01*
X039587Y024549D01*
X037326Y026809D01*
X03729Y026834D01*
X037247Y026842D01*
X037247Y026842D01*
X036794D01*
X036793Y026856D01*
X036752Y026954D01*
X036687Y027039D01*
X036602Y027103D01*
X036504Y027144D01*
X036398Y027158D01*
X036202D01*
X036096Y027144D01*
X035998Y027103D01*
X035913Y027039D01*
X035848Y026954D01*
X035807Y026856D01*
X035806Y026842D01*
X034594D01*
X034564Y026891D01*
X034568Y026898D01*
X034595Y026998D01*
Y027102D01*
X034568Y027202D01*
X034516Y027292D01*
X034442Y027366D01*
X034352Y027418D01*
X034252Y027445D01*
D02*
G37*
G36*
X043055Y02497D02*
X042945D01*
X042838Y024941D01*
X042742Y024886D01*
X042664Y024808D01*
X042609Y024712D01*
X04258Y024605D01*
Y024495D01*
X042609Y024388D01*
X042664Y024292D01*
X042742Y024214D01*
X042838Y024159D01*
X042945Y02413D01*
X043055D01*
X043162Y024159D01*
X043258Y024214D01*
X043336Y024292D01*
X043391Y024388D01*
X04342Y024495D01*
Y024605D01*
X043391Y024712D01*
X043336Y024808D01*
X043258Y024886D01*
X043162Y024941D01*
X043055Y02497D01*
D02*
G37*
G36*
X058993Y02466D02*
X058796D01*
X058691Y024646D01*
X058592Y024605D01*
X058508Y02454D01*
X058443Y024456D01*
X058402Y024357D01*
X058388Y024252D01*
X058402Y024146D01*
X058443Y024048D01*
X058508Y023963D01*
X058592Y023898D01*
X058691Y023857D01*
X058796Y023844D01*
X058993D01*
X059099Y023857D01*
X059197Y023898D01*
X059282Y023963D01*
X059347Y024048D01*
X059387Y024146D01*
X059401Y024252D01*
X059387Y024357D01*
X059347Y024456D01*
X059282Y02454D01*
X059197Y024605D01*
X059099Y024646D01*
X058993Y02466D01*
D02*
G37*
G36*
X05321Y028524D02*
X04555D01*
X045464Y028507D01*
X045391Y028459D01*
X045343Y028386D01*
X045326Y0283D01*
X045343Y028214D01*
X045391Y028141D01*
X045464Y028093D01*
X04555Y028076D01*
X053117D01*
X055126Y026067D01*
Y0233D01*
Y021443D01*
X053641Y019959D01*
X053593Y019886D01*
X053576Y0198D01*
Y017523D01*
X050973D01*
X050937Y017538D01*
X050863D01*
X050793Y017509D01*
X050741Y017457D01*
X050712Y017387D01*
Y017313D01*
X050741Y017243D01*
X050793Y017191D01*
X050863Y017162D01*
X050937D01*
X050973Y017177D01*
X053576D01*
Y015424D01*
X040424D01*
Y01605D01*
X040407Y016136D01*
X040359Y016209D01*
X040286Y016257D01*
X0402Y016274D01*
X040114Y016257D01*
X040041Y016209D01*
X039993Y016136D01*
X039976Y01605D01*
Y015424D01*
X038674D01*
Y0161D01*
X038657Y016186D01*
X038609Y016259D01*
X038536Y016307D01*
X03845Y016324D01*
X038364Y016307D01*
X038291Y016259D01*
X038243Y016186D01*
X038226Y0161D01*
Y015424D01*
X03725D01*
X037164Y015407D01*
X037091Y015359D01*
X037043Y015286D01*
X037026Y0152D01*
X037043Y015114D01*
X037091Y015041D01*
X037164Y014993D01*
X03725Y014976D01*
X045312D01*
X045327Y014941D01*
X045329Y014926D01*
X044918Y014515D01*
X044826Y014553D01*
X04472Y014567D01*
X044614Y014553D01*
X044516Y014512D01*
X044431Y014447D01*
X044367Y014362D01*
X044326Y014264D01*
X044312Y014158D01*
Y013962D01*
X044326Y013856D01*
X044367Y013758D01*
X044431Y013673D01*
X044516Y013608D01*
X044614Y013567D01*
X04472Y013553D01*
X044826Y013567D01*
X044924Y013608D01*
X045009Y013673D01*
X045073Y013758D01*
X045114Y013856D01*
X045128Y013962D01*
Y014158D01*
X045114Y014264D01*
X045076Y014356D01*
X045458Y014738D01*
X053496D01*
X053543Y014691D01*
X053613Y014662D01*
X053687D01*
X053757Y014691D01*
X053804Y014738D01*
X060254D01*
X060753Y014238D01*
X060732Y014202D01*
X060705Y014102D01*
Y013998D01*
X060732Y013898D01*
X060784Y013808D01*
X060858Y013734D01*
X060948Y013682D01*
X061048Y013655D01*
X061152D01*
X061252Y013682D01*
X061342Y013734D01*
X061416Y013808D01*
X061456Y013877D01*
X061744D01*
X061784Y013808D01*
X061858Y013734D01*
X061948Y013682D01*
X062048Y013655D01*
X062152D01*
X062252Y013682D01*
X062342Y013734D01*
X062416Y013808D01*
X062468Y013898D01*
X062495Y013998D01*
Y014102D01*
X062468Y014202D01*
X062416Y014292D01*
X062342Y014366D01*
X062252Y014418D01*
X062152Y014445D01*
X062048D01*
X061948Y014418D01*
X061858Y014366D01*
X061784Y014292D01*
X061744Y014223D01*
X061456D01*
X061416Y014292D01*
X061342Y014366D01*
X061252Y014418D01*
X061152Y014445D01*
X061048D01*
X060948Y014418D01*
X060912Y014397D01*
X060379Y014929D01*
X060343Y014954D01*
X0603Y014962D01*
X0603Y014962D01*
X05958D01*
X059565Y015012D01*
X059609Y015041D01*
X059657Y015114D01*
X059674Y0152D01*
X059657Y015286D01*
X059609Y015359D01*
X059536Y015407D01*
X059498Y015415D01*
X05949Y015456D01*
X059492Y015467D01*
X05961Y015546D01*
X059713Y015649D01*
X059794Y01577D01*
X059849Y015904D01*
X059878Y016047D01*
Y016193D01*
X059849Y016336D01*
X059794Y01647D01*
X059713Y016591D01*
X05961Y016694D01*
X059489Y016775D01*
X059354Y016831D01*
X059211Y016859D01*
X059066D01*
X058923Y016831D01*
X058788Y016775D01*
X058667Y016694D01*
X058564Y016591D01*
X058483Y01647D01*
X058428Y016336D01*
X058399Y016193D01*
Y016047D01*
X058428Y015904D01*
X058483Y01577D01*
X058564Y015649D01*
X058667Y015546D01*
X058774Y015474D01*
X058759Y015424D01*
X054024D01*
Y01735D01*
Y019707D01*
X055509Y021191D01*
X055557Y021264D01*
X055574Y02135D01*
Y023177D01*
X057227D01*
X057263Y023162D01*
X057337D01*
X057407Y023191D01*
X057459Y023243D01*
X057488Y023313D01*
Y023387D01*
X057459Y023457D01*
X057407Y023509D01*
X057337Y023538D01*
X057263D01*
X057227Y023523D01*
X055574D01*
Y02616D01*
X055557Y026246D01*
X055509Y026319D01*
X053369Y028459D01*
X053296Y028507D01*
X05321Y028524D01*
D02*
G37*
G36*
X058993Y02366D02*
X058796D01*
X058691Y023646D01*
X058592Y023605D01*
X058508Y02354D01*
X058443Y023456D01*
X058402Y023357D01*
X058388Y023252D01*
X058402Y023146D01*
X058443Y023048D01*
X058508Y022963D01*
X058592Y022898D01*
X058691Y022857D01*
X058796Y022844D01*
X058993D01*
X059099Y022857D01*
X059197Y022898D01*
X059282Y022963D01*
X059347Y023048D01*
X059387Y023146D01*
X059401Y023252D01*
X059387Y023357D01*
X059347Y023456D01*
X059282Y02354D01*
X059197Y023605D01*
X059099Y023646D01*
X058993Y02366D01*
D02*
G37*
G36*
X062152Y022445D02*
X062048D01*
X061948Y022418D01*
X061858Y022366D01*
X061784Y022292D01*
X061744Y022223D01*
X061456D01*
X061416Y022292D01*
X061342Y022366D01*
X061252Y022418D01*
X061152Y022445D01*
X061048D01*
X060948Y022418D01*
X060858Y022366D01*
X060784Y022292D01*
X060732Y022202D01*
X060705Y022102D01*
Y021998D01*
X060732Y021898D01*
X060753Y021862D01*
X059704Y020812D01*
X05912D01*
X05911Y020862D01*
X059197Y020898D01*
X059282Y020963D01*
X059347Y021048D01*
X059387Y021146D01*
X059401Y021252D01*
X059387Y021357D01*
X059347Y021456D01*
X059282Y02154D01*
X059197Y021605D01*
X059099Y021646D01*
X058993Y02166D01*
X058796D01*
X058691Y021646D01*
X058592Y021605D01*
X058508Y02154D01*
X058443Y021456D01*
X058402Y021357D01*
X058388Y021252D01*
X058402Y021146D01*
X058443Y021048D01*
X058508Y020963D01*
X058592Y020898D01*
X058679Y020862D01*
X058669Y020812D01*
X056554D01*
X056507Y020859D01*
X056437Y020888D01*
X056363D01*
X056293Y020859D01*
X056241Y020807D01*
X056212Y020737D01*
Y020663D01*
X056215Y020655D01*
X056184Y0206D01*
X056169Y020597D01*
X056157Y020609D01*
X056087Y020638D01*
X056013D01*
X055943Y020609D01*
X055891Y020557D01*
X055862Y020487D01*
Y020413D01*
X055891Y020343D01*
X055857Y020309D01*
X055787Y020338D01*
X055713D01*
X055643Y020309D01*
X055591Y020257D01*
X055562Y020187D01*
Y020113D01*
X055591Y020043D01*
X055557Y020009D01*
X055487Y020038D01*
X055413D01*
X055343Y020009D01*
X055291Y019957D01*
X055262Y019887D01*
Y019813D01*
X055291Y019743D01*
X055257Y019709D01*
X055187Y019738D01*
X055113D01*
X055043Y019709D01*
X054991Y019657D01*
X054962Y019587D01*
Y019513D01*
X054991Y019443D01*
X054993Y019441D01*
X054975Y019388D01*
X054947Y019384D01*
X054914Y019417D01*
X054845Y019446D01*
X05477D01*
X054701Y019417D01*
X054648Y019364D01*
X05462Y019295D01*
Y01922D01*
X054648Y019151D01*
X054701Y019098D01*
X05477Y01907D01*
X054845D01*
X054914Y019098D01*
X054962Y019146D01*
X058846D01*
X060753Y017238D01*
X060732Y017202D01*
X060705Y017102D01*
Y016998D01*
X060732Y016898D01*
X060784Y016808D01*
X060858Y016734D01*
X060948Y016682D01*
X061048Y016655D01*
X061152D01*
X061252Y016682D01*
X061342Y016734D01*
X061416Y016808D01*
X061456Y016877D01*
X061744D01*
X061784Y016808D01*
X061858Y016734D01*
X061948Y016682D01*
X062048Y016655D01*
X062152D01*
X062252Y016682D01*
X062342Y016734D01*
X062416Y016808D01*
X062468Y016898D01*
X062495Y016998D01*
Y017102D01*
X062468Y017202D01*
X062416Y017292D01*
X062342Y017366D01*
X062252Y017418D01*
X062152Y017445D01*
X062048D01*
X061948Y017418D01*
X061858Y017366D01*
X061784Y017292D01*
X061744Y017223D01*
X061456D01*
X061416Y017292D01*
X061342Y017366D01*
X061252Y017418D01*
X061152Y017445D01*
X061048D01*
X060948Y017418D01*
X060912Y017397D01*
X058972Y019337D01*
X058935Y019361D01*
X058892Y01937D01*
X058892Y01937D01*
X055345D01*
X05532Y01942D01*
X055333Y019438D01*
X059554D01*
X060753Y018238D01*
X060732Y018202D01*
X060705Y018102D01*
Y017998D01*
X060732Y017898D01*
X060784Y017808D01*
X060858Y017734D01*
X060948Y017682D01*
X061048Y017655D01*
X061152D01*
X061252Y017682D01*
X061342Y017734D01*
X061416Y017808D01*
X061456Y017877D01*
X061744D01*
X061784Y017808D01*
X061858Y017734D01*
X061948Y017682D01*
X062048Y017655D01*
X062152D01*
X062252Y017682D01*
X062342Y017734D01*
X062416Y017808D01*
X062468Y017898D01*
X062495Y017998D01*
Y018102D01*
X062468Y018202D01*
X062416Y018292D01*
X062342Y018366D01*
X062252Y018418D01*
X062152Y018445D01*
X062048D01*
X061948Y018418D01*
X061858Y018366D01*
X061784Y018292D01*
X061744Y018223D01*
X061456D01*
X061416Y018292D01*
X061342Y018366D01*
X061252Y018418D01*
X061152Y018445D01*
X061048D01*
X060948Y018418D01*
X060912Y018397D01*
X059679Y019629D01*
X059643Y019654D01*
X0596Y019662D01*
X0596Y019662D01*
X05562D01*
X055597Y019712D01*
X055618Y019738D01*
X060254D01*
X060753Y019238D01*
X060732Y019202D01*
X060705Y019102D01*
Y018998D01*
X060732Y018898D01*
X060784Y018808D01*
X060858Y018734D01*
X060948Y018682D01*
X061048Y018655D01*
X061152D01*
X061252Y018682D01*
X061342Y018734D01*
X061416Y018808D01*
X061456Y018877D01*
X061744D01*
X061784Y018808D01*
X061858Y018734D01*
X061948Y018682D01*
X062048Y018655D01*
X062152D01*
X062252Y018682D01*
X062342Y018734D01*
X062416Y018808D01*
X062468Y018898D01*
X062495Y018998D01*
Y019102D01*
X062468Y019202D01*
X062416Y019292D01*
X062342Y019366D01*
X062252Y019418D01*
X062152Y019445D01*
X062048D01*
X061948Y019418D01*
X061858Y019366D01*
X061784Y019292D01*
X061744Y019223D01*
X061456D01*
X061416Y019292D01*
X061342Y019366D01*
X061252Y019418D01*
X061152Y019445D01*
X061048D01*
X060948Y019418D01*
X060912Y019397D01*
X060379Y019929D01*
X060343Y019954D01*
X0603Y019962D01*
X0603Y019962D01*
X05592D01*
X055897Y020012D01*
X055918Y020038D01*
X060705D01*
Y019998D01*
X060732Y019898D01*
X060784Y019808D01*
X060858Y019734D01*
X060948Y019682D01*
X061048Y019655D01*
X061152D01*
X061252Y019682D01*
X061342Y019734D01*
X061416Y019808D01*
X061456Y019877D01*
X061744D01*
X061784Y019808D01*
X061858Y019734D01*
X061948Y019682D01*
X062048Y019655D01*
X062152D01*
X062252Y019682D01*
X062342Y019734D01*
X062416Y019808D01*
X062468Y019898D01*
X062495Y019998D01*
Y020102D01*
X062468Y020202D01*
X062416Y020292D01*
X062342Y020366D01*
X062252Y020418D01*
X062152Y020445D01*
X062048D01*
X061948Y020418D01*
X061858Y020366D01*
X061784Y020292D01*
X061744Y020223D01*
X061456D01*
X061416Y020292D01*
X061342Y020366D01*
X061252Y020418D01*
X061152Y020445D01*
X061048D01*
X060948Y020418D01*
X060858Y020366D01*
X060784Y020292D01*
X060767Y020262D01*
X05622D01*
X056197Y020312D01*
X056218Y020338D01*
X0605D01*
X0605Y020338D01*
X060543Y020346D01*
X060579Y020371D01*
X060912Y020703D01*
X060948Y020682D01*
X061048Y020655D01*
X061152D01*
X061252Y020682D01*
X061342Y020734D01*
X061416Y020808D01*
X061456Y020877D01*
X061744D01*
X061784Y020808D01*
X061858Y020734D01*
X061948Y020682D01*
X062048Y020655D01*
X062152D01*
X062252Y020682D01*
X062342Y020734D01*
X062416Y020808D01*
X062468Y020898D01*
X062495Y020998D01*
Y021102D01*
X062468Y021202D01*
X062416Y021292D01*
X062342Y021366D01*
X062252Y021418D01*
X062152Y021445D01*
X062048D01*
X061948Y021418D01*
X061858Y021366D01*
X061784Y021292D01*
X061744Y021223D01*
X061456D01*
X061416Y021292D01*
X061342Y021366D01*
X061252Y021418D01*
X061152Y021445D01*
X061048D01*
X060948Y021418D01*
X060858Y021366D01*
X060784Y021292D01*
X060732Y021202D01*
X060705Y021102D01*
Y020998D01*
X060732Y020898D01*
X060753Y020862D01*
X060454Y020562D01*
X059832D01*
X059817Y020612D01*
X059829Y020621D01*
X060912Y021703D01*
X060948Y021682D01*
X061048Y021655D01*
X061152D01*
X061252Y021682D01*
X061342Y021734D01*
X061416Y021808D01*
X061456Y021877D01*
X061744D01*
X061784Y021808D01*
X061858Y021734D01*
X061948Y021682D01*
X062048Y021655D01*
X062152D01*
X062252Y021682D01*
X062342Y021734D01*
X062416Y021808D01*
X062468Y021898D01*
X062495Y021998D01*
Y022102D01*
X062468Y022202D01*
X062416Y022292D01*
X062342Y022366D01*
X062252Y022418D01*
X062152Y022445D01*
D02*
G37*
G36*
X058993Y02266D02*
X058796D01*
X058691Y022646D01*
X058592Y022605D01*
X058508Y02254D01*
X058443Y022456D01*
X058402Y022357D01*
X058388Y022252D01*
X058402Y022146D01*
X058443Y022048D01*
X058508Y021963D01*
X058592Y021898D01*
X058691Y021857D01*
X058796Y021844D01*
X058993D01*
X059099Y021857D01*
X059197Y021898D01*
X059282Y021963D01*
X059347Y022048D01*
X059387Y022146D01*
X059401Y022252D01*
X059387Y022357D01*
X059347Y022456D01*
X059282Y02254D01*
X059197Y022605D01*
X059099Y022646D01*
X058993Y02266D01*
D02*
G37*
G36*
X03766Y018945D02*
Y01878D01*
X037825D01*
X037795Y018854D01*
X037734Y018915D01*
X03766Y018945D01*
D02*
G37*
G36*
X03756D02*
X037486Y018915D01*
X037425Y018854D01*
X037395Y01878D01*
X03756D01*
Y018945D01*
D02*
G37*
G36*
X037825Y01868D02*
X03766D01*
Y018515D01*
X037734Y018545D01*
X037795Y018606D01*
X037825Y01868D01*
D02*
G37*
G36*
X03756D02*
X037395D01*
X037425Y018606D01*
X037486Y018545D01*
X03756Y018515D01*
Y01868D01*
D02*
G37*
G36*
X041562Y01917D02*
X041438D01*
X041319Y019138D01*
X041211Y019076D01*
X041124Y018989D01*
X041062Y018881D01*
X04103Y018762D01*
Y018638D01*
X041062Y018519D01*
X041124Y018411D01*
X041211Y018324D01*
X041319Y018262D01*
X041438Y01823D01*
X041562D01*
X041681Y018262D01*
X041789Y018324D01*
X041876Y018411D01*
X041938Y018519D01*
X041947Y018553D01*
X042321D01*
X042339Y018503D01*
X042312Y018437D01*
Y018363D01*
X042341Y018293D01*
X042393Y018241D01*
X042463Y018212D01*
X042537D01*
X042607Y018241D01*
X042644Y018278D01*
X048306D01*
X048343Y018241D01*
X048413Y018212D01*
X048487D01*
X048557Y018241D01*
X048609Y018293D01*
X048638Y018363D01*
Y018437D01*
X048609Y018507D01*
X048557Y018559D01*
X048487Y018588D01*
X048413D01*
X048343Y018559D01*
X048306Y018522D01*
X044004D01*
X043971Y018572D01*
X043988Y018613D01*
Y018687D01*
X043959Y018757D01*
X043907Y018809D01*
X043837Y018838D01*
X043763D01*
X043693Y018809D01*
X043681Y018797D01*
X041961D01*
X041938Y018881D01*
X041876Y018989D01*
X041789Y019076D01*
X041681Y019138D01*
X041562Y01917D01*
D02*
G37*
G36*
X045687Y016988D02*
X045613D01*
X045577Y016973D01*
X038773D01*
X038737Y016988D01*
X038663D01*
X038593Y016959D01*
X038541Y016907D01*
X038512Y016837D01*
Y016763D01*
X038541Y016693D01*
X038593Y016641D01*
X038663Y016612D01*
X038737D01*
X038773Y016627D01*
X041733D01*
X041758Y016577D01*
X041735Y01652D01*
X042165D01*
X042142Y016577D01*
X042167Y016627D01*
X042757D01*
X042763Y016621D01*
X042833Y016592D01*
X042907D01*
X042977Y016621D01*
X042983Y016627D01*
X045577D01*
X045613Y016612D01*
X045687D01*
X045757Y016641D01*
X045809Y016693D01*
X045838Y016763D01*
Y016837D01*
X045809Y016907D01*
X045757Y016959D01*
X045687Y016988D01*
D02*
G37*
G36*
X048487Y016588D02*
X048413D01*
X048343Y016559D01*
X048291Y016507D01*
X048287Y016499D01*
X048237D01*
X048234Y016507D01*
X048181Y016559D01*
X048112Y016588D01*
X048037D01*
X047968Y016559D01*
X047915Y016507D01*
X047886Y016437D01*
Y016363D01*
X047915Y016293D01*
X047968Y016241D01*
X048037Y016212D01*
X048112D01*
X048181Y016241D01*
X048234Y016293D01*
X048237Y016301D01*
X048287D01*
X048291Y016293D01*
X048343Y016241D01*
X048413Y016212D01*
X048487D01*
X048557Y016241D01*
X048609Y016293D01*
X048638Y016363D01*
Y016437D01*
X048609Y016507D01*
X048557Y016559D01*
X048487Y016588D01*
D02*
G37*
G36*
X03768Y016635D02*
Y01647D01*
X037845D01*
X037815Y016544D01*
X037754Y016605D01*
X03768Y016635D01*
D02*
G37*
G36*
X03758D02*
X037506Y016605D01*
X037445Y016544D01*
X037415Y01647D01*
X03758D01*
Y016635D01*
D02*
G37*
G36*
X042165Y01642D02*
X042D01*
Y016255D01*
X042074Y016285D01*
X042135Y016347D01*
X042165Y01642D01*
D02*
G37*
G36*
X0419D02*
X041735D01*
X041765Y016347D01*
X041826Y016285D01*
X0419Y016255D01*
Y01642D01*
D02*
G37*
G36*
X034252Y016445D02*
X034148D01*
X034048Y016418D01*
X033958Y016366D01*
X033884Y016292D01*
X033844Y016223D01*
X033556D01*
X033516Y016292D01*
X033442Y016366D01*
X033352Y016418D01*
X033252Y016445D01*
X033148D01*
X033048Y016418D01*
X032958Y016366D01*
X032884Y016292D01*
X032832Y016202D01*
X032805Y016102D01*
Y015998D01*
X032832Y015898D01*
X032884Y015808D01*
X032958Y015734D01*
X033048Y015682D01*
X033148Y015655D01*
X033252D01*
X033352Y015682D01*
X033442Y015734D01*
X033516Y015808D01*
X033556Y015877D01*
X033844D01*
X033884Y015808D01*
X033958Y015734D01*
X034048Y015682D01*
X034148Y015655D01*
X034252D01*
X034352Y015682D01*
X034388Y015703D01*
X035293Y014798D01*
X035274Y014752D01*
X034656D01*
X034547Y014862D01*
X034568Y014898D01*
X034595Y014998D01*
Y015102D01*
X034568Y015202D01*
X034516Y015292D01*
X034442Y015366D01*
X034352Y015418D01*
X034252Y015445D01*
X034148D01*
X034048Y015418D01*
X033958Y015366D01*
X033884Y015292D01*
X033844Y015223D01*
X033556D01*
X033516Y015292D01*
X033442Y015366D01*
X033352Y015418D01*
X033252Y015445D01*
X033148D01*
X033048Y015418D01*
X032958Y015366D01*
X032884Y015292D01*
X032832Y015202D01*
X032805Y015102D01*
Y014998D01*
X032832Y014898D01*
X032884Y014808D01*
X032958Y014734D01*
X033048Y014682D01*
X033148Y014655D01*
X033252D01*
X033352Y014682D01*
X033442Y014734D01*
X033516Y014808D01*
X033556Y014877D01*
X033844D01*
X033884Y014808D01*
X033958Y014734D01*
X034048Y014682D01*
X034148Y014655D01*
X034252D01*
X034352Y014682D01*
X034388Y014703D01*
X034531Y014561D01*
X034531Y014561D01*
X034567Y014536D01*
X03461Y014528D01*
X03461Y014528D01*
X035597D01*
X035614Y014478D01*
X035589Y014459D01*
X035531Y014383D01*
X035494Y014294D01*
X035482Y014198D01*
Y014002D01*
X035494Y013906D01*
X035531Y013817D01*
X035589Y013741D01*
X035666Y013683D01*
X035755Y013646D01*
X03585Y013633D01*
X035945Y013646D01*
X036034Y013683D01*
X036111Y013741D01*
X036169Y013817D01*
X036206Y013906D01*
X036218Y014002D01*
Y014198D01*
X036206Y014294D01*
X036169Y014383D01*
X036111Y014459D01*
X036086Y014478D01*
X036103Y014528D01*
X036597D01*
X036614Y014478D01*
X036589Y014459D01*
X036531Y014383D01*
X036494Y014294D01*
X036482Y014198D01*
Y014002D01*
X036494Y013906D01*
X036531Y013817D01*
X036589Y013741D01*
X036666Y013683D01*
X036755Y013646D01*
X03685Y013633D01*
X036945Y013646D01*
X037034Y013683D01*
X037111Y013741D01*
X037169Y013817D01*
X037206Y013906D01*
X037218Y014002D01*
Y014198D01*
X037206Y014294D01*
X037169Y014383D01*
X037111Y014459D01*
X037086Y014478D01*
X037103Y014528D01*
X037597D01*
X037614Y014478D01*
X037589Y014459D01*
X037531Y014383D01*
X037494Y014294D01*
X037482Y014198D01*
Y014002D01*
X037494Y013906D01*
X037531Y013817D01*
X037589Y013741D01*
X037666Y013683D01*
X037755Y013646D01*
X03785Y013633D01*
X037945Y013646D01*
X038034Y013683D01*
X038111Y013741D01*
X038169Y013817D01*
X038206Y013906D01*
X038218Y014002D01*
Y014198D01*
X038206Y014294D01*
X038169Y014383D01*
X038111Y014459D01*
X038086Y014478D01*
X038103Y014528D01*
X038597D01*
X038614Y014478D01*
X038589Y014459D01*
X038531Y014383D01*
X038494Y014294D01*
X038482Y014198D01*
Y014002D01*
X038494Y013906D01*
X038531Y013817D01*
X038589Y013741D01*
X038666Y013683D01*
X038755Y013646D01*
X03885Y013633D01*
X038945Y013646D01*
X039034Y013683D01*
X039111Y013741D01*
X039169Y013817D01*
X039206Y013906D01*
X039218Y014002D01*
Y014198D01*
X039206Y014294D01*
X039169Y014383D01*
X039111Y014459D01*
X039086Y014478D01*
X039103Y014528D01*
X039362D01*
X039524Y014366D01*
X039494Y014294D01*
X039482Y014198D01*
Y014002D01*
X039494Y013906D01*
X039531Y013817D01*
X039589Y013741D01*
X039666Y013683D01*
X039755Y013646D01*
X03985Y013633D01*
X039945Y013646D01*
X040034Y013683D01*
X040111Y013741D01*
X040169Y013817D01*
X040206Y013906D01*
X040218Y014002D01*
Y014198D01*
X040206Y014294D01*
X040169Y014383D01*
X040111Y014459D01*
X040034Y014517D01*
X039945Y014554D01*
X03985Y014567D01*
X039755Y014554D01*
X039683Y014524D01*
X039575Y014632D01*
X039595Y014678D01*
X040212D01*
X040524Y014366D01*
X040494Y014294D01*
X040482Y014198D01*
Y014002D01*
X040494Y013906D01*
X040531Y013817D01*
X040589Y013741D01*
X040666Y013683D01*
X040755Y013646D01*
X04085Y013633D01*
X040945Y013646D01*
X041034Y013683D01*
X041111Y013741D01*
X041169Y013817D01*
X041206Y013906D01*
X041218Y014002D01*
Y014198D01*
X041206Y014294D01*
X041169Y014383D01*
X041111Y014459D01*
X041034Y014517D01*
X040945Y014554D01*
X04085Y014567D01*
X040755Y014554D01*
X040683Y014524D01*
X040338Y014869D01*
X040301Y014894D01*
X040258Y014902D01*
X040258Y014902D01*
X035506D01*
X034547Y015862D01*
X034568Y015898D01*
X034595Y015998D01*
Y016102D01*
X034568Y016202D01*
X034516Y016292D01*
X034442Y016366D01*
X034352Y016418D01*
X034252Y016445D01*
D02*
G37*
G36*
X037845Y01637D02*
X03768D01*
Y016205D01*
X037754Y016235D01*
X037815Y016296D01*
X037845Y01637D01*
D02*
G37*
G36*
X03758D02*
X037415D01*
X037445Y016296D01*
X037506Y016235D01*
X03758Y016205D01*
Y01637D01*
D02*
G37*
G36*
X054587Y019088D02*
X054513D01*
X054443Y019059D01*
X054391Y019007D01*
X054362Y018937D01*
Y018863D01*
X054373Y018835D01*
X054339Y018788D01*
X054291D01*
X054222Y018759D01*
X054169Y018707D01*
X05414Y018637D01*
Y018563D01*
X054169Y018493D01*
X054222Y018441D01*
X054291Y018412D01*
X054366D01*
X054435Y018441D01*
X054482Y018488D01*
X057926D01*
X059956Y016459D01*
Y016082D01*
X059956Y016082D01*
X059964Y016039D01*
X059989Y016003D01*
X060753Y015238D01*
X060732Y015202D01*
X060705Y015102D01*
Y014998D01*
X060732Y014898D01*
X060784Y014808D01*
X060858Y014734D01*
X060948Y014682D01*
X061048Y014655D01*
X061152D01*
X061252Y014682D01*
X061342Y014734D01*
X061416Y014808D01*
X061456Y014877D01*
X061744D01*
X061784Y014808D01*
X061858Y014734D01*
X061948Y014682D01*
X062048Y014655D01*
X062152D01*
X062252Y014682D01*
X062342Y014734D01*
X062416Y014808D01*
X062468Y014898D01*
X062495Y014998D01*
Y015102D01*
X062468Y015202D01*
X062416Y015292D01*
X062342Y015366D01*
X062252Y015418D01*
X062152Y015445D01*
X062048D01*
X061948Y015418D01*
X061858Y015366D01*
X061784Y015292D01*
X061744Y015223D01*
X061456D01*
X061416Y015292D01*
X061342Y015366D01*
X061252Y015418D01*
X061152Y015445D01*
X061048D01*
X060948Y015418D01*
X060912Y015397D01*
X06018Y016129D01*
Y016505D01*
X06018Y016505D01*
X060171Y016548D01*
X060147Y016584D01*
X060147Y016584D01*
X058052Y018679D01*
X058016Y018704D01*
X057973Y018712D01*
X057973Y018712D01*
X05472D01*
X054697Y018762D01*
X054718Y018788D01*
X058204D01*
X060753Y016238D01*
X060732Y016202D01*
X060705Y016102D01*
Y015998D01*
X060732Y015898D01*
X060784Y015808D01*
X060858Y015734D01*
X060948Y015682D01*
X061048Y015655D01*
X061152D01*
X061252Y015682D01*
X061342Y015734D01*
X061416Y015808D01*
X061456Y015877D01*
X061744D01*
X061784Y015808D01*
X061858Y015734D01*
X061948Y015682D01*
X062048Y015655D01*
X062152D01*
X062252Y015682D01*
X062342Y015734D01*
X062416Y015808D01*
X062468Y015898D01*
X062495Y015998D01*
Y016102D01*
X062468Y016202D01*
X062416Y016292D01*
X062342Y016366D01*
X062252Y016418D01*
X062152Y016445D01*
X062048D01*
X061948Y016418D01*
X061858Y016366D01*
X061784Y016292D01*
X061744Y016223D01*
X061456D01*
X061416Y016292D01*
X061342Y016366D01*
X061252Y016418D01*
X061152Y016445D01*
X061048D01*
X060948Y016418D01*
X060912Y016397D01*
X058329Y018979D01*
X058293Y019004D01*
X05825Y019012D01*
X05825Y019012D01*
X054704D01*
X054657Y019059D01*
X054587Y019088D01*
D02*
G37*
G36*
X036373Y016859D02*
X036227D01*
X036084Y016831D01*
X03595Y016775D01*
X035829Y016694D01*
X035726Y016591D01*
X035645Y01647D01*
X035589Y016336D01*
X035561Y016193D01*
Y016047D01*
X035589Y015904D01*
X035645Y01577D01*
X035726Y015649D01*
X035829Y015546D01*
X03595Y015465D01*
X036084Y015409D01*
X036227Y015381D01*
X036373D01*
X036516Y015409D01*
X03665Y015465D01*
X036771Y015546D01*
X036874Y015649D01*
X036955Y01577D01*
X037011Y015904D01*
X037039Y016047D01*
Y016193D01*
X037011Y016336D01*
X036955Y01647D01*
X036874Y016591D01*
X036771Y016694D01*
X03665Y016775D01*
X036516Y016831D01*
X036373Y016859D01*
D02*
G37*
G36*
X034252Y014445D02*
X034148D01*
X034048Y014418D01*
X033958Y014366D01*
X033884Y014292D01*
X033844Y014223D01*
X033556D01*
X033516Y014292D01*
X033442Y014366D01*
X033352Y014418D01*
X033252Y014445D01*
X033148D01*
X033048Y014418D01*
X032958Y014366D01*
X032884Y014292D01*
X032832Y014202D01*
X032805Y014102D01*
Y013998D01*
X032832Y013898D01*
X032884Y013808D01*
X032958Y013734D01*
X033048Y013682D01*
X033148Y013655D01*
X033252D01*
X033352Y013682D01*
X033442Y013734D01*
X033516Y013808D01*
X033556Y013877D01*
X033844D01*
X033884Y013808D01*
X033958Y013734D01*
X034048Y013682D01*
X034148Y013655D01*
X034252D01*
X034352Y013682D01*
X034442Y013734D01*
X034516Y013808D01*
X034568Y013898D01*
X034595Y013998D01*
Y014102D01*
X034568Y014202D01*
X034516Y014292D01*
X034442Y014366D01*
X034352Y014418D01*
X034252Y014445D01*
D02*
G37*
G36*
X0419Y014591D02*
Y01415D01*
X042249D01*
Y014198D01*
X042235Y014302D01*
X042195Y014398D01*
X042132Y01448D01*
X042049Y014544D01*
X041953Y014584D01*
X0419Y014591D01*
D02*
G37*
G36*
X0418D02*
X041747Y014584D01*
X041651Y014544D01*
X041568Y01448D01*
X041505Y014398D01*
X041465Y014302D01*
X041451Y014198D01*
Y01415D01*
X0418D01*
Y014591D01*
D02*
G37*
G36*
X04677Y01459D02*
Y01411D01*
X047158D01*
Y014158D01*
X047143Y014272D01*
X0471Y014378D01*
X04703Y014468D01*
X046939Y014538D01*
X046833Y014582D01*
X04677Y01459D01*
D02*
G37*
G36*
X04667D02*
X046607Y014582D01*
X046501Y014538D01*
X04641Y014468D01*
X04634Y014378D01*
X046297Y014272D01*
X046282Y014158D01*
Y01411D01*
X04667D01*
Y01459D01*
D02*
G37*
G36*
X057462Y013993D02*
X05746D01*
Y013647D01*
X057805D01*
Y01365D01*
X057778Y01375D01*
X057726Y01384D01*
X057653Y013914D01*
X057563Y013966D01*
X057462Y013993D01*
D02*
G37*
G36*
X05736D02*
X057358D01*
X057257Y013966D01*
X057167Y013914D01*
X057094Y01384D01*
X057042Y01375D01*
X057015Y01365D01*
Y013647D01*
X05736D01*
Y013993D01*
D02*
G37*
G36*
X051692D02*
X05169D01*
Y013647D01*
X052035D01*
Y01365D01*
X052008Y01375D01*
X051956Y01384D01*
X051883Y013914D01*
X051793Y013966D01*
X051692Y013993D01*
D02*
G37*
G36*
X05159D02*
X051588D01*
X051487Y013966D01*
X051397Y013914D01*
X051324Y01384D01*
X051272Y01375D01*
X051245Y01365D01*
Y013647D01*
X05159D01*
Y013993D01*
D02*
G37*
G36*
X04285Y014567D02*
X042755Y014554D01*
X042666Y014517D01*
X042589Y014459D01*
X042531Y014383D01*
X042494Y014294D01*
X042482Y014198D01*
Y014002D01*
X042494Y013906D01*
X042531Y013817D01*
X042589Y013741D01*
X042666Y013683D01*
X042755Y013646D01*
X04285Y013633D01*
X042945Y013646D01*
X043034Y013683D01*
X043111Y013741D01*
X043169Y013817D01*
X043206Y013906D01*
X043218Y014002D01*
Y014198D01*
X043206Y014294D01*
X043169Y014383D01*
X043111Y014459D01*
X043034Y014517D01*
X042945Y014554D01*
X04285Y014567D01*
D02*
G37*
G36*
X042249Y01405D02*
X0419D01*
Y013609D01*
X041953Y013616D01*
X042049Y013656D01*
X042132Y01372D01*
X042195Y013802D01*
X042235Y013898D01*
X042249Y014002D01*
Y01405D01*
D02*
G37*
G36*
X0418D02*
X041451D01*
Y014002D01*
X041465Y013898D01*
X041505Y013802D01*
X041568Y01372D01*
X041651Y013656D01*
X041747Y013616D01*
X0418Y013609D01*
Y01405D01*
D02*
G37*
G36*
X04972Y014567D02*
X049614Y014553D01*
X049516Y014512D01*
X049431Y014447D01*
X049367Y014362D01*
X049326Y014264D01*
X049312Y014158D01*
Y013962D01*
X049326Y013856D01*
X049367Y013758D01*
X049431Y013673D01*
X049516Y013608D01*
X049614Y013567D01*
X04972Y013553D01*
X049826Y013567D01*
X049924Y013608D01*
X050009Y013673D01*
X050073Y013758D01*
X050114Y013856D01*
X050128Y013962D01*
Y014158D01*
X050114Y014264D01*
X050073Y014362D01*
X050009Y014447D01*
X049924Y014512D01*
X049826Y014553D01*
X04972Y014567D01*
D02*
G37*
G36*
X04872D02*
X048614Y014553D01*
X048516Y014512D01*
X048431Y014447D01*
X048367Y014362D01*
X048326Y014264D01*
X048312Y014158D01*
Y013962D01*
X048326Y013856D01*
X048367Y013758D01*
X048431Y013673D01*
X048516Y013608D01*
X048614Y013567D01*
X04872Y013553D01*
X048826Y013567D01*
X048924Y013608D01*
X049009Y013673D01*
X049073Y013758D01*
X049114Y013856D01*
X049128Y013962D01*
Y014158D01*
X049114Y014264D01*
X049073Y014362D01*
X049009Y014447D01*
X048924Y014512D01*
X048826Y014553D01*
X04872Y014567D01*
D02*
G37*
G36*
X04772D02*
X047614Y014553D01*
X047516Y014512D01*
X047431Y014447D01*
X047367Y014362D01*
X047326Y014264D01*
X047312Y014158D01*
Y013962D01*
X047326Y013856D01*
X047367Y013758D01*
X047431Y013673D01*
X047516Y013608D01*
X047614Y013567D01*
X04772Y013553D01*
X047826Y013567D01*
X047924Y013608D01*
X048009Y013673D01*
X048073Y013758D01*
X048114Y013856D01*
X048128Y013962D01*
Y014158D01*
X048114Y014264D01*
X048073Y014362D01*
X048009Y014447D01*
X047924Y014512D01*
X047826Y014553D01*
X04772Y014567D01*
D02*
G37*
G36*
X04572D02*
X045614Y014553D01*
X045516Y014512D01*
X045431Y014447D01*
X045367Y014362D01*
X045326Y014264D01*
X045312Y014158D01*
Y013962D01*
X045326Y013856D01*
X045367Y013758D01*
X045431Y013673D01*
X045516Y013608D01*
X045614Y013567D01*
X04572Y013553D01*
X045826Y013567D01*
X045924Y013608D01*
X046009Y013673D01*
X046073Y013758D01*
X046114Y013856D01*
X046128Y013962D01*
Y014158D01*
X046114Y014264D01*
X046073Y014362D01*
X046009Y014447D01*
X045924Y014512D01*
X045826Y014553D01*
X04572Y014567D01*
D02*
G37*
G36*
X047158Y01401D02*
X04677D01*
Y01353D01*
X046833Y013538D01*
X046939Y013582D01*
X04703Y013652D01*
X0471Y013742D01*
X047143Y013848D01*
X047158Y013962D01*
Y01401D01*
D02*
G37*
G36*
X04667D02*
X046282D01*
Y013962D01*
X046297Y013848D01*
X04634Y013742D01*
X04641Y013652D01*
X046501Y013582D01*
X046607Y013538D01*
X04667Y01353D01*
Y01401D01*
D02*
G37*
G36*
X059775Y013963D02*
X059045D01*
Y013232D01*
X059775D01*
Y013963D01*
D02*
G37*
G36*
X058458D02*
X058362D01*
X058269Y013938D01*
X058186Y01389D01*
X058118Y013822D01*
X05807Y013738D01*
X058045Y013646D01*
Y013549D01*
X05807Y013456D01*
X058118Y013373D01*
X058186Y013305D01*
X058269Y013257D01*
X058362Y013232D01*
X058458D01*
X058551Y013257D01*
X058634Y013305D01*
X058702Y013373D01*
X05875Y013456D01*
X058775Y013549D01*
Y013646D01*
X05875Y013738D01*
X058702Y013822D01*
X058634Y01389D01*
X058551Y013938D01*
X058458Y013963D01*
D02*
G37*
G36*
X056458D02*
X056362D01*
X056269Y013938D01*
X056186Y01389D01*
X056118Y013822D01*
X05607Y013738D01*
X056045Y013646D01*
Y013549D01*
X05607Y013456D01*
X056118Y013373D01*
X056186Y013305D01*
X056269Y013257D01*
X056362Y013232D01*
X056458D01*
X056551Y013257D01*
X056634Y013305D01*
X056702Y013373D01*
X05675Y013456D01*
X056775Y013549D01*
Y013646D01*
X05675Y013738D01*
X056702Y013822D01*
X056634Y01389D01*
X056551Y013938D01*
X056458Y013963D01*
D02*
G37*
G36*
X055005D02*
X054275D01*
Y013232D01*
X055005D01*
Y013963D01*
D02*
G37*
G36*
X053688D02*
X053592D01*
X053499Y013938D01*
X053416Y01389D01*
X053348Y013822D01*
X0533Y013738D01*
X053275Y013646D01*
Y013549D01*
X0533Y013456D01*
X053348Y013373D01*
X053416Y013305D01*
X053499Y013257D01*
X053592Y013232D01*
X053688D01*
X053781Y013257D01*
X053864Y013305D01*
X053932Y013373D01*
X05398Y013456D01*
X054005Y013549D01*
Y013646D01*
X05398Y013738D01*
X053932Y013822D01*
X053864Y01389D01*
X053781Y013938D01*
X053688Y013963D01*
D02*
G37*
G36*
X052688D02*
X052592D01*
X052499Y013938D01*
X052416Y01389D01*
X052348Y013822D01*
X0523Y013738D01*
X052275Y013646D01*
Y013549D01*
X0523Y013456D01*
X052348Y013373D01*
X052416Y013305D01*
X052499Y013257D01*
X052592Y013232D01*
X052688D01*
X052781Y013257D01*
X052864Y013305D01*
X052932Y013373D01*
X05298Y013456D01*
X053005Y013549D01*
Y013646D01*
X05298Y013738D01*
X052932Y013822D01*
X052864Y01389D01*
X052781Y013938D01*
X052688Y013963D01*
D02*
G37*
G36*
X057805Y013547D02*
X05746D01*
Y013202D01*
X057462D01*
X057563Y013229D01*
X057653Y013281D01*
X057726Y013355D01*
X057778Y013445D01*
X057805Y013545D01*
Y013547D01*
D02*
G37*
G36*
X05736D02*
X057015D01*
Y013545D01*
X057042Y013445D01*
X057094Y013355D01*
X057167Y013281D01*
X057257Y013229D01*
X057358Y013202D01*
X05736D01*
Y013547D01*
D02*
G37*
G36*
X052035D02*
X05169D01*
Y013202D01*
X051692D01*
X051793Y013229D01*
X051883Y013281D01*
X051956Y013355D01*
X052008Y013445D01*
X052035Y013545D01*
Y013547D01*
D02*
G37*
G36*
X05159D02*
X051245D01*
Y013545D01*
X051272Y013445D01*
X051324Y013355D01*
X051397Y013281D01*
X051487Y013229D01*
X051588Y013202D01*
X05159D01*
Y013547D01*
D02*
G37*
G36*
X063335Y01314D02*
X063185D01*
X063038Y013111D01*
X0629Y013053D01*
X062776Y01297D01*
X06267Y012864D01*
X062586Y01274D01*
X062529Y012602D01*
X0625Y012455D01*
Y012305D01*
X062529Y012158D01*
X062586Y01202D01*
X06267Y011896D01*
X062776Y01179D01*
X0629Y011707D01*
X063038Y011649D01*
X063185Y01162D01*
X063335D01*
X063482Y011649D01*
X06362Y011707D01*
X063744Y01179D01*
X06385Y011896D01*
X063934Y01202D01*
X063991Y012158D01*
X06402Y012305D01*
Y012455D01*
X063991Y012602D01*
X063934Y01274D01*
X06385Y012864D01*
X063744Y01297D01*
X06362Y013053D01*
X063482Y013111D01*
X063335Y01314D01*
D02*
G37*
G36*
X032075D02*
X031925D01*
X031778Y013111D01*
X03164Y013053D01*
X031516Y01297D01*
X03141Y012864D01*
X031326Y01274D01*
X031269Y012602D01*
X03124Y012455D01*
Y012305D01*
X031269Y012158D01*
X031326Y01202D01*
X03141Y011896D01*
X031516Y01179D01*
X03164Y011707D01*
X031778Y011649D01*
X031925Y01162D01*
X032075D01*
X032222Y011649D01*
X03236Y011707D01*
X032484Y01179D01*
X03259Y011896D01*
X032673Y01202D01*
X032731Y012158D01*
X03276Y012305D01*
Y012455D01*
X032731Y012602D01*
X032673Y01274D01*
X03259Y012864D01*
X032484Y01297D01*
X03236Y013053D01*
X032222Y013111D01*
X032075Y01314D01*
D02*
G37*
%LPD*%
D13*
X04925Y0485D02*
X04971Y04804D01*
X04925Y0495D02*
X04984Y05009D01*
X045641Y048009D02*
X04629Y04736D01*
X05816Y04105D02*
X0611D01*
X05168Y04753D02*
X05816Y04105D01*
X045611Y048509D02*
X045648D01*
X04663Y04753D02*
X05168D01*
X045719Y048441D02*
X04663Y04753D01*
X045716Y048441D02*
X045719D01*
X045648Y048509D02*
X045716Y048441D01*
X04725Y0495D02*
X0473D01*
Y04945D02*
Y0495D01*
Y04945D02*
X04775Y049D01*
X04975D01*
X05025Y0485D01*
X045697Y047518D02*
X045765Y04745D01*
X04603Y04719D02*
X051539D01*
X04566Y047518D02*
X045697D01*
X04577Y04745D02*
X04603Y04719D01*
X045765Y04745D02*
X04577D01*
X045591Y049009D02*
X0469Y0477D01*
X05175D01*
X0456Y049521D02*
Y04955D01*
Y049521D02*
X047251Y04787D01*
X05865Y0365D02*
Y038829D01*
X037338Y036188D02*
Y044009D01*
X035009Y042859D02*
Y048509D01*
X05121Y04651D02*
X0589Y03882D01*
X051069Y04617D02*
X05845Y038789D01*
X051139Y04634D02*
X05865Y038829D01*
X0589Y03725D02*
Y03882D01*
X04777Y04617D02*
X051069D01*
X05845Y0357D02*
Y038789D01*
X047472Y04634D02*
X051139D01*
X047142Y04651D02*
X05121D01*
X0582Y03495D02*
Y038798D01*
X04355Y041962D02*
X055036D01*
X0582Y038798D01*
X057975Y03725D02*
Y038775D01*
X0431Y0417D02*
X05505D01*
X057975Y038775D01*
X06043Y03805D02*
X0611D01*
X05665Y04305D02*
X0611D01*
X05146Y04702D02*
X06043Y03805D01*
X0519Y04804D02*
X05656Y04338D01*
X051539Y04719D02*
X059679Y03905D01*
X05128Y04668D02*
X0591Y03886D01*
X04683Y04668D02*
X05128D01*
X0574Y04205D02*
X0611D01*
X05136Y04685D02*
X0593Y03891D01*
X05161Y04736D02*
X05892Y04005D01*
X05183Y04787D02*
X05665Y04305D01*
X059679Y03905D02*
X0611D01*
X05175Y0477D02*
X0574Y04205D01*
X0591Y03805D02*
Y03886D01*
X05892Y04005D02*
X0611D01*
X046482Y04685D02*
X05136D01*
X0593Y03843D02*
Y03891D01*
X056559Y04364D02*
X06061D01*
X05099Y049209D02*
X056559Y04364D01*
X05656Y04338D02*
X06033D01*
X05099Y049209D02*
Y04963D01*
X0559Y03721D02*
X057935D01*
X057975D02*
Y03725D01*
X057935Y03721D02*
X057975Y03725D01*
Y034175D02*
Y03721D01*
X0342Y04405D02*
X034771Y044621D01*
Y0468D01*
X0342Y04205D02*
X035009Y042859D01*
X060644Y037086D02*
X061064D01*
X0593Y03843D02*
X060644Y037086D01*
X061064D02*
X0611Y03705D01*
X05053Y05009D02*
X05099Y04963D01*
X04984Y05009D02*
X05053D01*
X04971Y04804D02*
X0519D01*
X04629Y04736D02*
X05161D01*
X047251Y04787D02*
X05183D01*
X04617Y04702D02*
X05146D01*
X0456Y044D02*
X04777Y04617D01*
X045641Y046009D02*
X046482Y04685D01*
X045641Y044509D02*
X047472Y04634D01*
X045641Y045009D02*
X047142Y04651D01*
X045659Y045509D02*
X04683Y04668D01*
X045659Y046509D02*
X04617Y04702D01*
X0425Y026512D02*
X044937Y02895D01*
Y028962D01*
X0425Y0265D02*
Y026512D01*
X044943Y028956D02*
X051803D01*
X051808Y02895D01*
X044937Y028962D02*
X044943Y028956D01*
X0591Y03805D02*
X0611Y03605D01*
X05865Y0365D02*
X0611Y03405D01*
X05845Y0357D02*
X0611Y03305D01*
X0589Y03725D02*
X0611Y03505D01*
X037862Y034712D02*
Y04195D01*
X0342Y03105D02*
X037862Y034712D01*
X0376Y03545D02*
Y04295D01*
X0342Y03205D02*
X0376Y03545D01*
X0342Y03705D02*
X0363Y03915D01*
X0342Y03405D02*
X0371Y03695D01*
X0353Y04215D02*
Y048D01*
X03685Y0377D02*
Y045D01*
X0342Y04005D02*
X035538Y041388D01*
X0371Y03695D02*
Y0445D01*
X0342Y04105D02*
X0353Y04215D01*
X0342Y03805D02*
X036014Y039864D01*
X0363Y03915D02*
Y046D01*
X0342Y03605D02*
X03655Y0384D01*
X035776Y040626D02*
Y047009D01*
X0342Y03505D02*
X03685Y0377D01*
X03655Y0384D02*
Y0455D01*
X036014Y039864D02*
Y046509D01*
X0342Y03305D02*
X037338Y036188D01*
X035538Y041388D02*
Y0475D01*
X0342Y03905D02*
X035776Y040626D01*
X057975Y034175D02*
X0611Y03105D01*
X0582Y03495D02*
X0611Y03205D01*
X0425Y0184D02*
X04845D01*
X0415Y0187D02*
X041525Y018675D01*
X043775D01*
X0438Y01865D01*
X035Y049D02*
X03555D01*
X0344Y0484D02*
X035Y049D01*
D14*
X036202Y018195D02*
G03*
X036137Y01819I0J-000445D01*
G01*
X036463D02*
G03*
X036398Y018195I-000064J-00044D01*
G01*
X0399Y02335D02*
X0465D01*
X045991Y0236D02*
X046Y023591D01*
X03995Y0236D02*
X045991D01*
X038055Y025195D02*
X0399Y02335D01*
X0407Y02185D02*
X045758D01*
X045758Y02185D01*
X0363Y02673D02*
X037247D01*
X03452D02*
X0363D01*
X040149Y023828D02*
X045379D01*
X037247Y02673D02*
X040149Y023828D01*
X0383Y02425D02*
X0407Y02185D01*
X0406Y0216D02*
X0461D01*
X036636Y027876D02*
X037039Y02828D01*
X0363Y02775D02*
X036426Y027876D01*
X037039Y02828D02*
X043679D01*
X03452Y02773D02*
X0363D01*
X036426Y027876D02*
X036636D01*
X03651Y02773D02*
X03666D01*
Y027852D01*
X0342Y02805D02*
X03452Y02773D01*
X03454Y02571D02*
X03784D01*
X0342Y02605D02*
X03454Y02571D01*
X03784D02*
X03995Y0236D01*
X0342Y02705D02*
X03452Y02673D01*
X043679Y02828D02*
X044688Y029288D01*
X045412Y01485D02*
X05365D01*
X060068Y016082D02*
X0611Y01505D01*
X060068Y016082D02*
Y016505D01*
X057973Y0186D02*
X060068Y016505D01*
X05445Y0285D02*
X05448Y02853D01*
X054555D01*
X054575Y02855D01*
X0596D01*
X06105Y03D01*
X0547Y0282D02*
X06025D01*
X0611Y02905D02*
X0611D01*
X06025Y0282D02*
X0611Y02905D01*
X0564Y0207D02*
X05975D01*
X03546Y01479D02*
X040258D01*
X04085Y014198D01*
X039408Y01464D02*
X03985Y014198D01*
X03461Y01464D02*
X039408D01*
X0342Y01505D02*
X03461Y01464D01*
X0342Y01605D02*
X03546Y01479D01*
X034499Y025195D02*
X038055D01*
X044688Y029288D02*
X05045D01*
X03435Y0299D02*
Y03005D01*
X042993Y028593D02*
X0444Y03D01*
X0343Y02905D02*
X034907Y028443D01*
X043393D02*
X044589Y029639D01*
X03435Y0299D02*
X035657Y028593D01*
X034907Y028443D02*
X043393D01*
X035657Y028593D02*
X042993D01*
X034532Y02425D02*
X0383D01*
X05365Y01485D02*
X0603D01*
X0611Y01405D01*
X04472Y014158D02*
X045412Y01485D01*
X054328Y0186D02*
X057973D01*
X04085Y0141D02*
Y014198D01*
X05545Y01985D02*
X0603D01*
X05515Y01955D02*
X0596D01*
X054808Y019258D02*
X058892D01*
X0342Y01705D02*
X03845D01*
X0416Y0202D01*
X0342Y02905D02*
X0343D01*
X0444Y03D02*
X050325D01*
X044589Y029639D02*
X050439D01*
X050325Y03D02*
X050345Y03002D01*
X05042D02*
X05045Y03005D01*
X050345Y03002D02*
X05042D01*
X0342Y03005D02*
X03435D01*
X03929Y01819D02*
X041544Y020444D01*
X036463Y01819D02*
X03929D01*
X0342Y01805D02*
X034332D01*
X034472Y01819D02*
X036137D01*
X034332Y01805D02*
X034472Y01819D01*
X0416Y0202D02*
X04835D01*
X036202Y018195D02*
X036398D01*
X036463Y01819D02*
X036463D01*
X039461Y017739D02*
X046146D01*
X046208Y0178D01*
X04115Y018D02*
X041178Y018028D01*
X0466D01*
X05975Y0207D02*
X0611Y02205D01*
X0605Y02045D02*
X0611Y02105D01*
X05605Y02045D02*
X0605D01*
X046208Y0178D02*
X04625D01*
X041544Y020444D02*
X048D01*
X04472Y01406D02*
Y014158D01*
X05455Y0189D02*
X05825D01*
X0611Y01605D01*
X058892Y019258D02*
X0611Y01705D01*
X0596Y01955D02*
X0611Y01805D01*
X0603Y01985D02*
X0611Y01905D01*
X061Y02015D02*
X0611Y02005D01*
X05575Y02015D02*
X061D01*
X0562Y026044D02*
X060094D01*
X0565Y025778D02*
X060683D01*
X060094Y026044D02*
X0611Y02705D01*
X0591Y02505D02*
X0611Y02305D01*
X05735Y02505D02*
X0591D01*
X05985Y0253D02*
X0611Y02405D01*
X05705Y0253D02*
X05985D01*
X0606Y02555D02*
X0611Y02505D01*
X060683Y025778D02*
X060955Y02605D01*
X0611D01*
X0568Y02555D02*
X0606D01*
X055911Y026261D02*
X055922Y026272D01*
X059322D01*
X0611Y02805D01*
X03985Y0141D02*
Y014198D01*
X03995Y0211D02*
X0468D01*
X039855Y021195D02*
X03995Y0211D01*
X040178Y021372D02*
X04645D01*
X047578Y02065D02*
X0476Y020672D01*
X041Y02065D02*
X047578D01*
X034499Y021195D02*
X039855D01*
X034354Y02105D02*
X034499Y021195D01*
X0342Y02105D02*
X034354D01*
X034532Y01925D02*
X0396D01*
X041Y02065D01*
X034532Y02025D02*
X0398D01*
X0404Y02085D01*
X047075D01*
X03895Y02325D02*
X0406Y0216D01*
X034554Y02325D02*
X03895D01*
X034554Y02225D02*
X0393D01*
X040178Y021372D01*
X04717Y02087D02*
X0472Y0209D01*
X047075Y02085D02*
X047095Y02087D01*
X04717D01*
X034332Y01905D02*
X034532Y01925D01*
X0342Y01905D02*
X034332D01*
X0342Y02005D02*
X034332D01*
X034532Y02025D01*
X034354Y02305D02*
X034554Y02325D01*
X034354Y02205D02*
X034554Y02225D01*
X0342Y02205D02*
X034354D01*
X0342Y02305D02*
X034354D01*
X0342Y02405D02*
X034332D01*
X034532Y02425D01*
X0342Y02505D02*
X034354D01*
X034499Y025195D01*
D15*
X0611Y04105D02*
X0621D01*
X04672Y0129D02*
X051716D01*
X06183D01*
X04285Y0168D02*
X04565D01*
X06287Y01394D02*
Y04646D01*
X06035Y049D02*
X06075Y0486D01*
Y04858D02*
X06287Y04646D01*
X06005Y049D02*
X06035D01*
X06075Y04858D02*
Y0486D01*
X054084Y028086D02*
X05439Y02778D01*
X054084Y028086D02*
Y028544D01*
X05439Y02778D02*
X05519D01*
X054084Y028544D02*
Y028544D01*
X055243Y029702D01*
X055658D01*
X03409Y04298D02*
Y04398D01*
X03309D02*
X03409D01*
X04673Y03106D02*
Y03165D01*
X05565D01*
X04459D02*
X04673D01*
X05565D02*
X05872D01*
X03309Y04298D02*
X03409D01*
X040003Y041256D02*
X049206D01*
X039071Y042188D02*
X040003Y041256D01*
X04104Y03784D02*
X04585D01*
X04588Y03787D01*
X04589D01*
X045536Y036374D02*
X045546D01*
X03855Y03635D02*
X045512D01*
X045536Y036374D01*
X05874Y03167D02*
X05875D01*
X05872Y03165D02*
X05874Y03167D01*
X03662Y03165D02*
X04459D01*
X05741Y0129D02*
Y013597D01*
X05741Y0129D02*
X05741Y0129D01*
X036313Y018737D02*
X037603D01*
X03761Y01873D01*
X0363Y01875D02*
X036313Y018737D01*
X04194Y01647D02*
X04195D01*
X04189Y01642D02*
X04194Y01647D01*
X03763Y01642D02*
X04189D01*
X0387Y0168D02*
X04285D01*
X04287Y01678D01*
X06183Y0129D02*
X06287Y01394D01*
X049206Y041256D02*
X054146D01*
X05415Y04126D01*
X04921Y03981D02*
Y041252D01*
X049206Y041256D02*
X04921Y041252D01*
X06099Y04398D02*
X06199D01*
X05164Y012976D02*
Y013597D01*
Y012976D02*
X051716Y0129D01*
X0428D02*
X04672D01*
Y01406D01*
X04185Y013896D02*
Y0141D01*
X041995Y013705D02*
Y013751D01*
Y013705D02*
X042362Y013338D01*
X04185Y013896D02*
X041995Y013751D01*
X042362Y013338D02*
X0428Y0129D01*
X04618Y03425D02*
X05138D01*
X04385D02*
X04618D01*
X0509Y0426D02*
Y0454D01*
X0332Y02805D02*
X0342D01*
X0332Y03005D02*
X0342D01*
X0332Y02905D02*
X0342D01*
X04285Y01405D02*
Y0141D01*
X05325Y0359D02*
X053252Y035902D01*
X0332Y04505D02*
X0342D01*
X0611Y01405D02*
X0621D01*
X0611Y01505D02*
X0621D01*
X0509Y01735D02*
X0538D01*
X05535Y0233D02*
X0554Y02335D01*
X0573D01*
X0611Y02905D02*
X0621D01*
X0611Y03005D02*
X0621D01*
X0332Y01605D02*
X0342D01*
X0332Y01505D02*
X0342D01*
X0332Y01405D02*
X0342D01*
X0611Y01605D02*
X0621D01*
X0611Y01705D02*
X0621D01*
X0611Y01805D02*
X0621D01*
X0611Y01905D02*
X0621D01*
X0611Y02005D02*
X0621D01*
X0611Y02105D02*
X0621D01*
X0611Y02205D02*
X0621D01*
X0611Y02305D02*
X0621D01*
X0611Y02405D02*
X0621D01*
X0611Y02505D02*
X0621D01*
X0611Y02605D02*
X0621D01*
X0611Y02705D02*
X0621D01*
X0611Y02805D02*
X0621D01*
X0611Y03105D02*
X0621D01*
X0611Y03205D02*
X0621D01*
X0611Y03305D02*
X0621D01*
X0611Y03405D02*
X0621D01*
X0611Y03505D02*
X0621D01*
X0611Y03605D02*
X0621D01*
X0611Y03705D02*
X0621D01*
X0611Y03805D02*
X0621D01*
X0611Y03905D02*
X0621D01*
X0611Y04005D02*
X0621D01*
X0611Y04205D02*
X0621D01*
X0611Y04305D02*
X0621D01*
X0611Y04505D02*
X0621D01*
X0332Y02705D02*
X0342D01*
X0332Y03205D02*
X0342D01*
X0332Y03305D02*
X0342D01*
X0332Y03405D02*
X0342D01*
X0332Y03605D02*
X0342D01*
X0332Y03505D02*
X0342D01*
X0332Y03705D02*
X0342D01*
X0332Y01705D02*
X0342D01*
X0332Y01805D02*
X0342D01*
X0332Y01905D02*
X0342D01*
X0332Y02005D02*
X0342D01*
X0332Y02105D02*
X0342D01*
X0332Y02205D02*
X0342D01*
X0332Y02305D02*
X0342D01*
X0332Y02405D02*
X0342D01*
X0332Y02505D02*
X0342D01*
X0332Y02605D02*
X0342D01*
X0332Y03105D02*
X0342D01*
X0332Y04205D02*
X0342D01*
X0332Y04105D02*
X0342D01*
X0332Y04005D02*
X0342D01*
X0332Y03905D02*
X0342D01*
X0332Y03805D02*
X0342D01*
D93*
X0552Y03876D02*
X05587Y03809D01*
X04921Y03981D02*
X05026Y03876D01*
X0552D01*
X0382Y0426D02*
X0509D01*
X04555Y0283D02*
X05321D01*
X05535Y0233D02*
Y02616D01*
X05321Y0283D02*
X05535Y02616D01*
X0402Y0152D02*
X0538D01*
X0556D01*
X0509Y0426D02*
X0542D01*
X03845Y0152D02*
Y0161D01*
X0402Y0152D02*
Y01605D01*
X0556Y0152D02*
X05945D01*
X03725D02*
X03845D01*
X04921Y03981D02*
Y03981D01*
X05587Y03809D02*
X05703D01*
X05704Y0381D01*
X03721Y03251D02*
X03725Y03255D01*
X0544D01*
X0382Y0391D02*
Y0426D01*
Y0391D02*
X0402Y0371D01*
X0334Y0461D02*
Y04845D01*
Y045345D02*
Y0461D01*
X05645Y0346D02*
Y03685D01*
X0544Y03255D02*
X05645Y0346D01*
X04105Y03065D02*
X04555D01*
X04625D01*
X0363Y01775D02*
X03725D01*
X0538Y01525D02*
Y01735D01*
X05325Y0359D02*
X05515D01*
X0402Y0371D02*
X0467D01*
X04555Y0359D02*
X05325D01*
X03865D02*
X04555D01*
X033379Y048471D02*
X0334Y04845D01*
X0332Y04505D02*
Y045145D01*
X0334Y045345D01*
X0538Y01735D02*
Y0198D01*
X05535Y02135D02*
Y0233D01*
X0538Y0198D02*
X05535Y02135D01*
X03845Y0152D02*
X0402D01*
X04625Y03065D02*
X05155D01*
X05765D01*
D95*
X05364Y013597D02*
D03*
X05264D02*
D03*
X05164D02*
D03*
X05841D02*
D03*
X05741D02*
D03*
X05641D02*
D03*
D96*
X05025Y0495D02*
D03*
D97*
X04725Y0485D02*
D03*
X04925Y0495D02*
D03*
X0621Y04105D02*
D03*
X0611D02*
D03*
X05025Y0485D02*
D03*
X04725Y0495D02*
D03*
X04925Y0485D02*
D03*
X04825Y0495D02*
D03*
Y0485D02*
D03*
X0611Y02505D02*
D03*
Y02605D02*
D03*
X0621Y02505D02*
D03*
Y02605D02*
D03*
X0611Y02905D02*
D03*
X0621D02*
D03*
X0611Y03105D02*
D03*
X0621D02*
D03*
X0611Y03305D02*
D03*
X0621D02*
D03*
X0611Y03605D02*
D03*
X0621D02*
D03*
X0611Y03805D02*
D03*
X0621D02*
D03*
X0611Y04005D02*
D03*
X0621D02*
D03*
X0611Y04405D02*
D03*
X0621D02*
D03*
X0611Y04505D02*
D03*
X0621Y04305D02*
D03*
X0611D02*
D03*
X0621Y04205D02*
D03*
X0611D02*
D03*
X0621Y03905D02*
D03*
X0611D02*
D03*
X0621Y03705D02*
D03*
X0611D02*
D03*
X0621Y03505D02*
D03*
X0611D02*
D03*
X0621Y03405D02*
D03*
X0611D02*
D03*
X0621Y03205D02*
D03*
X0611D02*
D03*
X0621Y03005D02*
D03*
X0611D02*
D03*
X0621Y02805D02*
D03*
Y02705D02*
D03*
X0611Y02805D02*
D03*
Y02705D02*
D03*
X0621Y02405D02*
D03*
Y02305D02*
D03*
Y02205D02*
D03*
Y02105D02*
D03*
Y02005D02*
D03*
Y01905D02*
D03*
Y01805D02*
D03*
Y01705D02*
D03*
Y01605D02*
D03*
Y01505D02*
D03*
Y01405D02*
D03*
X0611Y02405D02*
D03*
Y02305D02*
D03*
Y02205D02*
D03*
Y02105D02*
D03*
Y02005D02*
D03*
Y01905D02*
D03*
Y01805D02*
D03*
Y01705D02*
D03*
Y01605D02*
D03*
Y01505D02*
D03*
Y01405D02*
D03*
X0332Y02505D02*
D03*
Y02605D02*
D03*
X0342Y02505D02*
D03*
Y02605D02*
D03*
X0332Y02905D02*
D03*
X0342D02*
D03*
X0332Y03105D02*
D03*
X0342D02*
D03*
X0332Y03305D02*
D03*
X0342D02*
D03*
X0332Y03605D02*
D03*
X0342D02*
D03*
X0332Y03805D02*
D03*
X0342D02*
D03*
X0332Y04005D02*
D03*
X0342D02*
D03*
X0332Y04105D02*
D03*
X0342D02*
D03*
X0332Y04405D02*
D03*
X0342D02*
D03*
X0332Y04505D02*
D03*
X0342Y04305D02*
D03*
X0332D02*
D03*
X0342Y04205D02*
D03*
X0332D02*
D03*
X0342Y03905D02*
D03*
X0332D02*
D03*
X0342Y03705D02*
D03*
X0332D02*
D03*
X0342Y03505D02*
D03*
X0332D02*
D03*
X0342Y03405D02*
D03*
X0332D02*
D03*
X0342Y03205D02*
D03*
X0332D02*
D03*
X0342Y03005D02*
D03*
X0332D02*
D03*
X0342Y02805D02*
D03*
Y02705D02*
D03*
X0332Y02805D02*
D03*
Y02705D02*
D03*
X0342Y02405D02*
D03*
Y02305D02*
D03*
Y02205D02*
D03*
Y02105D02*
D03*
Y02005D02*
D03*
Y01905D02*
D03*
Y01805D02*
D03*
Y01705D02*
D03*
Y01605D02*
D03*
Y01505D02*
D03*
Y01405D02*
D03*
X0332Y02405D02*
D03*
Y02305D02*
D03*
Y02205D02*
D03*
Y02105D02*
D03*
Y02005D02*
D03*
Y01905D02*
D03*
Y01805D02*
D03*
Y01705D02*
D03*
Y01605D02*
D03*
Y01505D02*
D03*
Y01405D02*
D03*
D98*
X05805Y0475D02*
D03*
D99*
X06005Y049D02*
D03*
Y0465D02*
D03*
D100*
X04845Y0164D02*
D03*
X048074D02*
D03*
X046Y023591D02*
D03*
X0465Y02335D02*
D03*
X045758Y02185D02*
D03*
X045379Y023828D02*
D03*
X0461Y0216D02*
D03*
X05365Y01485D02*
D03*
X045611Y048509D02*
D03*
Y049009D02*
D03*
X04561Y04955D02*
D03*
X05704Y0381D02*
D03*
X037338Y044009D02*
D03*
X035009Y048509D02*
D03*
X040523Y046418D02*
D03*
X04135Y046694D02*
D03*
X040799D02*
D03*
X040248D02*
D03*
X041074Y046418D02*
D03*
X04135Y047245D02*
D03*
X040799D02*
D03*
X040248D02*
D03*
X040523Y04697D02*
D03*
X041074D02*
D03*
Y047521D02*
D03*
X040523D02*
D03*
X0559Y03721D02*
D03*
X04966Y03981D02*
D03*
X05519Y02778D02*
D03*
X054084Y028544D02*
D03*
X055658Y029702D02*
D03*
X05445Y0285D02*
D03*
X034771Y0468D02*
D03*
X04673Y03106D02*
D03*
X04524Y04127D02*
D03*
X04589Y03787D02*
D03*
X045546Y036374D02*
D03*
X05321Y0283D02*
D03*
X05875Y03167D02*
D03*
X04459Y03165D02*
D03*
X05565D02*
D03*
X03662D02*
D03*
X06061Y04364D02*
D03*
X06033Y04338D02*
D03*
X0542Y0426D02*
D03*
X0564Y0207D02*
D03*
X03761Y01873D02*
D03*
X03763Y01642D02*
D03*
X04195Y01647D02*
D03*
X03845Y0161D02*
D03*
X0402Y01605D02*
D03*
X03725Y0152D02*
D03*
X0387Y0168D02*
D03*
X04287Y01678D02*
D03*
X039071Y042188D02*
D03*
X05415Y04126D02*
D03*
X049206Y041256D02*
D03*
X04921Y03981D02*
D03*
X05587Y03809D02*
D03*
X05138Y03425D02*
D03*
X04618D02*
D03*
X04385D02*
D03*
X04355Y041962D02*
D03*
X0509Y0454D02*
D03*
X03721Y03251D02*
D03*
X0425Y0265D02*
D03*
X044937Y028962D02*
D03*
X051808Y02895D02*
D03*
X05045Y029288D02*
D03*
X037862Y04195D02*
D03*
X04565Y0168D02*
D03*
X04105Y03065D02*
D03*
X03725Y01775D02*
D03*
X05645Y03685D02*
D03*
X0467Y0371D02*
D03*
X053252Y035902D02*
D03*
X0334Y0461D02*
D03*
X033379Y048471D02*
D03*
X0376Y04295D02*
D03*
X0382Y0426D02*
D03*
X03685Y045D02*
D03*
X0371Y0445D02*
D03*
X0363Y046D02*
D03*
X0431Y0417D02*
D03*
X03865Y0359D02*
D03*
X04555D02*
D03*
X0556Y0152D02*
D03*
X0509Y01735D02*
D03*
X05945Y0152D02*
D03*
X05515Y01955D02*
D03*
X054808Y019258D02*
D03*
X05545Y01985D02*
D03*
X0573Y02335D02*
D03*
X0547Y0282D02*
D03*
X04555Y0283D02*
D03*
X04625Y03065D02*
D03*
X05155D02*
D03*
X05765D02*
D03*
X04555D02*
D03*
X05045Y03005D02*
D03*
X050439Y029639D02*
D03*
X054328Y0186D02*
D03*
X0425Y0184D02*
D03*
X0438Y01865D02*
D03*
X04115Y018D02*
D03*
X039461Y017739D02*
D03*
X03555Y049D02*
D03*
X0344Y0484D02*
D03*
X05455Y0189D02*
D03*
X05575Y02015D02*
D03*
X05605Y02045D02*
D03*
X0562Y026044D02*
D03*
X0565Y025778D02*
D03*
X05735Y02505D02*
D03*
X05705Y0253D02*
D03*
X0568Y02555D02*
D03*
X055911Y026261D02*
D03*
X0466Y018028D02*
D03*
X04625Y0178D02*
D03*
X04645Y021372D02*
D03*
X0476Y020672D02*
D03*
X0468Y0211D02*
D03*
X0472Y0209D02*
D03*
X048Y020444D02*
D03*
X04835Y0202D02*
D03*
X0456Y044D02*
D03*
X045641Y044509D02*
D03*
Y045009D02*
D03*
X045659Y045509D02*
D03*
X045641Y046009D02*
D03*
X045659Y046509D02*
D03*
X04566Y047518D02*
D03*
X045661Y048009D02*
D03*
X036014Y046509D02*
D03*
X035776Y047009D02*
D03*
X035538Y0475D02*
D03*
X0353Y048D02*
D03*
X03655Y0455D02*
D03*
X04845Y0184D02*
D03*
X04104Y03784D02*
D03*
X03855Y03635D02*
D03*
D101*
X058895Y021252D02*
D03*
Y022252D02*
D03*
Y023252D02*
D03*
Y024252D02*
D03*
X0363Y01775D02*
D03*
Y01875D02*
D03*
Y01975D02*
D03*
Y02075D02*
D03*
Y02175D02*
D03*
Y02275D02*
D03*
Y02375D02*
D03*
Y02475D02*
D03*
Y02575D02*
D03*
Y02675D02*
D03*
Y02775D02*
D03*
D102*
X059139Y029372D02*
D03*
Y01612D02*
D03*
X0363D02*
D03*
Y029372D02*
D03*
D103*
X04472Y01406D02*
D03*
X04572D02*
D03*
X04672D02*
D03*
X04772D02*
D03*
X04872D02*
D03*
X04972D02*
D03*
D104*
X04285Y0141D02*
D03*
X04185D02*
D03*
X04085D02*
D03*
X03985D02*
D03*
X03885D02*
D03*
X03785D02*
D03*
X03685D02*
D03*
X03585D02*
D03*
D105*
X0621Y04505D02*
D03*
X0342D02*
D03*
D106*
X05464Y013597D02*
D03*
X05941D02*
D03*
D107*
X052926Y04885D02*
D03*
X054894D02*
D03*
X061Y013D02*
D03*
X06Y031D02*
D03*
X0605Y014D02*
D03*
X06Y013D02*
D03*
X059Y047D02*
D03*
Y045D02*
D03*
Y027D02*
D03*
Y013D02*
D03*
X058Y049D02*
D03*
X0585Y046D02*
D03*
X0575Y05D02*
D03*
X057Y049D02*
D03*
Y047D02*
D03*
X0575Y046D02*
D03*
Y032D02*
D03*
Y024D02*
D03*
Y018D02*
D03*
Y016D02*
D03*
X056Y047D02*
D03*
X0565Y046D02*
D03*
X056Y035D02*
D03*
X0565Y024D02*
D03*
X056Y013D02*
D03*
X0555Y046D02*
D03*
X055Y035D02*
D03*
Y013D02*
D03*
X054D02*
D03*
X053Y041D02*
D03*
Y039D02*
D03*
X0535Y032D02*
D03*
X053Y029D02*
D03*
Y023D02*
D03*
Y019D02*
D03*
Y017D02*
D03*
Y013D02*
D03*
X0525Y032D02*
D03*
Y026D02*
D03*
Y022D02*
D03*
Y02D02*
D03*
X052Y019D02*
D03*
X0525Y018D02*
D03*
X052Y017D02*
D03*
X0525Y016D02*
D03*
X0515Y044D02*
D03*
Y022D02*
D03*
Y018D02*
D03*
X051Y017D02*
D03*
X0515Y016D02*
D03*
X05Y045D02*
D03*
X0505Y044D02*
D03*
X05Y035D02*
D03*
Y017D02*
D03*
X0495Y044D02*
D03*
Y038D02*
D03*
X0485Y05D02*
D03*
Y044D02*
D03*
Y038D02*
D03*
X0475Y032D02*
D03*
X047Y019D02*
D03*
Y017D02*
D03*
X0465Y05D02*
D03*
X046Y027D02*
D03*
Y017D02*
D03*
X045Y033D02*
D03*
Y023D02*
D03*
X044Y049D02*
D03*
Y047D02*
D03*
Y045D02*
D03*
X0445Y026D02*
D03*
X044Y023D02*
D03*
Y013D02*
D03*
X0435Y05D02*
D03*
X043Y049D02*
D03*
X0435Y048D02*
D03*
X043Y047D02*
D03*
X0435Y046D02*
D03*
X043Y045D02*
D03*
X0435Y044D02*
D03*
Y026D02*
D03*
X043Y023D02*
D03*
Y019D02*
D03*
X0435Y016D02*
D03*
Y014D02*
D03*
X043Y013D02*
D03*
X0425Y05D02*
D03*
X042Y049D02*
D03*
X0425Y048D02*
D03*
X042Y047D02*
D03*
X0425Y046D02*
D03*
X042Y045D02*
D03*
X0425Y044D02*
D03*
Y042D02*
D03*
Y034D02*
D03*
X042Y029D02*
D03*
X0425Y028D02*
D03*
X042Y027D02*
D03*
Y025D02*
D03*
Y023D02*
D03*
X0415Y05D02*
D03*
X041Y049D02*
D03*
X0415Y048D02*
D03*
Y046D02*
D03*
X041Y045D02*
D03*
X0415Y044D02*
D03*
Y042D02*
D03*
X041Y029D02*
D03*
X0415Y028D02*
D03*
X041Y027D02*
D03*
X0415Y026D02*
D03*
X041Y025D02*
D03*
Y023D02*
D03*
X0405Y05D02*
D03*
X04Y049D02*
D03*
X0405Y048D02*
D03*
Y046D02*
D03*
X04Y045D02*
D03*
X0405Y044D02*
D03*
Y042D02*
D03*
Y038D02*
D03*
X04Y033D02*
D03*
X0405Y03D02*
D03*
X04Y029D02*
D03*
X0405Y028D02*
D03*
X04Y027D02*
D03*
X0405Y026D02*
D03*
X04Y023D02*
D03*
X0395Y05D02*
D03*
X039Y049D02*
D03*
X0395Y048D02*
D03*
X039Y047D02*
D03*
X0395Y046D02*
D03*
X039Y045D02*
D03*
X0395Y034D02*
D03*
Y028D02*
D03*
X039Y027D02*
D03*
X0385Y048D02*
D03*
Y046D02*
D03*
X038Y043D02*
D03*
X0385Y034D02*
D03*
Y028D02*
D03*
X038Y027D02*
D03*
X0365Y05D02*
D03*
X0355Y03D02*
D03*
Y026D02*
D03*
X034Y013D02*
D03*
X05515Y0359D02*
D03*
D108*
X052384Y049933D02*
D03*
X055436D02*
D03*
D109*
X052443Y048437D02*
D03*
X055377D02*
D03*
D110*
X043Y02455D02*
D03*
D111*
X040007D02*
D03*
D112*
X06326Y049538D02*
D03*
X032D02*
D03*
Y01238D02*
D03*
X06326D02*
D03*
D113*
X0415Y0187D02*
D03*
D114*
X038713D02*
D03*
M02*
