G04*
G04 #@! TF.GenerationSoftware,Altium Limited,Altium Designer,21.0.8 (223)*
G04*
G04 Layer_Color=16777215*
%FSTAX24Y24*%
%MOIN*%
G70*
G04*
G04 #@! TF.SameCoordinates,41972824-9B57-438F-98A6-91DE107BC887*
G04*
G04*
G04 #@! TF.FilePolarity,Positive*
G04*
G01*
G75*
%ADD116C,0.0039*%
D116*
X053382Y039486D02*
G03*
X053382Y039486I-000197J0D01*
G01*
X05254Y045456D02*
G03*
X05254Y045456I-000197J0D01*
G01*
X047767Y018067D02*
G03*
X047767Y018067I-000197J0D01*
G01*
X05354Y039132D02*
Y0411D01*
X051965Y039132D02*
Y0411D01*
Y039132D02*
X05354D01*
X051965Y0411D02*
X05354D01*
X048603Y043724D02*
Y04581D01*
X052697Y043724D02*
Y04581D01*
X048603Y043724D02*
X052697D01*
X048603Y04581D02*
X052697D01*
X049184Y017713D02*
Y019287D01*
X047216Y017713D02*
Y019287D01*
X049184D01*
X047216Y017713D02*
X049184D01*
X041226Y031217D02*
X043667D01*
X041226D02*
Y033658D01*
X043667D01*
Y031217D02*
Y033658D01*
X03598Y031217D02*
X03842D01*
X03598D02*
Y033658D01*
X03842D01*
Y031217D02*
Y033658D01*
X056965Y033658D02*
X059406D01*
Y031217D02*
Y033658D01*
X056965Y031217D02*
X059406D01*
X056965D02*
Y033658D01*
X051719D02*
X05416D01*
Y031217D02*
Y033658D01*
X051719Y031217D02*
X05416D01*
X051719D02*
Y033658D01*
X046472D02*
X048913D01*
Y031217D02*
Y033658D01*
X046472Y031217D02*
X048913D01*
X046472D02*
Y033658D01*
X054166Y046556D02*
Y047344D01*
X053634Y046556D02*
Y047344D01*
Y046556D02*
X054166D01*
X053634Y047344D02*
X054166D01*
X042709Y032306D02*
X042774Y032241D01*
X042906D01*
X042971Y032306D01*
Y032372D01*
X042906Y032437D01*
X042774D01*
X042709Y032503D01*
Y032569D01*
X042774Y032634D01*
X042906D01*
X042971Y032569D01*
X042578Y032241D02*
Y032634D01*
X042446Y032503D01*
X042315Y032634D01*
Y032241D01*
X041922D02*
X042184D01*
Y032437D01*
X042053Y032372D01*
X041987D01*
X041922Y032437D01*
Y032569D01*
X041987Y032634D01*
X042118D01*
X042184Y032569D01*
X037462Y032306D02*
X037528Y032241D01*
X037659D01*
X037725Y032306D01*
Y032372D01*
X037659Y032437D01*
X037528D01*
X037462Y032503D01*
Y032569D01*
X037528Y032634D01*
X037659D01*
X037725Y032569D01*
X037331Y032241D02*
Y032634D01*
X0372Y032503D01*
X037069Y032634D01*
Y032241D01*
X036741Y032634D02*
Y032241D01*
X036938Y032437D01*
X036675D01*
X057923Y032569D02*
X057858Y032634D01*
X057727D01*
X057661Y032569D01*
Y032503D01*
X057727Y032437D01*
X057858D01*
X057923Y032372D01*
Y032306D01*
X057858Y032241D01*
X057727D01*
X057661Y032306D01*
X058055Y032634D02*
Y032241D01*
X058186Y032372D01*
X058317Y032241D01*
Y032634D01*
X058448Y032569D02*
X058514Y032634D01*
X058645D01*
X058711Y032569D01*
Y032503D01*
X058645Y032437D01*
X058579D01*
X058645D01*
X058711Y032372D01*
Y032306D01*
X058645Y032241D01*
X058514D01*
X058448Y032306D01*
X052677Y032569D02*
X052611Y032634D01*
X05248D01*
X052415Y032569D01*
Y032503D01*
X05248Y032437D01*
X052611D01*
X052677Y032372D01*
Y032306D01*
X052611Y032241D01*
X05248D01*
X052415Y032306D01*
X052808Y032634D02*
Y032241D01*
X052939Y032372D01*
X053071Y032241D01*
Y032634D01*
X053464Y032241D02*
X053202D01*
X053464Y032503D01*
Y032569D01*
X053399Y032634D01*
X053267D01*
X053202Y032569D01*
X047496D02*
X047431Y032634D01*
X047299D01*
X047234Y032569D01*
Y032503D01*
X047299Y032437D01*
X047431D01*
X047496Y032372D01*
Y032306D01*
X047431Y032241D01*
X047299D01*
X047234Y032306D01*
X047627Y032634D02*
Y032241D01*
X047759Y032372D01*
X04789Y032241D01*
Y032634D01*
X048021Y032241D02*
X048152D01*
X048086D01*
Y032634D01*
X048021Y032569D01*
M02*
