G04*
G04 #@! TF.GenerationSoftware,Altium Limited,Altium Designer,21.0.8 (223)*
G04*
G04 Layer_Color=32768*
%FSTAX24Y24*%
%MOIN*%
G70*
G04*
G04 #@! TF.SameCoordinates,41972824-9B57-438F-98A6-91DE107BC887*
G04*
G04*
G04 #@! TF.FilePolarity,Positive*
G04*
G01*
G75*
%ADD115C,0.0020*%
%ADD116C,0.0039*%
D115*
X048754Y0164D02*
G03*
X048754Y0164I-000492J0D01*
G01*
X057769Y045637D02*
X060131D01*
X057769Y044063D02*
X060131D01*
X057769D02*
Y045637D01*
X060131Y044063D02*
Y045637D01*
X048262Y016203D02*
Y016597D01*
X048065Y0164D02*
X048459D01*
X046593Y043977D02*
X048207D01*
Y04626D01*
X046593D02*
X048207D01*
X046593Y043977D02*
Y04626D01*
X0474Y044922D02*
Y045315D01*
X047203Y045118D02*
X047597D01*
X050192Y025943D02*
Y027557D01*
X047908D02*
X050192D01*
X047908Y025943D02*
Y027557D01*
Y025943D02*
X050192D01*
X048853Y02675D02*
X049247D01*
X04905Y026553D02*
Y026947D01*
X050888Y047892D02*
Y050108D01*
X046612D02*
X050888D01*
X046612Y047892D02*
Y050108D01*
Y047892D02*
X050888D01*
X04875Y048803D02*
Y049197D01*
X048553Y049D02*
X048947D01*
X060492Y013412D02*
Y045688D01*
Y013412D02*
X062708D01*
Y045688D01*
X060492D02*
X062708D01*
X061403Y02955D02*
X061797D01*
X0616Y029353D02*
Y029747D01*
X032592Y013412D02*
Y045688D01*
Y013412D02*
X034808D01*
Y045688D01*
X032592D02*
X034808D01*
X033503Y02955D02*
X033897D01*
X0337Y029353D02*
Y029747D01*
X05314Y013283D02*
Y013676D01*
X052943Y013479D02*
X053337D01*
X050994Y012229D02*
Y014729D01*
Y012229D02*
X055286D01*
Y014729D01*
X050994D02*
X055286D01*
X05791Y013283D02*
Y013676D01*
X057713Y013479D02*
X058107D01*
X055764Y012229D02*
Y014729D01*
Y012229D02*
X060056D01*
Y014729D01*
X055764D02*
X060056D01*
X053713Y049578D02*
X054107D01*
X05391Y049382D02*
Y049775D01*
X05555Y044153D02*
Y044547D01*
X0549Y042972D02*
Y045728D01*
X0562Y042972D02*
Y045728D01*
X0549Y042972D02*
X0562D01*
X0549Y045728D02*
X0562D01*
X055353Y04435D02*
X055747D01*
X050152Y038761D02*
Y039155D01*
X049503Y03758D02*
Y040336D01*
X050802Y03758D02*
Y040336D01*
X049503Y03758D02*
X050802D01*
X049503Y040336D02*
X050802D01*
X049955Y038958D02*
X050349D01*
X0569Y044153D02*
Y044547D01*
X05625Y042972D02*
Y045728D01*
X05755Y042972D02*
Y045728D01*
X05625Y042972D02*
X05755D01*
X05625Y045728D02*
X05755D01*
X056703Y04435D02*
X057097D01*
D116*
X05895Y044653D02*
Y045047D01*
X058753Y04485D02*
X059147D01*
X057533Y042113D02*
X060367D01*
X057533Y038687D02*
X060367D01*
Y042113D01*
X057533Y038687D02*
Y042113D01*
X05895Y040203D02*
Y040597D01*
X058753Y0404D02*
X059147D01*
X05465Y034763D02*
Y035463D01*
X0531Y034763D02*
Y035463D01*
Y034763D02*
X05465D01*
X0531Y035463D02*
X05465D01*
X053703Y035113D02*
X054097D01*
X0539Y034916D02*
Y03531D01*
X03895Y034763D02*
Y035463D01*
X0374Y034763D02*
Y035463D01*
Y034763D02*
X03895D01*
X0374Y035463D02*
X03895D01*
X038003Y035113D02*
X038397D01*
X0382Y034916D02*
Y03531D01*
X0442Y034763D02*
Y035463D01*
X04265Y034763D02*
Y035463D01*
Y034763D02*
X0442D01*
X04265Y035463D02*
X0442D01*
X043253Y035113D02*
X043647D01*
X04345Y034916D02*
Y03531D01*
X049437Y034763D02*
Y035463D01*
X047887Y034763D02*
Y035463D01*
Y034763D02*
X049437D01*
X047887Y035463D02*
X049437D01*
X04849Y035113D02*
X048883D01*
X048687Y034916D02*
Y03531D01*
M02*
