G04*
G04 #@! TF.GenerationSoftware,Altium Limited,Altium Designer,21.0.8 (223)*
G04*
G04 Layer_Color=16711935*
%FSTAX24Y24*%
%MOIN*%
G70*
G04*
G04 #@! TF.SameCoordinates,41972824-9B57-438F-98A6-91DE107BC887*
G04*
G04*
G04 #@! TF.FilePolarity,Negative*
G04*
G01*
G75*
%ADD73C,0.0671*%
%ADD74R,0.0730X0.0730*%
%ADD75C,0.0730*%
%ADD76R,0.1080X0.1680*%
%ADD77R,0.1680X0.1080*%
%ADD78C,0.0316*%
%ADD79O,0.0946X0.0749*%
%ADD80O,0.0867X0.0671*%
%ADD81O,0.0749X0.0946*%
%ADD82O,0.0671X0.0867*%
%ADD83R,0.0730X0.0730*%
%ADD84R,0.0671X0.0671*%
%ADD85C,0.0395*%
%ADD86O,0.0533X0.0789*%
%ADD87O,0.0651X0.0867*%
%ADD88C,0.0780*%
%ADD89C,0.0680*%
%ADD90C,0.1460*%
%ADD91C,0.0880*%
%ADD92R,0.0880X0.0880*%
D73*
X05364Y013597D02*
D03*
X05264D02*
D03*
X05164D02*
D03*
X05841D02*
D03*
X05741D02*
D03*
X05641D02*
D03*
D74*
X05025Y0495D02*
D03*
D75*
X04725Y0485D02*
D03*
X04925Y0495D02*
D03*
X0621Y04105D02*
D03*
X0611D02*
D03*
X05025Y0485D02*
D03*
X04725Y0495D02*
D03*
X04925Y0485D02*
D03*
X04825Y0495D02*
D03*
Y0485D02*
D03*
X0611Y02505D02*
D03*
Y02605D02*
D03*
X0621Y02505D02*
D03*
Y02605D02*
D03*
X0611Y02905D02*
D03*
X0621D02*
D03*
X0611Y03105D02*
D03*
X0621D02*
D03*
X0611Y03305D02*
D03*
X0621D02*
D03*
X0611Y03605D02*
D03*
X0621D02*
D03*
X0611Y03805D02*
D03*
X0621D02*
D03*
X0611Y04005D02*
D03*
X0621D02*
D03*
X0611Y04405D02*
D03*
X0621D02*
D03*
X0611Y04505D02*
D03*
X0621Y04305D02*
D03*
X0611D02*
D03*
X0621Y04205D02*
D03*
X0611D02*
D03*
X0621Y03905D02*
D03*
X0611D02*
D03*
X0621Y03705D02*
D03*
X0611D02*
D03*
X0621Y03505D02*
D03*
X0611D02*
D03*
X0621Y03405D02*
D03*
X0611D02*
D03*
X0621Y03205D02*
D03*
X0611D02*
D03*
X0621Y03005D02*
D03*
X0611D02*
D03*
X0621Y02805D02*
D03*
Y02705D02*
D03*
X0611Y02805D02*
D03*
Y02705D02*
D03*
X0621Y02405D02*
D03*
Y02305D02*
D03*
Y02205D02*
D03*
Y02105D02*
D03*
Y02005D02*
D03*
Y01905D02*
D03*
Y01805D02*
D03*
Y01705D02*
D03*
Y01605D02*
D03*
Y01505D02*
D03*
Y01405D02*
D03*
X0611Y02405D02*
D03*
Y02305D02*
D03*
Y02205D02*
D03*
Y02105D02*
D03*
Y02005D02*
D03*
Y01905D02*
D03*
Y01805D02*
D03*
Y01705D02*
D03*
Y01605D02*
D03*
Y01505D02*
D03*
Y01405D02*
D03*
X0332Y02505D02*
D03*
Y02605D02*
D03*
X0342Y02505D02*
D03*
Y02605D02*
D03*
X0332Y02905D02*
D03*
X0342D02*
D03*
X0332Y03105D02*
D03*
X0342D02*
D03*
X0332Y03305D02*
D03*
X0342D02*
D03*
X0332Y03605D02*
D03*
X0342D02*
D03*
X0332Y03805D02*
D03*
X0342D02*
D03*
X0332Y04005D02*
D03*
X0342D02*
D03*
X0332Y04105D02*
D03*
X0342D02*
D03*
X0332Y04405D02*
D03*
X0342D02*
D03*
X0332Y04505D02*
D03*
X0342Y04305D02*
D03*
X0332D02*
D03*
X0342Y04205D02*
D03*
X0332D02*
D03*
X0342Y03905D02*
D03*
X0332D02*
D03*
X0342Y03705D02*
D03*
X0332D02*
D03*
X0342Y03505D02*
D03*
X0332D02*
D03*
X0342Y03405D02*
D03*
X0332D02*
D03*
X0342Y03205D02*
D03*
X0332D02*
D03*
X0342Y03005D02*
D03*
X0332D02*
D03*
X0342Y02805D02*
D03*
Y02705D02*
D03*
X0332Y02805D02*
D03*
Y02705D02*
D03*
X0342Y02405D02*
D03*
Y02305D02*
D03*
Y02205D02*
D03*
Y02105D02*
D03*
Y02005D02*
D03*
Y01905D02*
D03*
Y01805D02*
D03*
Y01705D02*
D03*
Y01605D02*
D03*
Y01505D02*
D03*
Y01405D02*
D03*
X0332Y02405D02*
D03*
Y02305D02*
D03*
Y02205D02*
D03*
Y02105D02*
D03*
Y02005D02*
D03*
Y01905D02*
D03*
Y01805D02*
D03*
Y01705D02*
D03*
Y01605D02*
D03*
Y01505D02*
D03*
Y01405D02*
D03*
D76*
X05805Y0475D02*
D03*
D77*
X06005Y049D02*
D03*
Y0465D02*
D03*
D78*
X04845Y0164D02*
D03*
X048074D02*
D03*
X040523Y046418D02*
D03*
X04135Y046694D02*
D03*
X040799D02*
D03*
X040248D02*
D03*
X041074Y046418D02*
D03*
X04135Y047245D02*
D03*
X040799D02*
D03*
X040248D02*
D03*
X040523Y04697D02*
D03*
X041074D02*
D03*
Y047521D02*
D03*
X040523D02*
D03*
D79*
X058895Y021252D02*
D03*
Y022252D02*
D03*
Y023252D02*
D03*
Y024252D02*
D03*
X0363Y01775D02*
D03*
Y01875D02*
D03*
Y01975D02*
D03*
Y02075D02*
D03*
Y02175D02*
D03*
Y02275D02*
D03*
Y02375D02*
D03*
Y02475D02*
D03*
Y02575D02*
D03*
Y02675D02*
D03*
Y02775D02*
D03*
D80*
X059139Y029372D02*
D03*
Y01612D02*
D03*
X0363D02*
D03*
Y029372D02*
D03*
D81*
X04472Y01406D02*
D03*
X04572D02*
D03*
X04672D02*
D03*
X04772D02*
D03*
X04872D02*
D03*
X04972D02*
D03*
D82*
X04285Y0141D02*
D03*
X04185D02*
D03*
X04085D02*
D03*
X03985D02*
D03*
X03885D02*
D03*
X03785D02*
D03*
X03685D02*
D03*
X03585D02*
D03*
D83*
X0621Y04505D02*
D03*
X0342D02*
D03*
D84*
X05464Y013597D02*
D03*
X05941D02*
D03*
D85*
X052926Y04885D02*
D03*
X054894D02*
D03*
D86*
X052384Y049933D02*
D03*
X055436D02*
D03*
D87*
X052443Y048437D02*
D03*
X055377D02*
D03*
D88*
X043Y02455D02*
D03*
D89*
X040007D02*
D03*
D90*
X06326Y049538D02*
D03*
X032D02*
D03*
Y01238D02*
D03*
X06326D02*
D03*
D91*
X0415Y0187D02*
D03*
D92*
X038713D02*
D03*
M02*
