G04*
G04 #@! TF.GenerationSoftware,Altium Limited,Altium Designer,21.0.8 (223)*
G04*
G04 Layer_Color=8388736*
%FSTAX24Y24*%
%MOIN*%
G70*
G04*
G04 #@! TF.SameCoordinates,41972824-9B57-438F-98A6-91DE107BC887*
G04*
G04*
G04 #@! TF.FilePolarity,Negative*
G04*
G01*
G75*
%ADD47R,0.1379X0.1025*%
%ADD48O,0.0434X0.0690*%
%ADD49R,0.0867X0.0434*%
%ADD50R,0.0690X0.1344*%
%ADD51R,0.0580X0.0630*%
%ADD52R,0.0631X0.0710*%
%ADD53R,0.0710X0.0631*%
%ADD54O,0.0671X0.0316*%
%ADD55R,0.0474X0.1025*%
%ADD56R,0.0434X0.0434*%
%ADD57R,0.0434X0.0867*%
%ADD58O,0.0316X0.0671*%
G04:AMPARAMS|DCode=59|XSize=17.8mil|YSize=86.7mil|CornerRadius=0mil|HoleSize=0mil|Usage=FLASHONLY|Rotation=225.000|XOffset=0mil|YOffset=0mil|HoleType=Round|Shape=Rectangle|*
%AMROTATEDRECTD59*
4,1,4,-0.0244,0.0370,0.0370,-0.0244,0.0244,-0.0370,-0.0370,0.0244,-0.0244,0.0370,0.0*
%
%ADD59ROTATEDRECTD59*%

G04:AMPARAMS|DCode=60|XSize=17.8mil|YSize=86.7mil|CornerRadius=0mil|HoleSize=0mil|Usage=FLASHONLY|Rotation=315.000|XOffset=0mil|YOffset=0mil|HoleType=Round|Shape=Rectangle|*
%AMROTATEDRECTD60*
4,1,4,-0.0370,-0.0244,0.0244,0.0370,0.0370,0.0244,-0.0244,-0.0370,-0.0370,-0.0244,0.0*
%
%ADD60ROTATEDRECTD60*%

%ADD61R,0.0749X0.0631*%
%ADD62R,0.0630X0.0580*%
%ADD63R,0.0552X0.0415*%
%ADD64R,0.0415X0.0552*%
%ADD65R,0.1458X0.0710*%
%ADD66R,0.0257X0.0592*%
%ADD67R,0.1521X0.1104*%
%ADD68R,0.0690X0.0907*%
%ADD69R,0.0513X0.0552*%
%ADD70R,0.0395X0.0237*%
%ADD71R,0.0474X0.0474*%
%ADD72R,0.0710X0.1458*%
%ADD73C,0.0671*%
%ADD74R,0.0730X0.0730*%
%ADD75C,0.0730*%
%ADD76R,0.1080X0.1680*%
%ADD77R,0.1680X0.1080*%
%ADD78C,0.0316*%
%ADD79O,0.0946X0.0749*%
%ADD80O,0.0867X0.0671*%
%ADD81O,0.0749X0.0946*%
%ADD82O,0.0671X0.0867*%
%ADD83R,0.0730X0.0730*%
%ADD84R,0.0671X0.0671*%
%ADD85C,0.0395*%
%ADD86O,0.0533X0.0789*%
%ADD87O,0.0651X0.0867*%
%ADD88C,0.0780*%
%ADD89C,0.0680*%
%ADD90C,0.1460*%
%ADD91C,0.0880*%
%ADD92R,0.0880X0.0880*%
D47*
X05895Y039258D02*
D03*
D48*
X0519Y046115D02*
D03*
X0514D02*
D03*
X0489Y043418D02*
D03*
X0494D02*
D03*
X0499D02*
D03*
X0504D02*
D03*
X0509D02*
D03*
X0514D02*
D03*
X0519D02*
D03*
X0524D02*
D03*
X0489Y046115D02*
D03*
X0494D02*
D03*
X0499D02*
D03*
X0504D02*
D03*
X0509D02*
D03*
X0524D02*
D03*
D49*
X044933Y048509D02*
D03*
Y043509D02*
D03*
Y044009D02*
D03*
Y044509D02*
D03*
Y045009D02*
D03*
Y045509D02*
D03*
Y046009D02*
D03*
Y046509D02*
D03*
Y047009D02*
D03*
Y047509D02*
D03*
Y048009D02*
D03*
Y049009D02*
D03*
Y049509D02*
D03*
Y050009D02*
D03*
X037846Y043509D02*
D03*
Y044009D02*
D03*
Y044509D02*
D03*
Y045009D02*
D03*
Y045509D02*
D03*
Y046009D02*
D03*
Y046509D02*
D03*
Y047009D02*
D03*
Y047509D02*
D03*
Y048009D02*
D03*
Y048509D02*
D03*
Y049009D02*
D03*
Y049509D02*
D03*
Y050009D02*
D03*
D50*
X058123Y04485D02*
D03*
X059777D02*
D03*
D51*
X05892Y037998D02*
D03*
X05802D02*
D03*
X054152Y041808D02*
D03*
X053252D02*
D03*
X048752D02*
D03*
X047852D02*
D03*
X0515Y035103D02*
D03*
X0524D02*
D03*
X0358Y035133D02*
D03*
X0367D02*
D03*
X04194Y03704D02*
D03*
X04104D02*
D03*
X04105Y035133D02*
D03*
X04195D02*
D03*
X03765Y03705D02*
D03*
X03855D02*
D03*
X054152Y037187D02*
D03*
X053252D02*
D03*
X04195Y0297D02*
D03*
X04105D02*
D03*
X05675Y02971D02*
D03*
X05765D02*
D03*
X03935Y01543D02*
D03*
X03845D02*
D03*
X0411D02*
D03*
X0402D02*
D03*
X05245Y0297D02*
D03*
X05155D02*
D03*
X0587Y035233D02*
D03*
X0596D02*
D03*
X0463Y035133D02*
D03*
X0472D02*
D03*
X04715Y0297D02*
D03*
X04625D02*
D03*
X050562Y041808D02*
D03*
X049662D02*
D03*
X051452D02*
D03*
X052352D02*
D03*
X054162Y038208D02*
D03*
X053262D02*
D03*
X05802Y04333D02*
D03*
X05892D02*
D03*
X04295Y0297D02*
D03*
X04385D02*
D03*
X037704D02*
D03*
X038604D02*
D03*
X047Y046919D02*
D03*
X0479D02*
D03*
X0478Y043319D02*
D03*
X0469D02*
D03*
X04495Y02805D02*
D03*
X04405D02*
D03*
X05345Y0297D02*
D03*
X05435D02*
D03*
X04915Y01543D02*
D03*
X05005D02*
D03*
X04835Y01544D02*
D03*
X04745D02*
D03*
X04569Y01543D02*
D03*
X04659D02*
D03*
X04287Y01544D02*
D03*
X04197D02*
D03*
X0482Y0297D02*
D03*
X0491D02*
D03*
X05319Y02628D02*
D03*
X05409D02*
D03*
X0509Y019138D02*
D03*
X05D02*
D03*
X05319Y0272D02*
D03*
X05409D02*
D03*
X0509Y01823D02*
D03*
X05D02*
D03*
D52*
X047853Y04437D02*
D03*
Y045867D02*
D03*
X046947D02*
D03*
Y04437D02*
D03*
D53*
X049798Y027203D02*
D03*
X048302D02*
D03*
Y026297D02*
D03*
X049798D02*
D03*
D54*
X053835Y039366D02*
D03*
Y039866D02*
D03*
Y040366D02*
D03*
Y040866D02*
D03*
X05167Y039366D02*
D03*
Y039866D02*
D03*
Y040366D02*
D03*
Y040866D02*
D03*
D55*
X059856Y041542D02*
D03*
X05895D02*
D03*
X058044D02*
D03*
D56*
X04135Y047521D02*
D03*
X040799Y046418D02*
D03*
X04135D02*
D03*
Y04697D02*
D03*
X040799D02*
D03*
X040248D02*
D03*
Y046418D02*
D03*
X040799Y047521D02*
D03*
X040248D02*
D03*
D57*
X042637Y042919D02*
D03*
X039137D02*
D03*
X039637D02*
D03*
X040137D02*
D03*
X040637D02*
D03*
X043137D02*
D03*
X041137D02*
D03*
X041637D02*
D03*
X042137D02*
D03*
X043637D02*
D03*
D58*
X04895Y019583D02*
D03*
X04845D02*
D03*
X04795D02*
D03*
X04745D02*
D03*
X04895Y017417D02*
D03*
X04845D02*
D03*
X04795D02*
D03*
X04745D02*
D03*
D59*
X050524Y023219D02*
D03*
X050663Y023358D02*
D03*
X050246Y02294D02*
D03*
X050385Y02308D02*
D03*
X051638Y024332D02*
D03*
X051498Y024193D02*
D03*
X051359Y024054D02*
D03*
X05122Y023915D02*
D03*
X051081Y023775D02*
D03*
X050942Y023636D02*
D03*
X050803Y023497D02*
D03*
X05367Y021743D02*
D03*
X053531Y021604D02*
D03*
X053392Y021464D02*
D03*
X053253Y021325D02*
D03*
X053114Y021186D02*
D03*
X052974Y021047D02*
D03*
X052835Y020908D02*
D03*
X052696Y020768D02*
D03*
X052557Y020629D02*
D03*
X054088Y02216D02*
D03*
X053949Y022021D02*
D03*
X05381Y021882D02*
D03*
X051777Y024471D02*
D03*
D60*
X053364Y023664D02*
D03*
X052529Y024499D02*
D03*
X052807Y024221D02*
D03*
X052947Y024082D02*
D03*
X053225Y023803D02*
D03*
X053086Y023943D02*
D03*
X052668Y02436D02*
D03*
X051749Y020657D02*
D03*
X05161Y020796D02*
D03*
X050218Y022188D02*
D03*
X050357Y022049D02*
D03*
X050496Y02191D02*
D03*
X050635Y021771D02*
D03*
X050775Y021631D02*
D03*
X050914Y021492D02*
D03*
X051053Y021353D02*
D03*
X051192Y021214D02*
D03*
X051331Y021075D02*
D03*
X051471Y020935D02*
D03*
X053503Y023525D02*
D03*
X053643Y023386D02*
D03*
X053782Y023247D02*
D03*
X053921Y023107D02*
D03*
X05406Y022968D02*
D03*
D61*
X043765Y03165D02*
D03*
X041128D02*
D03*
X043765Y033225D02*
D03*
X041128D02*
D03*
X038519Y03165D02*
D03*
X035881D02*
D03*
X038519Y033225D02*
D03*
X035881D02*
D03*
X056867Y033225D02*
D03*
X059505D02*
D03*
X056867Y03165D02*
D03*
X059505D02*
D03*
X05162Y033225D02*
D03*
X054258D02*
D03*
X05162Y03165D02*
D03*
X054258D02*
D03*
X046374Y033225D02*
D03*
X049012D02*
D03*
X046374Y03165D02*
D03*
X049012D02*
D03*
D62*
X046852Y041808D02*
D03*
Y040908D02*
D03*
X03345Y0477D02*
D03*
Y0468D02*
D03*
X04493Y02025D02*
D03*
Y01935D02*
D03*
X0552Y027205D02*
D03*
Y026305D02*
D03*
X054962Y040908D02*
D03*
Y041808D02*
D03*
X054952Y039858D02*
D03*
Y038958D02*
D03*
X055852Y039858D02*
D03*
Y038958D02*
D03*
X03435Y0477D02*
D03*
Y0468D02*
D03*
X03436Y049118D02*
D03*
Y050019D02*
D03*
X03345Y049118D02*
D03*
Y050019D02*
D03*
X0542Y043418D02*
D03*
Y044318D02*
D03*
X05335Y043418D02*
D03*
Y044318D02*
D03*
X056815Y027215D02*
D03*
Y026315D02*
D03*
X0484Y02428D02*
D03*
Y02518D02*
D03*
X05647Y0227D02*
D03*
Y0218D02*
D03*
X04748Y02428D02*
D03*
Y02518D02*
D03*
X05729Y0227D02*
D03*
Y0218D02*
D03*
X04748Y026328D02*
D03*
Y027228D02*
D03*
X05065D02*
D03*
Y026328D02*
D03*
D63*
X043008Y037724D02*
D03*
X04301Y03698D02*
D03*
X043992Y03735D02*
D03*
X036742Y036976D02*
D03*
X03674Y03772D02*
D03*
X035758Y03735D02*
D03*
D64*
X044104Y020292D02*
D03*
X04336Y02029D02*
D03*
X04373Y019308D02*
D03*
D65*
X051952Y037236D02*
D03*
Y038181D02*
D03*
D66*
X053654Y048437D02*
D03*
X05391D02*
D03*
X054166D02*
D03*
X053398D02*
D03*
X054422D02*
D03*
D67*
X044567Y02457D02*
D03*
X038607D02*
D03*
D68*
X05555Y043484D02*
D03*
Y045216D02*
D03*
X050152Y038092D02*
D03*
Y039824D02*
D03*
X0569Y043484D02*
D03*
Y045216D02*
D03*
D69*
X054313Y035113D02*
D03*
X053487D02*
D03*
X038613D02*
D03*
X037787D02*
D03*
X043863D02*
D03*
X043037D02*
D03*
X0491D02*
D03*
X048273D02*
D03*
D70*
X054323Y046694D02*
D03*
Y04695D02*
D03*
Y047206D02*
D03*
X053477D02*
D03*
Y04695D02*
D03*
Y046694D02*
D03*
D71*
X056736Y03501D02*
D03*
Y035503D02*
D03*
X057464D02*
D03*
Y03501D02*
D03*
D72*
X047852Y037404D02*
D03*
Y039608D02*
D03*
D73*
X05364Y013597D02*
D03*
X05264D02*
D03*
X05164D02*
D03*
X05841D02*
D03*
X05741D02*
D03*
X05641D02*
D03*
D74*
X05025Y0495D02*
D03*
D75*
X04725Y0485D02*
D03*
X04925Y0495D02*
D03*
X0621Y04105D02*
D03*
X0611D02*
D03*
X05025Y0485D02*
D03*
X04725Y0495D02*
D03*
X04925Y0485D02*
D03*
X04825Y0495D02*
D03*
Y0485D02*
D03*
X0611Y02505D02*
D03*
Y02605D02*
D03*
X0621Y02505D02*
D03*
Y02605D02*
D03*
X0611Y02905D02*
D03*
X0621D02*
D03*
X0611Y03105D02*
D03*
X0621D02*
D03*
X0611Y03305D02*
D03*
X0621D02*
D03*
X0611Y03605D02*
D03*
X0621D02*
D03*
X0611Y03805D02*
D03*
X0621D02*
D03*
X0611Y04005D02*
D03*
X0621D02*
D03*
X0611Y04405D02*
D03*
X0621D02*
D03*
X0611Y04505D02*
D03*
X0621Y04305D02*
D03*
X0611D02*
D03*
X0621Y04205D02*
D03*
X0611D02*
D03*
X0621Y03905D02*
D03*
X0611D02*
D03*
X0621Y03705D02*
D03*
X0611D02*
D03*
X0621Y03505D02*
D03*
X0611D02*
D03*
X0621Y03405D02*
D03*
X0611D02*
D03*
X0621Y03205D02*
D03*
X0611D02*
D03*
X0621Y03005D02*
D03*
X0611D02*
D03*
X0621Y02805D02*
D03*
Y02705D02*
D03*
X0611Y02805D02*
D03*
Y02705D02*
D03*
X0621Y02405D02*
D03*
Y02305D02*
D03*
Y02205D02*
D03*
Y02105D02*
D03*
Y02005D02*
D03*
Y01905D02*
D03*
Y01805D02*
D03*
Y01705D02*
D03*
Y01605D02*
D03*
Y01505D02*
D03*
Y01405D02*
D03*
X0611Y02405D02*
D03*
Y02305D02*
D03*
Y02205D02*
D03*
Y02105D02*
D03*
Y02005D02*
D03*
Y01905D02*
D03*
Y01805D02*
D03*
Y01705D02*
D03*
Y01605D02*
D03*
Y01505D02*
D03*
Y01405D02*
D03*
X0332Y02505D02*
D03*
Y02605D02*
D03*
X0342Y02505D02*
D03*
Y02605D02*
D03*
X0332Y02905D02*
D03*
X0342D02*
D03*
X0332Y03105D02*
D03*
X0342D02*
D03*
X0332Y03305D02*
D03*
X0342D02*
D03*
X0332Y03605D02*
D03*
X0342D02*
D03*
X0332Y03805D02*
D03*
X0342D02*
D03*
X0332Y04005D02*
D03*
X0342D02*
D03*
X0332Y04105D02*
D03*
X0342D02*
D03*
X0332Y04405D02*
D03*
X0342D02*
D03*
X0332Y04505D02*
D03*
X0342Y04305D02*
D03*
X0332D02*
D03*
X0342Y04205D02*
D03*
X0332D02*
D03*
X0342Y03905D02*
D03*
X0332D02*
D03*
X0342Y03705D02*
D03*
X0332D02*
D03*
X0342Y03505D02*
D03*
X0332D02*
D03*
X0342Y03405D02*
D03*
X0332D02*
D03*
X0342Y03205D02*
D03*
X0332D02*
D03*
X0342Y03005D02*
D03*
X0332D02*
D03*
X0342Y02805D02*
D03*
Y02705D02*
D03*
X0332Y02805D02*
D03*
Y02705D02*
D03*
X0342Y02405D02*
D03*
Y02305D02*
D03*
Y02205D02*
D03*
Y02105D02*
D03*
Y02005D02*
D03*
Y01905D02*
D03*
Y01805D02*
D03*
Y01705D02*
D03*
Y01605D02*
D03*
Y01505D02*
D03*
Y01405D02*
D03*
X0332Y02405D02*
D03*
Y02305D02*
D03*
Y02205D02*
D03*
Y02105D02*
D03*
Y02005D02*
D03*
Y01905D02*
D03*
Y01805D02*
D03*
Y01705D02*
D03*
Y01605D02*
D03*
Y01505D02*
D03*
Y01405D02*
D03*
D76*
X05805Y0475D02*
D03*
D77*
X06005Y049D02*
D03*
Y0465D02*
D03*
D78*
X04845Y0164D02*
D03*
X048074D02*
D03*
X040523Y046418D02*
D03*
X04135Y046694D02*
D03*
X040799D02*
D03*
X040248D02*
D03*
X041074Y046418D02*
D03*
X04135Y047245D02*
D03*
X040799D02*
D03*
X040248D02*
D03*
X040523Y04697D02*
D03*
X041074D02*
D03*
Y047521D02*
D03*
X040523D02*
D03*
D79*
X058895Y021252D02*
D03*
Y022252D02*
D03*
Y023252D02*
D03*
Y024252D02*
D03*
X0363Y01775D02*
D03*
Y01875D02*
D03*
Y01975D02*
D03*
Y02075D02*
D03*
Y02175D02*
D03*
Y02275D02*
D03*
Y02375D02*
D03*
Y02475D02*
D03*
Y02575D02*
D03*
Y02675D02*
D03*
Y02775D02*
D03*
D80*
X059139Y029372D02*
D03*
Y01612D02*
D03*
X0363D02*
D03*
Y029372D02*
D03*
D81*
X04472Y01406D02*
D03*
X04572D02*
D03*
X04672D02*
D03*
X04772D02*
D03*
X04872D02*
D03*
X04972D02*
D03*
D82*
X04285Y0141D02*
D03*
X04185D02*
D03*
X04085D02*
D03*
X03985D02*
D03*
X03885D02*
D03*
X03785D02*
D03*
X03685D02*
D03*
X03585D02*
D03*
D83*
X0621Y04505D02*
D03*
X0342D02*
D03*
D84*
X05464Y013597D02*
D03*
X05941D02*
D03*
D85*
X052926Y04885D02*
D03*
X054894D02*
D03*
D86*
X052384Y049933D02*
D03*
X055436D02*
D03*
D87*
X052443Y048437D02*
D03*
X055377D02*
D03*
D88*
X043Y02455D02*
D03*
D89*
X040007D02*
D03*
D90*
X06326Y049538D02*
D03*
X032D02*
D03*
Y01238D02*
D03*
X06326D02*
D03*
D91*
X0415Y0187D02*
D03*
D92*
X038713D02*
D03*
M02*
