G04*
G04 #@! TF.GenerationSoftware,Altium Limited,Altium Designer,21.0.8 (223)*
G04*
G04 Layer_Color=16711935*
%FSTAX24Y24*%
%MOIN*%
G70*
G04*
G04 #@! TF.SameCoordinates,41972824-9B57-438F-98A6-91DE107BC887*
G04*
G04*
G04 #@! TF.FilePolarity,Positive*
G04*
G01*
G75*
%ADD116C,0.0039*%
D116*
X052031Y038161D02*
G03*
X052031Y038161I-000079J0D01*
G01*
X052543Y038023D02*
G03*
X051362Y038023I-000591J-000279D01*
G01*
Y037393D02*
G03*
X052543Y037393I000591J000279D01*
G01*
X043667Y031217D02*
Y033658D01*
X041226D02*
X043667D01*
X041226Y031217D02*
Y033658D01*
Y031217D02*
X043667D01*
X03842D02*
Y033658D01*
X03598D02*
X03842D01*
X03598Y031217D02*
Y033658D01*
Y031217D02*
X03842D01*
X056965Y031217D02*
Y033658D01*
Y031217D02*
X059406D01*
Y033658D01*
X056965D02*
X059406D01*
X051719Y031217D02*
Y033658D01*
Y031217D02*
X05416D01*
Y033658D01*
X051719D02*
X05416D01*
X046472Y031217D02*
Y033658D01*
Y031217D02*
X048913D01*
Y033658D01*
X046472D02*
X048913D01*
X051362Y037393D02*
Y038023D01*
X052543Y037393D02*
Y038023D01*
X046553Y039805D02*
X049151D01*
Y037817D02*
Y039805D01*
X047163Y037207D02*
X048541D01*
X049151Y037817D01*
X046553D02*
X047163Y037207D01*
X046553Y037817D02*
Y039805D01*
M02*
