G04*
G04 #@! TF.GenerationSoftware,Altium Limited,Altium Designer,21.0.8 (223)*
G04*
G04 Layer_Color=16711935*
%FSTAX24Y24*%
%MOIN*%
G70*
G04*
G04 #@! TF.SameCoordinates,41972824-9B57-438F-98A6-91DE107BC887*
G04*
G04*
G04 #@! TF.FilePolarity,Positive*
G04*
G01*
G75*
%ADD116C,0.0039*%
D116*
X048656Y0164D02*
G03*
X048656Y0164I-000394J0D01*
G01*
X058019Y045521D02*
X059881D01*
X058019Y044179D02*
X059881D01*
X058019D02*
Y045521D01*
X059881Y044179D02*
Y045521D01*
X04677Y044134D02*
X04803D01*
Y046103D01*
X04677D02*
X04803D01*
X04677Y044134D02*
Y046103D01*
X050034Y02612D02*
Y02738D01*
X048066D02*
X050034D01*
X048066Y02612D02*
Y02738D01*
Y02612D02*
X050034D01*
X04675Y048D02*
X05075D01*
X04675D02*
Y05D01*
X05075D01*
Y048D02*
Y05D01*
X0606Y04555D02*
X0626D01*
Y01355D02*
Y04555D01*
X0606Y01355D02*
X0626D01*
X0606D02*
Y04555D01*
X0327D02*
X0347D01*
Y01355D02*
Y04555D01*
X0327Y01355D02*
X0347D01*
X0327D02*
Y04555D01*
X051132Y012338D02*
Y014621D01*
X055148D01*
Y012338D02*
Y014621D01*
X051132Y012338D02*
X055148D01*
X055902D02*
Y014621D01*
X059918D01*
Y012338D02*
Y014621D01*
X055902Y012338D02*
X059918D01*
X052335Y050405D02*
X052453D01*
Y050878D01*
X055367D01*
Y050405D02*
Y050878D01*
Y050405D02*
X055485D01*
X052335Y048279D02*
X055485D01*
Y050405D01*
X052335Y048279D02*
Y050405D01*
X054313Y034847D02*
Y035379D01*
X053487Y034847D02*
Y035379D01*
Y034847D02*
X054313D01*
X053487Y035379D02*
X054313D01*
X038613Y034847D02*
Y035379D01*
X037787Y034847D02*
Y035379D01*
Y034847D02*
X038613D01*
X037787Y035379D02*
X038613D01*
X043863Y034847D02*
Y035379D01*
X043037Y034847D02*
Y035379D01*
Y034847D02*
X043863D01*
X043037Y035379D02*
X043863D01*
X0491Y034847D02*
Y035379D01*
X048273Y034847D02*
Y035379D01*
Y034847D02*
X0491D01*
X048273Y035379D02*
X0491D01*
M02*
