G04*
G04 #@! TF.GenerationSoftware,Altium Limited,Altium Designer,21.0.8 (223)*
G04*
G04 Layer_Color=32768*
%FSTAX24Y24*%
%MOIN*%
G70*
G04*
G04 #@! TF.SameCoordinates,41972824-9B57-438F-98A6-91DE107BC887*
G04*
G04*
G04 #@! TF.FilePolarity,Positive*
G04*
G01*
G75*
%ADD115C,0.0020*%
%ADD116C,0.0039*%
%ADD120C,0.0047*%
D115*
X048026Y016498D02*
Y016466D01*
X048092Y0164D01*
X048157Y016466D01*
Y016498D01*
X048092Y0164D02*
Y016302D01*
X048354D02*
X048223D01*
X048354Y016433D01*
Y016466D01*
X048321Y016498D01*
X048256D01*
X048223Y016466D01*
D116*
X048656Y0164D02*
G03*
X048656Y0164I-000394J0D01*
G01*
X047912Y04437D02*
G03*
X047912Y04437I-000118J0D01*
G01*
X049916Y027144D02*
G03*
X049916Y027144I-000118J0D01*
G01*
X052031Y038161D02*
G03*
X052031Y038161I-000079J0D01*
G01*
X052543Y038023D02*
G03*
X051362Y038023I-000591J-000279D01*
G01*
Y037393D02*
G03*
X052543Y037393I000591J000279D01*
G01*
X04677Y044134D02*
Y046103D01*
X04803D01*
Y044134D02*
Y046103D01*
X04677Y044134D02*
X04803D01*
X048066Y02612D02*
X050034D01*
X048066D02*
Y02738D01*
X050034D01*
Y02612D02*
Y02738D01*
X051362Y037393D02*
Y038023D01*
X052543Y037393D02*
Y038023D01*
X056706Y035001D02*
X057494D01*
X056706D02*
Y035512D01*
X057494D01*
Y035001D02*
Y035512D01*
X046553Y039805D02*
X049151D01*
Y037817D02*
Y039805D01*
X047163Y037207D02*
X048541D01*
X049151Y037817D01*
X046553D02*
X047163Y037207D01*
X046553Y037817D02*
Y039805D01*
D120*
X047164Y044331D02*
X047243D01*
X0474Y044489D01*
X047243Y044646D01*
X047164D01*
X0474Y044489D02*
X047636D01*
X047243Y044803D02*
X047164Y044882D01*
Y04504D01*
X047243Y045118D01*
X047321D01*
X0474Y04504D01*
Y044961D01*
Y04504D01*
X047479Y045118D01*
X047558D01*
X047636Y04504D01*
Y044882D01*
X047558Y044803D01*
X049837Y026514D02*
Y026593D01*
X04968Y02675D01*
X049523Y026593D01*
Y026514D01*
X04968Y02675D02*
Y026986D01*
X049365D02*
X049208D01*
X049286D01*
Y026514D01*
X049365Y026593D01*
M02*
