G04*
G04 #@! TF.GenerationSoftware,Altium Limited,Altium Designer,23.6.0 (18)*
G04*
G04 Layer_Physical_Order=2*
G04 Layer_Color=16711680*
%FSTAX44Y44*%
%MOMM*%
G71*
G04*
G04 #@! TF.SameCoordinates,7A204BF5-4CC6-4CC0-A9E4-A723DCFD74C1*
G04*
G04*
G04 #@! TF.FilePolarity,Positive*
G04*
G01*
G75*
%ADD10C,0.5080*%
%ADD12C,0.2540*%
%ADD26C,1.5000*%
%ADD74R,1.6510X1.6510*%
%ADD75C,1.6510*%
%ADD77C,1.1000*%
%ADD78C,1.3000*%
%ADD79R,1.3000X1.3000*%
%ADD91C,0.7620*%
%ADD92C,0.6000*%
%ADD93C,1.8000*%
%ADD94C,0.8000*%
%ADD95O,1.1500X1.8000*%
%ADD96O,1.4500X2.0000*%
%ADD97R,2.5400X4.0640*%
%ADD98R,4.0640X2.5400*%
%ADD99O,2.0000X2.2000*%
%ADD100C,2.2000*%
G04:AMPARAMS|DCode=101|XSize=2.2mm|YSize=2.2mm|CornerRadius=0.55mm|HoleSize=0mm|Usage=FLASHONLY|Rotation=270.000|XOffset=0mm|YOffset=0mm|HoleType=Round|Shape=RoundedRectangle|*
%AMROUNDEDRECTD101*
21,1,2.2000,1.1000,0,0,270.0*
21,1,1.1000,2.2000,0,0,270.0*
1,1,1.1000,-0.5500,-0.5500*
1,1,1.1000,-0.5500,0.5500*
1,1,1.1000,0.5500,0.5500*
1,1,1.1000,0.5500,-0.5500*
%
%ADD101ROUNDEDRECTD101*%
%ADD102R,1.5000X1.5000*%
%ADD103O,2.0000X1.5000*%
G36*
X00997139Y00009144D02*
Y00003367D01*
X00741839D01*
X00741009Y00004637D01*
X00741616Y00006102D01*
Y00008502D01*
X00740698Y00010719D01*
X00739001Y00012416D01*
X00736784Y00013334D01*
X00734384D01*
X00732167Y00012416D01*
X0073183Y00012079D01*
X00729957Y00011964D01*
X00631698D01*
X00630957Y00012001D01*
X00630543Y00012416D01*
X00628326Y00013334D01*
X00625926D01*
X00623709Y00012416D01*
X00623372Y00012079D01*
X00621499Y00011964D01*
X00575391D01*
X00575146Y00012209D01*
Y00173636D01*
X00575241Y00174176D01*
X0057539Y00174624D01*
X00575566Y00174951D01*
X00575766Y00175196D01*
X0057601Y00175395D01*
X00576338Y00175572D01*
X00576786Y00175721D01*
X00577326Y00175816D01*
X00638193D01*
X00643316Y00170694D01*
X00644828Y00169683D01*
X00646612Y00169328D01*
X0071247D01*
X00713211Y00169291D01*
X00713625Y00168876D01*
X00715842Y00167958D01*
X00718242D01*
X00720459Y00168876D01*
X00720796Y00169213D01*
X00722669Y00169328D01*
X00741546D01*
X0074333Y00169683D01*
X00744842Y00170694D01*
X0075111Y00176961D01*
X00752283Y00176475D01*
Y00146145D01*
X00751013Y00145501D01*
X0074923Y0014624D01*
X0074683D01*
X00744613Y00145322D01*
X00742916Y00143625D01*
X00741998Y00141408D01*
Y00140416D01*
X00741961Y00140265D01*
X00741946Y00139948D01*
X00741911Y0013973D01*
X00741846Y00139487D01*
X00741746Y00139217D01*
X00741603Y00138918D01*
X00741415Y00138592D01*
X00741195Y00138265D01*
X00740605Y00137545D01*
X00697643Y00094583D01*
X00696914Y0009349D01*
X00696657Y00092202D01*
Y0005575D01*
X00690534Y00049627D01*
X00633974D01*
X00633609Y00049654D01*
X00633141Y00049714D01*
X00632725Y00049795D01*
X00632361Y00049893D01*
X00632049Y00050004D01*
X00631786Y00050124D01*
X00631569Y00050249D01*
X00631391Y00050379D01*
X00631156Y00050593D01*
X00631023Y00050673D01*
X00630321Y00051374D01*
X00628104Y00052293D01*
X00625705D01*
X00623488Y00051374D01*
X00621791Y00049677D01*
X00620873Y0004746D01*
Y00045061D01*
X00621791Y00042844D01*
X00623488Y00041147D01*
X00625705Y00040229D01*
X00628104D01*
X00630321Y00041147D01*
X00631023Y00041849D01*
X00631156Y00041929D01*
X00631391Y00042142D01*
X00631569Y00042272D01*
X00631786Y00042397D01*
X00632049Y00042518D01*
X00632361Y00042628D01*
X00632725Y00042726D01*
X00633111Y00042801D01*
X00634038Y00042894D01*
X00691929D01*
X00693217Y0004315D01*
X00694309Y0004388D01*
X00702405Y00051975D01*
X00703134Y00053068D01*
X00703391Y00054356D01*
Y00090808D01*
X00745412Y00132829D01*
X00745689Y00133068D01*
X00746063Y00133356D01*
X00746414Y00133593D01*
X0074674Y00133781D01*
X00747039Y00133924D01*
X0074731Y00134024D01*
X00747552Y00134089D01*
X0074777Y00134124D01*
X00748087Y00134139D01*
X00748238Y00134176D01*
X0074923D01*
X00751013Y00134915D01*
X00752283Y00134271D01*
Y00042857D01*
X00752115Y00042722D01*
X00751795Y00042492D01*
X00751518Y0004232D01*
X00751292Y00042204D01*
X00751126Y00042138D01*
X00751027Y00042111D01*
X00750996Y00042107D01*
X00750845Y00042112D01*
X00750813Y00042106D01*
X00750781Y00042113D01*
X00750717Y000421D01*
X00749116D01*
X00746899Y00041182D01*
X00745202Y00039485D01*
X00744284Y00037268D01*
Y00034868D01*
X00745202Y00032651D01*
X00746899Y00030954D01*
X0074845Y00030312D01*
X0074845Y00028937D01*
X00748064Y00028777D01*
X00746939Y00027652D01*
X00746526Y00026656D01*
X00754134D01*
X00753721Y00027652D01*
X00752596Y00028777D01*
X00752195Y00028943D01*
X00752196Y00030317D01*
X00753733Y00030954D01*
X0075543Y00032651D01*
X00756348Y00034868D01*
Y00036469D01*
X00756361Y00036533D01*
X00756354Y00036565D01*
X0075636Y00036597D01*
X00756355Y00036748D01*
X00756359Y00036779D01*
X00756386Y00036878D01*
X00756452Y00037044D01*
X00756568Y0003727D01*
X0075674Y00037547D01*
X00756955Y00037846D01*
X0075751Y00038501D01*
X00758031Y00039021D01*
X0075876Y00040114D01*
X00759017Y00041402D01*
Y00178438D01*
X00789048Y00208469D01*
X00941453D01*
X00960055Y00189867D01*
Y00058377D01*
X00960029Y00058012D01*
X00959968Y00057544D01*
X00959887Y00057128D01*
X0095979Y00056764D01*
X00959679Y00056452D01*
X00959559Y0005619D01*
X00959433Y00055973D01*
X00959304Y00055794D01*
X0095909Y00055559D01*
X0095901Y00055427D01*
X00958308Y00054725D01*
X0095739Y00052508D01*
Y00050108D01*
X00958308Y00047891D01*
X00960005Y00046194D01*
X00962222Y00045276D01*
X00964622D01*
X00966839Y00046194D01*
X00968536Y00047891D01*
X00969454Y00050108D01*
Y00052508D01*
X00968536Y00054725D01*
X00967834Y00055427D01*
X00967754Y00055559D01*
X0096754Y00055794D01*
X00967411Y00055972D01*
X00967285Y0005619D01*
X00967165Y00056453D01*
X00967054Y00056764D01*
X00966957Y00057128D01*
X00966882Y00057515D01*
X00966789Y00058441D01*
Y00191262D01*
X00966532Y0019255D01*
X00965803Y00193643D01*
X00945229Y00214217D01*
X00944136Y00214946D01*
X00942848Y00215203D01*
X00787654D01*
X00786366Y00214946D01*
X00785273Y00214217D01*
X00758437Y0018738D01*
X00757264Y00187866D01*
Y00234515D01*
X00757361Y00234613D01*
X00759321Y00235424D01*
X0076055Y00236654D01*
X00762508Y00234696D01*
X00767311D01*
X00771724Y00230283D01*
X00772816Y00229554D01*
X00774105Y00229297D01*
X00784649D01*
X00785014Y00229271D01*
X00785482Y0022921D01*
X00785898Y00229129D01*
X00786262Y00229032D01*
X00786574Y00228921D01*
X00786836Y00228801D01*
X00787053Y00228675D01*
X00787232Y00228546D01*
X00787467Y00228332D01*
X00787599Y00228252D01*
X00788301Y0022755D01*
X00790518Y00226632D01*
X00792918D01*
X00795135Y0022755D01*
X00796832Y00229247D01*
X0079775Y00231464D01*
Y00233864D01*
X00796832Y00236081D01*
X00795135Y00237778D01*
X00792918Y00238696D01*
X00790656D01*
X00790372Y00239049D01*
X00790033Y00239869D01*
X00795274Y0024511D01*
X00861568D01*
X00866648Y0025019D01*
Y00261366D01*
X00863854D01*
X00862584Y00260096D01*
Y00250444D01*
X00859028Y00246888D01*
X0079502D01*
X00784163Y00236031D01*
X00775499D01*
X00761309Y00250221D01*
X00760217Y0025095D01*
X00759774Y00251038D01*
X0075968Y00251137D01*
X00759344Y00251521D01*
X00758772Y00252254D01*
X00758599Y00252513D01*
X00758472Y00252733D01*
X00758402Y00252881D01*
X00758381Y00252941D01*
X0075838Y00252947D01*
Y00255772D01*
X0075838Y00255772D01*
X0075838D01*
X0075838Y00257431D01*
Y00263351D01*
X00758444Y00263415D01*
X00761475Y00266446D01*
X00771144D01*
X00778256Y00273558D01*
Y00296926D01*
X00781558Y00300228D01*
X00849122D01*
X00860552Y00290066D01*
Y0027686D01*
X00860806D01*
X00866648Y00271018D01*
Y00266192D01*
X00865124Y00264668D01*
X0086184D01*
X0086184Y00264668D01*
X00860806D01*
X00860806Y00263906D01*
X00861314Y00263398D01*
X00861314Y00263398D01*
X00861822Y0026289D01*
X0086741D01*
X00869442Y00264922D01*
Y00271018D01*
X00862584Y00277876D01*
Y00290322D01*
X00849884Y00303022D01*
X00780542D01*
X00776986Y00299466D01*
Y00298363D01*
X00775716Y00297836D01*
X00775069Y00298484D01*
X00772852Y00299402D01*
X00770452D01*
X00768235Y00298484D01*
X00766538Y00296787D01*
X00766187Y00295938D01*
X00764697Y0029566D01*
X00764513Y00295853D01*
X00764528Y0029617D01*
X00764563Y00296388D01*
X00764628Y0029663D01*
X00764728Y00296901D01*
X00764871Y002972D01*
X00765059Y00297526D01*
X00765279Y00297852D01*
X00765869Y00298573D01*
X00799716Y00332421D01*
X00843948D01*
X00869907Y00306462D01*
X00870146Y00306185D01*
X00870434Y00305811D01*
X00870671Y0030546D01*
X00870859Y00305134D01*
X00871002Y00304835D01*
X00871103Y00304564D01*
X00871167Y00304322D01*
X00871202Y00304104D01*
X00871217Y00303787D01*
X00871254Y00303636D01*
Y00302644D01*
X00872172Y00300427D01*
X00873869Y0029873D01*
X00876086Y00297812D01*
X00878486D01*
X00880703Y0029873D01*
X008824Y00300427D01*
X00883318Y00302644D01*
Y00305044D01*
X008824Y00307261D01*
X00880703Y00308958D01*
X00878486Y00309876D01*
X00877494D01*
X00877343Y00309913D01*
X00877026Y00309928D01*
X00876808Y00309963D01*
X00876565Y00310028D01*
X00876295Y00310128D01*
X00875996Y00310271D01*
X0087567Y00310459D01*
X00875343Y00310679D01*
X00874623Y00311269D01*
X00847723Y00338169D01*
X0084663Y00338898D01*
X00845342Y00339155D01*
X00798848D01*
X00798322Y00340425D01*
X00847977Y00390079D01*
X00871517D01*
X00871882Y00390053D01*
X0087235Y00389992D01*
X00872766Y00389911D01*
X0087313Y00389814D01*
X00873442Y00389703D01*
X00873704Y00389583D01*
X00873921Y00389457D01*
X008741Y00389328D01*
X00874335Y00389114D01*
X00874467Y00389034D01*
X00875169Y00388332D01*
X00877386Y00387414D01*
X00879786D01*
X00882003Y00388332D01*
X008837Y00390029D01*
X00884618Y00392246D01*
Y00394646D01*
X008837Y00396863D01*
X00882003Y0039856D01*
X00879786Y00399478D01*
X00877386D01*
X00875169Y0039856D01*
X00874467Y00397858D01*
X00874335Y00397778D01*
X008741Y00397564D01*
X00873922Y00397435D01*
X00873704Y00397309D01*
X00873441Y00397189D01*
X0087313Y00397078D01*
X00872766Y00396981D01*
X00872379Y00396906D01*
X00871453Y00396813D01*
X00846582D01*
X00845294Y00396556D01*
X00844201Y00395827D01*
X0076665Y00318275D01*
X00766574Y00318244D01*
X00766226Y00318234D01*
X0076525Y00318671D01*
X00765215Y00319094D01*
X00765279Y00319188D01*
X00765869Y00319909D01*
X00879667Y00433707D01*
X00880396Y004348D01*
X00880653Y00436088D01*
Y00473305D01*
X00880679Y0047367D01*
X0088074Y00474138D01*
X00880821Y00474554D01*
X00880918Y00474918D01*
X00881029Y0047523D01*
X00881149Y00475492D01*
X00881275Y00475709D01*
X00881404Y00475888D01*
X00881618Y00476123D01*
X00881698Y00476255D01*
X008824Y00476957D01*
X00883318Y00479174D01*
Y00481574D01*
X008824Y00483791D01*
X00880703Y00485488D01*
X00878486Y00486406D01*
X00876086D01*
X00874333Y0048568D01*
X00873063Y00486341D01*
Y00500509D01*
X00879667Y00507113D01*
X00880396Y00508206D01*
X00880653Y00509494D01*
Y00544425D01*
X00880679Y0054479D01*
X0088074Y00545258D01*
X00880821Y00545674D01*
X00880918Y00546038D01*
X00881029Y0054635D01*
X00881149Y00546612D01*
X00881275Y00546829D01*
X00881404Y00547008D01*
X00881618Y00547243D01*
X00881698Y00547375D01*
X008824Y00548077D01*
X00883318Y00550294D01*
Y00552694D01*
X008824Y00554911D01*
X00880703Y00556608D01*
X00878486Y00557526D01*
X00876086D01*
X00873869Y00556608D01*
X00872172Y00554911D01*
X00871254Y00552694D01*
Y00550294D01*
X00872172Y00548077D01*
X00872874Y00547375D01*
X00872954Y00547243D01*
X00873168Y00547008D01*
X00873297Y00546829D01*
X00873423Y00546612D01*
X00873543Y00546349D01*
X00873654Y00546038D01*
X00873751Y00545674D01*
X00873826Y00545287D01*
X00873919Y00544361D01*
Y00510888D01*
X00867315Y00504285D01*
X00866586Y00503192D01*
X00866329Y00501904D01*
Y00440219D01*
X00761568Y00335458D01*
X00760397Y00336083D01*
X00760541Y00336804D01*
Y00349039D01*
X00760567Y00349404D01*
X00760628Y00349872D01*
X00760709Y00350288D01*
X00760806Y00350652D01*
X00760917Y00350964D01*
X00761037Y00351226D01*
X00761163Y00351443D01*
X00761292Y00351622D01*
X00761506Y00351857D01*
X00761586Y0035199D01*
X00762288Y00352691D01*
X00763206Y00354908D01*
Y00357308D01*
X00762288Y00359525D01*
X00760591Y00361222D01*
X00758374Y0036214D01*
X00755974D01*
X00753757Y00361222D01*
X0075206Y00359525D01*
X00751142Y00357308D01*
Y00354908D01*
X0075206Y00352691D01*
X00752762Y0035199D01*
X00752842Y00351857D01*
X00753056Y00351622D01*
X00753185Y00351443D01*
X00753311Y00351226D01*
X00753431Y00350963D01*
X00753542Y00350652D01*
X00753639Y00350288D01*
X00753714Y00349901D01*
X00753807Y00348975D01*
Y00338199D01*
X00736486Y00320877D01*
X00735756Y00319785D01*
X007355Y00318497D01*
Y0031667D01*
X0073423Y00316417D01*
X00733895Y00317226D01*
X0073277Y00318351D01*
X00731774Y00318764D01*
Y0031496D01*
Y00311157D01*
X0073277Y00311569D01*
X00733557Y00310625D01*
X00726973Y00304041D01*
X00726243Y00302948D01*
X00725987Y0030166D01*
Y00298077D01*
X00726243Y00296788D01*
X00726973Y00295696D01*
X00738537Y00284131D01*
X0073963Y00283402D01*
X00740918Y00283145D01*
X00764794D01*
X00766082Y00283402D01*
X00767175Y00284131D01*
X00769034Y00285991D01*
X00769311Y0028623D01*
X00769685Y00286518D01*
X00770036Y00286755D01*
X00770362Y00286943D01*
X00770661Y00287086D01*
X00770932Y00287187D01*
X00771174Y00287251D01*
X00771392Y00287286D01*
X00771709Y00287301D01*
X0077186Y00287338D01*
X00772852D01*
X00775069Y00288256D01*
X00775716Y00288904D01*
X00776986Y00288377D01*
Y00274828D01*
X00770636Y00268478D01*
X00761238D01*
X00757481Y00264721D01*
X00757174Y00264414D01*
X00757174Y00263505D01*
X00757174Y00263505D01*
Y00263505D01*
X00757174Y00263505D01*
Y00257586D01*
X00756001Y002571D01*
X00755765Y00257336D01*
X00753548Y00258254D01*
X00751148D01*
X00748931Y00257336D01*
X00747234Y00255639D01*
X00746316Y00253422D01*
Y00251022D01*
X00747234Y00248805D01*
X00748931Y00247108D01*
X00751148Y0024619D01*
X00751229D01*
X00751756Y0024492D01*
X0075079Y00243955D01*
X00749872Y00241738D01*
Y00240308D01*
X00749306Y00239742D01*
X00748295Y0023823D01*
X0074794Y00236446D01*
Y00186977D01*
X00744251Y00183287D01*
X00742981Y00183813D01*
Y00184343D01*
X00742372Y00185813D01*
X00741246Y00186938D01*
X00740251Y00187351D01*
Y00183547D01*
X00738981D01*
Y00182277D01*
X00735177D01*
X0073559Y00181281D01*
X00736715Y00180156D01*
X00737281Y00179922D01*
X00737029Y00178652D01*
X00721614D01*
X00720873Y00178689D01*
X00720459Y00179104D01*
X00718242Y00180022D01*
X00715842D01*
X00713625Y00179104D01*
X00713288Y00178767D01*
X00711415Y00178652D01*
X00648543D01*
X0064342Y00183774D01*
X00641908Y00184785D01*
X00640124Y00185139D01*
X005673D01*
X00561848Y00191516D01*
X00560832Y00192786D01*
X00558776Y00192798D01*
X00511511Y00240063D01*
X00510636Y00241006D01*
X00510008Y0024179D01*
X00509526Y00242484D01*
X00509404Y00242697D01*
Y00244778D01*
X00509413Y00244825D01*
X00509404Y00244872D01*
Y00247539D01*
X00509511Y00247725D01*
X00509981Y00248398D01*
X00511256Y00249902D01*
X00534918Y00273564D01*
X00535929Y00275076D01*
X00536284Y0027686D01*
Y00344541D01*
X00537382Y00344588D01*
X00586994D01*
X00588778Y00344943D01*
X0059029Y00345954D01*
X00623171Y00378835D01*
X00623621Y00379149D01*
X00624043Y0037936D01*
X00624399Y00379467D01*
X00624713Y00379499D01*
X00625027Y00379467D01*
X00625383Y0037936D01*
X00625805Y00379149D01*
X00626255Y00378835D01*
X0062891Y0037618D01*
X00630422Y00375169D01*
X00632206Y00374814D01*
X00651764D01*
X00652505Y00374777D01*
X00652919Y00374362D01*
X00655136Y00373444D01*
X00657536D01*
X00659753Y00374362D01*
X0066009Y00374699D01*
X00661963Y00374814D01*
X00725017D01*
X00736167Y00363664D01*
X00736664Y00363114D01*
Y00362528D01*
X00737582Y00360311D01*
X00739279Y00358614D01*
X00741496Y00357696D01*
X00743896D01*
X00746113Y00358614D01*
X0074781Y00360311D01*
X00748728Y00362528D01*
Y00364928D01*
X0074781Y00367145D01*
X00746113Y00368842D01*
X00743896Y0036976D01*
X00743419D01*
X00742013Y00371003D01*
X00730244Y00382772D01*
X00728732Y00383783D01*
X00726948Y00384138D01*
X00711827D01*
X0071117Y00385408D01*
X00711898Y00387166D01*
Y00389566D01*
X0071098Y00391783D01*
X00709922Y0039284D01*
X00709865Y00392926D01*
X00709849Y00392937D01*
X00709838Y00392953D01*
X0070971Y00393076D01*
X00709673Y00393124D01*
X0070961Y00393234D01*
X00709531Y00393416D01*
X00709448Y00393671D01*
X0070937Y00393999D01*
X00709307Y00394372D01*
X00709284Y00394643D01*
X00742283Y00427641D01*
X00743012Y00428734D01*
X00743269Y00430022D01*
Y00442511D01*
X00743295Y00442876D01*
X00743356Y00443344D01*
X00743437Y0044376D01*
X00743534Y00444124D01*
X00743645Y00444436D01*
X00743765Y00444698D01*
X00743891Y00444915D01*
X0074402Y00445094D01*
X00744234Y00445329D01*
X00744314Y00445462D01*
X00745016Y00446163D01*
X00745934Y0044838D01*
Y0045078D01*
X00745016Y00452997D01*
X00743319Y00454694D01*
X00741102Y00455612D01*
X00738702D01*
X00736485Y00454694D01*
X00734788Y00452997D01*
X0073387Y0045078D01*
Y0044838D01*
X00734788Y00446163D01*
X0073549Y00445462D01*
X0073557Y00445329D01*
X00735784Y00445094D01*
X00735913Y00444916D01*
X00736039Y00444698D01*
X00736159Y00444435D01*
X0073627Y00444124D01*
X00736367Y0044376D01*
X00736442Y00443373D01*
X00736535Y00442447D01*
Y00431417D01*
X00703485Y00398367D01*
X00702756Y00397274D01*
X00702499Y00395986D01*
Y00395387D01*
X00702478Y00394842D01*
X00702429Y00394398D01*
X00702362Y00393999D01*
X00702284Y00393671D01*
X00702201Y00393416D01*
X00702122Y00393234D01*
X00702059Y00393124D01*
X00702022Y00393076D01*
X00701894Y00392953D01*
X00701883Y00392937D01*
X00701867Y00392926D01*
X0070181Y0039284D01*
X00700752Y00391783D01*
X00699834Y00389566D01*
Y00387166D01*
X00700562Y00385408D01*
X00699904Y00384138D01*
X00660908D01*
X00660167Y00384175D01*
X00659753Y0038459D01*
X00657536Y00385508D01*
X00655136D01*
X00652919Y0038459D01*
X00652582Y00384253D01*
X00650709Y00384138D01*
X00634137D01*
X00628009Y00390265D01*
X00628009Y00390265D01*
X00594664Y0042361D01*
X00594515Y00423763D01*
X00594042Y00424286D01*
Y00424872D01*
X00593124Y00427089D01*
X00591427Y00428786D01*
X0058921Y00429704D01*
X0058681D01*
X00586803Y00429701D01*
X00580749D01*
X00580396Y00429937D01*
X00578117Y00430391D01*
X00477447D01*
X0044323Y00464608D01*
X00443756Y00465878D01*
X00537603D01*
X00538389Y00465722D01*
X00635D01*
X00637279Y00466175D01*
X00639212Y00467466D01*
X00651183Y00479437D01*
X0071439D01*
X00714572Y00479362D01*
X00716972D01*
X00719189Y0048028D01*
X00720886Y00481977D01*
X00721804Y00484194D01*
Y00486594D01*
X00720886Y00488811D01*
X00719189Y00490508D01*
X00716972Y00491426D01*
X00714572D01*
X0071439Y00491351D01*
X00648716D01*
X00646437Y00490897D01*
X00644504Y00489606D01*
X00632533Y00477635D01*
X00539018D01*
X00538233Y00477791D01*
X00442901D01*
X00442719Y00477866D01*
X00440319D01*
X00438102Y00476948D01*
X00436405Y00475251D01*
X00435813Y00473821D01*
X00434315Y00473523D01*
X00415145Y00492692D01*
X0041507Y00492875D01*
X00413373Y00494572D01*
X00411156Y0049549D01*
X00408756D01*
X00406539Y00494572D01*
X00404842Y00492875D01*
X0040421Y00491348D01*
X00402751Y00491011D01*
X00398083Y00495678D01*
Y00563415D01*
X00398109Y0056378D01*
X0039817Y00564248D01*
X00398251Y00564664D01*
X00398348Y00565028D01*
X00398459Y0056534D01*
X00398579Y00565602D01*
X00398705Y00565819D01*
X00398834Y00565998D01*
X00399048Y00566233D01*
X00399128Y00566366D01*
X0039983Y00567067D01*
X00400748Y00569284D01*
Y00571684D01*
X0039983Y00573901D01*
X00398133Y00575598D01*
X00395916Y00576516D01*
X00393516D01*
X00391299Y00575598D01*
X00389602Y00573901D01*
X00388684Y00571684D01*
Y00569284D01*
X00389602Y00567067D01*
X00390304Y00566366D01*
X00390384Y00566233D01*
X00390598Y00565998D01*
X00390727Y0056582D01*
X00390853Y00565602D01*
X00390973Y00565339D01*
X00391084Y00565028D01*
X00391181Y00564664D01*
X00391256Y00564277D01*
X00391349Y00563351D01*
Y00494284D01*
X00391606Y00492996D01*
X00392335Y00491903D01*
X00425547Y00458692D01*
X00425061Y00457519D01*
X00401785D01*
X0040142Y00457545D01*
X00400952Y00457606D01*
X00400536Y00457687D01*
X00400172Y00457784D01*
X0039986Y00457895D01*
X00399598Y00458015D01*
X00399381Y00458141D01*
X00399202Y0045827D01*
X00398967Y00458484D01*
X00398834Y00458564D01*
X00398133Y00459266D01*
X00395916Y00460184D01*
X00393516D01*
X00391299Y00459266D01*
X00389602Y00457569D01*
X00388684Y00455352D01*
Y00452952D01*
X00389602Y00450735D01*
X00391299Y00449038D01*
X00393516Y0044812D01*
X00395916D01*
X00398133Y00449038D01*
X00398834Y0044974D01*
X00398967Y0044982D01*
X00399202Y00450034D01*
X0039938Y00450163D01*
X00399598Y00450289D01*
X00399861Y00450409D01*
X00400172Y0045052D01*
X00400536Y00450617D01*
X00400923Y00450692D01*
X00401849Y00450785D01*
X00426988D01*
X00428738Y00449035D01*
X00428112Y00447865D01*
X00427645Y00447958D01*
X00416905D01*
X00415616Y00447701D01*
X00414524Y00446972D01*
X00391827Y00424275D01*
X00391098Y00423182D01*
X00390841Y00421894D01*
Y00344127D01*
X00390815Y00343762D01*
X00390754Y00343294D01*
X00390673Y00342878D01*
X00390576Y00342514D01*
X00390465Y00342202D01*
X00390345Y0034194D01*
X00390219Y00341723D01*
X0039009Y00341544D01*
X00389876Y00341309D01*
X00389796Y00341176D01*
X00389094Y00340475D01*
X00388176Y00338258D01*
Y00335858D01*
X00389094Y00333641D01*
X00390791Y00331944D01*
X00393008Y00331026D01*
X00395408D01*
X00397625Y00331944D01*
X00399322Y00333641D01*
X0040024Y00335858D01*
Y00338258D01*
X00399322Y00340475D01*
X0039862Y00341176D01*
X0039854Y00341309D01*
X00398326Y00341544D01*
X00398197Y00341722D01*
X00398071Y0034194D01*
X00397951Y00342203D01*
X0039784Y00342514D01*
X00397743Y00342878D01*
X00397668Y00343265D01*
X00397575Y00344191D01*
Y00420499D01*
X00403759Y00426683D01*
X00404814Y00425976D01*
X00404557Y00424688D01*
Y00258696D01*
X00392589Y00246729D01*
X0039186Y00245636D01*
X00391603Y00244348D01*
Y00235161D01*
X00391577Y00234796D01*
X00391516Y00234328D01*
X00391435Y00233912D01*
X00391338Y00233548D01*
X00391227Y00233236D01*
X00391107Y00232974D01*
X00390981Y00232757D01*
X00390852Y00232578D01*
X00390638Y00232343D01*
X00390558Y00232211D01*
X00389856Y00231509D01*
X00388938Y00229292D01*
Y00226892D01*
X00389856Y00224675D01*
X00391553Y00222978D01*
X0039377Y0022206D01*
X0039617D01*
X00398387Y00222978D01*
X00400084Y00224675D01*
X00401002Y00226892D01*
Y00229292D01*
X00400084Y00231509D01*
X00399382Y00232211D01*
X00399302Y00232343D01*
X00399088Y00232578D01*
X00398959Y00232757D01*
X00398833Y00232974D01*
X00398713Y00233237D01*
X00398602Y00233548D01*
X00398505Y00233912D01*
X0039843Y00234299D01*
X00398337Y00235225D01*
Y00242953D01*
X00410305Y00254921D01*
X00411034Y00256014D01*
X00411291Y00257302D01*
Y00423293D01*
X00420241Y00432243D01*
X00428373D01*
X00471837Y00388779D01*
X0047293Y0038805D01*
X00474218Y00387793D01*
X00535333D01*
X00535686Y00387769D01*
X00536124Y00387715D01*
X0053617Y00387703D01*
X00536419Y00387415D01*
X00535838Y00386145D01*
X00475742D01*
X00474454Y00385888D01*
X00473361Y00385159D01*
X00452025Y00363823D01*
X00451296Y0036273D01*
X00451039Y00361442D01*
Y00215263D01*
X0044834Y00212564D01*
X00447167Y0021305D01*
Y00230759D01*
X00426593D01*
Y00210185D01*
X00444302D01*
X00444788Y00209012D01*
X00333124Y00097347D01*
X00283424D01*
X00282136Y0009709D01*
X00281043Y00096361D01*
X00246499Y00061817D01*
X0024577Y00060724D01*
X00245513Y00059436D01*
Y00034906D01*
X00245513Y000349D01*
X00243892Y00034687D01*
X00241573Y00033726D01*
X00239582Y00032198D01*
X00238054Y00030207D01*
X00237093Y00027888D01*
X00236766Y000254D01*
X00237093Y00022912D01*
X00238054Y00020593D01*
X00239582Y00018602D01*
X00241573Y00017074D01*
X00243892Y00016113D01*
X0024638Y00015786D01*
X0025138D01*
X00253868Y00016113D01*
X00256187Y00017074D01*
X00258178Y00018602D01*
X00259706Y00020593D01*
X00260667Y00022912D01*
X00260885Y00024568D01*
X0026094Y00024984D01*
X0026222D01*
X00262275Y00024568D01*
X00262493Y00022912D01*
X00263454Y00020593D01*
X00264982Y00018602D01*
X00266973Y00017074D01*
X00269292Y00016113D01*
X0027178Y00015786D01*
X0027678D01*
X00279268Y00016113D01*
X00281587Y00017074D01*
X00283578Y00018602D01*
X00285106Y00020593D01*
X00286067Y00022912D01*
X00286394Y000254D01*
X00286067Y00027888D01*
X00285106Y00030207D01*
X00283578Y00032198D01*
X00281587Y00033726D01*
X00279268Y00034687D01*
X0027678Y00035014D01*
X0027178D01*
X00269292Y00034687D01*
X00266973Y00033726D01*
X00264982Y00032198D01*
X00263454Y00030207D01*
X00262493Y00027888D01*
X00262275Y00026232D01*
X0026222Y00025816D01*
X0026094D01*
X00260885Y00026232D01*
X00260667Y00027888D01*
X00259706Y00030207D01*
X00258178Y00032198D01*
X00256187Y00033726D01*
X00253868Y00034687D01*
X00252247Y000349D01*
X00252247Y00034906D01*
Y00058042D01*
X00284818Y00090613D01*
X00334518D01*
X00335806Y0009087D01*
X00336899Y00091599D01*
X00454597Y00209298D01*
X0045577Y00208812D01*
Y0020577D01*
X00381987Y00131987D01*
X00381258Y00130894D01*
X00381001Y00129606D01*
Y00072105D01*
X00380997Y00071974D01*
X00380914Y00071174D01*
X00380778Y00070416D01*
X0038059Y00069699D01*
X00380352Y00069019D01*
X00380062Y00068374D01*
X00379721Y00067759D01*
X00379327Y00067171D01*
X00378876Y00066607D01*
X00378311Y00066007D01*
X00378219Y00065861D01*
X00377541Y00065183D01*
X00376417Y00063237D01*
X00375836Y00061067D01*
Y00058821D01*
X00376417Y00056651D01*
X00377541Y00054705D01*
X00379129Y00053117D01*
X00381075Y00051993D01*
X00383245Y00051412D01*
X00385491D01*
X00387661Y00051993D01*
X00389607Y00053117D01*
X00391195Y00054705D01*
X00392318Y00056651D01*
X003929Y00058821D01*
Y00061067D01*
X00392318Y00063237D01*
X00391195Y00065183D01*
X00390517Y00065861D01*
X00390425Y00066007D01*
X0038986Y00066607D01*
X00389409Y00067171D01*
X00389015Y00067759D01*
X00388674Y00068374D01*
X00388384Y00069019D01*
X00388146Y00069699D01*
X00387958Y00070416D01*
X00387822Y00071174D01*
X00387739Y00071974D01*
X00387735Y00072105D01*
Y00128211D01*
X00461199Y00201676D01*
X00462454Y00201231D01*
X00462469Y00201219D01*
Y00197736D01*
X00424085Y00159353D01*
X00423356Y0015826D01*
X00423099Y00156972D01*
Y00069146D01*
X00411869Y00057916D01*
X0041073Y00058573D01*
X00410757Y00058674D01*
X00405638D01*
Y00053555D01*
X00405739Y00053582D01*
X00406396Y00052443D01*
X00390332Y0003638D01*
X00390237Y00036291D01*
X00389612Y00035783D01*
X00388981Y00035344D01*
X00388341Y00034969D01*
X00387691Y00034657D01*
X0038703Y00034405D01*
X00386354Y00034211D01*
X00385659Y00034075D01*
X00384942Y00033995D01*
X00384118Y00033971D01*
X0038395Y00033932D01*
X00382991D01*
X00380821Y00033351D01*
X00378875Y00032227D01*
X00377287Y00030639D01*
X00376163Y00028693D01*
X00375582Y00026523D01*
Y00024277D01*
X00376163Y00022107D01*
X00377287Y00020161D01*
X00378875Y00018573D01*
X00380821Y00017449D01*
X00382991Y00016868D01*
X00385237D01*
X00387407Y00017449D01*
X00389353Y00018573D01*
X00390941Y00020161D01*
X00392065Y00022107D01*
X00392646Y00024277D01*
Y00025236D01*
X00392685Y00025404D01*
X00392709Y00026228D01*
X00392789Y00026945D01*
X00392925Y0002764D01*
X00393119Y00028316D01*
X00393371Y00028977D01*
X00393683Y00029627D01*
X00394058Y00030267D01*
X00394497Y00030898D01*
X00395005Y00031523D01*
X00395094Y00031619D01*
X00428847Y00065371D01*
X00429576Y00066464D01*
X00429833Y00067752D01*
X00429833Y00067752D01*
Y00155577D01*
X00453267Y00179012D01*
X0045447Y00178419D01*
Y00177258D01*
X00455079Y00175788D01*
X00455925Y00174942D01*
X00455531Y00173672D01*
X00455492D01*
X00453275Y00172754D01*
X00451578Y00171057D01*
X0045066Y0016884D01*
Y0016644D01*
X00450736Y00166258D01*
Y0013335D01*
X00451189Y00131071D01*
X0045248Y00129138D01*
X00467228Y0011439D01*
X00466702Y0011312D01*
X00465752D01*
X00463535Y00112202D01*
X00461838Y00110505D01*
X0046092Y00108288D01*
Y00105888D01*
X00461838Y00103671D01*
X00463535Y00101974D01*
X00465752Y00101056D01*
X00466744D01*
X00466895Y00101019D01*
X00467212Y00101004D01*
X0046743Y00100969D01*
X00467673Y00100905D01*
X00467943Y00100804D01*
X00468242Y00100661D01*
X00468568Y00100473D01*
X00468895Y00100253D01*
X00469615Y00099663D01*
X00472599Y00096679D01*
X00473692Y0009595D01*
X0047498Y00095693D01*
X00481484D01*
X0048174Y00095679D01*
X00482759Y00095558D01*
X00483169Y00095479D01*
X00483567Y0009538D01*
X0048393Y00095268D01*
X00484258Y00095143D01*
X00484402Y00095077D01*
X00484517Y00094962D01*
X00486734Y00094044D01*
X00489134D01*
X00491351Y00094962D01*
X00493048Y00096659D01*
X00493966Y00098876D01*
Y00101276D01*
X00493048Y00103493D01*
X00491351Y0010519D01*
X00489134Y00106108D01*
X00486734D01*
X00484517Y0010519D01*
X0048282Y00103493D01*
X00482649Y0010308D01*
X00482612Y00103025D01*
X00482551Y0010296D01*
X00482455Y00102883D01*
X00482306Y00102794D01*
X00482092Y00102698D01*
X00481806Y00102605D01*
X00481447Y00102523D01*
X00481015Y00102458D01*
X0048063Y00102427D01*
X00476375D01*
X00474331Y0010447D01*
X00474092Y00104747D01*
X00473804Y00105121D01*
X00473567Y00105472D01*
X00473379Y00105798D01*
X00473236Y00106097D01*
X00473135Y00106368D01*
X00473071Y0010661D01*
X00473036Y00106828D01*
X00473021Y00107145D01*
X00472984Y00107296D01*
Y00108288D01*
X00472193Y00110196D01*
X00472469Y00110854D01*
X00472568Y00110999D01*
X00472968Y00111391D01*
X00518556D01*
X00518738Y00111316D01*
X00521138D01*
X00523355Y00112234D01*
X00525052Y00113931D01*
X0052597Y00116148D01*
Y00118548D01*
X00525052Y00120765D01*
X00523355Y00122462D01*
X00521138Y0012338D01*
X00518738D01*
X00518556Y00123305D01*
X00489717D01*
X00489465Y00124574D01*
X004902Y00124879D01*
X00490793Y00125473D01*
X00490791Y0012547D01*
Y00127D01*
X00485077D01*
Y0012547D01*
X00485075Y00125473D01*
X00485668Y00124879D01*
X00486403Y00124574D01*
X00486151Y00123305D01*
X00475161D01*
X00462649Y00135817D01*
Y00147324D01*
X00463822Y0014781D01*
X00470408Y00141224D01*
X00565822D01*
Y00010278D01*
X00566177Y00008494D01*
X00567188Y00006982D01*
X00569533Y00004637D01*
X00569007Y00003367D01*
X00190754D01*
Y00154432D01*
X00345948D01*
X00357846Y0016633D01*
X00359918D01*
X00360711Y00166488D01*
X00361383Y00166937D01*
X00361832Y00167609D01*
X0036199Y00168402D01*
Y00189226D01*
Y0023647D01*
Y00258568D01*
Y00316988D01*
Y00366268D01*
Y0053086D01*
Y0057404D01*
X00361832Y00574833D01*
X00361383Y00575505D01*
X00360711Y00575954D01*
X00359918Y00576112D01*
Y00582308D01*
X00542109D01*
X00567327Y0055709D01*
X00567402Y00556907D01*
X00569099Y0055521D01*
X00571316Y00554292D01*
X00573716D01*
X00575933Y0055521D01*
X0057763Y00556907D01*
X00578548Y00559124D01*
Y00561524D01*
X0057763Y00563741D01*
X00575933Y00565438D01*
X00575751Y00565513D01*
X00548788Y00592476D01*
X00546855Y00593767D01*
X00544576Y00594221D01*
X00359918D01*
Y00598867D01*
X00593678D01*
X00593845Y00597597D01*
X00593739Y00597569D01*
X00592021Y00596577D01*
X00590619Y00595175D01*
X00589627Y00593457D01*
X00589114Y00591542D01*
Y00589558D01*
X00589627Y00587643D01*
X00590619Y00585925D01*
X00592021Y00584523D01*
X00593739Y00583531D01*
X00595654Y00583018D01*
X00597638D01*
X00599553Y00583531D01*
X00601271Y00584523D01*
X00602673Y00585925D01*
X00603665Y00587643D01*
X00604178Y00589558D01*
Y00591542D01*
X00603665Y00593457D01*
X00602673Y00595175D01*
X00601271Y00596577D01*
X00599553Y00597569D01*
X00599446Y00597597D01*
X00599614Y00598867D01*
X00997139D01*
Y00009144D01*
D02*
G37*
G36*
X00397225Y00567308D02*
X00396965Y0056695D01*
X00396736Y00566553D01*
X00396537Y00566118D01*
X00396368Y00565643D01*
X00396231Y0056513D01*
X00396124Y00564579D01*
X00396047Y00563988D01*
X00396001Y00563359D01*
X00395986Y00562691D01*
X00393446D01*
X00393431Y00563359D01*
X00393308Y00564579D01*
X00393201Y0056513D01*
X00393064Y00565643D01*
X00392895Y00566118D01*
X00392696Y00566553D01*
X00392467Y0056695D01*
X00392207Y00567308D01*
X00391916Y00567627D01*
X00397516D01*
X00397225Y00567308D01*
D02*
G37*
G36*
X00879795Y00548318D02*
X00879535Y0054796D01*
X00879306Y00547563D01*
X00879107Y00547128D01*
X00878939Y00546653D01*
X00878801Y0054614D01*
X00878694Y00545589D01*
X00878617Y00544998D01*
X00878571Y00544369D01*
X00878556Y00543701D01*
X00876016D01*
X00876001Y00544369D01*
X00875878Y00545589D01*
X00875771Y0054614D01*
X00875633Y00546653D01*
X00875465Y00547128D01*
X00875266Y00547563D01*
X00875037Y0054796D01*
X00874777Y00548318D01*
X00874486Y00548637D01*
X00880086D01*
X00879795Y00548318D01*
D02*
G37*
G36*
Y00477198D02*
X00879535Y0047684D01*
X00879306Y00476443D01*
X00879107Y00476008D01*
X00878939Y00475533D01*
X00878801Y0047502D01*
X00878694Y00474469D01*
X00878617Y00473878D01*
X00878571Y00473249D01*
X00878556Y00472581D01*
X00876016D01*
X00876001Y00473249D01*
X00875878Y00474469D01*
X00875771Y0047502D01*
X00875633Y00475533D01*
X00875465Y00476008D01*
X00875266Y00476443D01*
X00875037Y0047684D01*
X00874777Y00477198D01*
X00874486Y00477517D01*
X00880086D01*
X00879795Y00477198D01*
D02*
G37*
G36*
X00397892Y00456661D02*
X0039825Y00456401D01*
X00398647Y00456172D01*
X00399082Y00455973D01*
X00399557Y00455804D01*
X0040007Y00455667D01*
X00400621Y0045556D01*
X00401212Y00455483D01*
X00401841Y00455437D01*
X00402509Y00455422D01*
Y00452882D01*
X00401841Y00452867D01*
X00400621Y00452744D01*
X0040007Y00452637D01*
X00399557Y004525D01*
X00399082Y00452331D01*
X00398647Y00452132D01*
X0039825Y00451903D01*
X00397892Y00451643D01*
X00397573Y00451352D01*
Y00456952D01*
X00397892Y00456661D01*
D02*
G37*
G36*
X00742411Y00446404D02*
X00742151Y00446046D01*
X00741922Y00445649D01*
X00741723Y00445214D01*
X00741554Y00444739D01*
X00741417Y00444226D01*
X0074131Y00443675D01*
X00741233Y00443084D01*
X00741187Y00442455D01*
X00741172Y00441787D01*
X00738632D01*
X00738617Y00442455D01*
X00738494Y00443675D01*
X00738387Y00444226D01*
X0073825Y00444739D01*
X00738081Y00445214D01*
X00737882Y00445649D01*
X00737653Y00446046D01*
X00737393Y00446404D01*
X00737102Y00446723D01*
X00742702D01*
X00742411Y00446404D01*
D02*
G37*
G36*
X00591874Y00423579D02*
X00591911Y00423533D01*
X0059201Y00423632D01*
X00592037Y00423535D01*
X00592121Y00423388D01*
X00592261Y00423193D01*
X00592458Y00422949D01*
X00593007Y00422341D01*
X00597202Y00418072D01*
X0059361Y0041448D01*
X00589234Y00418684D01*
X00588147Y00419645D01*
X0058805Y00419672D01*
X00588126Y00419748D01*
X00588008Y00419862D01*
X0059182Y00423674D01*
X00591874Y00423579D01*
D02*
G37*
G36*
X00570986Y00412009D02*
X00570693Y00412314D01*
X00570358Y00412587D01*
X00569981Y00412828D01*
X00569562Y00413036D01*
X00569101Y00413213D01*
X00568597Y00413358D01*
X00568051Y0041347D01*
X00567463Y0041355D01*
X00566833Y00413599D01*
X00566161Y00413615D01*
X00566358Y00416155D01*
X00567021Y00416169D01*
X00568241Y00416284D01*
X00568798Y00416385D01*
X0056932Y00416514D01*
X00569806Y00416673D01*
X00570257Y0041686D01*
X00570672Y00417076D01*
X00571051Y0041732D01*
X00571396Y00417593D01*
X00570986Y00412009D01*
D02*
G37*
G36*
X0058681Y0041764D02*
X00587287D01*
X0058783Y0041716D01*
X00590371Y00414719D01*
X00616579Y00388511D01*
X00616893Y00388061D01*
X00617104Y00387639D01*
X00617211Y00387283D01*
X00617243Y00386969D01*
X00617211Y00386655D01*
X00617104Y00386299D01*
X00616893Y00385877D01*
X00616579Y00385427D01*
X00585063Y00353912D01*
X00536465D01*
X00536418Y00353913D01*
X00535688Y00353969D01*
X00535039Y00354618D01*
X00532822Y00355536D01*
X00530422D01*
X00528205Y00354618D01*
X00526508Y00352921D01*
X0052559Y00350704D01*
Y00348304D01*
X00526508Y00346087D01*
X00526845Y0034575D01*
X0052696Y00343877D01*
Y00278791D01*
X00504907Y00256738D01*
X0050397Y00255867D01*
X00503183Y00255235D01*
X00502486Y00254749D01*
X00502301Y00254642D01*
X0049034D01*
Y00235578D01*
X0050011D01*
X00500157Y00235569D01*
X00500204Y00235578D01*
X00502285D01*
X00502498Y00235456D01*
X00503168Y0023499D01*
X00504672Y00233718D01*
X00544329Y0019406D01*
X00543839Y00192889D01*
X00476758Y00193294D01*
X00463396Y00179932D01*
X00461898Y0018023D01*
X00461861Y0018032D01*
X00460736Y00181445D01*
X00459266Y00182054D01*
X00458105D01*
X00457512Y00183257D01*
X00468217Y00193961D01*
X00468946Y00195054D01*
X00469203Y00196342D01*
Y00344808D01*
X00487551Y00363155D01*
X00566463D01*
X00566828Y00363129D01*
X00567296Y00363068D01*
X00567712Y00362987D01*
X00568076Y0036289D01*
X00568388Y00362779D01*
X0056865Y00362659D01*
X00568867Y00362533D01*
X00569046Y00362404D01*
X00569281Y0036219D01*
X00569413Y0036211D01*
X00570115Y00361408D01*
X00572332Y0036049D01*
X00574732D01*
X00576949Y00361408D01*
X00578646Y00363105D01*
X00579564Y00365322D01*
Y00367722D01*
X00578646Y00369939D01*
X00576949Y00371636D01*
X00574732Y00372554D01*
X00572332D01*
X00570115Y00371636D01*
X00569413Y00370934D01*
X00569013Y00370927D01*
X00568882Y00371057D01*
X00568283Y00372288D01*
X00568896Y00373768D01*
Y00376168D01*
X00567978Y00378385D01*
X00566281Y00380082D01*
X00564064Y00381D01*
X00561664D01*
X00561033Y00380738D01*
X00560378Y00381274D01*
X00560006Y00381688D01*
Y00383978D01*
X00559088Y00386195D01*
X00557391Y00387892D01*
X00555174Y0038881D01*
X00552774D01*
X00550557Y00387892D01*
X00549855Y0038719D01*
X00549723Y0038711D01*
X00549488Y00386896D01*
X0054931Y00386767D01*
X00549092Y00386641D01*
X00548829Y00386521D01*
X00548518Y0038641D01*
X00548154Y00386313D01*
X00547767Y00386238D01*
X00547404Y00386201D01*
X00546826Y0038742D01*
X00547404Y00387997D01*
X00548322Y00390214D01*
Y00392614D01*
X00548047Y00393276D01*
X0054901Y00394272D01*
X0055111D01*
X00553327Y0039519D01*
X00555024Y00396887D01*
X00555942Y00399104D01*
Y00401504D01*
X00555191Y00403316D01*
X00555194Y00403344D01*
X00555462Y00404D01*
X00555673Y00404267D01*
X00555966Y00404513D01*
X0055612Y0040449D01*
X00556478Y00404408D01*
X00556762Y00404315D01*
X00556973Y0040422D01*
X00557118Y00404132D01*
X00557211Y00404058D01*
X00557268Y00403995D01*
X00557319Y0040392D01*
X00557496Y00403491D01*
X00559193Y00401794D01*
X0056141Y00400876D01*
X0056381D01*
X00566027Y00401794D01*
X00567724Y00403491D01*
X00568642Y00405708D01*
Y00408108D01*
X00568085Y00409453D01*
X00568868Y0041069D01*
X00569335Y00410737D01*
X00569491Y00410574D01*
X00569611Y0041049D01*
X00570623Y00409478D01*
X0057284Y0040856D01*
X0057524D01*
X00577457Y00409478D01*
X00579154Y00411175D01*
X00580072Y00413392D01*
Y00415792D01*
X00579683Y00416732D01*
X00580388Y00417788D01*
X00586452D01*
X0058681Y0041764D01*
D02*
G37*
G36*
X00559121Y00404951D02*
X00558901Y0040528D01*
X0055863Y00405575D01*
X00558308Y00405834D01*
X00557934Y00406059D01*
X00557509Y0040625D01*
X00557033Y00406406D01*
X00556506Y00406527D01*
X00555927Y00406613D01*
X00555298Y00406665D01*
X00554616Y00406683D01*
X00555348Y00409223D01*
X00555995Y00409234D01*
X00557207Y00409325D01*
X00557772Y00409404D01*
X00558819Y00409631D01*
X00559302Y00409779D01*
X00559757Y00409949D01*
X00560184Y00410141D01*
X00560584Y00410357D01*
X00559121Y00404951D01*
D02*
G37*
G36*
X00547053Y00397504D02*
X00546734Y00397795D01*
X00546376Y00398055D01*
X00545979Y00398284D01*
X00545544Y00398483D01*
X00545069Y00398652D01*
X00544556Y00398789D01*
X00544005Y00398896D01*
X00543414Y00398973D01*
X00542785Y00399019D01*
X00542117Y00399034D01*
Y00401574D01*
X00542785Y00401589D01*
X00544005Y00401712D01*
X00544556Y00401819D01*
X00545069Y00401956D01*
X00545544Y00402125D01*
X00545979Y00402324D01*
X00546376Y00402553D01*
X00546734Y00402813D01*
X00547053Y00403104D01*
Y00397504D01*
D02*
G37*
G36*
X00707149Y00395312D02*
X0070725Y00394113D01*
X00707338Y00393587D01*
X00707452Y0039311D01*
X00707591Y00392682D01*
X00707755Y00392303D01*
X00707945Y00391973D01*
X0070816Y00391693D01*
X007084Y00391461D01*
X00703332D01*
X00703572Y00391693D01*
X00703787Y00391973D01*
X00703977Y00392303D01*
X00704141Y00392682D01*
X0070428Y0039311D01*
X00704394Y00393587D01*
X00704482Y00394113D01*
X00704545Y00394688D01*
X00704596Y00395986D01*
X00707136D01*
X00707149Y00395312D01*
D02*
G37*
G36*
X00875729Y00390646D02*
X0087541Y00390937D01*
X00875052Y00391197D01*
X00874655Y00391426D01*
X0087422Y00391625D01*
X00873745Y00391794D01*
X00873232Y00391931D01*
X00872681Y00392038D01*
X0087209Y00392115D01*
X00871461Y00392161D01*
X00870793Y00392176D01*
Y00394716D01*
X00871461Y00394731D01*
X00872681Y00394854D01*
X00873232Y00394961D01*
X00873745Y00395098D01*
X0087422Y00395267D01*
X00874655Y00395466D01*
X00875052Y00395695D01*
X0087541Y00395955D01*
X00875729Y00396246D01*
Y00390646D01*
D02*
G37*
G36*
X00539617Y00388438D02*
X00539276Y00388714D01*
X00538899Y00388961D01*
X00538486Y00389179D01*
X00538037Y00389367D01*
X00537553Y00389527D01*
X00537032Y00389658D01*
X00536476Y00389759D01*
X00535884Y00389832D01*
X00535256Y00389875D01*
X00534592Y0038989D01*
X00534421Y0039243D01*
X00535093Y00392446D01*
X00536311Y00392574D01*
X00536858Y00392686D01*
X00537363Y00392829D01*
X00537826Y00393005D01*
X00538247Y00393213D01*
X00538627Y00393452D01*
X00538965Y00393723D01*
X00539261Y00394027D01*
X00539617Y00388438D01*
D02*
G37*
G36*
X00551117Y00379978D02*
X00550798Y00380269D01*
X0055044Y00380529D01*
X00550043Y00380758D01*
X00549608Y00380957D01*
X00549133Y00381125D01*
X0054862Y00381263D01*
X00548069Y0038137D01*
X00547478Y00381447D01*
X00546849Y00381493D01*
X00546181Y00381508D01*
Y00384048D01*
X00546849Y00384063D01*
X00548069Y00384186D01*
X0054862Y00384293D01*
X00549133Y00384431D01*
X00549608Y00384599D01*
X00550043Y00384798D01*
X0055044Y00385027D01*
X00550798Y00385287D01*
X00551117Y00385578D01*
Y00379978D01*
D02*
G37*
G36*
X00626509Y00388765D02*
X00628305Y00379785D01*
X00627587Y00380431D01*
X00626868Y00380934D01*
X0062615Y00381293D01*
X00625431Y00381509D01*
X00624713Y00381581D01*
X00623995Y00381509D01*
X00623276Y00381293D01*
X00622558Y00380934D01*
X00621839Y00380431D01*
X00621121Y00379785D01*
X00617529Y00383377D01*
X00618175Y00384095D01*
X00618678Y00384814D01*
X00619038Y00385532D01*
X00619253Y00386251D01*
X00619325Y00386969D01*
X00619253Y00387687D01*
X00619038Y00388406D01*
X00618678Y00389124D01*
X00618175Y00389843D01*
X00617529Y00390561D01*
X00626509Y00388765D01*
D02*
G37*
G36*
X00659281Y00382227D02*
X00659444Y00382182D01*
X00659681Y00382143D01*
X00659992Y0038211D01*
X00661374Y00382039D01*
X00663426Y00382016D01*
Y00376936D01*
X00662668Y00376933D01*
X00659281Y00376725D01*
X00659193Y00376676D01*
Y00382276D01*
X00659281Y00382227D01*
D02*
G37*
G36*
X00653479Y00376676D02*
X00653391Y00376725D01*
X00653229Y0037677D01*
X00652991Y00376809D01*
X0065268Y00376842D01*
X00651298Y00376913D01*
X00649246Y00376936D01*
Y00382016D01*
X00650004Y00382019D01*
X00653391Y00382227D01*
X00653479Y00382276D01*
Y00376676D01*
D02*
G37*
G36*
X00560007Y00372168D02*
X00559688Y00372459D01*
X0055933Y00372719D01*
X00558933Y00372948D01*
X00558498Y00373147D01*
X00558023Y00373316D01*
X0055751Y00373453D01*
X00556959Y0037356D01*
X00556368Y00373637D01*
X00555739Y00373683D01*
X00555071Y00373698D01*
Y00376238D01*
X00555739Y00376253D01*
X00556959Y00376376D01*
X0055751Y00376483D01*
X00558023Y0037662D01*
X00558498Y00376789D01*
X00558933Y00376988D01*
X0055933Y00377217D01*
X00559688Y00377477D01*
X00560007Y00377768D01*
Y00372168D01*
D02*
G37*
G36*
X00740017Y00370003D02*
X00742559Y00367755D01*
X00742656Y00367728D01*
X00738696Y00363768D01*
X00738669Y00363865D01*
X00738585Y00364012D01*
X00738445Y00364207D01*
X00738248Y00364451D01*
X00737321Y00365478D01*
X00735887Y00366945D01*
X00739479Y00370537D01*
X00740017Y00370003D01*
D02*
G37*
G36*
X00570675Y00363722D02*
X00570356Y00364013D01*
X00569998Y00364273D01*
X00569601Y00364502D01*
X00569166Y00364701D01*
X00568691Y00364869D01*
X00568178Y00365007D01*
X00567627Y00365114D01*
X00567036Y00365191D01*
X00566407Y00365237D01*
X00565739Y00365252D01*
Y00367792D01*
X00566407Y00367807D01*
X00567627Y0036793D01*
X00568178Y00368037D01*
X00568691Y00368175D01*
X00569166Y00368343D01*
X00569601Y00368542D01*
X00569998Y00368771D01*
X00570356Y00369031D01*
X00570675Y00369322D01*
Y00363722D01*
D02*
G37*
G36*
X00759683Y00352932D02*
X00759423Y00352574D01*
X00759194Y00352177D01*
X00758995Y00351742D01*
X00758827Y00351267D01*
X00758689Y00350754D01*
X00758582Y00350203D01*
X00758505Y00349612D01*
X00758459Y00348983D01*
X00758444Y00348315D01*
X00755904D01*
X00755889Y00348983D01*
X00755766Y00350203D01*
X00755659Y00350754D01*
X00755521Y00351267D01*
X00755353Y00351742D01*
X00755154Y00352177D01*
X00754925Y00352574D01*
X00754665Y00352932D01*
X00754374Y00353251D01*
X00759974D01*
X00759683Y00352932D01*
D02*
G37*
G36*
X00534744Y00352055D02*
X00534911Y00351999D01*
X00535152Y0035195D01*
X00535467Y00351908D01*
X00536317Y00351842D01*
X00538904Y0035179D01*
X00538484Y0034671D01*
X00534365Y00346531D01*
X00534328Y00346396D01*
X00534289Y00346159D01*
X00534256Y00345848D01*
X00534185Y00344466D01*
X00534162Y00342414D01*
X00529082D01*
X00529079Y00343172D01*
X00528871Y00346559D01*
X00528822Y00346647D01*
X00534303D01*
X00534651Y00352117D01*
X00534744Y00352055D01*
D02*
G37*
G36*
X00395493Y00344183D02*
X00395616Y00342963D01*
X00395723Y00342412D01*
X0039586Y00341899D01*
X00396029Y00341424D01*
X00396228Y00340989D01*
X00396457Y00340592D01*
X00396717Y00340234D01*
X00397008Y00339915D01*
X00391408D01*
X00391699Y00340234D01*
X00391959Y00340592D01*
X00392188Y00340989D01*
X00392387Y00341424D01*
X00392556Y00341899D01*
X00392693Y00342412D01*
X003928Y00342963D01*
X00392877Y00343554D01*
X00392923Y00344183D01*
X00392938Y00344851D01*
X00395478D01*
X00395493Y00344183D01*
D02*
G37*
G36*
X00764853Y00321858D02*
X00764391Y00321375D01*
X00763615Y00320426D01*
X00763301Y0031996D01*
X00763035Y003195D01*
X00762819Y00319046D01*
X00762652Y00318597D01*
X00762533Y00318155D01*
X00762464Y00317717D01*
X00762444Y00317286D01*
X00758484Y00321246D01*
X00758915Y00321266D01*
X00759352Y00321335D01*
X00759795Y00321454D01*
X00760244Y00321621D01*
X00760698Y00321837D01*
X00761158Y00322103D01*
X00761624Y00322417D01*
X00762096Y0032278D01*
X00762573Y00323193D01*
X00763056Y00323655D01*
X00764853Y00321858D01*
D02*
G37*
G36*
X00752577Y0031991D02*
X00752116Y00319427D01*
X0075134Y00318478D01*
X00751025Y00318012D01*
X0075076Y00317552D01*
X00750544Y00317097D01*
X00750376Y00316649D01*
X00750258Y00316206D01*
X00750189Y00315769D01*
X00750169Y00315337D01*
X00746209Y00319297D01*
X0074664Y00319317D01*
X00747077Y00319387D01*
X0074752Y00319505D01*
X00747969Y00319672D01*
X00748423Y00319889D01*
X00748883Y00320154D01*
X00749349Y00320468D01*
X00749821Y00320832D01*
X00750298Y00321244D01*
X00750781Y00321706D01*
X00752577Y0031991D01*
D02*
G37*
G36*
X00765919Y00310987D02*
X00765464Y00310514D01*
X00764677Y00309579D01*
X00764344Y00309117D01*
X00764052Y00308659D01*
X007638Y00308204D01*
X0076359Y00307754D01*
X0076342Y00307307D01*
X0076329Y00306864D01*
X00763202Y00306425D01*
X00759946Y00310981D01*
X00760354Y00310938D01*
X00760771Y00310952D01*
X00761198Y00311022D01*
X00761634Y00311149D01*
X00762078Y00311332D01*
X00762532Y00311573D01*
X00762996Y00311869D01*
X00763468Y00312223D01*
X00763949Y00312633D01*
X00764439Y00313099D01*
X00765919Y00310987D01*
D02*
G37*
G36*
X00873157Y00309791D02*
X00874106Y00309015D01*
X00874572Y00308701D01*
X00875032Y00308435D01*
X00875486Y00308219D01*
X00875935Y00308052D01*
X00876377Y00307933D01*
X00876815Y00307864D01*
X00877246Y00307844D01*
X00873286Y00303884D01*
X00873266Y00304315D01*
X00873197Y00304753D01*
X00873078Y00305195D01*
X00872911Y00305644D01*
X00872695Y00306098D01*
X00872429Y00306558D01*
X00872115Y00307024D01*
X00871751Y00307496D01*
X00871339Y00307973D01*
X00870878Y00308456D01*
X00872673Y00310252D01*
X00873157Y00309791D01*
D02*
G37*
G36*
X00764853Y00300522D02*
X00764391Y00300039D01*
X00763615Y0029909D01*
X00763301Y00298624D01*
X00763035Y00298164D01*
X00762819Y0029771D01*
X00762652Y00297261D01*
X00762533Y00296819D01*
X00762464Y00296381D01*
X00762444Y0029595D01*
X00758484Y0029991D01*
X00758915Y0029993D01*
X00759352Y00299999D01*
X00759795Y00300118D01*
X00760244Y00300285D01*
X00760698Y00300501D01*
X00761158Y00300767D01*
X00761624Y00301081D01*
X00762096Y00301444D01*
X00762573Y00301857D01*
X00763056Y00302318D01*
X00764853Y00300522D01*
D02*
G37*
G36*
X00771612Y0028937D02*
X00771181Y0028935D01*
X00770743Y00289281D01*
X00770301Y00289162D01*
X00769852Y00288995D01*
X00769398Y00288779D01*
X00768938Y00288513D01*
X00768472Y00288199D01*
X00768Y00287836D01*
X00767523Y00287423D01*
X00767039Y00286961D01*
X00765244Y00288757D01*
X00765705Y00289241D01*
X00766481Y0029019D01*
X00766795Y00290656D01*
X00767061Y00291116D01*
X00767277Y0029157D01*
X00767444Y00292019D01*
X00767563Y00292461D01*
X00767632Y00292899D01*
X00767652Y0029333D01*
X00771612Y0028937D01*
D02*
G37*
G36*
X00510934Y00252579D02*
X00509925Y00251535D01*
X00508338Y00249664D01*
X0050776Y00248836D01*
X00507326Y00248082D01*
X00507036Y002474D01*
X00506889Y0024679D01*
X00506886Y00246252D01*
X00507027Y00245788D01*
X00507311Y00245395D01*
X00500157Y00252549D01*
X0050055Y00252265D01*
X00501015Y00252124D01*
X00501552Y00252127D01*
X00502162Y00252274D01*
X00502844Y00252564D01*
X00503598Y00252998D01*
X00504426Y00253576D01*
X00505325Y00254298D01*
X00507341Y00256172D01*
X00510934Y00252579D01*
D02*
G37*
G36*
X00756377Y00252397D02*
X00756481Y00252098D01*
X00756635Y00251772D01*
X00756838Y00251419D01*
X00757091Y00251039D01*
X00757747Y00250199D01*
X0075815Y00249739D01*
X00759106Y00248738D01*
X00757309Y00246942D01*
X00756889Y00247345D01*
X00756106Y00247991D01*
X00755743Y00248234D01*
X00755399Y00248423D01*
X00755074Y00248558D01*
X00754769Y0024864D01*
X00754482Y00248668D01*
X00754215Y00248643D01*
X00753967Y00248564D01*
X00756323Y00252669D01*
X00756377Y00252397D01*
D02*
G37*
G36*
X00507054Y0024443D02*
X0050691Y00243963D01*
Y00243424D01*
X00507054Y00242813D01*
X00507341Y00242131D01*
X00507773Y00241376D01*
X00508347Y0024055D01*
X00509066Y00239652D01*
X00510934Y0023764D01*
X00507341Y00234048D01*
X005063Y00235054D01*
X00504432Y00236635D01*
X00503606Y00237209D01*
X00502851Y0023764D01*
X00502169Y00237928D01*
X00501558Y00238072D01*
X00501019D01*
X00500552Y00237928D01*
X00500157Y0023764D01*
X00507341Y00244825D01*
X00507054Y0024443D01*
D02*
G37*
G36*
X00396255Y00235217D02*
X00396378Y00233997D01*
X00396485Y00233446D01*
X00396623Y00232933D01*
X00396791Y00232458D01*
X0039699Y00232023D01*
X00397219Y00231626D01*
X00397479Y00231268D01*
X0039777Y00230949D01*
X0039217D01*
X00392461Y00231268D01*
X00392721Y00231626D01*
X0039295Y00232023D01*
X00393149Y00232458D01*
X00393317Y00232933D01*
X00393455Y00233446D01*
X00393562Y00233997D01*
X00393639Y00234588D01*
X00393685Y00235217D01*
X003937Y00235885D01*
X0039624D01*
X00396255Y00235217D01*
D02*
G37*
G36*
X00788861Y00229864D02*
X00788542Y00230155D01*
X00788184Y00230415D01*
X00787787Y00230644D01*
X00787352Y00230843D01*
X00786877Y00231012D01*
X00786364Y00231149D01*
X00785813Y00231256D01*
X00785222Y00231333D01*
X00784593Y00231379D01*
X00783925Y00231394D01*
Y00233934D01*
X00784593Y00233949D01*
X00785813Y00234072D01*
X00786364Y00234179D01*
X00786877Y00234317D01*
X00787352Y00234485D01*
X00787787Y00234684D01*
X00788184Y00234913D01*
X00788542Y00235173D01*
X00788861Y00235464D01*
Y00229864D01*
D02*
G37*
G36*
X00561208Y00177182D02*
X0056272Y00176171D01*
X00564504Y00175816D01*
X00564888D01*
X00565016Y00175783D01*
X00565144Y0017572D01*
X00565247Y00175638D01*
X00565365Y00175495D01*
X00565503Y00175247D01*
X00565643Y00174863D01*
X00565762Y00174335D01*
X00565822Y00173828D01*
Y0014351D01*
X00471678D01*
X00464312Y00150876D01*
Y00172875D01*
X00463083Y00171646D01*
X00462599Y00172107D01*
X0046165Y00172883D01*
X00461184Y00173197D01*
X00460724Y00173463D01*
X0046027Y00173679D01*
X00459821Y00173846D01*
X00459379Y00173965D01*
X00458941Y00174034D01*
X0045851Y00174054D01*
X0046247Y00178014D01*
X0046249Y00177583D01*
X00462559Y00177146D01*
X00462678Y00176703D01*
X00462845Y00176254D01*
X00463061Y001758D01*
X00463327Y0017534D01*
X00463641Y00174874D01*
X00464005Y00174402D01*
X00464312Y00174046D01*
Y00178562D01*
X00469763Y00184013D01*
X0047084Y00183294D01*
X00470668Y0018288D01*
X00473202D01*
Y00185413D01*
X00472788Y00185242D01*
X00472069Y00186319D01*
X00477266Y00191516D01*
X00546874D01*
X00561208Y00177182D01*
D02*
G37*
G36*
X00578104Y00177938D02*
X00577139Y00177887D01*
X00576275Y00177735D01*
X00575513Y00177481D01*
X00574853Y00177125D01*
X00574294Y00176668D01*
X00573837Y00176109D01*
X00573481Y00175449D01*
X00573227Y00174687D01*
X00573075Y00173823D01*
X00573024Y00172858D01*
X00567944D01*
X0056791Y00173823D01*
X00567806Y00174687D01*
X00567634Y00175449D01*
X00567394Y00176109D01*
X00567084Y00176668D01*
X00566706Y00177125D01*
X00566259Y00177481D01*
X00565742Y00177735D01*
X00565158Y00177887D01*
X00564504Y00177938D01*
X00570484Y00183018D01*
X00578104Y00177938D01*
D02*
G37*
G36*
X00719987Y00176741D02*
X0072015Y00176696D01*
X00720387Y00176657D01*
X00720698Y00176624D01*
X0072208Y00176553D01*
X00724132Y0017653D01*
Y0017145D01*
X00723374Y00171447D01*
X00719987Y00171239D01*
X00719899Y0017119D01*
Y0017679D01*
X00719987Y00176741D01*
D02*
G37*
G36*
X00714185Y0017119D02*
X00714097Y00171239D01*
X00713934Y00171284D01*
X00713697Y00171323D01*
X00713386Y00171356D01*
X00712004Y00171427D01*
X00709952Y0017145D01*
Y0017653D01*
X0071071Y00176533D01*
X00714097Y00176741D01*
X00714185Y0017679D01*
Y0017119D01*
D02*
G37*
G36*
X0074799Y00136208D02*
X00747559Y00136188D01*
X00747122Y00136119D01*
X00746679Y00136D01*
X0074623Y00135833D01*
X00745776Y00135617D01*
X00745316Y00135351D01*
X0074485Y00135037D01*
X00744378Y00134674D01*
X00743901Y00134261D01*
X00743418Y00133799D01*
X00741621Y00135596D01*
X00742083Y00136079D01*
X00742859Y00137028D01*
X00743173Y00137494D01*
X00743439Y00137954D01*
X00743655Y00138408D01*
X00743822Y00138857D01*
X00743941Y00139299D01*
X0074401Y00139737D01*
X0074403Y00140168D01*
X0074799Y00136208D01*
D02*
G37*
G36*
X00470972Y00106617D02*
X00471041Y0010618D01*
X0047116Y00105737D01*
X00471327Y00105288D01*
X00471543Y00104834D01*
X00471809Y00104374D01*
X00472123Y00103908D01*
X00472486Y00103436D01*
X00472899Y00102959D01*
X0047336Y00102476D01*
X00471564Y0010068D01*
X00471081Y00101141D01*
X00470132Y00101917D01*
X00469666Y00102231D01*
X00469206Y00102497D01*
X00468752Y00102713D01*
X00468303Y0010288D01*
X0046786Y00102999D01*
X00467423Y00103068D01*
X00466992Y00103088D01*
X00470952Y00107048D01*
X00470972Y00106617D01*
D02*
G37*
G36*
X00485882Y00096642D02*
X00485484Y0009686D01*
X00485058Y00097055D01*
X00484605Y00097228D01*
X00484123Y00097377D01*
X00483614Y00097503D01*
X00483077Y00097606D01*
X0048192Y00097744D01*
X004813Y00097779D01*
X00480652Y0009779D01*
X00479942Y0010033D01*
X00480623Y00100347D01*
X00481253Y00100399D01*
X00481832Y00100486D01*
X0048236Y00100607D01*
X00482837Y00100762D01*
X00483264Y00100952D01*
X00483639Y00101177D01*
X00483964Y00101436D01*
X00484237Y0010173D01*
X0048446Y00102059D01*
X00485882Y00096642D01*
D02*
G37*
G36*
X00385671Y00071833D02*
X00385769Y00070884D01*
X00385933Y0006997D01*
X00386163Y00069093D01*
X00386458Y00068252D01*
X00386819Y00067446D01*
X00387245Y00066677D01*
X00387737Y00065944D01*
X00388295Y00065247D01*
X00388918Y00064586D01*
X00379818D01*
X00380441Y00065247D01*
X00380999Y00065944D01*
X00381491Y00066677D01*
X00381917Y00067446D01*
X00382278Y00068252D01*
X00382573Y00069093D01*
X00382803Y0006997D01*
X00382967Y00070884D01*
X00383065Y00071833D01*
X00383098Y00072819D01*
X00385638D01*
X00385671Y00071833D01*
D02*
G37*
G36*
X00964707Y00058433D02*
X0096483Y00057213D01*
X00964937Y00056662D01*
X00965074Y00056149D01*
X00965243Y00055674D01*
X00965442Y00055239D01*
X00965671Y00054842D01*
X00965931Y00054484D01*
X00966222Y00054165D01*
X00960622D01*
X00960913Y00054484D01*
X00961173Y00054842D01*
X00961402Y00055239D01*
X00961601Y00055674D01*
X00961769Y00056149D01*
X00961907Y00056662D01*
X00962014Y00057213D01*
X00962091Y00057804D01*
X00962137Y00058433D01*
X00962152Y00059101D01*
X00964692D01*
X00964707Y00058433D01*
D02*
G37*
G36*
X0063008Y0004877D02*
X00630438Y0004851D01*
X00630835Y0004828D01*
X00631271Y00048081D01*
X00631745Y00047913D01*
X00632258Y00047775D01*
X0063281Y00047668D01*
X006334Y00047592D01*
X0063403Y00047546D01*
X00634698Y00047531D01*
Y00044991D01*
X0063403Y00044975D01*
X0063281Y00044853D01*
X00632258Y00044746D01*
X00631745Y00044608D01*
X00631271Y0004444D01*
X00630835Y00044241D01*
X00630438Y00044011D01*
X0063008Y00043751D01*
X00629761Y00043461D01*
Y00049061D01*
X0063008Y0004877D01*
D02*
G37*
G36*
X00756548Y00040504D02*
X00756087Y00040025D01*
X00755321Y00039122D01*
X00755016Y00038698D01*
X00754764Y00038292D01*
X00754564Y00037904D01*
X00754417Y00037534D01*
X00754322Y00037182D01*
X00754279Y00036849D01*
X00754289Y00036533D01*
X00750781Y00040041D01*
X00751097Y00040031D01*
X0075143Y00040074D01*
X00751782Y00040169D01*
X00752152Y00040316D01*
X0075254Y00040516D01*
X00752946Y00040768D01*
X0075337Y00041073D01*
X00753813Y00041429D01*
X00754752Y000423D01*
X00756548Y00040504D01*
D02*
G37*
G36*
X00150876Y0057658D02*
Y0005461D01*
X00136144Y00039878D01*
X00010922D01*
X00004064Y00046736D01*
Y0008001D01*
X0001016Y00086106D01*
X00103124D01*
X00112522Y00095504D01*
Y0056134D01*
X00112522Y00577596D01*
X00115875Y00583184D01*
X00144272D01*
X00150876Y0057658D01*
D02*
G37*
G36*
X00250163Y00034957D02*
X00250201Y00034519D01*
X00250264Y00034133D01*
X00250353Y00033798D01*
X00250467Y00033515D01*
X00250606Y00033283D01*
X00250771Y00033103D01*
X00250961Y00032974D01*
X00251176Y00032897D01*
X00251417Y00032871D01*
X00246343D01*
X00246584Y00032897D01*
X00246799Y00032974D01*
X00246989Y00033103D01*
X00247154Y00033283D01*
X00247293Y00033515D01*
X00247407Y00033798D01*
X00247496Y00034133D01*
X00247559Y00034519D01*
X00247597Y00034957D01*
X0024761Y00035446D01*
X0025015D01*
X00250163Y00034957D01*
D02*
G37*
G36*
X00394116Y00033606D02*
X00393442Y00032886D01*
X0039284Y00032145D01*
X0039231Y00031383D01*
X00391852Y000306D01*
X00391466Y00029797D01*
X00391152Y00028972D01*
X0039091Y00028127D01*
X00390739Y0002726D01*
X0039064Y00026373D01*
X00390614Y00025465D01*
X00384179Y000319D01*
X00385087Y00031926D01*
X00385974Y00032025D01*
X00386841Y00032196D01*
X00387686Y00032438D01*
X00388511Y00032752D01*
X00389314Y00033138D01*
X00390097Y00033596D01*
X00390859Y00034126D01*
X003916Y00034728D01*
X0039232Y00035402D01*
X00394116Y00033606D01*
D02*
G37*
G36*
X00732727Y00004502D02*
X00732639Y00004551D01*
X00732477Y00004596D01*
X00732239Y00004635D01*
X00731928Y00004668D01*
X00730546Y00004739D01*
X00728494Y00004762D01*
Y00009842D01*
X00729252Y00009845D01*
X00732639Y00010053D01*
X00732727Y00010102D01*
Y00004502D01*
D02*
G37*
G36*
X00630071Y00010053D02*
X00630233Y00010008D01*
X00630471Y00009969D01*
X00630782Y00009936D01*
X00632164Y00009865D01*
X00634216Y00009842D01*
Y00004762D01*
X00633458Y00004759D01*
X00630071Y00004551D01*
X00629983Y00004502D01*
Y00010102D01*
X00630071Y00010053D01*
D02*
G37*
G36*
X00624269Y00004502D02*
X00624181Y00004551D01*
X00624019Y00004596D01*
X00623781Y00004635D01*
X0062347Y00004668D01*
X00622088Y00004739D01*
X00620036Y00004762D01*
Y00009842D01*
X00620794Y00009845D01*
X00624181Y00010053D01*
X00624269Y00010102D01*
Y00004502D01*
D02*
G37*
%LPC*%
G36*
X00866648Y00590544D02*
Y0058801D01*
X00869182D01*
X00868769Y00589006D01*
X00867644Y00590131D01*
X00866648Y00590544D01*
D02*
G37*
G36*
X00864108D02*
X00863112Y00590131D01*
X00861987Y00589006D01*
X00861574Y0058801D01*
X00864108D01*
Y00590544D01*
D02*
G37*
G36*
X00869182Y0058547D02*
X00866648D01*
Y00582937D01*
X00867644Y00583349D01*
X00868769Y00584474D01*
X00869182Y0058547D01*
D02*
G37*
G36*
X00864108D02*
X00861574D01*
X00861987Y00584474D01*
X00863112Y00583349D01*
X00864108Y00582937D01*
Y0058547D01*
D02*
G37*
G36*
X00502666Y00571754D02*
X00483616D01*
Y00560324D01*
X00502666D01*
Y00571754D01*
D02*
G37*
G36*
X00481076D02*
X00462026D01*
Y00560324D01*
X00481076D01*
Y00571754D01*
D02*
G37*
G36*
X00502666Y00557784D02*
X00483616D01*
Y00546354D01*
X00502666D01*
Y00557784D01*
D02*
G37*
G36*
X00481076D02*
X00462026D01*
Y00546354D01*
X00481076D01*
Y00557784D01*
D02*
G37*
G36*
X00444246Y00541274D02*
X00432816D01*
Y00522224D01*
X00444246D01*
Y00541274D01*
D02*
G37*
G36*
X00430276D02*
X00418846D01*
Y00522224D01*
X00430276D01*
Y00541274D01*
D02*
G37*
G36*
X00911098Y00516121D02*
Y00513588D01*
X00913632D01*
X00913219Y00514584D01*
X00912094Y00515709D01*
X00911098Y00516121D01*
D02*
G37*
G36*
X00908558D02*
X00907562Y00515709D01*
X00906437Y00514584D01*
X00906024Y00513588D01*
X00908558D01*
Y00516121D01*
D02*
G37*
G36*
X00913632Y00511048D02*
X00911098D01*
Y00508515D01*
X00912094Y00508927D01*
X00913219Y00510052D01*
X00913632Y00511048D01*
D02*
G37*
G36*
X00908558D02*
X00906024D01*
X00906437Y00510052D01*
X00907562Y00508927D01*
X00908558Y00508515D01*
Y00511048D01*
D02*
G37*
G36*
X00444246Y00519684D02*
X00432816D01*
Y00500634D01*
X00444246D01*
Y00519684D01*
D02*
G37*
G36*
X00430276D02*
X00418846D01*
Y00500634D01*
X00430276D01*
Y00519684D01*
D02*
G37*
G36*
X00856996Y005969D02*
X00761492D01*
X00761238Y00596646D01*
Y00497586D01*
X00856234D01*
X00857504Y00498856D01*
X00856996Y00499364D01*
Y005969D01*
D02*
G37*
G36*
X0073279Y00493769D02*
Y00491236D01*
X00735323D01*
X00734911Y00492232D01*
X00733786Y00493357D01*
X0073279Y00493769D01*
D02*
G37*
G36*
X0073025D02*
X00729254Y00493357D01*
X00728129Y00492232D01*
X00727717Y00491236D01*
X0073025D01*
Y00493769D01*
D02*
G37*
G36*
X00735323Y00488696D02*
X0073279D01*
Y00486162D01*
X00733786Y00486575D01*
X00734911Y004877D01*
X00735323Y00488696D01*
D02*
G37*
G36*
X0073025D02*
X00727717D01*
X00728129Y004877D01*
X00729254Y00486575D01*
X0073025Y00486162D01*
Y00488696D01*
D02*
G37*
G36*
X00504698Y00510286D02*
X00459994D01*
Y00480822D01*
X00504698D01*
Y00510286D01*
D02*
G37*
G36*
X00726878Y00478472D02*
X00724478D01*
X00722261Y00477554D01*
X00720564Y00475857D01*
X00719646Y0047364D01*
Y0047124D01*
X00720564Y00469023D01*
X00722261Y00467326D01*
X00724478Y00466408D01*
X00726878D01*
X00729095Y00467326D01*
X00730792Y00469023D01*
X0073171Y0047124D01*
Y0047364D01*
X00730792Y00475857D01*
X00729095Y00477554D01*
X00726878Y00478472D01*
D02*
G37*
G36*
X0091059Y00432809D02*
Y00430276D01*
X00913123D01*
X00912711Y00431272D01*
X00911586Y00432397D01*
X0091059Y00432809D01*
D02*
G37*
G36*
X0090805D02*
X00907054Y00432397D01*
X00905929Y00431272D01*
X00905517Y00430276D01*
X0090805D01*
Y00432809D01*
D02*
G37*
G36*
X00913123Y00427736D02*
X0091059D01*
Y00425202D01*
X00911586Y00425615D01*
X00912711Y0042674D01*
X00913123Y00427736D01*
D02*
G37*
G36*
X0090805D02*
X00905517D01*
X00905929Y0042674D01*
X00907054Y00425615D01*
X0090805Y00425202D01*
Y00427736D01*
D02*
G37*
G36*
X00438234Y00408559D02*
X00435526D01*
X00432909Y00407858D01*
X00430564Y00406504D01*
X00428648Y00404588D01*
X00427294Y00402243D01*
X00426593Y00399626D01*
Y00396918D01*
X00427294Y00394301D01*
X00428648Y00391956D01*
X00430564Y0039004D01*
X00432909Y00388686D01*
X00435526Y00387985D01*
X00438234D01*
X00440851Y00388686D01*
X00443196Y0039004D01*
X00445112Y00391956D01*
X00446466Y00394301D01*
X00447167Y00396918D01*
Y00399626D01*
X00446466Y00402243D01*
X00445112Y00404588D01*
X00443196Y00406504D01*
X00440851Y00407858D01*
X00438234Y00408559D01*
D02*
G37*
G36*
Y00383159D02*
X00435526D01*
X00432909Y00382458D01*
X00430564Y00381104D01*
X00428648Y00379188D01*
X00427294Y00376843D01*
X00426593Y00374226D01*
Y00371518D01*
X00427294Y00368901D01*
X00428648Y00366556D01*
X00430564Y0036464D01*
X00432909Y00363286D01*
X00435526Y00362585D01*
X00438234D01*
X00440851Y00363286D01*
X00443196Y0036464D01*
X00445112Y00366556D01*
X00446466Y00368901D01*
X00447167Y00371518D01*
Y00374226D01*
X00446466Y00376843D01*
X00445112Y00379188D01*
X00443196Y00381104D01*
X00440851Y00382458D01*
X00438234Y00383159D01*
D02*
G37*
G36*
X00908812Y00341115D02*
Y00338582D01*
X00911346D01*
X00910933Y00339578D01*
X00909808Y00340703D01*
X00908812Y00341115D01*
D02*
G37*
G36*
X00906272D02*
X00905276Y00340703D01*
X00904151Y00339578D01*
X00903738Y00338582D01*
X00906272D01*
Y00341115D01*
D02*
G37*
G36*
X00438234Y00357759D02*
X00435526D01*
X00432909Y00357058D01*
X00430564Y00355704D01*
X00428648Y00353788D01*
X00427294Y00351443D01*
X00426593Y00348826D01*
Y00346118D01*
X00427294Y00343501D01*
X00428648Y00341156D01*
X00430564Y0033924D01*
X00432909Y00337886D01*
X00435526Y00337185D01*
X00438234D01*
X00440851Y00337886D01*
X00443196Y0033924D01*
X00445112Y00341156D01*
X00446466Y00343501D01*
X00447167Y00346118D01*
Y00348826D01*
X00446466Y00351443D01*
X00445112Y00353788D01*
X00443196Y00355704D01*
X00440851Y00357058D01*
X00438234Y00357759D01*
D02*
G37*
G36*
X00911346Y00336042D02*
X00908812D01*
Y00333508D01*
X00909808Y00333921D01*
X00910933Y00335046D01*
X00911346Y00336042D01*
D02*
G37*
G36*
X00906272D02*
X00903738D01*
X00904151Y00335046D01*
X00905276Y00333921D01*
X00906272Y00333508D01*
Y00336042D01*
D02*
G37*
G36*
X00729234Y00318764D02*
X00728238Y00318351D01*
X00727113Y00317226D01*
X00726701Y0031623D01*
X00729234D01*
Y00318764D01*
D02*
G37*
G36*
X00438234Y00332359D02*
X00435526D01*
X00432909Y00331658D01*
X00430564Y00330304D01*
X00428648Y00328388D01*
X00427294Y00326043D01*
X00426593Y00323426D01*
Y00320718D01*
X00427294Y00318101D01*
X00428648Y00315756D01*
X00430564Y0031384D01*
X00432909Y00312486D01*
X00435526Y00311785D01*
X00438234D01*
X00440851Y00312486D01*
X00443196Y0031384D01*
X00445112Y00315756D01*
X00446466Y00318101D01*
X00447167Y00320718D01*
Y00323426D01*
X00446466Y00326043D01*
X00445112Y00328388D01*
X00443196Y00330304D01*
X00440851Y00331658D01*
X00438234Y00332359D01*
D02*
G37*
G36*
X00729234Y0031369D02*
X00726701D01*
X00727113Y00312694D01*
X00728238Y00311569D01*
X00729234Y00311157D01*
Y0031369D01*
D02*
G37*
G36*
X00438234Y00306959D02*
X00435526D01*
X00432909Y00306258D01*
X00430564Y00304904D01*
X00428648Y00302988D01*
X00427294Y00300643D01*
X00426593Y00298026D01*
Y00295318D01*
X00427294Y00292701D01*
X00428648Y00290356D01*
X00430564Y0028844D01*
X00432909Y00287086D01*
X00435526Y00286385D01*
X00438234D01*
X00440851Y00287086D01*
X00443196Y0028844D01*
X00445112Y00290356D01*
X00446466Y00292701D01*
X00447167Y00295318D01*
Y00298026D01*
X00446466Y00300643D01*
X00445112Y00302988D01*
X00443196Y00304904D01*
X00440851Y00306258D01*
X00438234Y00306959D01*
D02*
G37*
G36*
Y00281559D02*
X00435526D01*
X00432909Y00280858D01*
X00430564Y00279504D01*
X00428648Y00277588D01*
X00427294Y00275243D01*
X00426593Y00272626D01*
Y00269918D01*
X00427294Y00267301D01*
X00428648Y00264956D01*
X00430564Y0026304D01*
X00432909Y00261686D01*
X00435526Y00260985D01*
X00438234D01*
X00440851Y00261686D01*
X00443196Y0026304D01*
X00445112Y00264956D01*
X00446466Y00267301D01*
X00447167Y00269918D01*
Y00272626D01*
X00446466Y00275243D01*
X00445112Y00277588D01*
X00443196Y00279504D01*
X00440851Y00280858D01*
X00438234Y00281559D01*
D02*
G37*
G36*
X0043815Y00254078D02*
Y00247142D01*
X00445086D01*
X00444572Y00249058D01*
X00443486Y00250941D01*
X00441949Y00252478D01*
X00440066Y00253564D01*
X0043815Y00254078D01*
D02*
G37*
G36*
X0043561D02*
X00433694Y00253564D01*
X00431811Y00252478D01*
X00430274Y00250941D01*
X00429188Y00249058D01*
X00428674Y00247142D01*
X0043561D01*
Y00254078D01*
D02*
G37*
G36*
X00445086Y00244602D02*
X0043815D01*
Y00237666D01*
X00440066Y0023818D01*
X00441949Y00239266D01*
X00443486Y00240803D01*
X00444572Y00242686D01*
X00445086Y00244602D01*
D02*
G37*
G36*
X0043561D02*
X00428674D01*
X00429188Y00242686D01*
X00430274Y00240803D01*
X00431811Y00239266D01*
X00433694Y0023818D01*
X0043561Y00237666D01*
Y00244602D01*
D02*
G37*
G36*
X00987782Y0024426D02*
X00985798D01*
X00983883Y00243747D01*
X00982165Y00242755D01*
X00980763Y00241353D01*
X00979771Y00239635D01*
X00979258Y0023772D01*
Y00235736D01*
X00979771Y00233821D01*
X00980763Y00232103D01*
X00982165Y00230701D01*
X00983883Y00229709D01*
X00985798Y00229196D01*
X00987782D01*
X00989697Y00229709D01*
X00991415Y00230701D01*
X00992817Y00232103D01*
X00993809Y00233821D01*
X00994322Y00235736D01*
Y0023772D01*
X00993809Y00239635D01*
X00992817Y00241353D01*
X00991415Y00242755D01*
X00989697Y00243747D01*
X00987782Y0024426D01*
D02*
G37*
G36*
X00712978Y00229102D02*
Y00226568D01*
X00715511D01*
X00715099Y00227564D01*
X00713974Y00228689D01*
X00712978Y00229102D01*
D02*
G37*
G36*
X00710438D02*
X00709442Y00228689D01*
X00708849Y00228095D01*
X00708851Y00228098D01*
Y00226568D01*
X00710438D01*
Y00229102D01*
D02*
G37*
G36*
X00692912Y0033147D02*
X0058674D01*
Y00225298D01*
X00692912D01*
Y0033147D01*
D02*
G37*
G36*
X00710438Y00224028D02*
X00708851D01*
Y00222498D01*
X00708849Y00222501D01*
X00708911Y00222439D01*
X00708908Y00222441D01*
X00710438D01*
Y00224028D01*
D02*
G37*
G36*
X00715511D02*
X00712978D01*
Y00222441D01*
X00714508D01*
X00714505Y00222439D01*
X00715099Y00223032D01*
X00715511Y00224028D01*
D02*
G37*
G36*
X00682562Y00209526D02*
Y00208026D01*
X00684062D01*
X00682562Y00209526D01*
D02*
G37*
G36*
X00680022Y0021056D02*
X00679026Y00210147D01*
X00677901Y00209022D01*
X00677488Y00208026D01*
X00680022D01*
Y0021056D01*
D02*
G37*
G36*
X00685096Y00205486D02*
X00682562D01*
Y00202952D01*
X00683558Y00203365D01*
X00684683Y0020449D01*
X00685096Y00205486D01*
D02*
G37*
G36*
X00680022D02*
X00677488D01*
X00677901Y0020449D01*
X00679026Y00203365D01*
X00680022Y00202952D01*
Y00205486D01*
D02*
G37*
G36*
X00737711Y00186317D02*
X00736211Y00184817D01*
X00737711D01*
Y00186317D01*
D02*
G37*
G36*
X00489204Y00132073D02*
Y0012954D01*
X00490791D01*
Y0013107D01*
X00490793Y00131067D01*
X004902Y00131661D01*
X00489204Y00132073D01*
D02*
G37*
G36*
X00486664D02*
X00485668Y00131661D01*
X00485075Y00131067D01*
X00485077Y0013107D01*
Y0012954D01*
X00486664D01*
Y00132073D01*
D02*
G37*
G36*
X00878571Y00121678D02*
X00876569D01*
X0087472Y00120912D01*
X00873304Y00119496D01*
X00872538Y00117647D01*
Y00115645D01*
X00872576Y00115554D01*
X00871623Y00114536D01*
X00869965D01*
X00869461Y00114327D01*
X00868489Y00115299D01*
X00868632Y00115645D01*
Y00117647D01*
X00867866Y00119496D01*
X0086645Y00120912D01*
X00864601Y00121678D01*
X00862599D01*
X0086075Y00120912D01*
X00859334Y00119496D01*
X00858568Y00117647D01*
Y00115645D01*
X00858733Y00115246D01*
X00857761Y00114275D01*
X00857743Y00114282D01*
X00855741D01*
X00853892Y00113516D01*
X00852476Y001121D01*
X0085171Y00110251D01*
Y00108249D01*
X00852476Y001064D01*
X00853892Y00104984D01*
X00855741Y00104218D01*
X0085743D01*
X00857952Y00103956D01*
X00858568Y00103185D01*
Y00101645D01*
X00858733Y00101247D01*
X00857761Y00100274D01*
X00857743Y00100282D01*
X00855741D01*
X00853892Y00099516D01*
X00852476Y000981D01*
X0085171Y00096251D01*
Y00094249D01*
X00852476Y000924D01*
X00853892Y00090984D01*
X00855741Y00090218D01*
X0085743D01*
X00857952Y00089956D01*
X00858568Y00089185D01*
Y00087645D01*
X00859334Y00085796D01*
X0086075Y0008438D01*
X00862599Y00083614D01*
X00864601D01*
X0086645Y0008438D01*
X00867866Y00085796D01*
X00868632Y00087645D01*
Y00089647D01*
X00868631Y0008965D01*
X00869603Y00090622D01*
X00869965Y00090472D01*
X00871505D01*
X00872276Y00089856D01*
X00872538Y00089334D01*
Y00087645D01*
X00873304Y00085796D01*
X0087472Y0008438D01*
X00876569Y00083614D01*
X00878571D01*
X0088042Y0008438D01*
X00881836Y00085796D01*
X00882602Y00087645D01*
Y00089647D01*
X00882601Y00089649D01*
X00883499Y00090547D01*
X00883681Y00090472D01*
X00885683D01*
X00887532Y00091238D01*
X00888948Y00092654D01*
X00889714Y00094503D01*
Y00096505D01*
X00888948Y00098354D01*
X00887532Y0009977D01*
X00885683Y00100536D01*
X00883681D01*
X00883483Y00100454D01*
X00882511Y00101426D01*
X00882602Y00101645D01*
Y00103647D01*
X00882601Y00103649D01*
X00883499Y00104547D01*
X00883681Y00104472D01*
X00885683D01*
X00887532Y00105238D01*
X00888948Y00106654D01*
X00889714Y00108503D01*
Y00110505D01*
X00888948Y00112354D01*
X00887532Y0011377D01*
X00885683Y00114536D01*
X00883681D01*
X00883483Y00114454D01*
X00882511Y00115426D01*
X00882602Y00115645D01*
Y00117647D01*
X00881836Y00119496D01*
X0088042Y00120912D01*
X00878571Y00121678D01*
D02*
G37*
G36*
X00513588Y00094735D02*
Y00092202D01*
X00515175D01*
Y00093732D01*
X00515177Y00093729D01*
X00514584Y00094323D01*
X00513588Y00094735D01*
D02*
G37*
G36*
X00511048D02*
X00510052Y00094323D01*
X00508927Y00093198D01*
X00508515Y00092202D01*
X00511048D01*
Y00094735D01*
D02*
G37*
G36*
X00515175Y00089662D02*
X00513588D01*
Y00087128D01*
X00514584Y00087541D01*
X00515177Y00088135D01*
X00515175Y00088132D01*
Y00089662D01*
D02*
G37*
G36*
X00511048D02*
X00508515D01*
X00508927Y00088666D01*
X00510052Y00087541D01*
X00511048Y00087128D01*
Y00089662D01*
D02*
G37*
G36*
X00405638Y00066333D02*
Y00061214D01*
X00410757D01*
X00410425Y00062453D01*
X00409569Y00063935D01*
X00408359Y00065145D01*
X00406877Y00066001D01*
X00405638Y00066333D01*
D02*
G37*
G36*
X00403098D02*
X00401859Y00066001D01*
X00400377Y00065145D01*
X00399167Y00063935D01*
X00398311Y00062453D01*
X00397979Y00061214D01*
X00403098D01*
Y00066333D01*
D02*
G37*
G36*
X00518472Y00067385D02*
Y0005876D01*
X00524515D01*
Y0006024D01*
X00524265Y00062133D01*
X00523535Y00063896D01*
X00522373Y00065411D01*
X00520858Y00066573D01*
X00519095Y00067303D01*
X00518472Y00067385D01*
D02*
G37*
G36*
X00515932D02*
X00515309Y00067303D01*
X00513546Y00066573D01*
X00512031Y00065411D01*
X00510869Y00063896D01*
X00510139Y00062133D01*
X00509889Y0006024D01*
Y0005876D01*
X00515932D01*
Y00067385D01*
D02*
G37*
G36*
X00443972D02*
Y0005876D01*
X00450015D01*
Y0006024D01*
X00449765Y00062133D01*
X00449035Y00063896D01*
X00447873Y00065411D01*
X00446358Y00066573D01*
X00444595Y00067303D01*
X00443972Y00067385D01*
D02*
G37*
G36*
X00441432D02*
X00440809Y00067303D01*
X00439046Y00066573D01*
X00437531Y00065411D01*
X00436369Y00063896D01*
X00435639Y00062133D01*
X0043539Y0006024D01*
Y0005876D01*
X00441432D01*
Y00067385D01*
D02*
G37*
G36*
X00403098Y00058674D02*
X00397979D01*
X00398311Y00057435D01*
X00399167Y00055953D01*
X00400377Y00054743D01*
X00401859Y00053887D01*
X00403098Y00053555D01*
Y00058674D01*
D02*
G37*
G36*
X003729Y00068476D02*
X00355836D01*
Y00051412D01*
X003729D01*
Y00068476D01*
D02*
G37*
G36*
X00515932Y0005622D02*
X00509889D01*
Y0005474D01*
X00510139Y00052847D01*
X00510646Y00051623D01*
X00509569Y00050903D01*
X00508369Y00052104D01*
X00506152Y00053022D01*
X00503752D01*
X00501535Y00052104D01*
X00499838Y00050407D01*
X0049892Y0004819D01*
Y0004579D01*
X00499838Y00043573D01*
X00501535Y00041876D01*
X00503752Y00040958D01*
X00506152D01*
X00508369Y00041876D01*
X00510066Y00043573D01*
X00510984Y0004579D01*
Y0004819D01*
X00510392Y0004962D01*
X00511501Y0005026D01*
X00512031Y00049569D01*
X00513546Y00048407D01*
X00515309Y00047677D01*
X00515932Y00047595D01*
Y0005622D01*
D02*
G37*
G36*
X00524515D02*
X00518472D01*
Y00047595D01*
X00519095Y00047677D01*
X00520858Y00048407D01*
X00522373Y00049569D01*
X00523535Y00051084D01*
X00524265Y00052847D01*
X00524515Y0005474D01*
Y0005622D01*
D02*
G37*
G36*
X00441432D02*
X0043539D01*
Y0005474D01*
X00435639Y00052847D01*
X00436369Y00051084D01*
X00437531Y00049569D01*
X00439046Y00048407D01*
X00440809Y00047677D01*
X00441432Y00047595D01*
Y0005622D01*
D02*
G37*
G36*
X00450015D02*
X00443972D01*
Y00047595D01*
X00444595Y00047677D01*
X00446358Y00048407D01*
X00447873Y00049569D01*
X00448403Y0005026D01*
X00449512Y0004962D01*
X0044892Y0004819D01*
Y0004579D01*
X00449838Y00043573D01*
X00451535Y00041876D01*
X00453752Y00040958D01*
X00456152D01*
X00458369Y00041876D01*
X00460066Y00043573D01*
X00460984Y0004579D01*
Y0004819D01*
X00460066Y00050407D01*
X00458369Y00052104D01*
X00456152Y00053022D01*
X00453752D01*
X00451535Y00052104D01*
X00450335Y00050903D01*
X00449258Y00051623D01*
X00449765Y00052847D01*
X00450015Y0005474D01*
Y0005622D01*
D02*
G37*
G36*
X0022598Y00032965D02*
X0022475D01*
Y0002667D01*
X00233377D01*
X00233287Y00027358D01*
X00232531Y00029182D01*
X00231329Y00030749D01*
X00229762Y00031951D01*
X00227938Y00032707D01*
X0022598Y00032965D01*
D02*
G37*
G36*
X0022221D02*
X0022098D01*
X00219022Y00032707D01*
X00217198Y00031951D01*
X00215631Y00030749D01*
X00214429Y00029182D01*
X00213673Y00027358D01*
X00213582Y0002667D01*
X0022221D01*
Y00032965D01*
D02*
G37*
G36*
X00405384Y00031789D02*
Y0002667D01*
X00410503D01*
X00410171Y00027909D01*
X00409315Y00029391D01*
X00408105Y00030601D01*
X00406623Y00031457D01*
X00405384Y00031789D01*
D02*
G37*
G36*
X00402844D02*
X00401605Y00031457D01*
X00400123Y00030601D01*
X00398913Y00029391D01*
X00398057Y00027909D01*
X00397725Y0002667D01*
X00402844D01*
Y00031789D01*
D02*
G37*
G36*
X00754134Y00024116D02*
X007516D01*
Y00021583D01*
X00752596Y00021995D01*
X00753721Y0002312D01*
X00754134Y00024116D01*
D02*
G37*
G36*
X0074906D02*
X00746526D01*
X00746939Y0002312D01*
X00748064Y00021995D01*
X0074906Y00021583D01*
Y00024116D01*
D02*
G37*
G36*
X00519972Y0002835D02*
Y0002076D01*
X00524565D01*
Y0002274D01*
X00524118Y00024983D01*
X00522848Y00026885D01*
X00520946Y00028156D01*
X00519972Y0002835D01*
D02*
G37*
G36*
X00517432D02*
X00516459Y00028156D01*
X00514557Y00026885D01*
X00513286Y00024983D01*
X00512839Y0002274D01*
Y0002076D01*
X00517432D01*
Y0002835D01*
D02*
G37*
G36*
X00442472D02*
Y0002076D01*
X00447065D01*
Y0002274D01*
X00446618Y00024983D01*
X00445348Y00026885D01*
X00443446Y00028156D01*
X00442472Y0002835D01*
D02*
G37*
G36*
X00439932D02*
X00438959Y00028156D01*
X00437057Y00026885D01*
X00435786Y00024983D01*
X00435339Y0002274D01*
Y0002076D01*
X00439932D01*
Y0002835D01*
D02*
G37*
G36*
X00410503Y0002413D02*
X00405384D01*
Y00019011D01*
X00406623Y00019343D01*
X00408105Y00020199D01*
X00409315Y00021409D01*
X00410171Y00022891D01*
X00410503Y0002413D01*
D02*
G37*
G36*
X00402844D02*
X00397725D01*
X00398057Y00022891D01*
X00398913Y00021409D01*
X00400123Y00020199D01*
X00401605Y00019343D01*
X00402844Y00019011D01*
Y0002413D01*
D02*
G37*
G36*
X00233377Y0002413D02*
X0022475D01*
Y00017835D01*
X0022598D01*
X00227938Y00018093D01*
X00229762Y00018849D01*
X00231329Y00020051D01*
X00232531Y00021618D01*
X00233287Y00023442D01*
X00233377Y0002413D01*
D02*
G37*
G36*
X0022221D02*
X00213582D01*
X00213673Y00023442D01*
X00214429Y00021618D01*
X00215631Y00020051D01*
X00217198Y00018849D01*
X00219022Y00018093D01*
X0022098Y00017835D01*
X0022221D01*
Y0002413D01*
D02*
G37*
G36*
X00372646Y00033932D02*
X00355582D01*
Y00016868D01*
X00372646D01*
Y00033932D01*
D02*
G37*
G36*
X00986028Y00013455D02*
Y00010922D01*
X00988561D01*
X00988149Y00011918D01*
X00987024Y00013043D01*
X00986028Y00013455D01*
D02*
G37*
G36*
X00983488D02*
X00982492Y00013043D01*
X00981367Y00011918D01*
X00980955Y00010922D01*
X00983488D01*
Y00013455D01*
D02*
G37*
G36*
X00524565Y0001822D02*
X00519972D01*
Y0001063D01*
X00520946Y00010824D01*
X00522848Y00012095D01*
X00524118Y00013996D01*
X00524565Y0001624D01*
Y0001822D01*
D02*
G37*
G36*
X00517432D02*
X00512839D01*
Y0001624D01*
X00513286Y00013996D01*
X00514557Y00012095D01*
X00516459Y00010824D01*
X00517432Y0001063D01*
Y0001822D01*
D02*
G37*
G36*
X00447065D02*
X00442472D01*
Y0001063D01*
X00443446Y00010824D01*
X00445348Y00012095D01*
X00446618Y00013996D01*
X00447065Y0001624D01*
Y0001822D01*
D02*
G37*
G36*
X00439932D02*
X00435339D01*
Y0001624D01*
X00435786Y00013996D01*
X00437057Y00012095D01*
X00438959Y00010824D01*
X00439932Y0001063D01*
Y0001822D01*
D02*
G37*
G36*
X00988561Y00008382D02*
X00986028D01*
Y00005849D01*
X00987024Y00006261D01*
X00988149Y00007386D01*
X00988561Y00008382D01*
D02*
G37*
G36*
X00983488D02*
X00980955D01*
X00981367Y00007386D01*
X00982492Y00006261D01*
X00983488Y00005849D01*
Y00008382D01*
D02*
G37*
G36*
X00501127Y00330842D02*
X00498617D01*
X00496193Y00330192D01*
X00494019Y00328937D01*
X00492244Y00327163D01*
X0049099Y00324989D01*
X0049034Y00322565D01*
Y00320055D01*
X0049099Y00317631D01*
X00492244Y00315457D01*
X00494019Y00313682D01*
X00496193Y00312428D01*
X00498617Y00311778D01*
X00501127D01*
X00503551Y00312428D01*
X00505725Y00313682D01*
X005075Y00315457D01*
X00508754Y00317631D01*
X00509404Y00320055D01*
Y00322565D01*
X00508754Y00324989D01*
X005075Y00327163D01*
X00505725Y00328937D01*
X00503551Y00330192D01*
X00501127Y00330842D01*
D02*
G37*
G36*
X00501142Y00303334D02*
Y0029718D01*
X00507296D01*
X00506861Y00298805D01*
X00505873Y00300515D01*
X00504477Y00301912D01*
X00502767Y00302899D01*
X00501142Y00303334D01*
D02*
G37*
G36*
X00498602D02*
X00496977Y00302899D01*
X00495267Y00301912D01*
X00493871Y00300515D01*
X00492883Y00298805D01*
X00492448Y0029718D01*
X00498602D01*
Y00303334D01*
D02*
G37*
G36*
X00507296Y0029464D02*
X00501142D01*
Y00288486D01*
X00502767Y00288921D01*
X00504477Y00289909D01*
X00505873Y00291305D01*
X00506861Y00293015D01*
X00507296Y0029464D01*
D02*
G37*
G36*
X00498602D02*
X00492448D01*
X00492883Y00293015D01*
X00493871Y00291305D01*
X00495267Y00289909D01*
X00496977Y00288921D01*
X00498602Y00288486D01*
Y0029464D01*
D02*
G37*
G36*
X00501127Y00280042D02*
X00498617D01*
X00496193Y00279392D01*
X00494019Y00278137D01*
X00492244Y00276363D01*
X0049099Y00274189D01*
X0049034Y00271765D01*
Y00269255D01*
X0049099Y00266831D01*
X00492244Y00264657D01*
X00494019Y00262882D01*
X00496193Y00261628D01*
X00498617Y00260978D01*
X00501127D01*
X00503551Y00261628D01*
X00505725Y00262882D01*
X005075Y00264657D01*
X00508754Y00266831D01*
X00509404Y00269255D01*
Y00271765D01*
X00508754Y00274189D01*
X005075Y00276363D01*
X00505725Y00278137D01*
X00503551Y00279392D01*
X00501127Y00280042D01*
D02*
G37*
G36*
X00475742Y00185413D02*
Y0018288D01*
X00478275D01*
X00477863Y00183876D01*
X00476738Y00185001D01*
X00475742Y00185413D01*
D02*
G37*
G36*
X00478275Y0018034D02*
X00475742D01*
Y00177806D01*
X00476738Y00178219D01*
X00477863Y00179344D01*
X00478275Y0018034D01*
D02*
G37*
G36*
X00473202D02*
X00470668D01*
X00471081Y00179344D01*
X00472206Y00178219D01*
X00473202Y00177806D01*
Y0018034D01*
D02*
G37*
G36*
X00127106Y00580233D02*
Y00570584D01*
X00135887D01*
X00135579Y00572924D01*
X00134571Y00575357D01*
X00132968Y00577446D01*
X00130879Y00579049D01*
X00128447Y00580057D01*
X00127106Y00580233D01*
D02*
G37*
G36*
X00124566Y00580233D02*
X00123225Y00580057D01*
X00120793Y00579049D01*
X00118704Y00577446D01*
X00117101Y00575357D01*
X00116093Y00572924D01*
X00115785Y00570584D01*
X00124566D01*
Y00580233D01*
D02*
G37*
G36*
X00135887Y00568044D02*
X00127106D01*
Y00561903D01*
X00133432D01*
X00132713Y00561799D01*
X00132069Y00561484D01*
X00131501Y00560961D01*
X00131009Y00560228D01*
X00130687Y005595D01*
X00130879Y00559579D01*
X00132968Y00561182D01*
X00134571Y00563271D01*
X00135579Y00565704D01*
X00135887Y00568044D01*
D02*
G37*
G36*
X00124566D02*
X00115785D01*
X00116093Y00565704D01*
X00117101Y00563271D01*
X00118704Y00561182D01*
X00120793Y00559579D01*
X00120985Y005595D01*
X00120663Y00560228D01*
X00120171Y00560961D01*
X00119603Y00561484D01*
X00118959Y00561799D01*
X0011824Y00561903D01*
X00124566D01*
Y00568044D01*
D02*
G37*
G36*
X00130687Y00463559D02*
X00131009Y0046283D01*
X00131501Y00462097D01*
X00132069Y00461574D01*
X00132713Y00461259D01*
X00133432Y00461155D01*
X00127106D01*
Y00455014D01*
X00135887D01*
X00135579Y00457355D01*
X00134571Y00459787D01*
X00132968Y00461876D01*
X00130879Y00463479D01*
X00130687Y00463559D01*
D02*
G37*
G36*
X00120985D02*
X00120793Y00463479D01*
X00118704Y00461876D01*
X00117101Y00459787D01*
X00116093Y00457355D01*
X00115785Y00455014D01*
X00124566D01*
Y00461155D01*
X0011824D01*
X00118959Y00461259D01*
X00119603Y00461574D01*
X00120171Y00462097D01*
X00120663Y0046283D01*
X00120985Y00463559D01*
D02*
G37*
G36*
X00135887Y00452474D02*
X00127106D01*
Y00446333D01*
X00133432D01*
X00132713Y00446229D01*
X00132069Y00445914D01*
X00131501Y00445391D01*
X00131009Y00444658D01*
X00130687Y00443929D01*
X00130879Y00444009D01*
X00132968Y00445612D01*
X00134571Y00447701D01*
X00135579Y00450134D01*
X00135887Y00452474D01*
D02*
G37*
G36*
X00124566D02*
X00115785D01*
X00116093Y00450134D01*
X00117101Y00447701D01*
X00118704Y00445612D01*
X00120793Y00444009D01*
X00120985Y00443929D01*
X00120663Y00444658D01*
X00120171Y00445391D01*
X00119603Y00445914D01*
X00118959Y00446229D01*
X0011824Y00446333D01*
X00124566D01*
Y00452474D01*
D02*
G37*
G36*
X00130687Y00350528D02*
X00131009Y003498D01*
X00131501Y00349067D01*
X00132069Y00348544D01*
X00132713Y00348229D01*
X00133432Y00348125D01*
X00127106D01*
Y00341984D01*
X00135887D01*
X00135579Y00344324D01*
X00134571Y00346757D01*
X00132968Y00348846D01*
X00130879Y00350449D01*
X00130687Y00350528D01*
D02*
G37*
G36*
X00120985D02*
X00120793Y00350449D01*
X00118704Y00348846D01*
X00117101Y00346757D01*
X00116093Y00344324D01*
X00115785Y00341984D01*
X00124566D01*
Y00348125D01*
X0011824D01*
X00118959Y00348229D01*
X00119603Y00348544D01*
X00120171Y00349067D01*
X00120663Y003498D01*
X00120985Y00350528D01*
D02*
G37*
G36*
X00135887Y00339444D02*
X00127106D01*
Y00333303D01*
X00133432D01*
X00132713Y00333199D01*
X00132069Y00332884D01*
X00131501Y00332361D01*
X00131009Y00331628D01*
X00130687Y003309D01*
X00130879Y00330979D01*
X00132968Y00332582D01*
X00134571Y00334671D01*
X00135579Y00337104D01*
X00135887Y00339444D01*
D02*
G37*
G36*
X00124566D02*
X00115785D01*
X00116093Y00337104D01*
X00117101Y00334671D01*
X00118704Y00332582D01*
X00120793Y00330979D01*
X00120985Y003309D01*
X00120663Y00331628D01*
X00120171Y00332361D01*
X00119603Y00332884D01*
X00118959Y00333199D01*
X0011824Y00333303D01*
X00124566D01*
Y00339444D01*
D02*
G37*
G36*
X00130687Y00238769D02*
X00131009Y0023804D01*
X00131501Y00237307D01*
X00132069Y00236784D01*
X00132713Y00236469D01*
X00133432Y00236365D01*
X00127106D01*
Y00230224D01*
X00135887D01*
X00135579Y00232565D01*
X00134571Y00234997D01*
X00132968Y00237086D01*
X00130879Y00238689D01*
X00130687Y00238769D01*
D02*
G37*
G36*
X00120985D02*
X00120793Y00238689D01*
X00118704Y00237086D01*
X00117101Y00234997D01*
X00116093Y00232565D01*
X00115785Y00230224D01*
X00124566D01*
Y00236365D01*
X0011824D01*
X00118959Y00236469D01*
X00119603Y00236784D01*
X00120171Y00237307D01*
X00120663Y0023804D01*
X00120985Y00238769D01*
D02*
G37*
G36*
X00135887Y00227684D02*
X00127106D01*
Y00221543D01*
X00133432D01*
X00132713Y00221439D01*
X00132069Y00221124D01*
X00131501Y00220601D01*
X00131009Y00219868D01*
X00130687Y00219139D01*
X00130879Y00219219D01*
X00132968Y00220822D01*
X00134571Y00222911D01*
X00135579Y00225343D01*
X00135887Y00227684D01*
D02*
G37*
G36*
X00124566D02*
X00115785D01*
X00116093Y00225343D01*
X00117101Y00222911D01*
X00118704Y00220822D01*
X00120793Y00219219D01*
X00120985Y00219139D01*
X00120663Y00219868D01*
X00120171Y00220601D01*
X00119603Y00221124D01*
X00118959Y00221439D01*
X0011824Y00221543D01*
X00124566D01*
Y00227684D01*
D02*
G37*
G36*
X00128016Y00091922D02*
X00121209Y00089313D01*
X00121255Y00089434D01*
X00120899Y00088817D01*
X00120636Y00087834D01*
X00120644Y00087856D01*
X00121302Y00086613D01*
X00128016D01*
Y00091922D01*
D02*
G37*
G36*
X00132403Y00093826D02*
X00132641Y00093695D01*
X00130556Y00092896D01*
Y00086613D01*
X00138263D01*
X00137673Y00088817D01*
X00136488Y0009087D01*
X00134812Y00092545D01*
X0013276Y0009373D01*
X00132403Y00093826D01*
D02*
G37*
G36*
X00025034Y00081103D02*
X00024856D01*
Y00071373D01*
X00031441D01*
Y00077803D01*
X00031449Y00077797D01*
X0003034Y00078906D01*
X00027832Y00080354D01*
X00025034Y00081103D01*
D02*
G37*
G36*
X00128016Y00084073D02*
X00122646D01*
X00126506Y00076784D01*
X00126301Y00076826D01*
X00128016Y00076366D01*
Y00084073D01*
D02*
G37*
G36*
X00138263D02*
X00130556D01*
Y00076366D01*
X0013276Y00076957D01*
X00134812Y00078142D01*
X00136488Y00079817D01*
X00137673Y00081869D01*
X00138263Y00084073D01*
D02*
G37*
G36*
X00022316Y00081103D02*
X00022138D01*
X0001934Y00080354D01*
X00016832Y00078906D01*
X00014784Y00076858D01*
X00013335Y00074349D01*
X00012586Y00071552D01*
Y00071373D01*
X00022316D01*
Y00081103D01*
D02*
G37*
G36*
X00031441Y00068833D02*
X00024856D01*
Y00059103D01*
X00025034D01*
X00027832Y00059853D01*
X0003034Y00061301D01*
X00031449Y0006241D01*
X00031441Y00062403D01*
Y00068833D01*
D02*
G37*
G36*
X00022316D02*
X00012586D01*
Y00068655D01*
X00013335Y00065858D01*
X00014784Y00063349D01*
X00016832Y00061301D01*
X0001934Y00059853D01*
X00022138Y00059103D01*
X00022316D01*
Y00068833D01*
D02*
G37*
%LPD*%
D10*
X00741546Y0017399D02*
X00752602Y00185046D01*
X00717042Y0017399D02*
X00741546D01*
X00646612D02*
X00717042D01*
X00752602Y00185046D02*
Y00236446D01*
X00755904Y00239748D01*
Y00240538D01*
X00640124Y00180478D02*
X00646612Y0017399D01*
X00570484Y00180478D02*
X00640124D01*
X00499872Y0024511D02*
X00564504Y00180478D01*
X00570484D01*
Y00010278D02*
Y00180478D01*
X00499872Y0024511D02*
X00531622Y0027686D01*
X00570484Y00010278D02*
X0057346Y00007302D01*
X00627126D01*
X00531622Y00349504D02*
X00531876Y0034925D01*
X00531622Y0027686D02*
Y00349504D01*
X0062757Y00007302D02*
X00735584D01*
X0058801Y00423672D02*
X00624713Y00386969D01*
X00586994Y0034925D02*
X00624713Y00386969D01*
X00531876Y0034925D02*
X00586994D01*
X00624713Y00386969D02*
X00632206Y00379476D01*
X00656336D01*
X00726948D02*
X00742696Y00363728D01*
X00656336Y00379476D02*
X00726948D01*
D12*
X00711708Y0021082D02*
Y00225298D01*
Y0021082D02*
X00738981Y00183547D01*
X00738981D01*
X00700024Y00054356D02*
Y00092202D01*
X0074803Y00140208D01*
X0075565Y00179832D02*
X00787654Y00211836D01*
X0075565Y00041402D02*
Y00179832D01*
X00750316Y00036068D02*
X0075565Y00041402D01*
X00787654Y00211836D02*
X00942848D01*
X00699834Y00225298D02*
X00711708D01*
X00681292Y00206756D02*
X00699834Y00225298D01*
X00942848Y00211836D02*
X00963422Y00191262D01*
Y00051308D02*
Y00191262D01*
X00533654Y00090932D02*
X00540258Y00097536D01*
X00512318Y00090932D02*
X00533654D01*
X00540258Y00097536D02*
Y00117856D01*
X00529844Y0012827D02*
X00540258Y00117856D01*
X00487934Y0012827D02*
X00529844D01*
X0047498Y0009906D02*
X00486918D01*
X00487934Y00100076D01*
X00466952Y00107088D02*
X0047498Y0009906D01*
X00738867Y00311173D02*
Y00318497D01*
X00746169Y00315297D02*
X00869696Y00438825D01*
X00729353Y0030166D02*
X00738867Y00311173D01*
Y00318497D02*
X00757174Y00336804D01*
X00729353Y00298077D02*
Y0030166D01*
Y00298077D02*
X00740918Y00286512D01*
X00757174Y00336804D02*
Y00356108D01*
X00428382Y00454152D02*
X00474581Y00407953D01*
X00561565D01*
X00394716Y00494284D02*
X00474115Y00414885D01*
X00573747D01*
X00561565Y00407953D02*
X0056261Y00406908D01*
X0045847Y00178054D02*
X00464566Y00171958D01*
Y00143002D02*
Y00171958D01*
Y00143002D02*
X00479298Y0012827D01*
X00487934D01*
X00705866Y00388366D02*
Y00395986D01*
X00739902Y00430022D01*
Y0044958D01*
X00760178Y00307042D02*
X00846582Y00393446D01*
X00878586D01*
X00394716Y00454152D02*
X00428382D01*
X00427645Y00444591D02*
X00471932Y00400304D01*
X00416905Y00444591D02*
X00427645D01*
X00573747Y00414885D02*
X0057404Y00414592D01*
X00394716Y00494284D02*
Y00570484D01*
X0024888Y000254D02*
Y00059436D01*
X00283424Y0009398D01*
X0039497Y00228092D02*
Y00244348D01*
X00394208Y00337058D02*
Y00421894D01*
X0039497Y00244348D02*
X00407924Y00257302D01*
X00394208Y00421894D02*
X00416905Y00444591D01*
X00471932Y00400304D02*
X0054991D01*
X00418846Y0043561D02*
X00429768D01*
X00474218Y0039116D01*
X00542036D01*
X00407924Y00424688D02*
X00418846Y0043561D01*
X00407924Y00257302D02*
Y00424688D01*
X00691929Y00046261D02*
X00700024Y00054356D01*
X00626905Y00046261D02*
X00691929D01*
X00877286Y00509494D02*
Y00551494D01*
X00845342Y00335788D02*
X00877286Y00303844D01*
X00774105Y00232664D02*
X00791718D01*
X00752348Y00252222D02*
X00753826D01*
X00758207Y0024784D01*
X00758929D01*
X00774105Y00232664D01*
X00384114Y000254D02*
X00426466Y00067752D01*
Y00156972D01*
X00465836Y00196342D01*
X00384368Y00129606D02*
X00459137Y00204375D01*
Y00354489D01*
X00334518Y0009398D02*
X00454406Y00213868D01*
Y00361442D01*
X00283424Y0009398D02*
X00334518D01*
X00465836Y00196342D02*
Y00346202D01*
X00384368Y00059944D02*
Y00129606D01*
X00465836Y00346202D02*
X00486156Y00366522D01*
X00573532D01*
X0056172Y00374968D02*
X00562292Y00374396D01*
X00459137Y00354489D02*
X00479616Y00374968D01*
X0056172D01*
X00562292Y00374396D02*
X00562864Y00374968D01*
X00475742Y00382778D02*
X00553974D01*
X00454406Y00361442D02*
X00475742Y00382778D01*
X00542036Y0039116D02*
X0054229Y00391414D01*
X00869696Y00438825D02*
Y00501904D01*
X00877286Y00509494D01*
X00758444Y00317246D02*
X00877286Y00436088D01*
Y00480374D01*
X0075925Y00307042D02*
X00760178D01*
X00764794Y00286512D02*
X00771652Y0029337D01*
X00740918Y00286512D02*
X00764794D01*
X00758444Y0029591D02*
X00798322Y00335788D01*
X00845342D01*
D26*
X00499872Y0027051D02*
D03*
Y0029591D02*
D03*
Y0032131D02*
D03*
D74*
X0043688Y00220472D02*
D03*
D75*
Y00245872D02*
D03*
Y00271272D02*
D03*
Y00296672D02*
D03*
Y00322072D02*
D03*
Y00347472D02*
D03*
Y00372872D02*
D03*
Y00398272D02*
D03*
D77*
X00044958Y00263652D02*
D03*
X00045212Y00492252D02*
D03*
X0098679Y00236728D02*
D03*
X00596646Y0059055D02*
D03*
D78*
X00404114Y000254D02*
D03*
X00384114D02*
D03*
X00404368Y00059944D02*
D03*
X00384368D02*
D03*
D79*
X00364114Y000254D02*
D03*
X00364368Y00059944D02*
D03*
D91*
X00326136Y00523494D02*
Y00581406D01*
X00332994Y00588264D02*
X00544576D01*
X00326136Y00581406D02*
X00332994Y00588264D01*
X00544576D02*
X00572516Y00560324D01*
X00409956Y00489458D02*
X0047498Y00424434D01*
X00578117D01*
X00023586Y00070103D02*
X00072898D01*
X00110235D01*
X00125836Y00085704D02*
Y00228954D01*
X00110235Y00070103D02*
X00125836Y00085704D01*
Y00228954D02*
Y00340714D01*
Y00453744D02*
Y00569314D01*
Y00340714D02*
Y00453744D01*
X00456692Y0013335D02*
Y0016764D01*
Y0013335D02*
X00472694Y00117348D01*
X00519938D01*
X00587937Y00423745D02*
X0058801Y00423672D01*
X00578806Y00423745D02*
X00587937D01*
X00578117Y00424434D02*
X00578806Y00423745D01*
X00441519Y00471834D02*
X00538233D01*
X00538389Y00471678D01*
X00635D01*
X00648716Y00485394D01*
X00715772D01*
D92*
X008636Y00116646D02*
D03*
X0087757D02*
D03*
X00870966Y00109504D02*
D03*
X008636Y00102646D02*
D03*
X00856742Y0010925D02*
D03*
Y0009525D02*
D03*
X00870966Y00095504D02*
D03*
X0087757Y00088646D02*
D03*
X008636D02*
D03*
X00884682Y00095504D02*
D03*
X0087757Y00102646D02*
D03*
X00884682Y00109504D02*
D03*
D93*
X00078486Y00108203D02*
D03*
X00129286Y00085343D02*
D03*
X00240836Y00569314D02*
D03*
Y00523314D02*
D03*
Y00453744D02*
D03*
Y00407744D02*
D03*
Y00340714D02*
D03*
Y00294714D02*
D03*
Y00228954D02*
D03*
Y00182954D02*
D03*
D94*
X00504952Y0004699D02*
D03*
X00454952D02*
D03*
X00738981Y00183547D02*
D03*
X0074803Y00140208D02*
D03*
X00717042Y0017399D02*
D03*
X00681292Y00206756D02*
D03*
X00512318Y00090932D02*
D03*
X00487934Y00100076D02*
D03*
X00466952Y00107088D02*
D03*
X00730504Y0031496D02*
D03*
X00746169Y00315297D02*
D03*
X00725678Y0047244D02*
D03*
X00865378Y0058674D02*
D03*
X00474472Y0018161D02*
D03*
X0073152Y00489966D02*
D03*
X00984758Y00009652D02*
D03*
X00907542Y00337312D02*
D03*
X0090932Y00429006D02*
D03*
X00909828Y00512318D02*
D03*
X0075033Y00025386D02*
D03*
X0056261Y00406908D02*
D03*
X00711708Y00225298D02*
D03*
X0045847Y00178054D02*
D03*
X00456692Y0016764D02*
D03*
X00487934Y0012827D02*
D03*
X00705866Y00388366D02*
D03*
X00739902Y0044958D02*
D03*
X00878586Y00393446D02*
D03*
X0057404Y00414592D02*
D03*
X00441519Y00471834D02*
D03*
X00519938Y00117348D02*
D03*
X0058801Y00423672D02*
D03*
X00394716Y00454152D02*
D03*
X0039497Y00228092D02*
D03*
X00394208Y00337058D02*
D03*
X00409956Y00489458D02*
D03*
X00715772Y00485394D02*
D03*
X00627126Y00007302D02*
D03*
X00735584D02*
D03*
X00877286Y00551494D02*
D03*
Y00303844D02*
D03*
X00757174Y00356108D02*
D03*
X00742696Y00363728D02*
D03*
X00755904Y00240538D02*
D03*
X00531622Y00349504D02*
D03*
X00656336Y00379476D02*
D03*
X00573532Y00366522D02*
D03*
X00562864Y00374968D02*
D03*
X00553974Y00382778D02*
D03*
X00626905Y00046261D02*
D03*
X00963422Y00051308D02*
D03*
X00750316Y00036068D02*
D03*
X0054229Y00391414D02*
D03*
X0054991Y00400304D02*
D03*
X00791718Y00232664D02*
D03*
X00752348Y00252222D02*
D03*
X00758444Y0029591D02*
D03*
X0075925Y00307042D02*
D03*
X00771652Y0029337D02*
D03*
X00758444Y00317246D02*
D03*
X00877286Y00480374D02*
D03*
X00326136Y00523494D02*
D03*
X00394716Y00570484D02*
D03*
X00572516Y00560324D02*
D03*
D95*
X00518702Y0001949D02*
D03*
X00441202D02*
D03*
D96*
X00517202Y0005749D02*
D03*
X00442702D02*
D03*
D97*
X00431546Y00520954D02*
D03*
D98*
X00482346Y00559054D02*
D03*
Y00495554D02*
D03*
D99*
X00125836Y00569314D02*
D03*
X00055836D02*
D03*
X00125836Y00453744D02*
D03*
X00055836D02*
D03*
X00125836Y00340714D02*
D03*
X00055836D02*
D03*
X00125836Y00228954D02*
D03*
X00055836D02*
D03*
D100*
X00023586Y00070103D02*
D03*
X00022316Y00527303D02*
D03*
Y00413003D02*
D03*
Y00301243D02*
D03*
X00023876Y00189738D02*
D03*
D101*
X00023586Y00108203D02*
D03*
X00022316Y00565403D02*
D03*
Y00451103D02*
D03*
Y00339343D02*
D03*
X00023876Y00227838D02*
D03*
D102*
X00499872Y0024511D02*
D03*
D103*
X0022348Y000254D02*
D03*
X0024888D02*
D03*
X0027428D02*
D03*
M02*
