G04*
G04 #@! TF.GenerationSoftware,Altium Limited,Altium Designer,23.6.0 (18)*
G04*
G04 Layer_Color=8421504*
%FSTAX44Y44*%
%MOMM*%
G71*
G04*
G04 #@! TF.SameCoordinates,7A204BF5-4CC6-4CC0-A9E4-A723DCFD74C1*
G04*
G04*
G04 #@! TF.FilePolarity,Positive*
G04*
G01*
G75*
%ADD20R,0.9000X0.9000*%
%ADD21R,0.9000X1.5000*%
%ADD22R,1.5000X0.9000*%
%ADD23R,2.2000X1.6000*%
%ADD24R,0.9000X0.5500*%
%ADD25R,1.2000X0.8500*%
%ADD26C,1.5000*%
%ADD27R,0.5500X0.9000*%
%ADD28R,1.6000X1.4000*%
%ADD29R,1.1000X1.2000*%
%ADD30R,1.6000X3.0000*%
%ADD31R,1.5500X2.1000*%
%ADD32R,3.0000X1.0000*%
%ADD33R,1.9000X3.8000*%
G04:AMPARAMS|DCode=34|XSize=1.21mm|YSize=0.59mm|CornerRadius=0.0738mm|HoleSize=0mm|Usage=FLASHONLY|Rotation=270.000|XOffset=0mm|YOffset=0mm|HoleType=Round|Shape=RoundedRectangle|*
%AMROUNDEDRECTD34*
21,1,1.2100,0.4425,0,0,270.0*
21,1,1.0625,0.5900,0,0,270.0*
1,1,0.1475,-0.2213,-0.5313*
1,1,0.1475,-0.2213,0.5313*
1,1,0.1475,0.2213,0.5313*
1,1,0.1475,0.2213,-0.5313*
%
%ADD34ROUNDEDRECTD34*%
%ADD35R,2.1500X3.2500*%
%ADD36R,2.1500X0.9000*%
%ADD37R,0.4500X1.3000*%
G04:AMPARAMS|DCode=38|XSize=1.49mm|YSize=0.28mm|CornerRadius=0.07mm|HoleSize=0mm|Usage=FLASHONLY|Rotation=270.000|XOffset=0mm|YOffset=0mm|HoleType=Round|Shape=RoundedRectangle|*
%AMROUNDEDRECTD38*
21,1,1.4900,0.1400,0,0,270.0*
21,1,1.3500,0.2800,0,0,270.0*
1,1,0.1400,-0.0700,-0.6750*
1,1,0.1400,-0.0700,0.6750*
1,1,0.1400,0.0700,0.6750*
1,1,0.1400,0.0700,-0.6750*
%
%ADD38ROUNDEDRECTD38*%
G04:AMPARAMS|DCode=39|XSize=1.49mm|YSize=0.28mm|CornerRadius=0.07mm|HoleSize=0mm|Usage=FLASHONLY|Rotation=180.000|XOffset=0mm|YOffset=0mm|HoleType=Round|Shape=RoundedRectangle|*
%AMROUNDEDRECTD39*
21,1,1.4900,0.1400,0,0,180.0*
21,1,1.3500,0.2800,0,0,180.0*
1,1,0.1400,-0.6750,0.0700*
1,1,0.1400,0.6750,0.0700*
1,1,0.1400,0.6750,-0.0700*
1,1,0.1400,-0.6750,-0.0700*
%
%ADD39ROUNDEDRECTD39*%
%ADD40R,1.7000X1.0000*%
%ADD41R,1.5240X3.5560*%
%ADD42R,2.1000X1.5500*%
%ADD43O,1.5000X0.6000*%
%ADD44R,1.6000X2.6000*%
%ADD45R,2.0000X0.9000*%
%ADD46O,0.9000X1.5500*%
D20*
X00856642Y00116586D02*
D03*
X00870642D02*
D03*
X00884642D02*
D03*
X00870642Y00102586D02*
D03*
X00856642D02*
D03*
Y00088586D02*
D03*
X00870642D02*
D03*
X00884642D02*
D03*
Y00102586D02*
D03*
D21*
X00823942Y00205486D02*
D03*
X00912842D02*
D03*
X00900142D02*
D03*
X00887442D02*
D03*
X00874742D02*
D03*
X00811242D02*
D03*
X00862042D02*
D03*
X00849342D02*
D03*
X00836642D02*
D03*
X00798542D02*
D03*
D22*
X00765642Y00190486D02*
D03*
Y00177786D02*
D03*
Y00165086D02*
D03*
Y00152386D02*
D03*
Y00139686D02*
D03*
Y00126986D02*
D03*
Y00114286D02*
D03*
Y00101586D02*
D03*
Y00088886D02*
D03*
Y00076186D02*
D03*
Y00063486D02*
D03*
Y00050786D02*
D03*
Y00038086D02*
D03*
Y00025386D02*
D03*
X00945642Y00190486D02*
D03*
Y00177786D02*
D03*
Y00165086D02*
D03*
Y00152386D02*
D03*
Y00139686D02*
D03*
Y00126986D02*
D03*
Y00114286D02*
D03*
Y00101586D02*
D03*
Y00088886D02*
D03*
Y00076186D02*
D03*
Y00063486D02*
D03*
Y00050786D02*
D03*
Y00038086D02*
D03*
Y00025386D02*
D03*
D23*
X00306898Y00183134D02*
D03*
X00395545D02*
D03*
X00306898Y00208534D02*
D03*
X00395545D02*
D03*
X00305943Y00524764D02*
D03*
X00305629Y00408178D02*
D03*
X00305816Y00295402D02*
D03*
X00394589Y00524764D02*
D03*
X00305943Y00550164D02*
D03*
X00394274Y00408178D02*
D03*
X00305629Y00433578D02*
D03*
X00394462Y00295402D02*
D03*
X00305816Y00320802D02*
D03*
X00394589Y00550164D02*
D03*
X00394274Y00433578D02*
D03*
X00394462Y00320802D02*
D03*
D24*
X00375666Y00589164D02*
D03*
Y00574664D02*
D03*
X0032512Y00364628D02*
D03*
Y00350128D02*
D03*
X00380746Y00350636D02*
D03*
Y00365136D02*
D03*
X00323342Y0023786D02*
D03*
Y0025236D02*
D03*
X00379476Y00253122D02*
D03*
Y00238622D02*
D03*
X0098425Y00023738D02*
D03*
Y00038238D02*
D03*
X009652Y00023992D02*
D03*
Y00038492D02*
D03*
X00725678Y00449464D02*
D03*
Y00434964D02*
D03*
X00707644D02*
D03*
Y00449464D02*
D03*
X00380492Y00463666D02*
D03*
Y00478166D02*
D03*
X00327152Y00480012D02*
D03*
Y00465512D02*
D03*
X00343154Y00589926D02*
D03*
Y00575426D02*
D03*
X00596138Y0047461D02*
D03*
Y0046011D02*
D03*
X0057658Y0047461D02*
D03*
Y0046011D02*
D03*
X00474472Y0015658D02*
D03*
Y0017108D02*
D03*
X00851662Y0027522D02*
D03*
Y0026072D02*
D03*
X00757174Y00329554D02*
D03*
Y00344054D02*
D03*
X0073279Y00329554D02*
D03*
Y00344054D02*
D03*
X00714756D02*
D03*
Y00329554D02*
D03*
X00566928Y0033565D02*
D03*
Y0035015D02*
D03*
X00548386Y0033565D02*
D03*
Y0035015D02*
D03*
X00559562Y00233404D02*
D03*
Y00247904D02*
D03*
X0054102Y00233404D02*
D03*
Y00247904D02*
D03*
X00559054Y00172604D02*
D03*
Y00158104D02*
D03*
X00736092Y00035698D02*
D03*
Y00021198D02*
D03*
X00717296Y0002069D02*
D03*
Y0003519D02*
D03*
X00626905Y00035052D02*
D03*
Y00020552D02*
D03*
X00608617Y00020436D02*
D03*
Y00034936D02*
D03*
X00693066Y00104002D02*
D03*
Y00118502D02*
D03*
X00710846Y00104002D02*
D03*
Y00118502D02*
D03*
X00730561Y00209688D02*
D03*
Y00195188D02*
D03*
X0074168Y00226176D02*
D03*
Y00240676D02*
D03*
X007239D02*
D03*
Y00226176D02*
D03*
X0076988Y00245226D02*
D03*
Y00259726D02*
D03*
X00889986Y00273734D02*
D03*
Y00288234D02*
D03*
Y00304214D02*
D03*
Y00318714D02*
D03*
X00891256Y00363904D02*
D03*
Y00378404D02*
D03*
X00891286Y00408316D02*
D03*
Y00393816D02*
D03*
X00889986Y00452804D02*
D03*
Y00467304D02*
D03*
Y00495244D02*
D03*
Y00480744D02*
D03*
Y00537894D02*
D03*
Y00552394D02*
D03*
Y00582874D02*
D03*
Y00568374D02*
D03*
X00694239Y00159374D02*
D03*
Y00173874D02*
D03*
X00606806Y00556144D02*
D03*
Y00541644D02*
D03*
X00587756Y00556144D02*
D03*
Y00541644D02*
D03*
X00625856Y00556144D02*
D03*
Y00541644D02*
D03*
D25*
X00325375Y00573024D02*
D03*
X00325321Y00591922D02*
D03*
X00300375Y00582524D02*
D03*
X00275536Y00489204D02*
D03*
X00300482Y00498602D02*
D03*
X00300536Y00479704D02*
D03*
X00301552Y00252374D02*
D03*
X00301498Y00271272D02*
D03*
X00276552Y00261874D02*
D03*
X00614734Y0005908D02*
D03*
X0061468Y00077978D02*
D03*
X00589734Y0006858D02*
D03*
X00275536Y00374396D02*
D03*
X00300482Y00383794D02*
D03*
X00300536Y00364896D02*
D03*
X0069576Y00068834D02*
D03*
X00670814Y00059436D02*
D03*
X0067076Y00078334D02*
D03*
D26*
X00261366Y00127762D02*
D03*
X0023622D02*
D03*
X00287274Y00127254D02*
D03*
X00547116Y00456184D02*
D03*
D27*
X00686424Y00492252D02*
D03*
X00700924D02*
D03*
X00613526Y00472948D02*
D03*
X00628026D02*
D03*
X00671714Y00492252D02*
D03*
X00657214D02*
D03*
X00613526Y00491744D02*
D03*
X00628026D02*
D03*
X00671946Y00472948D02*
D03*
X00686446D02*
D03*
X00701156D02*
D03*
X00715656D02*
D03*
X00784236Y00388366D02*
D03*
X00769736D02*
D03*
X00613526Y00510794D02*
D03*
X00628026D02*
D03*
X00661786Y00574294D02*
D03*
X00676286D02*
D03*
X00561478Y00428498D02*
D03*
X00546978D02*
D03*
X00841132Y00364744D02*
D03*
X00826632D02*
D03*
X00668898Y00360934D02*
D03*
X00683398D02*
D03*
X00668898Y0037973D02*
D03*
X00683398D02*
D03*
X00640356Y00196596D02*
D03*
X00625856D02*
D03*
X00656706Y0019685D02*
D03*
X00671206D02*
D03*
X0060669Y00196342D02*
D03*
X0059219D02*
D03*
X00633592Y00058928D02*
D03*
X00648092D02*
D03*
X00647838Y00077978D02*
D03*
X00633338D02*
D03*
X00821574Y00232918D02*
D03*
X00807074D02*
D03*
X00714386Y00201271D02*
D03*
X00699886D02*
D03*
X00656982Y00472948D02*
D03*
X00642482D02*
D03*
X00628026Y00527304D02*
D03*
X00613526D02*
D03*
D28*
X0053335Y00156648D02*
D03*
X0049535D02*
D03*
Y00179648D02*
D03*
X0053335D02*
D03*
X00794442Y0028344D02*
D03*
X00832442D02*
D03*
Y0026044D02*
D03*
X00794442D02*
D03*
D29*
X00746846Y00388366D02*
D03*
X00725846D02*
D03*
X00517738Y00418846D02*
D03*
X00496738D02*
D03*
X00861654Y00232918D02*
D03*
X00840654D02*
D03*
D30*
X00831596Y00422754D02*
D03*
Y00466754D02*
D03*
X00769366Y00468024D02*
D03*
Y00424024D02*
D03*
D31*
X0044704Y00096618D02*
D03*
Y00140618D02*
D03*
X00731266Y00554384D02*
D03*
Y00510384D02*
D03*
X00274066Y00568354D02*
D03*
Y00524354D02*
D03*
X00275336Y00452784D02*
D03*
Y00408784D02*
D03*
Y00339754D02*
D03*
Y00295754D02*
D03*
X00276606Y00227994D02*
D03*
Y00183994D02*
D03*
D32*
X00977926Y00319634D02*
D03*
Y00274634D02*
D03*
X00917926Y00319634D02*
D03*
Y00274634D02*
D03*
X00979196Y00408534D02*
D03*
Y00363534D02*
D03*
X00919196Y00408534D02*
D03*
Y00363534D02*
D03*
X00917926Y00450614D02*
D03*
Y00495614D02*
D03*
X00977926Y00450614D02*
D03*
Y00495614D02*
D03*
X00917926Y00538244D02*
D03*
Y00583244D02*
D03*
X00977926Y00538244D02*
D03*
Y00583244D02*
D03*
D33*
X00760996Y00547624D02*
D03*
X00856996D02*
D03*
D34*
X00497434Y00087272D02*
D03*
X00487934D02*
D03*
X00478434D02*
D03*
Y00112372D02*
D03*
X00487934D02*
D03*
X00497434D02*
D03*
D35*
X00622972Y00426394D02*
D03*
D36*
X00681572Y00449294D02*
D03*
Y00426394D02*
D03*
Y00403493D02*
D03*
D37*
X00486452Y0005749D02*
D03*
X00479952D02*
D03*
X00473452D02*
D03*
X00492952D02*
D03*
X00466952D02*
D03*
D38*
X00662326Y00335084D02*
D03*
X00657326D02*
D03*
X00652326D02*
D03*
X00647326D02*
D03*
X00677326Y00221684D02*
D03*
X00672326D02*
D03*
X00667326D02*
D03*
X00662326D02*
D03*
X00657326D02*
D03*
X00652326D02*
D03*
X00647326D02*
D03*
X00642326D02*
D03*
X00637326D02*
D03*
X00632326D02*
D03*
X00627326D02*
D03*
X00622326D02*
D03*
X00617326D02*
D03*
X00612326D02*
D03*
X00607326D02*
D03*
X00602326D02*
D03*
Y00335084D02*
D03*
X00607326D02*
D03*
X00612326D02*
D03*
X00617326D02*
D03*
X00622326D02*
D03*
X00627326D02*
D03*
X00632326D02*
D03*
X00637326D02*
D03*
X00642326D02*
D03*
X00667326D02*
D03*
X00672326D02*
D03*
X00677326D02*
D03*
D39*
X00583126Y00240884D02*
D03*
Y00245884D02*
D03*
Y00250884D02*
D03*
Y00255884D02*
D03*
Y00260884D02*
D03*
Y00265884D02*
D03*
Y00270884D02*
D03*
Y00275884D02*
D03*
Y00280884D02*
D03*
Y00285884D02*
D03*
Y00290884D02*
D03*
Y00295884D02*
D03*
Y00300884D02*
D03*
Y00305884D02*
D03*
Y00310884D02*
D03*
Y00315884D02*
D03*
X00696526D02*
D03*
Y00310884D02*
D03*
Y00305884D02*
D03*
Y00300884D02*
D03*
Y00295884D02*
D03*
Y00290884D02*
D03*
Y00285884D02*
D03*
Y00280884D02*
D03*
Y00275884D02*
D03*
Y00270884D02*
D03*
Y00265884D02*
D03*
Y00260884D02*
D03*
Y00255884D02*
D03*
Y00250884D02*
D03*
Y00245884D02*
D03*
Y00240884D02*
D03*
D40*
X00777744Y00344374D02*
D03*
X00840744D02*
D03*
Y00306374D02*
D03*
X00777744D02*
D03*
D41*
X0048275Y00456184D02*
D03*
X00524764D02*
D03*
D42*
X00591976Y00500634D02*
D03*
X00547976D02*
D03*
D43*
X00700346Y00515874D02*
D03*
Y00528574D02*
D03*
Y00541274D02*
D03*
Y00553974D02*
D03*
X00645346Y00515874D02*
D03*
Y00528574D02*
D03*
Y00541274D02*
D03*
Y00553974D02*
D03*
D44*
X00553466Y00578324D02*
D03*
Y00542324D02*
D03*
D45*
X00649084Y0001994D02*
D03*
X00695084D02*
D03*
X00649084Y0003594D02*
D03*
X00695084D02*
D03*
X00586151D02*
D03*
X00540151D02*
D03*
X00586151Y0001994D02*
D03*
X00540151D02*
D03*
D46*
X00582676Y00104434D02*
D03*
X00595376D02*
D03*
X00608076D02*
D03*
X00620776D02*
D03*
X00633476D02*
D03*
X00646176D02*
D03*
X00658876D02*
D03*
X00671576D02*
D03*
X00582676Y00172934D02*
D03*
X00595376D02*
D03*
X00608076D02*
D03*
X00620776D02*
D03*
X00633476D02*
D03*
X00646176D02*
D03*
X00658876D02*
D03*
X00671576D02*
D03*
M02*
